M48
METRIC,LZ,000.000
;FILE_FORMAT=3:3
;TYPE=PLATED
;Layer: PTH_Through
;EasyEDA v6.5.48, 2025-03-06 20:53:55
;c2aac520c91a4c19a6c498b25d38bc05,84066bfdb5964fb78f634a0d0c1972bb,10
;Gerber Generator version 0.2
;Holesize 1 = 0.301 mm
T01C0.301
;Holesize 2 = 0.501 mm
T02C0.501
;Holesize 3 = 0.701 mm
T03C0.701
;Holesize 4 = 0.800 mm
T04C0.800
;Holesize 5 = 1.000 mm
T05C1.000
%
G05
G90
T01
X056261Y037084
X058096Y002183
X001903Y038441
X041891Y002844
X038042Y026490
X039829Y003608
X003123Y002986
X002700Y031965
X058320Y038015
X024345Y004665
X057105Y005182
X029454Y009508
X028431Y018560
X025343Y017549
X022218Y025852
X016882Y017020
X051525Y003755
X014900Y024225
X004296Y015017
X033977Y038031
X050531Y031913
X053829Y038353
X005963Y013390
X030545Y016584
X041587Y007438
X042151Y004848
X057150Y032258
X038779Y033238
X039051Y026096
X041561Y034885
X024282Y018809
X024180Y020045
X024246Y021386
X024650Y022675
X027465Y028040
X034311Y015358
X045340Y031566
X030572Y006081
X044196Y008763
X012484Y030328
X032675Y027953
X055372Y023114
X005440Y023123
X012593Y036221
X031995Y013497
X002848Y036563
X003067Y016728
X041232Y025465
X041779Y027800
X029295Y036430
X040417Y027563
X007850Y028815
X009555Y037888
X010825Y027392
X015625Y005076
X011943Y004899
X013253Y011427
X032425Y015373
X029808Y007300
X057467Y008122
X024894Y014600
X010650Y019425
X011900Y019300
X015575Y029325
X016100Y028800
T02
X002524Y026844
X043307Y007874
X038653Y003474
X043874Y003483
X003216Y009865
X002707Y034079
T03
X024911Y030488
X023661Y030488
X022412Y030488
X021162Y030488
X019912Y030488
X018663Y030488
X017410Y030488
X016161Y030488
X055416Y012351
X055416Y013600
X055416Y014850
X055416Y016100
X055416Y017349
X055416Y018599
X055416Y019851
X055416Y021101
X019282Y011317
X020531Y011317
X021781Y011317
X023031Y011317
X024280Y011317
X025530Y011317
X026782Y011317
X028032Y011317
T04
X040025Y038000
X038025Y038000
X023825Y025100
X025823Y025098
X021250Y014825
X021251Y016823
T05
X047425Y037175G85X047425Y037175
X044925Y037175G85X044925Y037175
X043032Y031637
X043032Y029097
X043032Y026557
X043032Y024017
X043032Y021477
X043032Y018937
X043032Y016397
X043032Y013857
M30
