G04 Layer: TopSilkscreenLayer*
G04 EasyEDA v6.5.48, 2025-03-06 20:53:55*
G04 c2aac520c91a4c19a6c498b25d38bc05,84066bfdb5964fb78f634a0d0c1972bb,10*
G04 Gerber Generator version 0.2*
G04 Scale: 100 percent, Rotated: No, Reflected: No *
G04 Dimensions in millimeters *
G04 leading zeros omitted , absolute positions ,4 integer and 5 decimal *
%FSLAX45Y45*%
%MOMM*%

%ADD10C,0.1524*%
%ADD11C,0.2540*%
%ADD12C,0.3000*%

%LPD*%
D10*
X3385472Y3969349D02*
G01*
X3380138Y3979763D01*
X3369724Y3990177D01*
X3359564Y3995257D01*
X3338736Y3995257D01*
X3328322Y3990177D01*
X3317908Y3979763D01*
X3312574Y3969349D01*
X3307494Y3953855D01*
X3307494Y3927693D01*
X3312574Y3912199D01*
X3317908Y3901785D01*
X3328322Y3891371D01*
X3338736Y3886291D01*
X3359564Y3886291D01*
X3369724Y3891371D01*
X3380138Y3901785D01*
X3385472Y3912199D01*
X3424842Y3969349D02*
G01*
X3424842Y3974429D01*
X3430176Y3984843D01*
X3435256Y3990177D01*
X3445670Y3995257D01*
X3466498Y3995257D01*
X3476912Y3990177D01*
X3481992Y3984843D01*
X3487326Y3974429D01*
X3487326Y3964269D01*
X3481992Y3953855D01*
X3471578Y3938107D01*
X3419762Y3886291D01*
X3492406Y3886291D01*
X3589180Y3995257D02*
G01*
X3537110Y3995257D01*
X3532030Y3948521D01*
X3537110Y3953855D01*
X3552604Y3958935D01*
X3568352Y3958935D01*
X3583846Y3953855D01*
X3594260Y3943441D01*
X3599594Y3927693D01*
X3599594Y3917279D01*
X3594260Y3901785D01*
X3583846Y3891371D01*
X3568352Y3886291D01*
X3552604Y3886291D01*
X3537110Y3891371D01*
X3532030Y3896705D01*
X3526696Y3907119D01*
X300428Y1426933D02*
G01*
X295094Y1437347D01*
X284680Y1447761D01*
X274520Y1452841D01*
X253692Y1452841D01*
X243278Y1447761D01*
X232864Y1437347D01*
X227530Y1426933D01*
X222450Y1411185D01*
X222450Y1385277D01*
X227530Y1369783D01*
X232864Y1359369D01*
X243278Y1348955D01*
X253692Y1343875D01*
X274520Y1343875D01*
X284680Y1348955D01*
X295094Y1359369D01*
X300428Y1369783D01*
X334718Y1432013D02*
G01*
X345132Y1437347D01*
X360626Y1452841D01*
X360626Y1343875D01*
X457400Y1437347D02*
G01*
X452066Y1447761D01*
X436572Y1452841D01*
X426158Y1452841D01*
X410410Y1447761D01*
X400250Y1432013D01*
X394916Y1406105D01*
X394916Y1380197D01*
X400250Y1359369D01*
X410410Y1348955D01*
X426158Y1343875D01*
X431238Y1343875D01*
X446986Y1348955D01*
X457400Y1359369D01*
X462480Y1374863D01*
X462480Y1380197D01*
X457400Y1395691D01*
X446986Y1406105D01*
X431238Y1411185D01*
X426158Y1411185D01*
X410410Y1406105D01*
X400250Y1395691D01*
X394916Y1380197D01*
X5776226Y3418022D02*
G01*
X5770892Y3428438D01*
X5760478Y3438855D01*
X5750318Y3443930D01*
X5729490Y3443930D01*
X5719076Y3438855D01*
X5708662Y3428438D01*
X5703328Y3418022D01*
X5698248Y3402279D01*
X5698248Y3376371D01*
X5703328Y3360872D01*
X5708662Y3350463D01*
X5719076Y3340046D01*
X5729490Y3334964D01*
X5750318Y3334964D01*
X5760478Y3340046D01*
X5770892Y3350463D01*
X5776226Y3360872D01*
X5810516Y3423104D02*
G01*
X5820930Y3428438D01*
X5836424Y3443930D01*
X5836424Y3334964D01*
X5881128Y3443930D02*
G01*
X5938278Y3443930D01*
X5907036Y3402279D01*
X5922784Y3402279D01*
X5933198Y3397196D01*
X5938278Y3392114D01*
X5943358Y3376371D01*
X5943358Y3365954D01*
X5938278Y3350463D01*
X5927864Y3340046D01*
X5912370Y3334964D01*
X5896622Y3334964D01*
X5881128Y3340046D01*
X5876048Y3345129D01*
X5870714Y3355538D01*
X5781184Y3142101D02*
G01*
X5775850Y3152515D01*
X5765436Y3162929D01*
X5755276Y3168009D01*
X5734448Y3168009D01*
X5724034Y3162929D01*
X5713620Y3152515D01*
X5708286Y3142101D01*
X5703206Y3126353D01*
X5703206Y3100445D01*
X5708286Y3084951D01*
X5713620Y3074537D01*
X5724034Y3064123D01*
X5734448Y3059043D01*
X5755276Y3059043D01*
X5765436Y3064123D01*
X5775850Y3074537D01*
X5781184Y3084951D01*
X5815474Y3147181D02*
G01*
X5825888Y3152515D01*
X5841382Y3168009D01*
X5841382Y3059043D01*
X5927742Y3168009D02*
G01*
X5875672Y3095365D01*
X5953650Y3095365D01*
X5927742Y3168009D02*
G01*
X5927742Y3059043D01*
X5781906Y3591239D02*
G01*
X5776572Y3601653D01*
X5766158Y3612067D01*
X5755998Y3617147D01*
X5735170Y3617147D01*
X5724756Y3612067D01*
X5714342Y3601653D01*
X5709008Y3591239D01*
X5703928Y3575491D01*
X5703928Y3549583D01*
X5709008Y3534089D01*
X5714342Y3523675D01*
X5724756Y3513261D01*
X5735170Y3508181D01*
X5755998Y3508181D01*
X5766158Y3513261D01*
X5776572Y3523675D01*
X5781906Y3534089D01*
X5816196Y3596319D02*
G01*
X5826610Y3601653D01*
X5842104Y3617147D01*
X5842104Y3508181D01*
X5938878Y3617147D02*
G01*
X5886808Y3617147D01*
X5881728Y3570411D01*
X5886808Y3575491D01*
X5902302Y3580825D01*
X5918050Y3580825D01*
X5933544Y3575491D01*
X5943958Y3565331D01*
X5949038Y3549583D01*
X5949038Y3539169D01*
X5943958Y3523675D01*
X5933544Y3513261D01*
X5918050Y3508181D01*
X5902302Y3508181D01*
X5886808Y3513261D01*
X5881728Y3518341D01*
X5876394Y3528755D01*
X5044292Y3355690D02*
G01*
X5044292Y3277712D01*
X5049372Y3262218D01*
X5059786Y3251804D01*
X5075534Y3246724D01*
X5085948Y3246724D01*
X5101442Y3251804D01*
X5111856Y3262218D01*
X5116936Y3277712D01*
X5116936Y3355690D01*
X5213710Y3355690D02*
G01*
X5161640Y3355690D01*
X5156560Y3308954D01*
X5161640Y3314034D01*
X5177388Y3319368D01*
X5192882Y3319368D01*
X5208376Y3314034D01*
X5218790Y3303874D01*
X5224124Y3288126D01*
X5224124Y3277712D01*
X5218790Y3262218D01*
X5208376Y3251804D01*
X5192882Y3246724D01*
X5177388Y3246724D01*
X5161640Y3251804D01*
X5156560Y3256884D01*
X5151226Y3267298D01*
X3909542Y664024D02*
G01*
X3904208Y674438D01*
X3893794Y684852D01*
X3883634Y689932D01*
X3862806Y689932D01*
X3852392Y684852D01*
X3841978Y674438D01*
X3836644Y664024D01*
X3831564Y648276D01*
X3831564Y622368D01*
X3836644Y606874D01*
X3841978Y596460D01*
X3852392Y586046D01*
X3862806Y580966D01*
X3883634Y580966D01*
X3893794Y586046D01*
X3904208Y596460D01*
X3909542Y606874D01*
X3948912Y664024D02*
G01*
X3948912Y669104D01*
X3954246Y679518D01*
X3959326Y684852D01*
X3969740Y689932D01*
X3990568Y689932D01*
X4000982Y684852D01*
X4006062Y679518D01*
X4011396Y669104D01*
X4011396Y658690D01*
X4006062Y648276D01*
X3995648Y632782D01*
X3943832Y580966D01*
X4016476Y580966D01*
X4056100Y664024D02*
G01*
X4056100Y669104D01*
X4061180Y679518D01*
X4066514Y684852D01*
X4076674Y689932D01*
X4097502Y689932D01*
X4107916Y684852D01*
X4113250Y679518D01*
X4118330Y669104D01*
X4118330Y658690D01*
X4113250Y648276D01*
X4102836Y632782D01*
X4050766Y580966D01*
X4123664Y580966D01*
X4613384Y320758D02*
G01*
X4608050Y331172D01*
X4597636Y341586D01*
X4587476Y346666D01*
X4566648Y346666D01*
X4556234Y341586D01*
X4545820Y331172D01*
X4540486Y320758D01*
X4535406Y305010D01*
X4535406Y279102D01*
X4540486Y263608D01*
X4545820Y253194D01*
X4556234Y242780D01*
X4566648Y237700D01*
X4587476Y237700D01*
X4597636Y242780D01*
X4608050Y253194D01*
X4613384Y263608D01*
X4652754Y320758D02*
G01*
X4652754Y325838D01*
X4658088Y336252D01*
X4663168Y341586D01*
X4673582Y346666D01*
X4694410Y346666D01*
X4704824Y341586D01*
X4709904Y336252D01*
X4715238Y325838D01*
X4715238Y315424D01*
X4709904Y305010D01*
X4699490Y289516D01*
X4647674Y237700D01*
X4720318Y237700D01*
X4765022Y346666D02*
G01*
X4822172Y346666D01*
X4790930Y305010D01*
X4806678Y305010D01*
X4817092Y299930D01*
X4822172Y294850D01*
X4827506Y279102D01*
X4827506Y268688D01*
X4822172Y253194D01*
X4811758Y242780D01*
X4796264Y237700D01*
X4780516Y237700D01*
X4765022Y242780D01*
X4759942Y247860D01*
X4754608Y258274D01*
X4977655Y321510D02*
G01*
X4972321Y331924D01*
X4961907Y342338D01*
X4951747Y347418D01*
X4930919Y347418D01*
X4920505Y342338D01*
X4910091Y331924D01*
X4904757Y321510D01*
X4899677Y305762D01*
X4899677Y279854D01*
X4904757Y264360D01*
X4910091Y253946D01*
X4920505Y243532D01*
X4930919Y238452D01*
X4951747Y238452D01*
X4961907Y243532D01*
X4972321Y253946D01*
X4977655Y264360D01*
X5017025Y321510D02*
G01*
X5017025Y326590D01*
X5022359Y337004D01*
X5027439Y342338D01*
X5037853Y347418D01*
X5058681Y347418D01*
X5069095Y342338D01*
X5074175Y337004D01*
X5079509Y326590D01*
X5079509Y316176D01*
X5074175Y305762D01*
X5063761Y290268D01*
X5011945Y238452D01*
X5084589Y238452D01*
X5170949Y347418D02*
G01*
X5118879Y274774D01*
X5196857Y274774D01*
X5170949Y347418D02*
G01*
X5170949Y238452D01*
X5128900Y1113696D02*
G01*
X5128900Y1035718D01*
X5133980Y1020224D01*
X5144394Y1009810D01*
X5160142Y1004730D01*
X5170556Y1004730D01*
X5186050Y1009810D01*
X5196464Y1020224D01*
X5201544Y1035718D01*
X5201544Y1113696D01*
X5261996Y1113696D02*
G01*
X5246248Y1108616D01*
X5241168Y1098202D01*
X5241168Y1087788D01*
X5246248Y1077374D01*
X5256662Y1072040D01*
X5277490Y1066960D01*
X5292984Y1061880D01*
X5303398Y1051466D01*
X5308732Y1041052D01*
X5308732Y1025304D01*
X5303398Y1014890D01*
X5298318Y1009810D01*
X5282570Y1004730D01*
X5261996Y1004730D01*
X5246248Y1009810D01*
X5241168Y1014890D01*
X5235834Y1025304D01*
X5235834Y1041052D01*
X5241168Y1051466D01*
X5251582Y1061880D01*
X5267076Y1066960D01*
X5287904Y1072040D01*
X5298318Y1077374D01*
X5303398Y1087788D01*
X5303398Y1098202D01*
X5298318Y1108616D01*
X5282570Y1113696D01*
X5261996Y1113696D01*
X2345560Y357294D02*
G01*
X2345560Y248328D01*
X2418204Y357294D02*
G01*
X2418204Y248328D01*
X2345560Y305478D02*
G01*
X2418204Y305478D01*
X2514978Y341800D02*
G01*
X2509644Y352214D01*
X2494150Y357294D01*
X2483736Y357294D01*
X2468242Y352214D01*
X2457828Y336466D01*
X2452494Y310558D01*
X2452494Y284650D01*
X2457828Y263822D01*
X2468242Y253408D01*
X2483736Y248328D01*
X2489070Y248328D01*
X2504564Y253408D01*
X2514978Y263822D01*
X2520058Y279316D01*
X2520058Y284650D01*
X2514978Y300144D01*
X2504564Y310558D01*
X2489070Y315638D01*
X2483736Y315638D01*
X2468242Y310558D01*
X2457828Y300144D01*
X2452494Y284650D01*
X1566527Y3729634D02*
G01*
X1566527Y3620668D01*
X1639171Y3729634D02*
G01*
X1639171Y3620668D01*
X1566527Y3677818D02*
G01*
X1639171Y3677818D01*
X1683875Y3729634D02*
G01*
X1741025Y3729634D01*
X1709783Y3688232D01*
X1725277Y3688232D01*
X1735691Y3682898D01*
X1741025Y3677818D01*
X1746105Y3662070D01*
X1746105Y3651656D01*
X1741025Y3636162D01*
X1730611Y3625748D01*
X1715117Y3620668D01*
X1699369Y3620668D01*
X1683875Y3625748D01*
X1678541Y3631082D01*
X1673461Y3641496D01*
X3390021Y1440748D02*
G01*
X3390021Y1362770D01*
X3395101Y1347276D01*
X3405515Y1336862D01*
X3421263Y1331782D01*
X3431677Y1331782D01*
X3447171Y1336862D01*
X3457585Y1347276D01*
X3462665Y1362770D01*
X3462665Y1440748D01*
X3569853Y1440748D02*
G01*
X3517783Y1331782D01*
X3496955Y1440748D02*
G01*
X3569853Y1440748D01*
X1419753Y1252443D02*
G01*
X1419753Y1174465D01*
X1424833Y1158971D01*
X1435247Y1148557D01*
X1450995Y1143477D01*
X1461409Y1143477D01*
X1476903Y1148557D01*
X1487317Y1158971D01*
X1492397Y1174465D01*
X1492397Y1252443D01*
X1589171Y1236949D02*
G01*
X1583837Y1247363D01*
X1568343Y1252443D01*
X1557929Y1252443D01*
X1542435Y1247363D01*
X1532021Y1231615D01*
X1526687Y1205707D01*
X1526687Y1179799D01*
X1532021Y1158971D01*
X1542435Y1148557D01*
X1557929Y1143477D01*
X1563263Y1143477D01*
X1578757Y1148557D01*
X1589171Y1158971D01*
X1594251Y1174465D01*
X1594251Y1179799D01*
X1589171Y1195293D01*
X1578757Y1205707D01*
X1563263Y1210787D01*
X1557929Y1210787D01*
X1542435Y1205707D01*
X1532021Y1195293D01*
X1526687Y1179799D01*
X2700258Y3466416D02*
G01*
X2700258Y3388438D01*
X2705338Y3372944D01*
X2715752Y3362530D01*
X2731500Y3357450D01*
X2741914Y3357450D01*
X2757408Y3362530D01*
X2767822Y3372944D01*
X2772902Y3388438D01*
X2772902Y3466416D01*
X2859262Y3466416D02*
G01*
X2807192Y3393772D01*
X2885170Y3393772D01*
X2859262Y3466416D02*
G01*
X2859262Y3357450D01*
X1236134Y3820759D02*
G01*
X1236134Y3742781D01*
X1241214Y3727287D01*
X1251628Y3716873D01*
X1267376Y3711793D01*
X1277790Y3711793D01*
X1293284Y3716873D01*
X1303698Y3727287D01*
X1308778Y3742781D01*
X1308778Y3820759D01*
X1353482Y3820759D02*
G01*
X1410632Y3820759D01*
X1379644Y3779103D01*
X1395138Y3779103D01*
X1405552Y3774023D01*
X1410632Y3768943D01*
X1415966Y3753195D01*
X1415966Y3742781D01*
X1410632Y3727287D01*
X1400218Y3716873D01*
X1384724Y3711793D01*
X1369230Y3711793D01*
X1353482Y3716873D01*
X1348402Y3721953D01*
X1343068Y3732367D01*
X1755533Y2513550D02*
G01*
X1755533Y2435572D01*
X1760613Y2420078D01*
X1771027Y2409664D01*
X1786775Y2404584D01*
X1797189Y2404584D01*
X1812683Y2409664D01*
X1823097Y2420078D01*
X1828177Y2435572D01*
X1828177Y2513550D01*
X1867801Y2487642D02*
G01*
X1867801Y2492722D01*
X1872881Y2503136D01*
X1878215Y2508470D01*
X1888629Y2513550D01*
X1909203Y2513550D01*
X1919617Y2508470D01*
X1924951Y2503136D01*
X1930031Y2492722D01*
X1930031Y2482308D01*
X1924951Y2471894D01*
X1914537Y2456400D01*
X1862467Y2404584D01*
X1935365Y2404584D01*
X2804322Y2541668D02*
G01*
X2804322Y2463690D01*
X2809402Y2448196D01*
X2819816Y2437782D01*
X2835564Y2432702D01*
X2845978Y2432702D01*
X2861472Y2437782D01*
X2871886Y2448196D01*
X2876966Y2463690D01*
X2876966Y2541668D01*
X2911256Y2520840D02*
G01*
X2921670Y2526174D01*
X2937418Y2541668D01*
X2937418Y2432702D01*
X3955127Y1568716D02*
G01*
X3949793Y1579130D01*
X3939379Y1589544D01*
X3929219Y1594624D01*
X3908391Y1594624D01*
X3897977Y1589544D01*
X3887563Y1579130D01*
X3882229Y1568716D01*
X3877149Y1552968D01*
X3877149Y1527060D01*
X3882229Y1511566D01*
X3887563Y1501152D01*
X3897977Y1490738D01*
X3908391Y1485658D01*
X3929219Y1485658D01*
X3939379Y1490738D01*
X3949793Y1501152D01*
X3955127Y1511566D01*
X3994497Y1568716D02*
G01*
X3994497Y1573796D01*
X3999831Y1584210D01*
X4004911Y1589544D01*
X4015325Y1594624D01*
X4036153Y1594624D01*
X4046567Y1589544D01*
X4051647Y1584210D01*
X4056981Y1573796D01*
X4056981Y1563382D01*
X4051647Y1552968D01*
X4041233Y1537474D01*
X3989417Y1485658D01*
X4062061Y1485658D01*
X4096351Y1573796D02*
G01*
X4106765Y1579130D01*
X4122259Y1594624D01*
X4122259Y1485658D01*
X4192757Y940318D02*
G01*
X4187423Y950732D01*
X4177009Y961146D01*
X4166849Y966226D01*
X4146021Y966226D01*
X4135607Y961146D01*
X4125193Y950732D01*
X4119859Y940318D01*
X4114779Y924570D01*
X4114779Y898662D01*
X4119859Y883168D01*
X4125193Y872754D01*
X4135607Y862340D01*
X4146021Y857260D01*
X4166849Y857260D01*
X4177009Y862340D01*
X4187423Y872754D01*
X4192757Y883168D01*
X4232127Y940318D02*
G01*
X4232127Y945398D01*
X4237461Y955812D01*
X4242541Y961146D01*
X4252955Y966226D01*
X4273783Y966226D01*
X4284197Y961146D01*
X4289277Y955812D01*
X4294611Y945398D01*
X4294611Y934984D01*
X4289277Y924570D01*
X4278863Y909076D01*
X4227047Y857260D01*
X4299691Y857260D01*
X4365223Y966226D02*
G01*
X4349729Y961146D01*
X4339315Y945398D01*
X4333981Y919490D01*
X4333981Y903996D01*
X4339315Y877834D01*
X4349729Y862340D01*
X4365223Y857260D01*
X4375637Y857260D01*
X4391131Y862340D01*
X4401545Y877834D01*
X4406879Y903996D01*
X4406879Y919490D01*
X4401545Y945398D01*
X4391131Y961146D01*
X4375637Y966226D01*
X4365223Y966226D01*
X4297083Y1222601D02*
G01*
X4291749Y1233015D01*
X4281335Y1243429D01*
X4271175Y1248509D01*
X4250347Y1248509D01*
X4239933Y1243429D01*
X4229519Y1233015D01*
X4224185Y1222601D01*
X4219105Y1206853D01*
X4219105Y1180945D01*
X4224185Y1165451D01*
X4229519Y1155037D01*
X4239933Y1144623D01*
X4250347Y1139543D01*
X4271175Y1139543D01*
X4281335Y1144623D01*
X4291749Y1155037D01*
X4297083Y1165451D01*
X4331373Y1227681D02*
G01*
X4341787Y1233015D01*
X4357281Y1248509D01*
X4357281Y1139543D01*
X4459135Y1212187D02*
G01*
X4454055Y1196693D01*
X4443641Y1186279D01*
X4427893Y1180945D01*
X4422813Y1180945D01*
X4407065Y1186279D01*
X4396905Y1196693D01*
X4391571Y1212187D01*
X4391571Y1217267D01*
X4396905Y1233015D01*
X4407065Y1243429D01*
X4422813Y1248509D01*
X4427893Y1248509D01*
X4443641Y1243429D01*
X4454055Y1233015D01*
X4459135Y1212187D01*
X4459135Y1186279D01*
X4454055Y1160117D01*
X4443641Y1144623D01*
X4427893Y1139543D01*
X4417479Y1139543D01*
X4401985Y1144623D01*
X4396905Y1155037D01*
X246034Y783948D02*
G01*
X240700Y794362D01*
X230286Y804776D01*
X220126Y809856D01*
X199298Y809856D01*
X188884Y804776D01*
X178470Y794362D01*
X173136Y783948D01*
X168056Y768200D01*
X168056Y742292D01*
X173136Y726798D01*
X178470Y716384D01*
X188884Y705970D01*
X199298Y700890D01*
X220126Y700890D01*
X230286Y705970D01*
X240700Y716384D01*
X246034Y726798D01*
X280324Y789028D02*
G01*
X290738Y794362D01*
X306232Y809856D01*
X306232Y700890D01*
X366430Y809856D02*
G01*
X350936Y804776D01*
X345856Y794362D01*
X345856Y783948D01*
X350936Y773534D01*
X361350Y768200D01*
X382178Y763120D01*
X397672Y758040D01*
X408086Y747626D01*
X413166Y737212D01*
X413166Y721464D01*
X408086Y711050D01*
X403006Y705970D01*
X387258Y700890D01*
X366430Y700890D01*
X350936Y705970D01*
X345856Y711050D01*
X340522Y721464D01*
X340522Y737212D01*
X345856Y747626D01*
X356016Y758040D01*
X371764Y763120D01*
X392592Y768200D01*
X403006Y773534D01*
X408086Y783948D01*
X408086Y794362D01*
X403006Y804776D01*
X387258Y809856D01*
X366430Y809856D01*
X855207Y1023853D02*
G01*
X849873Y1034267D01*
X839459Y1044681D01*
X829299Y1049761D01*
X808471Y1049761D01*
X798057Y1044681D01*
X787643Y1034267D01*
X782309Y1023853D01*
X777229Y1008105D01*
X777229Y982197D01*
X782309Y966703D01*
X787643Y956289D01*
X798057Y945875D01*
X808471Y940795D01*
X829299Y940795D01*
X839459Y945875D01*
X849873Y956289D01*
X855207Y966703D01*
X889497Y1028933D02*
G01*
X899911Y1034267D01*
X915405Y1049761D01*
X915405Y940795D01*
X1022339Y1049761D02*
G01*
X970523Y940795D01*
X949695Y1049761D02*
G01*
X1022339Y1049761D01*
X3421453Y3594920D02*
G01*
X3416119Y3605334D01*
X3405705Y3615748D01*
X3395545Y3620828D01*
X3374717Y3620828D01*
X3364303Y3615748D01*
X3353889Y3605334D01*
X3348555Y3594920D01*
X3343475Y3579172D01*
X3343475Y3553264D01*
X3348555Y3537770D01*
X3353889Y3527356D01*
X3364303Y3516942D01*
X3374717Y3511862D01*
X3395545Y3511862D01*
X3405705Y3516942D01*
X3416119Y3527356D01*
X3421453Y3537770D01*
X3455743Y3600000D02*
G01*
X3466157Y3605334D01*
X3481651Y3620828D01*
X3481651Y3511862D01*
X3521275Y3594920D02*
G01*
X3521275Y3600000D01*
X3526355Y3610414D01*
X3531435Y3615748D01*
X3541849Y3620828D01*
X3562677Y3620828D01*
X3573091Y3615748D01*
X3578425Y3610414D01*
X3583505Y3600000D01*
X3583505Y3589586D01*
X3578425Y3579172D01*
X3568011Y3563678D01*
X3515941Y3511862D01*
X3588585Y3511862D01*
X3947812Y3064720D02*
G01*
X3942478Y3075134D01*
X3932064Y3085548D01*
X3921904Y3090628D01*
X3901076Y3090628D01*
X3890662Y3085548D01*
X3880248Y3075134D01*
X3874914Y3064720D01*
X3869834Y3048972D01*
X3869834Y3023064D01*
X3874914Y3007570D01*
X3880248Y2997156D01*
X3890662Y2986742D01*
X3901076Y2981662D01*
X3921904Y2981662D01*
X3932064Y2986742D01*
X3942478Y2997156D01*
X3947812Y3007570D01*
X3982102Y3069800D02*
G01*
X3992516Y3075134D01*
X4008010Y3090628D01*
X4008010Y2981662D01*
X4042300Y3069800D02*
G01*
X4052714Y3075134D01*
X4068208Y3090628D01*
X4068208Y2981662D01*
X4010444Y3339358D02*
G01*
X4005110Y3349772D01*
X3994696Y3360186D01*
X3984536Y3365266D01*
X3963708Y3365266D01*
X3953294Y3360186D01*
X3942880Y3349772D01*
X3937546Y3339358D01*
X3932466Y3323610D01*
X3932466Y3297702D01*
X3937546Y3282208D01*
X3942880Y3271794D01*
X3953294Y3261380D01*
X3963708Y3256300D01*
X3984536Y3256300D01*
X3994696Y3261380D01*
X4005110Y3271794D01*
X4010444Y3282208D01*
X4044734Y3344438D02*
G01*
X4055148Y3349772D01*
X4070642Y3365266D01*
X4070642Y3256300D01*
X4136174Y3365266D02*
G01*
X4120426Y3360186D01*
X4110266Y3344438D01*
X4104932Y3318530D01*
X4104932Y3303036D01*
X4110266Y3276874D01*
X4120426Y3261380D01*
X4136174Y3256300D01*
X4146588Y3256300D01*
X4162082Y3261380D01*
X4172496Y3276874D01*
X4177576Y3303036D01*
X4177576Y3318530D01*
X4172496Y3344438D01*
X4162082Y3360186D01*
X4146588Y3365266D01*
X4136174Y3365266D01*
X644812Y3505306D02*
G01*
X639478Y3515720D01*
X629064Y3526134D01*
X618904Y3531214D01*
X598076Y3531214D01*
X587662Y3526134D01*
X577248Y3515720D01*
X571914Y3505306D01*
X566834Y3489558D01*
X566834Y3463650D01*
X571914Y3448156D01*
X577248Y3437742D01*
X587662Y3427328D01*
X598076Y3422248D01*
X618904Y3422248D01*
X629064Y3427328D01*
X639478Y3437742D01*
X644812Y3448156D01*
X746666Y3494892D02*
G01*
X741332Y3479398D01*
X730918Y3468984D01*
X715424Y3463650D01*
X710344Y3463650D01*
X694596Y3468984D01*
X684182Y3479398D01*
X679102Y3494892D01*
X679102Y3499972D01*
X684182Y3515720D01*
X694596Y3526134D01*
X710344Y3531214D01*
X715424Y3531214D01*
X730918Y3526134D01*
X741332Y3515720D01*
X746666Y3494892D01*
X746666Y3468984D01*
X741332Y3442822D01*
X730918Y3427328D01*
X715424Y3422248D01*
X705010Y3422248D01*
X689516Y3427328D01*
X684182Y3437742D01*
X383814Y3827449D02*
G01*
X378480Y3837863D01*
X368066Y3848277D01*
X357906Y3853357D01*
X337078Y3853357D01*
X326664Y3848277D01*
X316250Y3837863D01*
X310916Y3827449D01*
X305836Y3811701D01*
X305836Y3785793D01*
X310916Y3770299D01*
X316250Y3759885D01*
X326664Y3749471D01*
X337078Y3744391D01*
X357906Y3744391D01*
X368066Y3749471D01*
X378480Y3759885D01*
X383814Y3770299D01*
X444012Y3853357D02*
G01*
X428518Y3848277D01*
X423184Y3837863D01*
X423184Y3827449D01*
X428518Y3817035D01*
X438932Y3811701D01*
X459506Y3806621D01*
X475254Y3801541D01*
X485668Y3791127D01*
X490748Y3780713D01*
X490748Y3764965D01*
X485668Y3754551D01*
X480334Y3749471D01*
X464840Y3744391D01*
X444012Y3744391D01*
X428518Y3749471D01*
X423184Y3754551D01*
X418104Y3764965D01*
X418104Y3780713D01*
X423184Y3791127D01*
X433598Y3801541D01*
X449346Y3806621D01*
X469920Y3811701D01*
X480334Y3817035D01*
X485668Y3827449D01*
X485668Y3837863D01*
X480334Y3848277D01*
X464840Y3853357D01*
X444012Y3853357D01*
X210891Y3265855D02*
G01*
X205557Y3276269D01*
X195143Y3286683D01*
X184983Y3291763D01*
X164155Y3291763D01*
X153741Y3286683D01*
X143327Y3276269D01*
X137993Y3265855D01*
X132913Y3250107D01*
X132913Y3224199D01*
X137993Y3208705D01*
X143327Y3198291D01*
X153741Y3187877D01*
X164155Y3182797D01*
X184983Y3182797D01*
X195143Y3187877D01*
X205557Y3198291D01*
X210891Y3208705D01*
X317825Y3291763D02*
G01*
X266009Y3182797D01*
X245181Y3291763D02*
G01*
X317825Y3291763D01*
X797318Y1840057D02*
G01*
X791984Y1850471D01*
X781570Y1860885D01*
X771410Y1865965D01*
X750582Y1865965D01*
X740168Y1860885D01*
X729754Y1850471D01*
X724420Y1840057D01*
X719340Y1824309D01*
X719340Y1798401D01*
X724420Y1782907D01*
X729754Y1772493D01*
X740168Y1762079D01*
X750582Y1756999D01*
X771410Y1756999D01*
X781570Y1762079D01*
X791984Y1772493D01*
X797318Y1782907D01*
X893838Y1850471D02*
G01*
X888758Y1860885D01*
X873010Y1865965D01*
X862850Y1865965D01*
X847102Y1860885D01*
X836688Y1845137D01*
X831608Y1819229D01*
X831608Y1793321D01*
X836688Y1772493D01*
X847102Y1762079D01*
X862850Y1756999D01*
X867930Y1756999D01*
X883424Y1762079D01*
X893838Y1772493D01*
X899172Y1787987D01*
X899172Y1793321D01*
X893838Y1808815D01*
X883424Y1819229D01*
X867930Y1824309D01*
X862850Y1824309D01*
X847102Y1819229D01*
X836688Y1808815D01*
X831608Y1793321D01*
X1350096Y2135725D02*
G01*
X1344762Y2146139D01*
X1334348Y2156553D01*
X1324188Y2161633D01*
X1303360Y2161633D01*
X1292946Y2156553D01*
X1282532Y2146139D01*
X1277198Y2135725D01*
X1272118Y2119977D01*
X1272118Y2094069D01*
X1277198Y2078575D01*
X1282532Y2068161D01*
X1292946Y2057747D01*
X1303360Y2052667D01*
X1324188Y2052667D01*
X1334348Y2057747D01*
X1344762Y2068161D01*
X1350096Y2078575D01*
X1446616Y2161633D02*
G01*
X1394800Y2161633D01*
X1389466Y2114897D01*
X1394800Y2119977D01*
X1410294Y2125311D01*
X1425788Y2125311D01*
X1441536Y2119977D01*
X1451950Y2109817D01*
X1457030Y2094069D01*
X1457030Y2083655D01*
X1451950Y2068161D01*
X1441536Y2057747D01*
X1425788Y2052667D01*
X1410294Y2052667D01*
X1394800Y2057747D01*
X1389466Y2062827D01*
X1384386Y2073241D01*
X716112Y2118873D02*
G01*
X710778Y2129287D01*
X700364Y2139701D01*
X690204Y2144781D01*
X669376Y2144781D01*
X658962Y2139701D01*
X648548Y2129287D01*
X643214Y2118873D01*
X638134Y2103125D01*
X638134Y2077217D01*
X643214Y2061723D01*
X648548Y2051309D01*
X658962Y2040895D01*
X669376Y2035815D01*
X690204Y2035815D01*
X700364Y2040895D01*
X710778Y2051309D01*
X716112Y2061723D01*
X802218Y2144781D02*
G01*
X750402Y2072137D01*
X828380Y2072137D01*
X802218Y2144781D02*
G01*
X802218Y2035815D01*
X3934150Y2435644D02*
G01*
X3928816Y2446058D01*
X3918402Y2456472D01*
X3908242Y2461552D01*
X3887414Y2461552D01*
X3877000Y2456472D01*
X3866586Y2446058D01*
X3861252Y2435644D01*
X3856172Y2419896D01*
X3856172Y2393988D01*
X3861252Y2378494D01*
X3866586Y2368080D01*
X3877000Y2357666D01*
X3887414Y2352586D01*
X3908242Y2352586D01*
X3918402Y2357666D01*
X3928816Y2368080D01*
X3934150Y2378494D01*
X3978854Y2461552D02*
G01*
X4036004Y2461552D01*
X4004762Y2419896D01*
X4020256Y2419896D01*
X4030670Y2414816D01*
X4036004Y2409736D01*
X4041084Y2393988D01*
X4041084Y2383574D01*
X4036004Y2368080D01*
X4025590Y2357666D01*
X4009842Y2352586D01*
X3994348Y2352586D01*
X3978854Y2357666D01*
X3973520Y2362746D01*
X3968440Y2373160D01*
X3996921Y2206063D02*
G01*
X3991587Y2216477D01*
X3981173Y2226891D01*
X3971013Y2231971D01*
X3950185Y2231971D01*
X3939771Y2226891D01*
X3929357Y2216477D01*
X3924023Y2206063D01*
X3918943Y2190315D01*
X3918943Y2164407D01*
X3924023Y2148913D01*
X3929357Y2138499D01*
X3939771Y2128085D01*
X3950185Y2123005D01*
X3971013Y2123005D01*
X3981173Y2128085D01*
X3991587Y2138499D01*
X3996921Y2148913D01*
X4036291Y2206063D02*
G01*
X4036291Y2211143D01*
X4041625Y2221557D01*
X4046705Y2226891D01*
X4057119Y2231971D01*
X4077947Y2231971D01*
X4088361Y2226891D01*
X4093441Y2221557D01*
X4098775Y2211143D01*
X4098775Y2200729D01*
X4093441Y2190315D01*
X4083027Y2174821D01*
X4031211Y2123005D01*
X4103855Y2123005D01*
X3863390Y2007941D02*
G01*
X3858056Y2018355D01*
X3847642Y2028769D01*
X3837482Y2033849D01*
X3816654Y2033849D01*
X3806240Y2028769D01*
X3795826Y2018355D01*
X3790492Y2007941D01*
X3785412Y1992193D01*
X3785412Y1966285D01*
X3790492Y1950791D01*
X3795826Y1940377D01*
X3806240Y1929963D01*
X3816654Y1924883D01*
X3837482Y1924883D01*
X3847642Y1929963D01*
X3858056Y1940377D01*
X3863390Y1950791D01*
X3897680Y2013021D02*
G01*
X3908094Y2018355D01*
X3923588Y2033849D01*
X3923588Y1924883D01*
X4832139Y2589232D02*
G01*
X4832139Y2480266D01*
X4905037Y2589232D02*
G01*
X4905037Y2480266D01*
X4832139Y2537416D02*
G01*
X4905037Y2537416D01*
X5001557Y2589232D02*
G01*
X4949487Y2589232D01*
X4944407Y2542496D01*
X4949487Y2547830D01*
X4965235Y2552910D01*
X4980729Y2552910D01*
X4996477Y2547830D01*
X5006637Y2537416D01*
X5011971Y2521922D01*
X5011971Y2511508D01*
X5006637Y2495760D01*
X4996477Y2485346D01*
X4980729Y2480266D01*
X4965235Y2480266D01*
X4949487Y2485346D01*
X4944407Y2490680D01*
X4939327Y2501094D01*
X5330997Y361279D02*
G01*
X5320583Y355945D01*
X5310169Y345531D01*
X5305089Y335117D01*
X5299755Y319623D01*
X5299755Y293715D01*
X5305089Y277967D01*
X5310169Y267553D01*
X5320583Y257393D01*
X5330997Y252059D01*
X5351825Y252059D01*
X5362239Y257393D01*
X5372653Y267553D01*
X5377733Y277967D01*
X5383067Y293715D01*
X5383067Y319623D01*
X5377733Y335117D01*
X5372653Y345531D01*
X5362239Y355945D01*
X5351825Y361279D01*
X5330997Y361279D01*
X5346491Y272887D02*
G01*
X5377733Y241645D01*
X5417357Y340451D02*
G01*
X5427771Y345531D01*
X5443265Y361279D01*
X5443265Y252059D01*
X5539785Y345531D02*
G01*
X5534705Y355945D01*
X5519211Y361279D01*
X5508797Y361279D01*
X5493049Y355945D01*
X5482635Y340451D01*
X5477555Y314543D01*
X5477555Y288381D01*
X5482635Y267553D01*
X5493049Y257393D01*
X5508797Y252059D01*
X5513877Y252059D01*
X5529371Y257393D01*
X5539785Y267553D01*
X5545119Y283301D01*
X5545119Y288381D01*
X5539785Y304129D01*
X5529371Y314543D01*
X5513877Y319623D01*
X5508797Y319623D01*
X5493049Y314543D01*
X5482635Y304129D01*
X5477555Y288381D01*
X3576520Y269328D02*
G01*
X3566106Y264248D01*
X3555692Y253834D01*
X3550358Y243420D01*
X3545278Y227926D01*
X3545278Y201764D01*
X3550358Y186270D01*
X3555692Y175856D01*
X3566106Y165442D01*
X3576520Y160362D01*
X3597094Y160362D01*
X3607508Y165442D01*
X3617922Y175856D01*
X3623256Y186270D01*
X3628336Y201764D01*
X3628336Y227926D01*
X3623256Y243420D01*
X3617922Y253834D01*
X3607508Y264248D01*
X3597094Y269328D01*
X3576520Y269328D01*
X3592014Y180936D02*
G01*
X3623256Y149948D01*
X3662626Y248500D02*
G01*
X3673040Y253834D01*
X3688534Y269328D01*
X3688534Y160362D01*
X3785308Y269328D02*
G01*
X3733238Y269328D01*
X3728158Y222592D01*
X3733238Y227926D01*
X3748986Y233006D01*
X3764480Y233006D01*
X3779974Y227926D01*
X3790388Y217512D01*
X3795722Y201764D01*
X3795722Y191350D01*
X3790388Y175856D01*
X3779974Y165442D01*
X3764480Y160362D01*
X3748986Y160362D01*
X3733238Y165442D01*
X3728158Y170776D01*
X3722824Y180936D01*
X3660198Y1756300D02*
G01*
X3649784Y1751220D01*
X3639370Y1740806D01*
X3634290Y1730392D01*
X3629210Y1714898D01*
X3629210Y1688736D01*
X3634290Y1673242D01*
X3639370Y1662828D01*
X3649784Y1652414D01*
X3660198Y1647334D01*
X3681026Y1647334D01*
X3691440Y1652414D01*
X3701854Y1662828D01*
X3706934Y1673242D01*
X3712268Y1688736D01*
X3712268Y1714898D01*
X3706934Y1730392D01*
X3701854Y1740806D01*
X3691440Y1751220D01*
X3681026Y1756300D01*
X3660198Y1756300D01*
X3675946Y1668162D02*
G01*
X3706934Y1636920D01*
X3746558Y1735472D02*
G01*
X3756972Y1740806D01*
X3772466Y1756300D01*
X3772466Y1647334D01*
X3858826Y1756300D02*
G01*
X3806756Y1683656D01*
X3884734Y1683656D01*
X3858826Y1756300D02*
G01*
X3858826Y1647334D01*
X2694124Y309204D02*
G01*
X2683710Y304124D01*
X2673296Y293710D01*
X2667962Y283296D01*
X2662882Y267802D01*
X2662882Y241640D01*
X2667962Y226146D01*
X2673296Y215732D01*
X2683710Y205318D01*
X2694124Y200238D01*
X2714952Y200238D01*
X2725112Y205318D01*
X2735526Y215732D01*
X2740860Y226146D01*
X2745940Y241640D01*
X2745940Y267802D01*
X2740860Y283296D01*
X2735526Y293710D01*
X2725112Y304124D01*
X2714952Y309204D01*
X2694124Y309204D01*
X2709618Y220812D02*
G01*
X2740860Y189824D01*
X2780230Y288376D02*
G01*
X2790644Y293710D01*
X2806392Y309204D01*
X2806392Y200238D01*
X2850842Y309204D02*
G01*
X2907992Y309204D01*
X2877004Y267802D01*
X2892498Y267802D01*
X2902912Y262468D01*
X2907992Y257388D01*
X2913326Y241640D01*
X2913326Y231226D01*
X2907992Y215732D01*
X2897832Y205318D01*
X2882084Y200238D01*
X2866590Y200238D01*
X2850842Y205318D01*
X2845762Y210652D01*
X2840682Y220812D01*
X442371Y397789D02*
G01*
X431957Y392455D01*
X421543Y382041D01*
X416463Y371627D01*
X411129Y356133D01*
X411129Y330225D01*
X416463Y314477D01*
X421543Y304063D01*
X431957Y293649D01*
X442371Y288569D01*
X463199Y288569D01*
X473613Y293649D01*
X484027Y304063D01*
X489107Y314477D01*
X494441Y330225D01*
X494441Y356133D01*
X489107Y371627D01*
X484027Y382041D01*
X473613Y392455D01*
X463199Y397789D01*
X442371Y397789D01*
X457865Y309397D02*
G01*
X489107Y278155D01*
X528731Y376961D02*
G01*
X538891Y382041D01*
X554639Y397789D01*
X554639Y288569D01*
X594009Y371627D02*
G01*
X594009Y376961D01*
X599343Y387375D01*
X604423Y392455D01*
X614837Y397789D01*
X635665Y397789D01*
X646079Y392455D01*
X651159Y387375D01*
X656493Y376961D01*
X656493Y366547D01*
X651159Y356133D01*
X640745Y340639D01*
X588929Y288569D01*
X661573Y288569D01*
X787991Y1578894D02*
G01*
X777577Y1573814D01*
X767163Y1563400D01*
X761829Y1552986D01*
X756749Y1537492D01*
X756749Y1511330D01*
X761829Y1495836D01*
X767163Y1485422D01*
X777577Y1475008D01*
X787991Y1469928D01*
X808819Y1469928D01*
X818979Y1475008D01*
X829393Y1485422D01*
X834727Y1495836D01*
X839807Y1511330D01*
X839807Y1537492D01*
X834727Y1552986D01*
X829393Y1563400D01*
X818979Y1573814D01*
X808819Y1578894D01*
X787991Y1578894D01*
X803485Y1490756D02*
G01*
X834727Y1459514D01*
X874097Y1558066D02*
G01*
X884511Y1563400D01*
X900259Y1578894D01*
X900259Y1469928D01*
X934549Y1558066D02*
G01*
X944709Y1563400D01*
X960457Y1578894D01*
X960457Y1469928D01*
X5090424Y3850634D02*
G01*
X5080010Y3845300D01*
X5069596Y3834886D01*
X5064516Y3824472D01*
X5059182Y3808978D01*
X5059182Y3783070D01*
X5064516Y3767322D01*
X5069596Y3756908D01*
X5080010Y3746494D01*
X5090424Y3741414D01*
X5111252Y3741414D01*
X5121666Y3746494D01*
X5132080Y3756908D01*
X5137160Y3767322D01*
X5142494Y3783070D01*
X5142494Y3808978D01*
X5137160Y3824472D01*
X5132080Y3834886D01*
X5121666Y3845300D01*
X5111252Y3850634D01*
X5090424Y3850634D01*
X5105918Y3762242D02*
G01*
X5137160Y3731000D01*
X5176784Y3829806D02*
G01*
X5186944Y3834886D01*
X5202692Y3850634D01*
X5202692Y3741414D01*
X5268224Y3850634D02*
G01*
X5252476Y3845300D01*
X5242062Y3829806D01*
X5236982Y3803644D01*
X5236982Y3788150D01*
X5242062Y3762242D01*
X5252476Y3746494D01*
X5268224Y3741414D01*
X5278384Y3741414D01*
X5294132Y3746494D01*
X5304546Y3762242D01*
X5309626Y3788150D01*
X5309626Y3803644D01*
X5304546Y3829806D01*
X5294132Y3845300D01*
X5278384Y3850634D01*
X5268224Y3850634D01*
X5370283Y2579103D02*
G01*
X5359869Y2573769D01*
X5349455Y2563609D01*
X5344121Y2553195D01*
X5339041Y2537447D01*
X5339041Y2511539D01*
X5344121Y2496045D01*
X5349455Y2485631D01*
X5359869Y2475217D01*
X5370283Y2469883D01*
X5390857Y2469883D01*
X5401271Y2475217D01*
X5411685Y2485631D01*
X5417019Y2496045D01*
X5422099Y2511539D01*
X5422099Y2537447D01*
X5417019Y2553195D01*
X5411685Y2563609D01*
X5401271Y2573769D01*
X5390857Y2579103D01*
X5370283Y2579103D01*
X5385777Y2490711D02*
G01*
X5417019Y2459469D01*
X5523953Y2542781D02*
G01*
X5518873Y2527033D01*
X5508459Y2516619D01*
X5492711Y2511539D01*
X5487631Y2511539D01*
X5472137Y2516619D01*
X5461723Y2527033D01*
X5456389Y2542781D01*
X5456389Y2547861D01*
X5461723Y2563609D01*
X5472137Y2573769D01*
X5487631Y2579103D01*
X5492711Y2579103D01*
X5508459Y2573769D01*
X5518873Y2563609D01*
X5523953Y2542781D01*
X5523953Y2516619D01*
X5518873Y2490711D01*
X5508459Y2475217D01*
X5492711Y2469883D01*
X5482297Y2469883D01*
X5466803Y2475217D01*
X5461723Y2485631D01*
X2805917Y3824003D02*
G01*
X2795503Y3818669D01*
X2785089Y3808509D01*
X2780009Y3798095D01*
X2774675Y3782347D01*
X2774675Y3756439D01*
X2780009Y3740945D01*
X2785089Y3730531D01*
X2795503Y3720117D01*
X2805917Y3714783D01*
X2826745Y3714783D01*
X2837159Y3720117D01*
X2847319Y3730531D01*
X2852653Y3740945D01*
X2857733Y3756439D01*
X2857733Y3782347D01*
X2852653Y3798095D01*
X2847319Y3808509D01*
X2837159Y3818669D01*
X2826745Y3824003D01*
X2805917Y3824003D01*
X2821411Y3735611D02*
G01*
X2852653Y3704369D01*
X2918185Y3824003D02*
G01*
X2902437Y3818669D01*
X2897357Y3808509D01*
X2897357Y3798095D01*
X2902437Y3787681D01*
X2912851Y3782347D01*
X2933679Y3777267D01*
X2949173Y3771933D01*
X2959587Y3761519D01*
X2964921Y3751359D01*
X2964921Y3735611D01*
X2959587Y3725197D01*
X2954507Y3720117D01*
X2938759Y3714783D01*
X2918185Y3714783D01*
X2902437Y3720117D01*
X2897357Y3725197D01*
X2892023Y3735611D01*
X2892023Y3751359D01*
X2897357Y3761519D01*
X2907771Y3771933D01*
X2923265Y3777267D01*
X2944093Y3782347D01*
X2954507Y3787681D01*
X2959587Y3798095D01*
X2959587Y3808509D01*
X2954507Y3818669D01*
X2938759Y3824003D01*
X2918185Y3824003D01*
X3799182Y2793918D02*
G01*
X3788768Y2788584D01*
X3778354Y2778170D01*
X3773020Y2767756D01*
X3767940Y2752262D01*
X3767940Y2726354D01*
X3773020Y2710606D01*
X3778354Y2700192D01*
X3788768Y2689778D01*
X3799182Y2684698D01*
X3820010Y2684698D01*
X3830170Y2689778D01*
X3840584Y2700192D01*
X3845918Y2710606D01*
X3850998Y2726354D01*
X3850998Y2752262D01*
X3845918Y2767756D01*
X3840584Y2778170D01*
X3830170Y2788584D01*
X3820010Y2793918D01*
X3799182Y2793918D01*
X3814676Y2705526D02*
G01*
X3845918Y2674284D01*
X3958186Y2793918D02*
G01*
X3906116Y2684698D01*
X3885288Y2793918D02*
G01*
X3958186Y2793918D01*
X155790Y2963948D02*
G01*
X145376Y2958868D01*
X134962Y2948454D01*
X129882Y2938040D01*
X124548Y2922546D01*
X124548Y2896384D01*
X129882Y2880890D01*
X134962Y2870476D01*
X145376Y2860062D01*
X155790Y2854982D01*
X176618Y2854982D01*
X187032Y2860062D01*
X197192Y2870476D01*
X202526Y2880890D01*
X207606Y2896384D01*
X207606Y2922546D01*
X202526Y2938040D01*
X197192Y2948454D01*
X187032Y2958868D01*
X176618Y2963948D01*
X155790Y2963948D01*
X171284Y2875556D02*
G01*
X202526Y2844568D01*
X304380Y2948454D02*
G01*
X299046Y2958868D01*
X283552Y2963948D01*
X273138Y2963948D01*
X257644Y2958868D01*
X247230Y2943120D01*
X241896Y2917212D01*
X241896Y2891304D01*
X247230Y2870476D01*
X257644Y2860062D01*
X273138Y2854982D01*
X278472Y2854982D01*
X293966Y2860062D01*
X304380Y2870476D01*
X309460Y2885970D01*
X309460Y2891304D01*
X304380Y2906798D01*
X293966Y2917212D01*
X278472Y2922546D01*
X273138Y2922546D01*
X257644Y2917212D01*
X247230Y2906798D01*
X241896Y2891304D01*
X905471Y3956055D02*
G01*
X895057Y3950721D01*
X884643Y3940307D01*
X879563Y3930147D01*
X874229Y3914399D01*
X874229Y3888491D01*
X879563Y3872997D01*
X884643Y3862583D01*
X895057Y3852169D01*
X905471Y3846835D01*
X926299Y3846835D01*
X936713Y3852169D01*
X946873Y3862583D01*
X952207Y3872997D01*
X957287Y3888491D01*
X957287Y3914399D01*
X952207Y3930147D01*
X946873Y3940307D01*
X936713Y3950721D01*
X926299Y3956055D01*
X905471Y3956055D01*
X920965Y3867663D02*
G01*
X952207Y3836421D01*
X1054061Y3956055D02*
G01*
X1001991Y3956055D01*
X996911Y3909319D01*
X1001991Y3914399D01*
X1017739Y3919733D01*
X1033233Y3919733D01*
X1048727Y3914399D01*
X1059141Y3903985D01*
X1064475Y3888491D01*
X1064475Y3878077D01*
X1059141Y3862583D01*
X1048727Y3852169D01*
X1033233Y3846835D01*
X1017739Y3846835D01*
X1001991Y3852169D01*
X996911Y3857249D01*
X991577Y3867663D01*
X1268796Y1442585D02*
G01*
X1258382Y1437505D01*
X1247968Y1427091D01*
X1242634Y1416677D01*
X1237554Y1400929D01*
X1237554Y1375021D01*
X1242634Y1359527D01*
X1247968Y1349113D01*
X1258382Y1338699D01*
X1268796Y1333365D01*
X1289370Y1333365D01*
X1299784Y1338699D01*
X1310198Y1349113D01*
X1315532Y1359527D01*
X1320612Y1375021D01*
X1320612Y1400929D01*
X1315532Y1416677D01*
X1310198Y1427091D01*
X1299784Y1437505D01*
X1289370Y1442585D01*
X1268796Y1442585D01*
X1284290Y1354193D02*
G01*
X1315532Y1323205D01*
X1406972Y1442585D02*
G01*
X1354902Y1369941D01*
X1432880Y1369941D01*
X1406972Y1442585D02*
G01*
X1406972Y1333365D01*
X810785Y2593385D02*
G01*
X800371Y2588305D01*
X789957Y2577891D01*
X784877Y2567477D01*
X779543Y2551729D01*
X779543Y2525821D01*
X784877Y2510327D01*
X789957Y2499913D01*
X800371Y2489499D01*
X810785Y2484165D01*
X831613Y2484165D01*
X842027Y2489499D01*
X852187Y2499913D01*
X857521Y2510327D01*
X862601Y2525821D01*
X862601Y2551729D01*
X857521Y2567477D01*
X852187Y2577891D01*
X842027Y2588305D01*
X831613Y2593385D01*
X810785Y2593385D01*
X826279Y2504993D02*
G01*
X857521Y2474005D01*
X907305Y2593385D02*
G01*
X964455Y2593385D01*
X933467Y2551729D01*
X948961Y2551729D01*
X959375Y2546649D01*
X964455Y2541315D01*
X969789Y2525821D01*
X969789Y2515407D01*
X964455Y2499913D01*
X954041Y2489499D01*
X938547Y2484165D01*
X923053Y2484165D01*
X907305Y2489499D01*
X902225Y2494579D01*
X896891Y2504993D01*
X2874627Y1413931D02*
G01*
X2869547Y1424091D01*
X2859133Y1434505D01*
X2848719Y1439839D01*
X2833225Y1444919D01*
X2807317Y1444919D01*
X2791569Y1439839D01*
X2781155Y1434505D01*
X2770741Y1424091D01*
X2765661Y1413931D01*
X2765661Y1393103D01*
X2770741Y1382689D01*
X2781155Y1372275D01*
X2791569Y1366941D01*
X2807317Y1361861D01*
X2833225Y1361861D01*
X2848719Y1366941D01*
X2859133Y1372275D01*
X2869547Y1382689D01*
X2874627Y1393103D01*
X2874627Y1413931D01*
X2786489Y1398183D02*
G01*
X2755247Y1366941D01*
X2848719Y1322491D02*
G01*
X2854053Y1322491D01*
X2864467Y1317157D01*
X2869547Y1312077D01*
X2874627Y1301663D01*
X2874627Y1280835D01*
X2869547Y1270421D01*
X2864467Y1265341D01*
X2854053Y1260007D01*
X2843639Y1260007D01*
X2833225Y1265341D01*
X2817477Y1275501D01*
X2765661Y1327571D01*
X2765661Y1254927D01*
X3028520Y2843334D02*
G01*
X3018106Y2838000D01*
X3007692Y2827586D01*
X3002612Y2817426D01*
X2997278Y2801678D01*
X2997278Y2775770D01*
X3002612Y2760276D01*
X3007692Y2749862D01*
X3018106Y2739448D01*
X3028520Y2734114D01*
X3049348Y2734114D01*
X3059762Y2739448D01*
X3070176Y2749862D01*
X3075256Y2760276D01*
X3080590Y2775770D01*
X3080590Y2801678D01*
X3075256Y2817426D01*
X3070176Y2827586D01*
X3059762Y2838000D01*
X3049348Y2843334D01*
X3028520Y2843334D01*
X3044014Y2754942D02*
G01*
X3075256Y2723700D01*
X3114880Y2822506D02*
G01*
X3125040Y2827586D01*
X3140788Y2843334D01*
X3140788Y2734114D01*
X4669137Y4086735D02*
G01*
X4596493Y4195701D01*
X4596493Y4086735D02*
G01*
X4669137Y4195701D01*
X4562203Y4107566D02*
G01*
X4551789Y4102229D01*
X4536041Y4086735D01*
X4536041Y4195701D01*
G36*
X3723081Y3965092D02*
G01*
X3713479Y3955338D01*
X3704488Y3945077D01*
X3696157Y3934256D01*
X3688435Y3922979D01*
X3681425Y3911244D01*
X3675126Y3899103D01*
X3669537Y3886606D01*
X3664762Y3873804D01*
X3662629Y3867302D01*
X3659022Y3854145D01*
X3656177Y3840784D01*
X3654145Y3827272D01*
X3652875Y3813657D01*
X3652469Y3799992D01*
X3652875Y3786327D01*
X3654145Y3772712D01*
X3656177Y3759200D01*
X3659022Y3745839D01*
X3662629Y3732682D01*
X3667048Y3719728D01*
X3672230Y3707079D01*
X3678174Y3694785D01*
X3684828Y3682847D01*
X3692194Y3671315D01*
X3700221Y3660241D01*
X3708908Y3649726D01*
X3718204Y3639667D01*
X3723081Y3634892D01*
G37*
D11*
X4054104Y3650005D02*
G01*
X3952504Y3650005D01*
X4002491Y3599992D02*
G01*
X4002491Y3701592D01*
X370349Y1270208D02*
G01*
X450352Y1270208D01*
X481332Y1159228D02*
G01*
X481332Y1239227D01*
X370349Y1128245D02*
G01*
X450352Y1128245D01*
X312760Y1270792D02*
G01*
X232765Y1270792D01*
X312760Y1128829D02*
G01*
X232765Y1128829D01*
X201782Y1159809D02*
G01*
X201782Y1239812D01*
X5538937Y3624470D02*
G01*
X5618944Y3624470D01*
X5649920Y3513490D02*
G01*
X5649920Y3593490D01*
X5538937Y3482507D02*
G01*
X5618944Y3482507D01*
X5481347Y3625054D02*
G01*
X5401355Y3625054D01*
X5481347Y3483091D02*
G01*
X5401355Y3483091D01*
X5370375Y3514072D02*
G01*
X5370375Y3594074D01*
X5625696Y2926621D02*
G01*
X5625696Y3006623D01*
X5736676Y3037603D02*
G01*
X5656676Y3037603D01*
X5767659Y2926621D02*
G01*
X5767659Y3006623D01*
X5625111Y2869031D02*
G01*
X5625111Y2789036D01*
X5767075Y2869031D02*
G01*
X5767075Y2789036D01*
X5736094Y2758053D02*
G01*
X5656092Y2758053D01*
X5478307Y3330473D02*
G01*
X5398305Y3330473D01*
X5367324Y3441453D02*
G01*
X5367324Y3361453D01*
X5478307Y3472436D02*
G01*
X5398305Y3472436D01*
X5535896Y3329889D02*
G01*
X5615891Y3329889D01*
X5535896Y3471852D02*
G01*
X5615891Y3471852D01*
X5646874Y3440871D02*
G01*
X5646874Y3360869D01*
X4925862Y2626545D02*
G01*
X4925862Y3166549D01*
X5245648Y2626545D02*
G01*
X5245648Y3166549D01*
X4925862Y2626545D02*
G01*
X5245648Y2626545D01*
X4928656Y3167565D02*
G01*
X5246055Y3167565D01*
X4096519Y547735D02*
G01*
X4176522Y547735D01*
X4207502Y436755D02*
G01*
X4207502Y516755D01*
X4096519Y405772D02*
G01*
X4176522Y405772D01*
X4038930Y548319D02*
G01*
X3958935Y548319D01*
X4038930Y406356D02*
G01*
X3958935Y406356D01*
X3927952Y437337D02*
G01*
X3927952Y517339D01*
X4733317Y583031D02*
G01*
X4813320Y583031D01*
X4844300Y472051D02*
G01*
X4844300Y552051D01*
X4733317Y441068D02*
G01*
X4813320Y441068D01*
X4675728Y583615D02*
G01*
X4595733Y583615D01*
X4675728Y441652D02*
G01*
X4595733Y441652D01*
X4564750Y472633D02*
G01*
X4564750Y552635D01*
X5100617Y566531D02*
G01*
X5180619Y566531D01*
X5211599Y455551D02*
G01*
X5211599Y535551D01*
X5100617Y424568D02*
G01*
X5180619Y424568D01*
X5043027Y567115D02*
G01*
X4963033Y567115D01*
X5043027Y425152D02*
G01*
X4963033Y425152D01*
X4932050Y456133D02*
G01*
X4932050Y536135D01*
X4531352Y1214879D02*
G01*
X5071356Y1214879D01*
X4531352Y895093D02*
G01*
X5071356Y895093D01*
X4531352Y1214879D02*
G01*
X4531352Y895093D01*
X5072372Y1212085D02*
G01*
X5072372Y894687D01*
X2140196Y424378D02*
G01*
X2737596Y424378D01*
X2737594Y899378D02*
G01*
X2150094Y899378D01*
X2737596Y896279D02*
G01*
X2737596Y424378D01*
X2140219Y896231D02*
G01*
X2140219Y424378D01*
X2428468Y3778171D02*
G01*
X1831068Y3778171D01*
X1831070Y3303170D02*
G01*
X2418570Y3303170D01*
X1831068Y3306269D02*
G01*
X1831068Y3778171D01*
X2428445Y3306318D02*
G01*
X2428445Y3778171D01*
X3334677Y751453D02*
G01*
X3334677Y1291457D01*
X3654463Y751453D02*
G01*
X3654463Y1291457D01*
X3334677Y751453D02*
G01*
X3654463Y751453D01*
X3337471Y1292473D02*
G01*
X3654869Y1292473D01*
X1647187Y1079901D02*
G01*
X1647187Y539897D01*
X1327401Y1079901D02*
G01*
X1327401Y539897D01*
X1647187Y1079901D02*
G01*
X1327401Y1079901D01*
X1644393Y538881D02*
G01*
X1326995Y538881D01*
X2981276Y2905648D02*
G01*
X2981276Y3445652D01*
X3301062Y2905648D02*
G01*
X3301062Y3445652D01*
X2981276Y2905648D02*
G01*
X3301062Y2905648D01*
X2984070Y3446668D02*
G01*
X3301469Y3446668D01*
X1333987Y3615095D02*
G01*
X1333987Y3075091D01*
X1014201Y3615095D02*
G01*
X1014201Y3075091D01*
X1333987Y3615095D02*
G01*
X1014201Y3615095D01*
X1331193Y3074075D02*
G01*
X1013795Y3074075D01*
X1985484Y2302898D02*
G01*
X1985484Y1762894D01*
X1665698Y2302898D02*
G01*
X1665698Y1762894D01*
X1985484Y2302898D02*
G01*
X1665698Y2302898D01*
X1982690Y1761878D02*
G01*
X1665292Y1761878D01*
X2793177Y1859450D02*
G01*
X2793177Y2399454D01*
X3112963Y1859450D02*
G01*
X3112963Y2399454D01*
X2793177Y1859450D02*
G01*
X3112963Y1859450D01*
X2795971Y2400470D02*
G01*
X3113369Y2400470D01*
X4004274Y1337073D02*
G01*
X4004274Y1417076D01*
X4115254Y1448056D02*
G01*
X4035254Y1448056D01*
X4146237Y1337073D02*
G01*
X4146237Y1417076D01*
X4003690Y1279484D02*
G01*
X4003690Y1199489D01*
X4145653Y1279484D02*
G01*
X4145653Y1199489D01*
X4114672Y1168506D02*
G01*
X4034670Y1168506D01*
X3942676Y992474D02*
G01*
X3942676Y1072476D01*
X4053657Y1103457D02*
G01*
X3973657Y1103457D01*
X4084640Y992474D02*
G01*
X4084640Y1072476D01*
X3942092Y934885D02*
G01*
X3942092Y854890D01*
X4084055Y934885D02*
G01*
X4084055Y854890D01*
X4053075Y823907D02*
G01*
X3973073Y823907D01*
X4208007Y986409D02*
G01*
X4128005Y986409D01*
X4097025Y1097389D02*
G01*
X4097025Y1017389D01*
X4208007Y1128372D02*
G01*
X4128005Y1128372D01*
X4265597Y985824D02*
G01*
X4345592Y985824D01*
X4265597Y1127787D02*
G01*
X4345592Y1127787D01*
X4376574Y1096807D02*
G01*
X4376574Y1016805D01*
X575914Y688510D02*
G01*
X495912Y688510D01*
X464931Y799490D02*
G01*
X464931Y719490D01*
X575914Y830473D02*
G01*
X495912Y830473D01*
X633503Y687925D02*
G01*
X713498Y687925D01*
X633503Y829889D02*
G01*
X713498Y829889D01*
X744481Y798908D02*
G01*
X744481Y718906D01*
X727580Y1027440D02*
G01*
X727580Y947437D01*
X616600Y916457D02*
G01*
X696600Y916457D01*
X585617Y1027440D02*
G01*
X585617Y947437D01*
X728164Y1085029D02*
G01*
X728164Y1165024D01*
X586201Y1085029D02*
G01*
X586201Y1165024D01*
X617181Y1196007D02*
G01*
X697184Y1196007D01*
X3606380Y3384339D02*
G01*
X3606380Y3464341D01*
X3717361Y3495321D02*
G01*
X3637361Y3495321D01*
X3748344Y3384339D02*
G01*
X3748344Y3464341D01*
X3605796Y3326749D02*
G01*
X3605796Y3246754D01*
X3747759Y3326749D02*
G01*
X3747759Y3246754D01*
X3716779Y3215772D02*
G01*
X3636777Y3215772D01*
X3670475Y3078772D02*
G01*
X3670475Y3158774D01*
X3781455Y3189754D02*
G01*
X3701455Y3189754D01*
X3812438Y3078772D02*
G01*
X3812438Y3158774D01*
X3669891Y3021182D02*
G01*
X3669891Y2941187D01*
X3811854Y3021182D02*
G01*
X3811854Y2941187D01*
X3780873Y2910204D02*
G01*
X3700871Y2910204D01*
X3955742Y3539352D02*
G01*
X4035745Y3539352D01*
X4066725Y3428372D02*
G01*
X4066725Y3508372D01*
X3955742Y3397389D02*
G01*
X4035745Y3397389D01*
X3898153Y3539937D02*
G01*
X3818158Y3539937D01*
X3898153Y3397973D02*
G01*
X3818158Y3397973D01*
X3787175Y3428954D02*
G01*
X3787175Y3508956D01*
X673580Y3196937D02*
G01*
X673580Y3116935D01*
X562599Y3085955D02*
G01*
X642599Y3085955D01*
X531616Y3196937D02*
G01*
X531616Y3116935D01*
X674164Y3254527D02*
G01*
X674164Y3334522D01*
X532201Y3254527D02*
G01*
X532201Y3334522D01*
X563181Y3365505D02*
G01*
X643183Y3365505D01*
X505480Y3544036D02*
G01*
X505480Y3464034D01*
X394500Y3433053D02*
G01*
X474499Y3433053D01*
X363517Y3544036D02*
G01*
X363517Y3464034D01*
X506064Y3601626D02*
G01*
X506064Y3681620D01*
X364101Y3601626D02*
G01*
X364101Y3681620D01*
X395081Y3712603D02*
G01*
X475084Y3712603D01*
X344982Y3281669D02*
G01*
X344982Y3361672D01*
X455963Y3392652D02*
G01*
X375963Y3392652D01*
X486945Y3281669D02*
G01*
X486945Y3361672D01*
X344398Y3224080D02*
G01*
X344398Y3144085D01*
X486361Y3224080D02*
G01*
X486361Y3144085D01*
X455381Y3113102D02*
G01*
X375378Y3113102D01*
X1081618Y1758975D02*
G01*
X1001615Y1758975D01*
X970635Y1869955D02*
G01*
X970635Y1789955D01*
X1081618Y1900938D02*
G01*
X1001615Y1900938D01*
X1139207Y1758391D02*
G01*
X1219202Y1758391D01*
X1139207Y1900354D02*
G01*
X1219202Y1900354D01*
X1250185Y1869373D02*
G01*
X1250185Y1789371D01*
X1251384Y2068708D02*
G01*
X1251384Y1988705D01*
X1140404Y1957725D02*
G01*
X1220403Y1957725D01*
X1109421Y2068708D02*
G01*
X1109421Y1988705D01*
X1251968Y2126297D02*
G01*
X1251968Y2206292D01*
X1110005Y2126297D02*
G01*
X1110005Y2206292D01*
X1140985Y2237275D02*
G01*
X1220988Y2237275D01*
X876985Y2106642D02*
G01*
X876985Y2186645D01*
X987966Y2217625D02*
G01*
X907966Y2217625D01*
X1018948Y2106642D02*
G01*
X1018948Y2186645D01*
X876401Y2049053D02*
G01*
X876401Y1969058D01*
X1018364Y2049053D02*
G01*
X1018364Y1969058D01*
X987384Y1938075D02*
G01*
X907381Y1938075D01*
X3683947Y2483472D02*
G01*
X3763949Y2483472D01*
X3794930Y2372492D02*
G01*
X3794930Y2452491D01*
X3683947Y2341509D02*
G01*
X3763949Y2341509D01*
X3626358Y2484056D02*
G01*
X3546363Y2484056D01*
X3626358Y2342093D02*
G01*
X3546363Y2342093D01*
X3515380Y2373073D02*
G01*
X3515380Y2453076D01*
X3704912Y2101888D02*
G01*
X3624910Y2101888D01*
X3593929Y2212868D02*
G01*
X3593929Y2132868D01*
X3704912Y2243851D02*
G01*
X3624910Y2243851D01*
X3762502Y2101303D02*
G01*
X3842496Y2101303D01*
X3762502Y2243267D02*
G01*
X3842496Y2243267D01*
X3873479Y2212286D02*
G01*
X3873479Y2132284D01*
X3635646Y2038286D02*
G01*
X3715649Y2038286D01*
X3746629Y1927306D02*
G01*
X3746629Y2007306D01*
X3635646Y1896323D02*
G01*
X3715649Y1896323D01*
X3578057Y2038870D02*
G01*
X3498062Y2038870D01*
X3578057Y1896907D02*
G01*
X3498062Y1896907D01*
X3467079Y1927887D02*
G01*
X3467079Y2007890D01*
X5161076Y1825688D02*
G01*
X5161076Y2423088D01*
X4686076Y2423086D02*
G01*
X4686076Y1835586D01*
X4689175Y2423088D02*
G01*
X5161076Y2423088D01*
X4689223Y1825711D02*
G01*
X5161076Y1825711D01*
D10*
X5494477Y748860D02*
G01*
X5319237Y748860D01*
X5319237Y644700D01*
X5494477Y441622D02*
G01*
X5319237Y441622D01*
X5319237Y545782D01*
X5494477Y640781D02*
G01*
X5494477Y549701D01*
X3622271Y305259D02*
G01*
X3797510Y305259D01*
X3797510Y409420D01*
X3622271Y612498D02*
G01*
X3797510Y612498D01*
X3797510Y508337D01*
X3622271Y413339D02*
G01*
X3622271Y504418D01*
X3852875Y1585536D02*
G01*
X3677635Y1585536D01*
X3677635Y1481376D01*
X3852875Y1278298D02*
G01*
X3677635Y1278298D01*
X3677635Y1382458D01*
X3852875Y1477457D02*
G01*
X3852875Y1386377D01*
X3040374Y258742D02*
G01*
X3215614Y258742D01*
X3215614Y362902D01*
X3040374Y565980D02*
G01*
X3215614Y565980D01*
X3215614Y461820D01*
X3040374Y366821D02*
G01*
X3040374Y457901D01*
X990013Y417464D02*
G01*
X990013Y592703D01*
X885852Y592703D01*
X682774Y417464D02*
G01*
X682774Y592703D01*
X786935Y592703D01*
X881933Y417464D02*
G01*
X790854Y417464D01*
X999291Y1424195D02*
G01*
X824052Y1424195D01*
X824052Y1320035D01*
X999291Y1116957D02*
G01*
X824052Y1116957D01*
X824052Y1221117D01*
X999291Y1316116D02*
G01*
X999291Y1225036D01*
X5334683Y3446414D02*
G01*
X5334683Y3621653D01*
X5230522Y3621653D01*
X5027444Y3446414D02*
G01*
X5027444Y3621653D01*
X5131605Y3621653D01*
X5226603Y3446414D02*
G01*
X5135524Y3446414D01*
X5881293Y2452380D02*
G01*
X5881293Y2627619D01*
X5777133Y2627619D01*
X5574055Y2452380D02*
G01*
X5574055Y2627619D01*
X5678215Y2627619D01*
X5773214Y2452380D02*
G01*
X5682134Y2452380D01*
X3019861Y3748079D02*
G01*
X3019861Y3572840D01*
X3124022Y3572840D01*
X3327100Y3748079D02*
G01*
X3327100Y3572840D01*
X3222939Y3572840D01*
X3127941Y3748079D02*
G01*
X3219020Y3748079D01*
X3747594Y2669796D02*
G01*
X3747594Y2845036D01*
X3643434Y2845036D01*
X3440356Y2669796D02*
G01*
X3440356Y2845036D01*
X3544516Y2845036D01*
X3639515Y2669796D02*
G01*
X3548435Y2669796D01*
X664502Y2820098D02*
G01*
X664502Y2995338D01*
X560341Y2995338D01*
X357263Y2820098D02*
G01*
X357263Y2995338D01*
X461424Y2995338D01*
X556422Y2820098D02*
G01*
X465343Y2820098D01*
X756589Y3944721D02*
G01*
X581350Y3944721D01*
X581350Y3840561D01*
X756589Y3637483D02*
G01*
X581350Y3637483D01*
X581350Y3741643D01*
X756589Y3836642D02*
G01*
X756589Y3745562D01*
X1497759Y1552082D02*
G01*
X1497759Y1727321D01*
X1393598Y1727321D01*
X1190520Y1552082D02*
G01*
X1190520Y1727321D01*
X1294681Y1727321D01*
X1389679Y1552082D02*
G01*
X1298600Y1552082D01*
X1095750Y2332906D02*
G01*
X1270990Y2332906D01*
X1270990Y2437066D01*
X1095750Y2640144D02*
G01*
X1270990Y2640144D01*
X1270990Y2535984D01*
X1095750Y2440985D02*
G01*
X1095750Y2532065D01*
X2689674Y1524955D02*
G01*
X2864914Y1524955D01*
X2864914Y1629115D01*
X2689674Y1832193D02*
G01*
X2864914Y1832193D01*
X2864914Y1728033D01*
X2689674Y1633034D02*
G01*
X2689674Y1724113D01*
X3008673Y2394054D02*
G01*
X3183912Y2394054D01*
X3183912Y2498214D01*
X3008673Y2701292D02*
G01*
X3183912Y2701292D01*
X3183912Y2597132D01*
X3008673Y2502133D02*
G01*
X3008673Y2593212D01*
X4242483Y4057497D02*
G01*
X4992497Y4057497D01*
X4992497Y3482492D01*
X4242483Y3482492D01*
X4242483Y4057497D01*
D11*
G75*
G01*
X481335Y1159228D02*
G02*
X450352Y1128245I-30983J0D01*
G75*
G01*
X450352Y1270211D02*
G02*
X481335Y1239228I0J-30983D01*
G75*
G01*
X232766Y1128827D02*
G02*
X201783Y1159810I0J30983D01*
G75*
G01*
X201783Y1239810D02*
G02*
X232766Y1270792I30983J0D01*
G75*
G01*
X5649925Y3513491D02*
G02*
X5618945Y3482508I-30983J0D01*
G75*
G01*
X5618945Y3624473D02*
G02*
X5649925Y3593490I-3J-30983D01*
G75*
G01*
X5401356Y3483089D02*
G02*
X5370375Y3514072I2J30983D01*
G75*
G01*
X5370375Y3594072D02*
G02*
X5401356Y3625055I30983J0D01*
G75*
G01*
X5736676Y3037606D02*
G02*
X5767659Y3006623I0J-30983D01*
G75*
G01*
X5625694Y3006623D02*
G02*
X5656677Y3037606I30983J0D01*
G75*
G01*
X5767078Y2789037D02*
G02*
X5736095Y2758054I-30983J0D01*
G75*
G01*
X5656095Y2758054D02*
G02*
X5625112Y2789037I0J30983D01*
G75*
G01*
X5367322Y3441454D02*
G02*
X5398305Y3472437I30983J0D01*
G75*
G01*
X5398305Y3330471D02*
G02*
X5367322Y3361454I0J30983D01*
G75*
G01*
X5615892Y3471855D02*
G02*
X5646875Y3440872I0J-30983D01*
G75*
G01*
X5646875Y3360872D02*
G02*
X5615892Y3329889I-30983J0D01*
G75*
G01*
X4207505Y436756D02*
G02*
X4176522Y405773I-30983J0D01*
G75*
G01*
X4176522Y547738D02*
G02*
X4207505Y516755I0J-30983D01*
G75*
G01*
X3958935Y406354D02*
G02*
X3927953Y437337I0J30983D01*
G75*
G01*
X3927953Y517337D02*
G02*
X3958935Y548320I30982J0D01*
G75*
G01*
X4844303Y472051D02*
G02*
X4813320Y441068I-30983J0D01*
G75*
G01*
X4813320Y583034D02*
G02*
X4844303Y552051I0J-30983D01*
G75*
G01*
X4595734Y441650D02*
G02*
X4564751Y472633I0J30983D01*
G75*
G01*
X4564751Y552633D02*
G02*
X4595734Y583616I30983J0D01*
G75*
G01*
X5211602Y455552D02*
G02*
X5180620Y424569I-30982J0D01*
G75*
G01*
X5180620Y566534D02*
G02*
X5211602Y535551I0J-30983D01*
G75*
G01*
X4963033Y425150D02*
G02*
X4932050Y456133I0J30983D01*
G75*
G01*
X4932050Y536133D02*
G02*
X4963033Y567116I30983J0D01*
G75*
G01*
X4115255Y1448059D02*
G02*
X4146238Y1417076I0J-30983D01*
G75*
G01*
X4004272Y1417076D02*
G02*
X4035255Y1448059I30983J0D01*
G75*
G01*
X4145656Y1199490D02*
G02*
X4114673Y1168507I-30983J0D01*
G75*
G01*
X4034673Y1168507D02*
G02*
X4003690Y1199490I0J30983D01*
G75*
G01*
X4053657Y1103460D02*
G02*
X4084640Y1072477I0J-30983D01*
G75*
G01*
X3942674Y1072477D02*
G02*
X3973657Y1103460I30983J0D01*
G75*
G01*
X4084058Y854890D02*
G02*
X4053075Y823907I-30983J0D01*
G75*
G01*
X3973076Y823907D02*
G02*
X3942093Y854890I0J30983D01*
G75*
G01*
X4097023Y1097389D02*
G02*
X4128005Y1128372I30982J0D01*
G75*
G01*
X4128005Y986406D02*
G02*
X4097023Y1017389I0J30983D01*
G75*
G01*
X4345592Y1127790D02*
G02*
X4376575Y1096808I0J-30982D01*
G75*
G01*
X4376575Y1016808D02*
G02*
X4345592Y985825I-30983J0D01*
G75*
G01*
X464929Y799490D02*
G02*
X495912Y830473I30983J0D01*
G75*
G01*
X495912Y688508D02*
G02*
X464929Y719491I0J30983D01*
G75*
G01*
X713499Y829892D02*
G02*
X744482Y798909I0J-30983D01*
G75*
G01*
X744482Y718909D02*
G02*
X713499Y687926I-30983J0D01*
G75*
G01*
X616600Y916455D02*
G02*
X585617Y947438I0J30983D01*
G75*
G01*
X727583Y947438D02*
G02*
X696600Y916455I-30983J0D01*
G75*
G01*
X586199Y1165024D02*
G02*
X617182Y1196007I30983J0D01*
G75*
G01*
X697182Y1196007D02*
G02*
X728165Y1165024I0J-30983D01*
G75*
G01*
X3717361Y3495324D02*
G02*
X3748344Y3464342I0J-30982D01*
G75*
G01*
X3606378Y3464342D02*
G02*
X3637361Y3495324I30983J0D01*
G75*
G01*
X3747762Y3246755D02*
G02*
X3716779Y3215772I-30983J0D01*
G75*
G01*
X3636780Y3215772D02*
G02*
X3605797Y3246755I0J30983D01*
G75*
G01*
X3781455Y3189757D02*
G02*
X3812438Y3158774I0J-30983D01*
G75*
G01*
X3670473Y3158774D02*
G02*
X3701456Y3189757I30983J0D01*
G75*
G01*
X3811857Y2941188D02*
G02*
X3780874Y2910205I-30983J0D01*
G75*
G01*
X3700874Y2910205D02*
G02*
X3669891Y2941188I0J30983D01*
G75*
G01*
X4066728Y3428373D02*
G02*
X4035745Y3397390I-30983J0D01*
G75*
G01*
X4035745Y3539355D02*
G02*
X4066728Y3508372I0J-30983D01*
G75*
G01*
X3818158Y3397971D02*
G02*
X3787176Y3428954I0J30983D01*
G75*
G01*
X3787176Y3508954D02*
G02*
X3818158Y3539937I30982J0D01*
G75*
G01*
X562600Y3085953D02*
G02*
X531617Y3116936I0J30983D01*
G75*
G01*
X673583Y3116936D02*
G02*
X642600Y3085953I-30983J0D01*
G75*
G01*
X532199Y3334522D02*
G02*
X563182Y3365505I30983J0D01*
G75*
G01*
X643181Y3365505D02*
G02*
X674164Y3334522I0J-30983D01*
G75*
G01*
X394500Y3433051D02*
G02*
X363517Y3464034I0J30983D01*
G75*
G01*
X505483Y3464034D02*
G02*
X474500Y3433051I-30983J0D01*
G75*
G01*
X364099Y3681621D02*
G02*
X395082Y3712604I30983J0D01*
G75*
G01*
X475082Y3712604D02*
G02*
X506065Y3681621I0J-30983D01*
G75*
G01*
X455963Y3392655D02*
G02*
X486946Y3361672I0J-30983D01*
G75*
G01*
X344980Y3361672D02*
G02*
X375963Y3392655I30983J0D01*
G75*
G01*
X486364Y3144086D02*
G02*
X455381Y3113103I-30983J0D01*
G75*
G01*
X375382Y3113103D02*
G02*
X344399Y3144086I0J30983D01*
G75*
G01*
X970633Y1869956D02*
G02*
X1001616Y1900939I30983J0D01*
G75*
G01*
X1001616Y1758973D02*
G02*
X970633Y1789956I0J30983D01*
G75*
G01*
X1219203Y1900357D02*
G02*
X1250185Y1869374I0J-30983D01*
G75*
G01*
X1250185Y1789374D02*
G02*
X1219203Y1758391I-30982J0D01*
G75*
G01*
X1140404Y1957723D02*
G02*
X1109421Y1988706I0J30983D01*
G75*
G01*
X1251387Y1988706D02*
G02*
X1220404Y1957723I-30983J0D01*
G75*
G01*
X1110003Y2206292D02*
G02*
X1140986Y2237275I30983J0D01*
G75*
G01*
X1220986Y2237275D02*
G02*
X1251969Y2206292I0J-30983D01*
G75*
G01*
X987966Y2217628D02*
G02*
X1018949Y2186645I0J-30983D01*
G75*
G01*
X876983Y2186645D02*
G02*
X907966Y2217628I30983J0D01*
G75*
G01*
X1018367Y1969059D02*
G02*
X987384Y1938076I-30983J0D01*
G75*
G01*
X907385Y1938076D02*
G02*
X876402Y1969059I0J30983D01*
G75*
G01*
X3794933Y2372492D02*
G02*
X3763950Y2341509I-30983J0D01*
G75*
G01*
X3763950Y2483475D02*
G02*
X3794933Y2452492I0J-30983D01*
G75*
G01*
X3546363Y2342091D02*
G02*
X3515380Y2373074I0J30983D01*
G75*
G01*
X3515380Y2453074D02*
G02*
X3546363Y2484057I30983J0D01*
G75*
G01*
X3593927Y2212868D02*
G02*
X3624910Y2243851I30983J0D01*
G75*
G01*
X3624910Y2101886D02*
G02*
X3593927Y2132868I0J30982D01*
G75*
G01*
X3842497Y2243270D02*
G02*
X3873480Y2212287I0J-30983D01*
G75*
G01*
X3873480Y2132287D02*
G02*
X3842497Y2101304I-30983J0D01*
G75*
G01*
X3746632Y1927306D02*
G02*
X3715649Y1896323I-30983J0D01*
G75*
G01*
X3715649Y2038289D02*
G02*
X3746632Y2007306I0J-30983D01*
G75*
G01*
X3498063Y1896905D02*
G02*
X3467080Y1927888I0J30983D01*
G75*
G01*
X3467080Y2007888D02*
G02*
X3498063Y2038871I30983J0D01*
D12*
G75*
G01
X4152494Y3799992D02*
G03X4152494Y3799992I-250012J0D01*
D11*
G75*
G01
X5004918Y3116732D02*
G03X5004918Y3116732I-25400J0D01*
G75*
G01
X5047031Y1161237D02*
G03X5047031Y1161237I-25400J0D01*
G75*
G01
X2202612Y833704D02*
G03X2202612Y833704I-12497J0D01*
G75*
G01
X2391054Y3368802D02*
G03X2391054Y3368802I-12497J0D01*
G75*
G01
X3413709Y1241654D02*
G03X3413709Y1241654I-25400J0D01*
G75*
G01
X1619021Y589686D02*
G03X1619021Y589686I-25400J0D01*
G75*
G01
X3060294Y3395853D02*
G03X3060294Y3395853I-25400J0D01*
G75*
G01
X1305839Y3124860D02*
G03X1305839Y3124860I-25400J0D01*
G75*
G01
X1957324Y1812671D02*
G03X1957324Y1812671I-25400J0D01*
G75*
G01
X2872181Y2349627D02*
G03X2872181Y2349627I-25400J0D01*
G75*
G01
X4764303Y1875587D02*
G03X4764303Y1875587I-12497J0D01*
M02*
