G04 Layer: BottomPasteMaskLayer*
G04 EasyEDA v6.5.48, 2025-03-06 20:53:55*
G04 c2aac520c91a4c19a6c498b25d38bc05,84066bfdb5964fb78f634a0d0c1972bb,10*
G04 Gerber Generator version 0.2*
G04 Scale: 100 percent, Rotated: No, Reflected: No *
G04 Dimensions in millimeters *
G04 leading zeros omitted , absolute positions ,4 integer and 5 decimal *
%FSLAX45Y45*%
%MOMM*%

%AMMACRO1*21,1,$1,$2,0,0,$3*%
%ADD10MACRO1,1.2X1.8X0.0000*%
%ADD11MACRO1,0.6X1.55X0.0000*%
%ADD12MACRO1,1.2X1.8X-90.0000*%
%ADD13MACRO1,0.6X1.55X-90.0000*%
%ADD14MACRO1,1.2X1.8X90.0000*%
%ADD15MACRO1,0.6X1.55X90.0000*%
%ADD16MACRO1,0.8X0.9X0.0000*%
%ADD17O,0.6020054X1.9709892*%
%ADD18O,1.9709892X0.6020054*%
%ADD19MACRO1,2.5X1.1X0.0000*%
%ADD20R,2.3400X3.6000*%
%ADD21MACRO1,2.5X1.1X-90.0000*%
%ADD22MACRO1,3.6X2.34X0.0000*%
%ADD23MACRO1,0.8X0.9X-90.0000*%

%LPD*%
G36*
X5196738Y269087D02*
G01*
X5191760Y264109D01*
X5191760Y239928D01*
X5228742Y239928D01*
X5228742Y206908D01*
X5191760Y206908D01*
X5191760Y184099D01*
X5196738Y179120D01*
X5276748Y179120D01*
X5281726Y184099D01*
X5281726Y264109D01*
X5276748Y269087D01*
G37*
G36*
X5037734Y269087D02*
G01*
X5032756Y264109D01*
X5032756Y184099D01*
X5037734Y179120D01*
X5116728Y179120D01*
X5121757Y184099D01*
X5121757Y206908D01*
X5083759Y206908D01*
X5083759Y239928D01*
X5121757Y239928D01*
X5121757Y264109D01*
X5116728Y269087D01*
G37*
G36*
X5459577Y3792321D02*
G01*
X5454599Y3787292D01*
X5454599Y3707282D01*
X5459577Y3702304D01*
X5539587Y3702304D01*
X5544566Y3707282D01*
X5544566Y3787292D01*
X5539587Y3792321D01*
X5515356Y3792321D01*
X5515356Y3755288D01*
X5482386Y3755288D01*
X5482386Y3792321D01*
G37*
G36*
X5459577Y3951325D02*
G01*
X5454599Y3946296D01*
X5454599Y3867302D01*
X5459577Y3862324D01*
X5482386Y3862324D01*
X5482386Y3900322D01*
X5515356Y3900322D01*
X5515356Y3862324D01*
X5539587Y3862324D01*
X5544566Y3867302D01*
X5544566Y3946296D01*
X5539587Y3951325D01*
G37*
D10*
G01*
X2425890Y3654767D03*
G01*
X1865884Y3654719D03*
D11*
G01*
X2195923Y3267215D03*
G01*
X2295921Y3267217D03*
G01*
X1995906Y3267168D03*
G01*
X2095906Y3267168D03*
D10*
G01*
X2159005Y504294D03*
G01*
X2719011Y504342D03*
D11*
G01*
X2388971Y891846D03*
G01*
X2288974Y891844D03*
G01*
X2588988Y891893D03*
G01*
X2488989Y891893D03*
D12*
G01*
X5705086Y1423118D03*
G01*
X5705038Y1983125D03*
D13*
G01*
X5317534Y1653085D03*
G01*
X5317535Y1553088D03*
G01*
X5317487Y1853102D03*
G01*
X5317487Y1753102D03*
D14*
G01*
X1706199Y2552501D03*
G01*
X1706247Y1992495D03*
D15*
G01*
X2093751Y2322535D03*
G01*
X2093749Y2422532D03*
G01*
X2093798Y2122517D03*
G01*
X2093798Y2222517D03*
D16*
G01*
X5469369Y235767D03*
G01*
X5609369Y235767D03*
G01*
X5509470Y3578702D03*
G01*
X5369471Y3578702D03*
D17*
G01*
X4021302Y1892706D03*
G01*
X3894302Y1892706D03*
G01*
X3767302Y1892706D03*
G01*
X3640302Y1892706D03*
G01*
X3513302Y1892706D03*
G01*
X3386302Y1892706D03*
G01*
X3259302Y1892706D03*
G01*
X3132302Y1892706D03*
G01*
X4021302Y2439822D03*
G01*
X3894302Y2439822D03*
G01*
X3767302Y2439822D03*
G01*
X3640302Y2439822D03*
G01*
X3513302Y2439822D03*
G01*
X3386302Y2439822D03*
G01*
X3259302Y2439822D03*
G01*
X3132302Y2439822D03*
G01*
X1414424Y1582115D03*
G01*
X1287424Y1582115D03*
G01*
X1160424Y1582115D03*
G01*
X1033424Y1582115D03*
G01*
X906424Y1582115D03*
G01*
X779424Y1582115D03*
G01*
X652424Y1582115D03*
G01*
X525424Y1582115D03*
G01*
X1414424Y2129231D03*
G01*
X1287424Y2129231D03*
G01*
X1160424Y2129231D03*
G01*
X1033424Y2129231D03*
G01*
X906424Y2129231D03*
G01*
X779424Y2129231D03*
G01*
X652424Y2129231D03*
G01*
X525424Y2129231D03*
D18*
G01*
X3399459Y473659D03*
G01*
X3399459Y600659D03*
G01*
X3399459Y727659D03*
G01*
X3399459Y854659D03*
G01*
X3399459Y981659D03*
G01*
X3399459Y1108659D03*
G01*
X3399459Y1235659D03*
G01*
X3399459Y1362659D03*
G01*
X3946575Y473659D03*
G01*
X3946575Y600659D03*
G01*
X3946575Y727659D03*
G01*
X3946575Y854659D03*
G01*
X3946575Y981659D03*
G01*
X3946575Y1108659D03*
G01*
X3946575Y1235659D03*
G01*
X3946575Y1362659D03*
D19*
G01*
X4823245Y420141D03*
G01*
X4823245Y650138D03*
G01*
X4823245Y880135D03*
D20*
G01*
X5417235Y650138D03*
D21*
G01*
X5627273Y2655078D03*
G01*
X5397276Y2655078D03*
G01*
X5167279Y2655078D03*
D22*
G01*
X5397276Y3249074D03*
D23*
G01*
X5093373Y3745102D03*
G01*
X5093373Y3605103D03*
M02*
