G04 Layer: BottomSolderMaskLayer*
G04 EasyEDA v6.5.48, 2025-03-06 20:53:55*
G04 c2aac520c91a4c19a6c498b25d38bc05,84066bfdb5964fb78f634a0d0c1972bb,10*
G04 Gerber Generator version 0.2*
G04 Scale: 100 percent, Rotated: No, Reflected: No *
G04 Dimensions in millimeters *
G04 leading zeros omitted , absolute positions ,4 integer and 5 decimal *
%FSLAX45Y45*%
%MOMM*%

%AMMACRO1*4,1,8,-0.821,-0.8508,-0.8508,-0.821,-0.8508,0.821,-0.821,0.8508,0.821,0.8508,0.8508,0.821,0.8508,-0.821,0.821,-0.8508,-0.821,-0.8508,0*%
%AMMACRO2*4,1,8,-0.6421,-1.0016,-0.7016,-0.9421,-0.7016,0.9421,-0.6421,1.0016,0.6421,1.0016,0.7016,0.9421,0.7016,-0.9421,0.6421,-1.0016,-0.6421,-1.0016,0*%
%AMMACRO3*4,1,8,-0.3421,-0.8766,-0.4016,-0.8171,-0.4016,0.8171,-0.3421,0.8766,0.3421,0.8766,0.4016,0.8171,0.4016,-0.8171,0.3421,-0.8766,-0.3421,-0.8766,0*%
%AMMACRO4*4,1,8,-0.9421,-0.7016,-1.0016,-0.6421,-1.0016,0.6421,-0.9421,0.7016,0.9421,0.7016,1.0016,0.6421,1.0016,-0.6421,0.9421,-0.7016,-0.9421,-0.7016,0*%
%AMMACRO5*4,1,8,-0.8171,-0.4016,-0.8766,-0.3421,-0.8766,0.3421,-0.8171,0.4016,0.8171,0.4016,0.8766,0.3421,0.8766,-0.3421,0.8171,-0.4016,-0.8171,-0.4016,0*%
%AMMACRO6*4,1,8,-0.6421,-1.1016,-0.7016,-1.0421,-0.7016,1.0421,-0.6421,1.1016,0.6421,1.1016,0.7016,1.0421,0.7016,-1.0421,0.6421,-1.1016,-0.6421,-1.1016,0*%
%AMMACRO7*4,1,8,-1.0421,-0.7016,-1.1016,-0.6421,-1.1016,0.6421,-1.0421,0.7016,1.0421,0.7016,1.1016,0.6421,1.1016,-0.6421,1.0421,-0.7016,-1.0421,-0.7016,0*%
%AMMACRO8*4,1,8,-0.7711,-0.8008,-0.8008,-0.771,-0.8008,0.7711,-0.7711,0.8008,0.771,0.8008,0.8008,0.7711,0.8008,-0.771,0.771,-0.8008,-0.7711,-0.8008,0*%
%AMMACRO9*4,1,8,-0.4243,-0.4828,-0.454,-0.453,-0.454,0.4531,-0.4243,0.4828,0.4243,0.4828,0.454,0.4531,0.454,-0.453,0.4243,-0.4828,-0.4243,-0.4828,0*%
%AMMACRO10*4,1,8,-0.4421,-0.5516,-0.5016,-0.4921,-0.5016,0.4921,-0.4421,0.5516,0.4421,0.5516,0.5016,0.4921,0.5016,-0.4921,0.4421,-0.5516,-0.4421,-0.5516,0*%
%AMMACRO11*4,1,8,-0.4531,-0.454,-0.4828,-0.4243,-0.4828,0.4243,-0.4531,0.454,0.453,0.454,0.4828,0.4243,0.4828,-0.4243,0.453,-0.454,-0.4531,-0.454,0*%
%AMMACRO12*4,1,8,-1.2711,-0.6008,-1.3008,-0.571,-1.3008,0.5711,-1.2711,0.6008,1.271,0.6008,1.3008,0.5711,1.3008,-0.571,1.271,-0.6008,-1.2711,-0.6008,0*%
%AMMACRO13*4,1,8,-1.1911,-1.8508,-1.2208,-1.821,-1.2208,1.8211,-1.1911,1.8508,1.191,1.8508,1.2208,1.8211,1.2208,-1.821,1.191,-1.8508,-1.1911,-1.8508,0*%
%AMMACRO14*4,1,8,-0.5711,-1.3008,-0.6008,-1.271,-0.6008,1.2711,-0.5711,1.3008,0.571,1.3008,0.6008,1.2711,0.6008,-1.271,0.571,-1.3008,-0.5711,-1.3008,0*%
%AMMACRO15*4,1,8,-1.8211,-1.2208,-1.8508,-1.191,-1.8508,1.1911,-1.8211,1.2208,1.821,1.2208,1.8508,1.1911,1.8508,-1.191,1.821,-1.2208,-1.8211,-1.2208,0*%
%AMMACRO16*4,1,8,-0.4921,-0.5016,-0.5516,-0.4421,-0.5516,0.4421,-0.4921,0.5016,0.4921,0.5016,0.5516,0.4421,0.5516,-0.4421,0.4921,-0.5016,-0.4921,-0.5016,0*%
%ADD10C,1.4016*%
%ADD11MACRO1*%
%ADD12MACRO2*%
%ADD13MACRO3*%
%ADD14MACRO4*%
%ADD15MACRO5*%
%ADD16C,1.1016*%
%ADD17MACRO6*%
%ADD18O,1.4031976X2.2031959999999997*%
%ADD19MACRO7*%
%ADD20O,2.2031959999999997X1.4031976*%
%ADD21MACRO8*%
%ADD22C,1.6016*%
%ADD23MACRO9*%
%ADD24MACRO10*%
%ADD25MACRO11*%
%ADD26O,0.7036053999999999X2.0725892000000004*%
%ADD27O,2.0725892000000004X0.7036053999999999*%
%ADD28MACRO12*%
%ADD29MACRO13*%
%ADD30MACRO14*%
%ADD31MACRO15*%
%ADD32MACRO16*%

%LPD*%
D10*
G01*
X4002481Y3799992D03*
G01*
X3802481Y3799992D03*
D11*
G01*
X4742482Y3717493D03*
G36*
X4461863Y3638499D02*
G01*
X4461294Y3638532D01*
X4460732Y3638626D01*
X4460184Y3638783D01*
X4459658Y3639002D01*
X4459160Y3639278D01*
X4458695Y3639609D01*
X4458268Y3639987D01*
X4414987Y3683294D01*
X4414608Y3683718D01*
X4414278Y3684183D01*
X4414004Y3684684D01*
X4413785Y3685209D01*
X4413628Y3685755D01*
X4413534Y3686317D01*
X4413501Y3686886D01*
X4413501Y3748100D01*
X4413534Y3748669D01*
X4413628Y3749230D01*
X4413785Y3749776D01*
X4414004Y3750302D01*
X4414278Y3750802D01*
X4414608Y3751267D01*
X4414987Y3751691D01*
X4458268Y3794996D01*
X4458695Y3795374D01*
X4459160Y3795704D01*
X4459658Y3795981D01*
X4460184Y3796200D01*
X4460732Y3796357D01*
X4461294Y3796451D01*
X4461863Y3796484D01*
X4523102Y3796484D01*
X4523671Y3796451D01*
X4524232Y3796357D01*
X4524781Y3796200D01*
X4525307Y3795981D01*
X4525805Y3795704D01*
X4526269Y3795377D01*
X4526694Y3794996D01*
X4570001Y3751691D01*
X4570382Y3751267D01*
X4570709Y3750802D01*
X4570986Y3750304D01*
X4571204Y3749779D01*
X4571362Y3749230D01*
X4571456Y3748669D01*
X4571489Y3748100D01*
X4571489Y3686886D01*
X4571456Y3686317D01*
X4571362Y3685755D01*
X4571204Y3685207D01*
X4570986Y3684681D01*
X4570709Y3684183D01*
X4570382Y3683718D01*
X4570001Y3683294D01*
X4526694Y3639987D01*
X4526269Y3639606D01*
X4525805Y3639278D01*
X4525307Y3639002D01*
X4524781Y3638783D01*
X4524232Y3638626D01*
X4523671Y3638532D01*
X4523102Y3638499D01*
G37*
D12*
G01*
X2425890Y3654767D03*
G01*
X1865884Y3654719D03*
D13*
G01*
X2195923Y3267215D03*
G01*
X2295921Y3267217D03*
G01*
X1995906Y3267168D03*
G01*
X2095906Y3267168D03*
D12*
G01*
X2159005Y504294D03*
G01*
X2719011Y504342D03*
D13*
G01*
X2388971Y891846D03*
G01*
X2288974Y891844D03*
G01*
X2588988Y891893D03*
G01*
X2488989Y891893D03*
D14*
G01*
X5705086Y1423118D03*
G01*
X5705038Y1983125D03*
D15*
G01*
X5317534Y1653085D03*
G01*
X5317535Y1553088D03*
G01*
X5317487Y1853102D03*
G01*
X5317487Y1753102D03*
D16*
G01*
X2491130Y3048762D03*
G01*
X2366111Y3048762D03*
G01*
X2241143Y3048762D03*
G01*
X2116200Y3048762D03*
G01*
X1991233Y3048762D03*
G01*
X1866290Y3048762D03*
G01*
X1741068Y3048762D03*
G01*
X1616100Y3048762D03*
G01*
X5541645Y1235075D03*
G01*
X5541645Y1360043D03*
G01*
X5541645Y1485011D03*
G01*
X5541645Y1609979D03*
G01*
X5541645Y1734946D03*
G01*
X5541645Y1859914D03*
G01*
X5541645Y1985137D03*
G01*
X5541645Y2110104D03*
G01*
X1928215Y1131646D03*
G01*
X2053158Y1131646D03*
G01*
X2178100Y1131646D03*
G01*
X2303068Y1131646D03*
G01*
X2428087Y1131646D03*
G01*
X2553055Y1131646D03*
G01*
X2678252Y1131646D03*
G01*
X2803220Y1131646D03*
D14*
G01*
X1706199Y2552501D03*
G01*
X1706247Y1992495D03*
D15*
G01*
X2093751Y2322535D03*
G01*
X2093749Y2422532D03*
G01*
X2093798Y2122517D03*
G01*
X2093798Y2222517D03*
D17*
G01*
X2382494Y2509994D03*
D18*
G01*
X2582290Y2509850D03*
D19*
G01*
X2124997Y1482496D03*
D20*
G01*
X2125141Y1682292D03*
D21*
G01*
X4303179Y3163672D03*
D22*
G01*
X4303166Y2909646D03*
G01*
X4303166Y2655646D03*
G01*
X4303166Y2401646D03*
G01*
X4303166Y2147646D03*
G01*
X4303166Y1893646D03*
G01*
X4303166Y1639646D03*
G01*
X4303166Y1385646D03*
D23*
G01*
X5232563Y224111D03*
G01*
X5081913Y224111D03*
D24*
G01*
X5469369Y235767D03*
G01*
X5609369Y235767D03*
D25*
G01*
X5499572Y3751477D03*
G01*
X5499572Y3902127D03*
D24*
G01*
X5509470Y3578702D03*
G01*
X5369471Y3578702D03*
D26*
G01*
X4021302Y1892706D03*
G01*
X3894302Y1892706D03*
G01*
X3767302Y1892706D03*
G01*
X3640302Y1892706D03*
G01*
X3513302Y1892706D03*
G01*
X3386302Y1892706D03*
G01*
X3259302Y1892706D03*
G01*
X3132302Y1892706D03*
G01*
X4021302Y2439822D03*
G01*
X3894302Y2439822D03*
G01*
X3767302Y2439822D03*
G01*
X3640302Y2439822D03*
G01*
X3513302Y2439822D03*
G01*
X3386302Y2439822D03*
G01*
X3259302Y2439822D03*
G01*
X3132302Y2439822D03*
G01*
X1414424Y1582115D03*
G01*
X1287424Y1582115D03*
G01*
X1160424Y1582115D03*
G01*
X1033424Y1582115D03*
G01*
X906424Y1582115D03*
G01*
X779424Y1582115D03*
G01*
X652424Y1582115D03*
G01*
X525424Y1582115D03*
G01*
X1414424Y2129231D03*
G01*
X1287424Y2129231D03*
G01*
X1160424Y2129231D03*
G01*
X1033424Y2129231D03*
G01*
X906424Y2129231D03*
G01*
X779424Y2129231D03*
G01*
X652424Y2129231D03*
G01*
X525424Y2129231D03*
D27*
G01*
X3399459Y473659D03*
G01*
X3399459Y600659D03*
G01*
X3399459Y727659D03*
G01*
X3399459Y854659D03*
G01*
X3399459Y981659D03*
G01*
X3399459Y1108659D03*
G01*
X3399459Y1235659D03*
G01*
X3399459Y1362659D03*
G01*
X3946575Y473659D03*
G01*
X3946575Y600659D03*
G01*
X3946575Y727659D03*
G01*
X3946575Y854659D03*
G01*
X3946575Y981659D03*
G01*
X3946575Y1108659D03*
G01*
X3946575Y1235659D03*
G01*
X3946575Y1362659D03*
D28*
G01*
X4823245Y420141D03*
G01*
X4823245Y650138D03*
G01*
X4823245Y880135D03*
D29*
G01*
X5417240Y650138D03*
D30*
G01*
X5627273Y2655078D03*
G01*
X5397276Y2655078D03*
G01*
X5167279Y2655078D03*
D31*
G01*
X5397276Y3249074D03*
D32*
G01*
X5093373Y3745103D03*
G01*
X5093373Y3605103D03*
M02*
