G04 Layer: TopLayer*
G04 EasyEDA v6.5.48, 2025-03-06 20:53:55*
G04 c2aac520c91a4c19a6c498b25d38bc05,84066bfdb5964fb78f634a0d0c1972bb,10*
G04 Gerber Generator version 0.2*
G04 Scale: 100 percent, Rotated: No, Reflected: No *
G04 Dimensions in millimeters *
G04 leading zeros omitted , absolute positions ,4 integer and 5 decimal *
%FSLAX45Y45*%
%MOMM*%

%AMMACRO1*4,1,8,0.7391,0.3061,0.3061,0.7391,-0.3063,0.7391,-0.7391,0.3061,-0.7391,-0.3061,-0.3063,-0.7391,0.3061,-0.7391,0.7391,-0.3061,0.7391,0.3061,0*%
%AMMACRO2*21,1,$1,$2,0,0,$3*%
%ADD10C,0.4060*%
%ADD11C,0.4064*%
%ADD12C,0.6610*%
%ADD13C,0.5590*%
%ADD14C,0.3840*%
%ADD15C,0.3880*%
%ADD16C,0.3550*%
%ADD17C,0.5000*%
%ADD18C,0.4570*%
%ADD19C,0.7630*%
%ADD20C,0.5588*%
%ADD21C,0.6350*%
%ADD22C,0.3040*%
%ADD23C,0.4860*%
%ADD24C,0.3430*%
%ADD25R,0.8000X0.9000*%
%ADD26R,0.9000X0.8000*%
%ADD27R,1.8034X0.4064*%
%ADD28R,2.4892X3.5052*%
%ADD29R,0.4064X1.8034*%
%ADD30R,3.5052X2.4892*%
%ADD31R,1.2000X1.8000*%
%ADD32R,0.6000X1.5500*%
%ADD33R,1.8000X1.2000*%
%ADD34R,1.5500X0.6000*%
%ADD35R,0.9700X0.5500*%
%ADD36R,0.5500X0.9700*%
%ADD37C,1.3000*%
%ADD38R,1.5999X1.5999*%
%ADD39MACRO1*%
%ADD40C,1.0000*%
%ADD41MACRO2,1.2X2X0.0000*%
%ADD42O,1.1999976X1.9999959999999999*%
%ADD43MACRO2,1.2X2X-90.0000*%
%ADD44O,1.9999959999999999X1.1999976*%
%ADD45MACRO2,1.5X1.5X-90.0000*%
%ADD46C,1.5000*%
%ADD47C,0.6000*%
%ADD48C,0.7000*%
%ADD49C,0.0105*%

%LPD*%
G36*
X36068Y25908D02*
G01*
X32156Y26670D01*
X28905Y28905D01*
X26670Y32156D01*
X25908Y36068D01*
X25908Y4063898D01*
X26670Y4067810D01*
X28905Y4071112D01*
X32156Y4073296D01*
X36068Y4074058D01*
X5963920Y4074058D01*
X5967831Y4073296D01*
X5971082Y4071112D01*
X5973318Y4067810D01*
X5974080Y4063898D01*
X5974080Y36068D01*
X5973318Y32156D01*
X5971082Y28905D01*
X5967831Y26670D01*
X5963920Y25908D01*
G37*

%LPC*%
G36*
X1015441Y95250D02*
G01*
X5559298Y95300D01*
X5568086Y96520D01*
X5576163Y99212D01*
X5583631Y103378D01*
X5590540Y109118D01*
X5913983Y432663D01*
X5919368Y439724D01*
X5923178Y447344D01*
X5925464Y455574D01*
X5926328Y464515D01*
X5926277Y3621278D01*
X5925058Y3630066D01*
X5922314Y3638143D01*
X5918200Y3645611D01*
X5912408Y3652520D01*
X5597296Y3967327D01*
X5590184Y3972712D01*
X5582564Y3976522D01*
X5574385Y3978859D01*
X5565444Y3979672D01*
X5307076Y3979672D01*
X5294426Y3982059D01*
X5285435Y3982059D01*
X5272735Y3979672D01*
X3536797Y3979672D01*
X3533343Y3980281D01*
X3530701Y3981246D01*
X3526637Y3982161D01*
X3522421Y3982770D01*
X3517950Y3982974D01*
X419608Y3982923D01*
X410819Y3981704D01*
X402742Y3979011D01*
X395274Y3974846D01*
X388366Y3969105D01*
X71272Y3651656D01*
X65887Y3644595D01*
X62077Y3636975D01*
X59791Y3628745D01*
X58928Y3619804D01*
X58928Y1696974D01*
X59182Y1691538D01*
X60960Y1683105D01*
X64211Y1675231D01*
X68834Y1668068D01*
X75031Y1661566D01*
X238709Y1518615D01*
X245059Y1513941D01*
X252729Y1510131D01*
X260908Y1507794D01*
X269900Y1506931D01*
X349656Y1506982D01*
X358444Y1508201D01*
X366522Y1510944D01*
X373989Y1515059D01*
X380898Y1520799D01*
X472490Y1612442D01*
X477824Y1619554D01*
X481634Y1627174D01*
X483971Y1635353D01*
X484784Y1644294D01*
X484784Y1745538D01*
X485749Y1749856D01*
X488442Y1753362D01*
X492404Y1755343D01*
X496824Y1755495D01*
X500888Y1753768D01*
X503834Y1750466D01*
X505917Y1746707D01*
X511657Y1739747D01*
X870508Y1380947D01*
X872693Y1377645D01*
X873455Y1373784D01*
X873455Y1324914D01*
X873963Y1319479D01*
X873353Y1315059D01*
X870864Y1311300D01*
X867054Y1308963D01*
X862584Y1308506D01*
X858367Y1310030D01*
X854608Y1314196D01*
X850493Y1318260D01*
X845616Y1321358D01*
X840130Y1323289D01*
X833831Y1324000D01*
X737971Y1324000D01*
X731621Y1323289D01*
X726186Y1321358D01*
X721258Y1318260D01*
X717194Y1314196D01*
X714095Y1309268D01*
X712165Y1303832D01*
X711454Y1297533D01*
X711454Y1243634D01*
X712165Y1237335D01*
X714095Y1231849D01*
X717194Y1226972D01*
X721258Y1222857D01*
X726186Y1219809D01*
X731621Y1217879D01*
X737971Y1217168D01*
X769721Y1217168D01*
X773582Y1216406D01*
X776884Y1214170D01*
X802081Y1189024D01*
X804316Y1185570D01*
X805027Y1181506D01*
X804062Y1177544D01*
X801624Y1174242D01*
X798017Y1172159D01*
X793953Y1171702D01*
X785164Y1172514D01*
X734822Y1172514D01*
X731469Y1173124D01*
X728472Y1174750D01*
X726236Y1177290D01*
X722985Y1182420D01*
X718921Y1186535D01*
X713994Y1189583D01*
X708558Y1191514D01*
X702208Y1192225D01*
X613359Y1192225D01*
X607009Y1191514D01*
X601573Y1189583D01*
X596646Y1186535D01*
X592582Y1182420D01*
X589483Y1177544D01*
X587603Y1172057D01*
X586892Y1165758D01*
X586892Y1086866D01*
X587603Y1080566D01*
X589483Y1075080D01*
X592582Y1070203D01*
X596646Y1066088D01*
X598576Y1064920D01*
X601522Y1062075D01*
X603097Y1058367D01*
X603097Y1054252D01*
X601522Y1050544D01*
X598576Y1047699D01*
X596646Y1046530D01*
X592582Y1042416D01*
X589330Y1037285D01*
X587095Y1034745D01*
X584098Y1033119D01*
X580745Y1032510D01*
X559765Y1032510D01*
X555853Y1033322D01*
X552551Y1035507D01*
X534771Y1053287D01*
X532942Y1055827D01*
X531571Y1061161D01*
X528472Y1070152D01*
X523951Y1078534D01*
X518058Y1086053D01*
X511098Y1092504D01*
X503123Y1097686D01*
X494385Y1101496D01*
X485190Y1103833D01*
X475284Y1104646D01*
X460908Y1104646D01*
X456996Y1105458D01*
X453745Y1107643D01*
X451510Y1110945D01*
X450748Y1114806D01*
X450748Y1120749D01*
X451612Y1124813D01*
X453999Y1128166D01*
X457555Y1130350D01*
X462686Y1132128D01*
X467563Y1135227D01*
X471678Y1139291D01*
X474776Y1144219D01*
X476656Y1149654D01*
X477367Y1156004D01*
X477367Y1244854D01*
X476961Y1248511D01*
X477062Y1251508D01*
X478078Y1254404D01*
X479907Y1256842D01*
X512927Y1289862D01*
X516178Y1292047D01*
X520090Y1292809D01*
X531418Y1292809D01*
X535381Y1291996D01*
X538734Y1289710D01*
X545846Y1282293D01*
X555091Y1275283D01*
X565251Y1269746D01*
X576224Y1265783D01*
X587603Y1263599D01*
X599236Y1263142D01*
X610768Y1264462D01*
X621944Y1267561D01*
X632561Y1272286D01*
X642315Y1278636D01*
X651002Y1286357D01*
X658368Y1295298D01*
X664311Y1305306D01*
X668680Y1316075D01*
X671322Y1327353D01*
X672185Y1338935D01*
X671322Y1350568D01*
X668680Y1361846D01*
X664311Y1372616D01*
X658368Y1382623D01*
X651002Y1391564D01*
X642315Y1399286D01*
X632561Y1405636D01*
X621944Y1410360D01*
X610768Y1413459D01*
X599236Y1414780D01*
X587603Y1414322D01*
X576224Y1412138D01*
X565251Y1408176D01*
X555091Y1402638D01*
X545846Y1395628D01*
X538835Y1388364D01*
X535533Y1386027D01*
X531520Y1385265D01*
X494944Y1385214D01*
X486156Y1383995D01*
X478078Y1381252D01*
X470662Y1377137D01*
X463753Y1371396D01*
X370535Y1278128D01*
X366014Y1272387D01*
X363931Y1270406D01*
X360273Y1268679D01*
X355346Y1265631D01*
X351282Y1261516D01*
X350062Y1259636D01*
X347268Y1256690D01*
X343509Y1255115D01*
X339445Y1255115D01*
X335686Y1256690D01*
X332892Y1259636D01*
X331673Y1261516D01*
X327609Y1265631D01*
X322681Y1268679D01*
X317246Y1270609D01*
X310896Y1271320D01*
X297840Y1271320D01*
X297840Y1229258D01*
X335432Y1229258D01*
X339293Y1228496D01*
X342595Y1226312D01*
X344779Y1223010D01*
X345592Y1219098D01*
X345592Y1181709D01*
X344779Y1177848D01*
X342595Y1174546D01*
X339293Y1172362D01*
X335432Y1171549D01*
X297840Y1171549D01*
X297840Y1129487D01*
X310896Y1129487D01*
X317246Y1130198D01*
X322681Y1132128D01*
X327609Y1135227D01*
X331673Y1139291D01*
X332892Y1141171D01*
X335686Y1144117D01*
X339445Y1145743D01*
X343509Y1145743D01*
X347268Y1144117D01*
X350062Y1141171D01*
X351282Y1139291D01*
X355346Y1135227D01*
X357581Y1131925D01*
X358343Y1128014D01*
X358343Y1120546D01*
X357581Y1116634D01*
X355346Y1113332D01*
X303682Y1061516D01*
X299923Y1059129D01*
X290576Y1055776D01*
X280416Y1050239D01*
X271170Y1043178D01*
X263093Y1034796D01*
X256438Y1025296D01*
X251256Y1014882D01*
X247751Y1003808D01*
X245973Y992327D01*
X245973Y980744D01*
X247751Y969264D01*
X251256Y958189D01*
X256438Y947775D01*
X263093Y938276D01*
X271170Y929894D01*
X280416Y922832D01*
X290576Y917295D01*
X301548Y913384D01*
X312928Y911148D01*
X324561Y910691D01*
X336092Y912063D01*
X347268Y915111D01*
X357886Y919886D01*
X367639Y926185D01*
X376326Y933907D01*
X383692Y942898D01*
X389636Y952855D01*
X394004Y963625D01*
X396392Y973836D01*
X397357Y976477D01*
X399084Y978712D01*
X406755Y986383D01*
X410057Y988568D01*
X413918Y989330D01*
X463753Y989330D01*
X467664Y988568D01*
X470966Y986383D01*
X505002Y952398D01*
X512064Y947013D01*
X519734Y943254D01*
X527913Y940917D01*
X536854Y940053D01*
X580745Y940053D01*
X584098Y939495D01*
X587095Y937869D01*
X589381Y935329D01*
X592582Y930198D01*
X596646Y926134D01*
X601573Y923036D01*
X607009Y921105D01*
X613359Y920394D01*
X702208Y920394D01*
X708558Y921105D01*
X713994Y923036D01*
X718921Y926134D01*
X722985Y930198D01*
X726186Y935329D01*
X728472Y937869D01*
X731469Y939495D01*
X734822Y940053D01*
X761796Y940053D01*
X765708Y939292D01*
X769010Y937107D01*
X884224Y821842D01*
X886460Y818540D01*
X887221Y814679D01*
X886460Y810768D01*
X884224Y807466D01*
X880922Y805281D01*
X877062Y804519D01*
X748792Y804519D01*
X744728Y805383D01*
X741324Y807770D01*
X739190Y811326D01*
X738073Y814527D01*
X734974Y819403D01*
X730910Y823518D01*
X725982Y826617D01*
X720547Y828497D01*
X714197Y829208D01*
X635355Y829208D01*
X629005Y828497D01*
X623570Y826617D01*
X618693Y823518D01*
X614578Y819403D01*
X613410Y817524D01*
X610565Y814578D01*
X606806Y813003D01*
X602742Y813003D01*
X598982Y814578D01*
X596188Y817524D01*
X595020Y819403D01*
X590905Y823518D01*
X586028Y826617D01*
X580542Y828497D01*
X574243Y829208D01*
X561136Y829208D01*
X561136Y787146D01*
X598728Y787146D01*
X602589Y786384D01*
X605891Y784199D01*
X608076Y780897D01*
X608888Y776986D01*
X608888Y739597D01*
X608076Y735736D01*
X605891Y732434D01*
X602589Y730250D01*
X598728Y729437D01*
X561136Y729437D01*
X561136Y687425D01*
X574243Y687425D01*
X580542Y688136D01*
X586028Y690016D01*
X590905Y693115D01*
X595020Y697179D01*
X596188Y699109D01*
X598982Y702056D01*
X602742Y703630D01*
X606806Y703630D01*
X610565Y702056D01*
X613410Y699109D01*
X614578Y697179D01*
X618693Y693115D01*
X623570Y690016D01*
X629005Y688136D01*
X635355Y687425D01*
X714197Y687425D01*
X720547Y688136D01*
X725982Y690016D01*
X730910Y693115D01*
X734974Y697179D01*
X738073Y702106D01*
X739190Y705256D01*
X741324Y708812D01*
X744728Y711200D01*
X748792Y712063D01*
X780694Y712012D01*
X784910Y711098D01*
X788365Y708558D01*
X790448Y704799D01*
X790752Y700481D01*
X789279Y696468D01*
X785622Y690575D01*
X783691Y685139D01*
X782980Y678789D01*
X782980Y582930D01*
X783386Y579170D01*
X783234Y575818D01*
X781964Y572770D01*
X779729Y570179D01*
X707491Y497840D01*
X702157Y490778D01*
X698347Y483158D01*
X696010Y474929D01*
X695198Y465988D01*
X695198Y448970D01*
X694791Y446125D01*
X693623Y443534D01*
X690626Y438759D01*
X688695Y433273D01*
X687984Y426974D01*
X687984Y331114D01*
X688695Y324815D01*
X690626Y319328D01*
X693674Y314452D01*
X697788Y310337D01*
X702665Y307238D01*
X708152Y305358D01*
X714451Y304647D01*
X768299Y304647D01*
X774649Y305358D01*
X780084Y307238D01*
X785012Y310337D01*
X789076Y314452D01*
X792175Y319328D01*
X794105Y324815D01*
X794816Y331114D01*
X794816Y426974D01*
X794105Y433273D01*
X792175Y438759D01*
X790092Y443128D01*
X789940Y446532D01*
X790854Y449783D01*
X792835Y452577D01*
X828903Y488645D01*
X832205Y490880D01*
X836117Y491642D01*
X998423Y491693D01*
X1007211Y492912D01*
X1015288Y495604D01*
X1022756Y499770D01*
X1029665Y505510D01*
X1056995Y532841D01*
X1060297Y535076D01*
X1064209Y535838D01*
X1116330Y535736D01*
X1120343Y534924D01*
X1123645Y532587D01*
X1125829Y529082D01*
X1126388Y525018D01*
X1125372Y521106D01*
X1123950Y518210D01*
X1120444Y507136D01*
X1118666Y495655D01*
X1118666Y484073D01*
X1120444Y472592D01*
X1123950Y461518D01*
X1129131Y451104D01*
X1135786Y441604D01*
X1143863Y433222D01*
X1153109Y426161D01*
X1163269Y420624D01*
X1174242Y416712D01*
X1185621Y414477D01*
X1197254Y414020D01*
X1208786Y415391D01*
X1219962Y418439D01*
X1230579Y423214D01*
X1240332Y429514D01*
X1249019Y437235D01*
X1256385Y446227D01*
X1262329Y456184D01*
X1266698Y466953D01*
X1269339Y478282D01*
X1270203Y489864D01*
X1269339Y501446D01*
X1266698Y512775D01*
X1263040Y521817D01*
X1262278Y525678D01*
X1263091Y529539D01*
X1265275Y532790D01*
X1268577Y534974D01*
X1272438Y535736D01*
X1285494Y535736D01*
X1291793Y536448D01*
X1297279Y538378D01*
X1302156Y541477D01*
X1306271Y545541D01*
X1309319Y550468D01*
X1311249Y555904D01*
X1311960Y562254D01*
X1311960Y601726D01*
X1311249Y608076D01*
X1310182Y611124D01*
X1309624Y614476D01*
X1310182Y617829D01*
X1311249Y620928D01*
X1311960Y627227D01*
X1311960Y666750D01*
X1311249Y673049D01*
X1310182Y676148D01*
X1309624Y679500D01*
X1310182Y682853D01*
X1311249Y685901D01*
X1311960Y692251D01*
X1311960Y731723D01*
X1311249Y738073D01*
X1310182Y741121D01*
X1309624Y744474D01*
X1310182Y747826D01*
X1311249Y750925D01*
X1311960Y757224D01*
X1311960Y760476D01*
X1243533Y760476D01*
X1240536Y758799D01*
X1237183Y758190D01*
X1154633Y758190D01*
X1151229Y758799D01*
X1148232Y760476D01*
X1076045Y760476D01*
X1073048Y758799D01*
X1069644Y758190D01*
X969060Y758190D01*
X965149Y759002D01*
X961898Y761187D01*
X944676Y778408D01*
X942441Y781710D01*
X941679Y785571D01*
X942441Y789482D01*
X944676Y792784D01*
X947978Y794969D01*
X951839Y795731D01*
X1069644Y795731D01*
X1073048Y795172D01*
X1076045Y793496D01*
X1148232Y793496D01*
X1151229Y795172D01*
X1154582Y795731D01*
X1237132Y795731D01*
X1240536Y795172D01*
X1243533Y793496D01*
X1311960Y793496D01*
X1311960Y796747D01*
X1311249Y803046D01*
X1310182Y806145D01*
X1309624Y809498D01*
X1310182Y812850D01*
X1311249Y815898D01*
X1311960Y822248D01*
X1311960Y861720D01*
X1311249Y868070D01*
X1310182Y871118D01*
X1309624Y874471D01*
X1310182Y877824D01*
X1311249Y880922D01*
X1311960Y887221D01*
X1311960Y926744D01*
X1311249Y933043D01*
X1310182Y936142D01*
X1309624Y939495D01*
X1310182Y942848D01*
X1311249Y945896D01*
X1311960Y952246D01*
X1311960Y991717D01*
X1311249Y998067D01*
X1310182Y1001115D01*
X1309624Y1004468D01*
X1310182Y1007821D01*
X1311249Y1010919D01*
X1311960Y1017219D01*
X1311960Y1056995D01*
X1312773Y1060958D01*
X1315059Y1064310D01*
X1318514Y1066495D01*
X1322527Y1067155D01*
X1328216Y1066901D01*
X1339748Y1068273D01*
X1350975Y1071321D01*
X1361592Y1076096D01*
X1371295Y1082395D01*
X1379982Y1090117D01*
X1387398Y1099108D01*
X1393342Y1109065D01*
X1397660Y1119835D01*
X1400302Y1131163D01*
X1401216Y1142746D01*
X1400302Y1154328D01*
X1397660Y1165656D01*
X1393342Y1176426D01*
X1387398Y1186383D01*
X1379982Y1195374D01*
X1371295Y1203096D01*
X1361592Y1209395D01*
X1357884Y1211072D01*
X1354683Y1213358D01*
X1352550Y1216660D01*
X1351838Y1220520D01*
X1352702Y1224330D01*
X1354886Y1227582D01*
X1358188Y1229715D01*
X1361998Y1230477D01*
X1452321Y1230528D01*
X1461109Y1231747D01*
X1469186Y1234490D01*
X1476654Y1238605D01*
X1483563Y1244346D01*
X1995017Y1755800D01*
X1998268Y1757984D01*
X2002180Y1758746D01*
X2015947Y1758746D01*
X2019807Y1757984D01*
X2023110Y1755800D01*
X2025345Y1752498D01*
X2026107Y1748586D01*
X2025345Y1744725D01*
X2023110Y1741424D01*
X2020265Y1738528D01*
X2012899Y1728724D01*
X2007006Y1717954D01*
X2002739Y1706473D01*
X2000148Y1694535D01*
X1999284Y1682292D01*
X2000148Y1670050D01*
X2002739Y1658112D01*
X2007006Y1646631D01*
X2012899Y1635861D01*
X2020265Y1626057D01*
X2028901Y1617370D01*
X2038705Y1610055D01*
X2049475Y1604162D01*
X2060956Y1599895D01*
X2072944Y1597304D01*
X2085492Y1596390D01*
X2164791Y1596390D01*
X2177389Y1597304D01*
X2189327Y1599895D01*
X2200808Y1604162D01*
X2211578Y1610055D01*
X2221382Y1617370D01*
X2230069Y1626057D01*
X2237384Y1635861D01*
X2243277Y1646631D01*
X2247544Y1658112D01*
X2247900Y1659636D01*
X2249728Y1663649D01*
X2253132Y1666493D01*
X2257450Y1667662D01*
X2262987Y1667865D01*
X2269439Y1668932D01*
X2273808Y1668678D01*
X2277668Y1666646D01*
X2280310Y1663192D01*
X2281275Y1658924D01*
X2281275Y1623364D01*
X2280513Y1619453D01*
X2278278Y1616151D01*
X2233371Y1571244D01*
X2230932Y1569466D01*
X2228088Y1568450D01*
X2025548Y1568399D01*
X2019249Y1567688D01*
X2013762Y1565757D01*
X2008886Y1562709D01*
X2004771Y1558594D01*
X2001723Y1553718D01*
X1999792Y1548231D01*
X1999081Y1541932D01*
X1999081Y1423060D01*
X1999792Y1416761D01*
X2001723Y1411274D01*
X2004771Y1406398D01*
X2008886Y1402283D01*
X2013762Y1399235D01*
X2019249Y1397304D01*
X2025548Y1396593D01*
X2060143Y1396593D01*
X2064054Y1395831D01*
X2067356Y1393596D01*
X2069541Y1390294D01*
X2070303Y1386433D01*
X2069541Y1382522D01*
X2067356Y1379220D01*
X1895602Y1207465D01*
X1890115Y1200861D01*
X1886508Y1195171D01*
X1882190Y1192022D01*
X1873504Y1184300D01*
X1866087Y1175308D01*
X1860143Y1165352D01*
X1855825Y1154582D01*
X1853184Y1143254D01*
X1852269Y1131671D01*
X1853184Y1120089D01*
X1855825Y1108811D01*
X1860550Y1097178D01*
X1861261Y1093317D01*
X1860499Y1089456D01*
X1858264Y1086154D01*
X1854962Y1083970D01*
X1851101Y1083208D01*
X1691284Y1083208D01*
X1684985Y1082497D01*
X1679498Y1080566D01*
X1674622Y1077518D01*
X1670507Y1073404D01*
X1667459Y1068527D01*
X1665528Y1063040D01*
X1664817Y1056741D01*
X1664817Y1017219D01*
X1665528Y1010919D01*
X1666595Y1007821D01*
X1667154Y1004468D01*
X1666595Y1001115D01*
X1665528Y998067D01*
X1664817Y991717D01*
X1664817Y952246D01*
X1665528Y945896D01*
X1666595Y942848D01*
X1667154Y939495D01*
X1666595Y936142D01*
X1665528Y933043D01*
X1664817Y926744D01*
X1664817Y923493D01*
X1733245Y923493D01*
X1736242Y925169D01*
X1739646Y925728D01*
X1822196Y925728D01*
X1825548Y925169D01*
X1828546Y923493D01*
X1900732Y923493D01*
X1903730Y925169D01*
X1907133Y925779D01*
X2191054Y925779D01*
X2194966Y925017D01*
X2198217Y922782D01*
X2231237Y889812D01*
X2233422Y886510D01*
X2234184Y882650D01*
X2234184Y827125D01*
X2233422Y823214D01*
X2231237Y819962D01*
X2227935Y817727D01*
X2224024Y816965D01*
X2117547Y816965D01*
X2113635Y817727D01*
X2110333Y819962D01*
X2054453Y875792D01*
X2047392Y881126D01*
X2039721Y884936D01*
X2031542Y887272D01*
X2022602Y888085D01*
X1907133Y888085D01*
X1903628Y888695D01*
X1900580Y890473D01*
X1828546Y890473D01*
X1825548Y888796D01*
X1822196Y888187D01*
X1739646Y888187D01*
X1736242Y888796D01*
X1733245Y890473D01*
X1664817Y890473D01*
X1664817Y887221D01*
X1665528Y880922D01*
X1666595Y877824D01*
X1667154Y874471D01*
X1666595Y871118D01*
X1665528Y868070D01*
X1664817Y861720D01*
X1664817Y822248D01*
X1665528Y815898D01*
X1666595Y812850D01*
X1667154Y809498D01*
X1666595Y806145D01*
X1665528Y803046D01*
X1664817Y796747D01*
X1664817Y757224D01*
X1665528Y750925D01*
X1666595Y747826D01*
X1667154Y744474D01*
X1666595Y741121D01*
X1665528Y738073D01*
X1664817Y731723D01*
X1664817Y728472D01*
X1733245Y728472D01*
X1736242Y730148D01*
X1739646Y730758D01*
X1822196Y730758D01*
X1825548Y730148D01*
X1828546Y728472D01*
X1900580Y728472D01*
X1903628Y730300D01*
X1907133Y730910D01*
X1967382Y730910D01*
X1971293Y730097D01*
X1974596Y727913D01*
X1991969Y710488D01*
X1994204Y707085D01*
X1994916Y703072D01*
X1994001Y699109D01*
X1991614Y695807D01*
X1988057Y693724D01*
X1984044Y693166D01*
X1907133Y693166D01*
X1903730Y693775D01*
X1900682Y695452D01*
X1828546Y695452D01*
X1825548Y693775D01*
X1822196Y693216D01*
X1739646Y693216D01*
X1736242Y693775D01*
X1733245Y695452D01*
X1664817Y695452D01*
X1664817Y692251D01*
X1665528Y685901D01*
X1666595Y682853D01*
X1667154Y679500D01*
X1666595Y676148D01*
X1665528Y673049D01*
X1664817Y666750D01*
X1664817Y638352D01*
X1664055Y634492D01*
X1661820Y631190D01*
X1658569Y629005D01*
X1654657Y628192D01*
X1647443Y628192D01*
X1643532Y629005D01*
X1640281Y631190D01*
X1638046Y634492D01*
X1637283Y638352D01*
X1637283Y716686D01*
X1555496Y716686D01*
X1555496Y609498D01*
X1574495Y609498D01*
X1578406Y608736D01*
X1581658Y606501D01*
X1583893Y603199D01*
X1584655Y599338D01*
X1583893Y595426D01*
X1581658Y592175D01*
X1575612Y586079D01*
X1573174Y584301D01*
X1570278Y583285D01*
X1565452Y583387D01*
X1553819Y582930D01*
X1542440Y580745D01*
X1531467Y576783D01*
X1521307Y571246D01*
X1512062Y564235D01*
X1503984Y555853D01*
X1497330Y546354D01*
X1492148Y535940D01*
X1488643Y524865D01*
X1486865Y513384D01*
X1486865Y501751D01*
X1488643Y490270D01*
X1492148Y479196D01*
X1497330Y468782D01*
X1503984Y459282D01*
X1512062Y450900D01*
X1521307Y443890D01*
X1531467Y438353D01*
X1542440Y434390D01*
X1553819Y432206D01*
X1565452Y431749D01*
X1576984Y433070D01*
X1588160Y436168D01*
X1598777Y440893D01*
X1608531Y447243D01*
X1617218Y454964D01*
X1624584Y463905D01*
X1630527Y473913D01*
X1634896Y484682D01*
X1637538Y495960D01*
X1638401Y507542D01*
X1637995Y512724D01*
X1638604Y517042D01*
X1640941Y520700D01*
X1653082Y532790D01*
X1656334Y534974D01*
X1660245Y535736D01*
X1870506Y535736D01*
X1876806Y536448D01*
X1882292Y538378D01*
X1887169Y541477D01*
X1891284Y545541D01*
X1894332Y550468D01*
X1896262Y555904D01*
X1896973Y562254D01*
X1896973Y590600D01*
X1897735Y594512D01*
X1899970Y597763D01*
X1903222Y599998D01*
X1907133Y600760D01*
X1954834Y600760D01*
X1958695Y599998D01*
X1961997Y597814D01*
X1964182Y594512D01*
X1964994Y590600D01*
X1964994Y384810D01*
X1966264Y376021D01*
X1968957Y367944D01*
X1973072Y360476D01*
X1978863Y353568D01*
X2016709Y315772D01*
X2023770Y310438D01*
X2031390Y306628D01*
X2039620Y304292D01*
X2048560Y303479D01*
X2273249Y303530D01*
X2282037Y304749D01*
X2290114Y307441D01*
X2297582Y311607D01*
X2304491Y317347D01*
X2354986Y367893D01*
X2360320Y374954D01*
X2364130Y382625D01*
X2366467Y390804D01*
X2367280Y399745D01*
X2367280Y485749D01*
X2367940Y489305D01*
X2369769Y492404D01*
X2372614Y494690D01*
X2376017Y495808D01*
X2381148Y496519D01*
X2389225Y499262D01*
X2396693Y503377D01*
X2403602Y509117D01*
X2624023Y729640D01*
X2629357Y736701D01*
X2633167Y744321D01*
X2635504Y752551D01*
X2636316Y761492D01*
X2636316Y794410D01*
X2637129Y798322D01*
X2640330Y802640D01*
X2643378Y807516D01*
X2645308Y813003D01*
X2646019Y819302D01*
X2646019Y973175D01*
X2645105Y981811D01*
X2645105Y1049020D01*
X2645765Y1052626D01*
X2647746Y1055827D01*
X2650693Y1058062D01*
X2654249Y1059129D01*
X2657957Y1058773D01*
X2663799Y1057198D01*
X2675331Y1055878D01*
X2686913Y1056284D01*
X2698343Y1058519D01*
X2709265Y1062431D01*
X2719476Y1067968D01*
X2728722Y1075029D01*
X2733243Y1079754D01*
X2736494Y1081989D01*
X2740304Y1082852D01*
X2744165Y1082243D01*
X2747467Y1080211D01*
X2753715Y1074470D01*
X2756103Y1071067D01*
X2756966Y1067003D01*
X2757017Y947013D01*
X2758236Y938225D01*
X2760929Y930148D01*
X2765094Y922731D01*
X2770835Y915771D01*
X2861208Y825449D01*
X2868320Y820115D01*
X2875940Y816305D01*
X2884119Y814019D01*
X2893060Y813155D01*
X2935478Y813155D01*
X2939846Y812190D01*
X2943352Y809447D01*
X2945333Y805535D01*
X2945485Y801065D01*
X2943707Y797001D01*
X2939592Y793648D01*
X2930347Y786638D01*
X2922270Y778256D01*
X2915615Y768756D01*
X2910433Y758342D01*
X2906928Y747268D01*
X2905150Y735787D01*
X2905150Y724154D01*
X2906928Y712673D01*
X2910433Y701598D01*
X2915615Y691184D01*
X2922270Y681685D01*
X2930347Y673303D01*
X2935833Y669137D01*
X2938576Y665937D01*
X2939796Y661974D01*
X2939338Y657809D01*
X2937205Y654202D01*
X2933852Y651764D01*
X2929737Y650900D01*
X2920847Y650798D01*
X2912110Y649630D01*
X2904032Y646887D01*
X2896616Y642772D01*
X2889707Y637032D01*
X2856179Y603402D01*
X2850794Y596341D01*
X2847035Y588721D01*
X2844698Y580491D01*
X2843834Y571550D01*
X2843885Y459028D01*
X2845104Y450240D01*
X2847848Y442163D01*
X2851962Y434746D01*
X2857703Y427837D01*
X2913126Y372465D01*
X2920238Y367131D01*
X2923946Y365252D01*
X2926892Y363067D01*
X2928823Y359968D01*
X2929585Y356412D01*
X2929026Y352806D01*
X2928264Y350621D01*
X2927553Y344271D01*
X2927553Y290423D01*
X2928264Y284124D01*
X2930194Y278638D01*
X2933242Y273761D01*
X2937357Y269646D01*
X2942234Y266598D01*
X2947720Y264668D01*
X2954020Y263956D01*
X2977032Y263956D01*
X2980334Y263398D01*
X2983331Y261772D01*
X2985566Y259283D01*
X3005531Y228346D01*
X3006648Y226009D01*
X3007106Y223418D01*
X3007360Y219354D01*
X3009290Y211023D01*
X3013303Y201980D01*
X3014167Y198018D01*
X3013456Y194106D01*
X3011271Y190754D01*
X3007969Y188468D01*
X3004007Y187706D01*
X1091844Y187706D01*
X1087628Y188620D01*
X1084224Y191160D01*
X1082141Y194868D01*
X1081735Y199136D01*
X1083157Y203200D01*
X1087577Y210312D01*
X1090625Y218287D01*
X1092149Y226669D01*
X1092149Y235204D01*
X1090523Y243535D01*
X1087424Y251510D01*
X1082700Y259130D01*
X986891Y385114D01*
X985316Y388061D01*
X984808Y391261D01*
X984808Y426974D01*
X984097Y433273D01*
X982167Y438759D01*
X979119Y443636D01*
X975004Y447751D01*
X970127Y450850D01*
X964641Y452729D01*
X958342Y453440D01*
X904443Y453440D01*
X898144Y452729D01*
X892657Y450850D01*
X887780Y447751D01*
X883666Y443636D01*
X880618Y438759D01*
X878687Y433273D01*
X877976Y426974D01*
X877976Y331114D01*
X878687Y324815D01*
X880618Y319328D01*
X883666Y314452D01*
X887780Y310337D01*
X892657Y307238D01*
X898144Y305358D01*
X904443Y304647D01*
X926947Y304647D01*
X929995Y304139D01*
X932789Y302768D01*
X935024Y300634D01*
X966927Y258673D01*
X968451Y255778D01*
X969010Y252526D01*
X969010Y141681D01*
X969213Y137210D01*
X969771Y132994D01*
X970787Y128828D01*
X972108Y124764D01*
X973836Y120853D01*
X975918Y117144D01*
X978357Y113639D01*
X981049Y110337D01*
X984097Y107340D01*
X987348Y104597D01*
X990904Y102158D01*
X994613Y100076D01*
X998524Y98348D01*
X1002588Y97028D01*
X1006754Y96062D01*
X1010970Y95453D01*
G37*
G36*
X2660650Y392785D02*
G01*
X2779522Y392785D01*
X2785821Y393496D01*
X2791307Y395376D01*
X2796184Y398475D01*
X2800299Y402590D01*
X2803347Y407466D01*
X2805277Y412902D01*
X2805988Y419252D01*
X2805988Y598119D01*
X2805277Y604418D01*
X2803347Y609904D01*
X2800299Y614781D01*
X2796184Y618896D01*
X2791307Y621944D01*
X2785821Y623874D01*
X2779522Y624586D01*
X2660650Y624586D01*
X2654350Y623874D01*
X2648864Y621944D01*
X2643987Y618896D01*
X2639872Y614781D01*
X2636774Y609904D01*
X2634894Y604418D01*
X2634183Y598119D01*
X2634183Y419252D01*
X2634894Y412902D01*
X2636774Y407466D01*
X2639872Y402590D01*
X2643987Y398475D01*
X2648864Y395376D01*
X2654350Y393496D01*
G37*
G36*
X1363014Y609498D02*
G01*
X1418336Y609498D01*
X1418336Y716686D01*
X1336548Y716686D01*
X1336548Y635965D01*
X1337259Y629666D01*
X1339189Y624179D01*
X1342237Y619302D01*
X1346352Y615188D01*
X1351229Y612140D01*
X1356715Y610209D01*
G37*
G36*
X495350Y687425D02*
G01*
X508457Y687425D01*
X508457Y729437D01*
X468884Y729437D01*
X468884Y713892D01*
X469595Y707542D01*
X471525Y702106D01*
X474573Y697179D01*
X478688Y693115D01*
X483565Y690016D01*
X489051Y688136D01*
G37*
G36*
X468884Y787146D02*
G01*
X508457Y787146D01*
X508457Y829208D01*
X495350Y829208D01*
X489051Y828497D01*
X483565Y826617D01*
X478688Y823518D01*
X474573Y819403D01*
X471525Y814527D01*
X469595Y809040D01*
X468884Y802741D01*
G37*
G36*
X1336548Y904646D02*
G01*
X1418336Y904646D01*
X1418336Y1011834D01*
X1363014Y1011834D01*
X1356715Y1011123D01*
X1351229Y1009192D01*
X1346352Y1006144D01*
X1342237Y1002030D01*
X1339189Y997153D01*
X1337259Y991666D01*
X1336548Y985367D01*
G37*
G36*
X1555496Y904646D02*
G01*
X1637283Y904646D01*
X1637283Y985367D01*
X1636572Y991666D01*
X1634642Y997153D01*
X1631594Y1002030D01*
X1627479Y1006144D01*
X1622602Y1009192D01*
X1617116Y1011123D01*
X1610817Y1011834D01*
X1555496Y1011834D01*
G37*
G36*
X232054Y1129487D02*
G01*
X245160Y1129487D01*
X245160Y1171549D01*
X205587Y1171549D01*
X205587Y1156004D01*
X206298Y1149654D01*
X208178Y1144219D01*
X211277Y1139291D01*
X215392Y1135227D01*
X220268Y1132128D01*
X225755Y1130198D01*
G37*
G36*
X205587Y1229258D02*
G01*
X245160Y1229258D01*
X245160Y1271320D01*
X232054Y1271320D01*
X225755Y1270609D01*
X220268Y1268679D01*
X215392Y1265631D01*
X211277Y1261516D01*
X208178Y1256639D01*
X206298Y1251153D01*
X205587Y1244854D01*
G37*

%LPD*%
G36*
X4379569Y3264357D02*
G01*
X4377588Y3264560D01*
X4233062Y3264560D01*
X4229150Y3265373D01*
X4225848Y3267557D01*
X4223664Y3270859D01*
X4222902Y3274720D01*
X4223664Y3278632D01*
X4225848Y3281934D01*
X4302302Y3358438D01*
X4307636Y3365500D01*
X4311446Y3373120D01*
X4313783Y3381349D01*
X4314596Y3390290D01*
X4314596Y3547567D01*
X4313326Y3556355D01*
X4310634Y3564432D01*
X4306468Y3571900D01*
X4300728Y3578809D01*
X4261662Y3617823D01*
X4254601Y3623157D01*
X4246981Y3626967D01*
X4238752Y3629304D01*
X4229811Y3630117D01*
X3611016Y3630117D01*
X3607155Y3630879D01*
X3603853Y3633063D01*
X3580231Y3656685D01*
X3578047Y3659987D01*
X3577234Y3663899D01*
X3577234Y3877056D01*
X3578047Y3880916D01*
X3580231Y3884218D01*
X3583533Y3886454D01*
X3587394Y3887215D01*
X3737356Y3887215D01*
X3741420Y3886352D01*
X3744823Y3883914D01*
X3746957Y3880358D01*
X3747465Y3876243D01*
X3746296Y3872229D01*
X3743604Y3869029D01*
X3741674Y3867556D01*
X3732885Y3858412D01*
X3725418Y3848150D01*
X3720490Y3838854D01*
X3763619Y3838854D01*
X3763619Y3877056D01*
X3764432Y3880916D01*
X3766616Y3884218D01*
X3769918Y3886454D01*
X3773779Y3887215D01*
X3831183Y3887215D01*
X3835095Y3886454D01*
X3838346Y3884218D01*
X3840581Y3880916D01*
X3841343Y3877056D01*
X3841343Y3838854D01*
X3884422Y3838854D01*
X3882745Y3842664D01*
X3876040Y3853434D01*
X3867861Y3863136D01*
X3860800Y3869486D01*
X3858361Y3872737D01*
X3857447Y3876700D01*
X3858107Y3880713D01*
X3860292Y3884117D01*
X3863594Y3886403D01*
X3867607Y3887215D01*
X3937355Y3887215D01*
X3941419Y3886352D01*
X3944823Y3883914D01*
X3946956Y3880358D01*
X3947464Y3876243D01*
X3946296Y3872229D01*
X3943604Y3869029D01*
X3941673Y3867556D01*
X3932885Y3858412D01*
X3925417Y3848150D01*
X3919474Y3836974D01*
X3915156Y3825036D01*
X3912463Y3812286D01*
X3911600Y3799992D01*
X3912514Y3787343D01*
X3915105Y3774948D01*
X3919474Y3763010D01*
X3925417Y3751834D01*
X3932885Y3741572D01*
X3941673Y3732428D01*
X3951681Y3724656D01*
X3962654Y3718306D01*
X3974388Y3713581D01*
X3986733Y3710482D01*
X3999331Y3709162D01*
X4011980Y3709619D01*
X4024477Y3711803D01*
X4036517Y3715715D01*
X4047947Y3721303D01*
X4058462Y3728364D01*
X4067860Y3736848D01*
X4072585Y3742486D01*
X4076090Y3745179D01*
X4080408Y3746144D01*
X4370171Y3746144D01*
X4374032Y3745382D01*
X4377334Y3743147D01*
X4389678Y3730802D01*
X4391914Y3727500D01*
X4392676Y3723640D01*
X4392676Y3687368D01*
X4393234Y3681831D01*
X4394708Y3677005D01*
X4397095Y3672535D01*
X4400600Y3668217D01*
X4443171Y3625596D01*
X4447489Y3622090D01*
X4451959Y3619703D01*
X4456836Y3618229D01*
X4462373Y3617671D01*
X4522622Y3617671D01*
X4528159Y3618229D01*
X4532985Y3619703D01*
X4537456Y3622090D01*
X4541774Y3625596D01*
X4584395Y3668217D01*
X4587900Y3672535D01*
X4590288Y3677005D01*
X4591761Y3681831D01*
X4592320Y3687368D01*
X4592320Y3747617D01*
X4591761Y3753154D01*
X4590288Y3757980D01*
X4587900Y3762451D01*
X4584395Y3766769D01*
X4541774Y3809390D01*
X4537456Y3812895D01*
X4532985Y3815283D01*
X4528159Y3816756D01*
X4522622Y3817315D01*
X4462373Y3817315D01*
X4460900Y3817162D01*
X4456480Y3817721D01*
X4452721Y3820109D01*
X4434890Y3837940D01*
X4431284Y3841242D01*
X4427575Y3844086D01*
X4423613Y3846626D01*
X4419447Y3848811D01*
X4415078Y3850589D01*
X4410608Y3852011D01*
X4406036Y3853027D01*
X4401362Y3853637D01*
X4396435Y3853840D01*
X4080408Y3853840D01*
X4076090Y3854805D01*
X4072585Y3857498D01*
X4067860Y3863136D01*
X4060799Y3869486D01*
X4058361Y3872737D01*
X4057446Y3876700D01*
X4058107Y3880713D01*
X4060291Y3884117D01*
X4063593Y3886403D01*
X4067606Y3887215D01*
X5230977Y3887215D01*
X5234889Y3886454D01*
X5238191Y3884218D01*
X5240375Y3880916D01*
X5241137Y3877056D01*
X5241137Y3736543D01*
X5240223Y3732377D01*
X5237683Y3728923D01*
X5233924Y3726840D01*
X5229656Y3726484D01*
X5225592Y3727958D01*
X5219801Y3731615D01*
X5214315Y3733495D01*
X5208016Y3734206D01*
X5154117Y3734206D01*
X5147818Y3733495D01*
X5142331Y3731615D01*
X5137454Y3728516D01*
X5133340Y3724452D01*
X5130292Y3719525D01*
X5128361Y3714089D01*
X5127650Y3707739D01*
X5127650Y3611879D01*
X5128361Y3605580D01*
X5130292Y3600094D01*
X5133289Y3595319D01*
X5134457Y3592728D01*
X5134864Y3589883D01*
X5134864Y3490569D01*
X5134102Y3486810D01*
X5132019Y3483559D01*
X5128920Y3481324D01*
X5125161Y3480409D01*
X5121351Y3480968D01*
X5119319Y3481679D01*
X5112969Y3482390D01*
X5059121Y3482390D01*
X5052822Y3481679D01*
X5047335Y3479800D01*
X5042458Y3476701D01*
X5038344Y3472586D01*
X5035296Y3467709D01*
X5033314Y3462070D01*
X5031181Y3458514D01*
X5027777Y3456127D01*
X5023713Y3455263D01*
X4809947Y3455212D01*
X4801158Y3453993D01*
X4793081Y3451301D01*
X4785664Y3447135D01*
X4778705Y3441395D01*
X4720132Y3382822D01*
X4716830Y3380587D01*
X4712970Y3379825D01*
X4437329Y3379825D01*
X4432808Y3379622D01*
X4428591Y3379012D01*
X4424426Y3378047D01*
X4420412Y3376676D01*
X4416501Y3374948D01*
X4412742Y3372916D01*
X4409236Y3370478D01*
X4405985Y3367735D01*
X4402937Y3364737D01*
X4400194Y3361436D01*
X4397806Y3357930D01*
X4395724Y3354222D01*
X4393996Y3350310D01*
X4392676Y3346246D01*
X4391660Y3342081D01*
X4391101Y3337864D01*
X4390898Y3333394D01*
X4390898Y3274466D01*
X4389983Y3270300D01*
X4387494Y3266897D01*
X4383786Y3264763D01*
G37*

%LPC*%
G36*
X4788814Y3611575D02*
G01*
X4821936Y3611575D01*
X4828235Y3612286D01*
X4833670Y3614216D01*
X4838598Y3617315D01*
X4842662Y3621379D01*
X4845761Y3626307D01*
X4847691Y3631742D01*
X4848402Y3638042D01*
X4848402Y3671163D01*
X4788814Y3671163D01*
G37*
G36*
X4663033Y3611575D02*
G01*
X4696155Y3611575D01*
X4696155Y3671163D01*
X4636566Y3671163D01*
X4636566Y3638042D01*
X4637278Y3631742D01*
X4639208Y3626307D01*
X4642307Y3621379D01*
X4646371Y3617315D01*
X4651298Y3614216D01*
X4656734Y3612286D01*
G37*
G36*
X3763619Y3717899D02*
G01*
X3763619Y3761130D01*
X3720490Y3761130D01*
X3725418Y3751834D01*
X3732885Y3741572D01*
X3741674Y3732428D01*
X3751681Y3724656D01*
G37*
G36*
X3841343Y3718051D02*
G01*
X3847947Y3721303D01*
X3858463Y3728364D01*
X3867861Y3736848D01*
X3876040Y3746550D01*
X3882745Y3757320D01*
X3884422Y3761130D01*
X3841343Y3761130D01*
G37*
G36*
X4636566Y3763822D02*
G01*
X4696155Y3763822D01*
X4696155Y3823411D01*
X4663033Y3823411D01*
X4656734Y3822700D01*
X4651298Y3820769D01*
X4646371Y3817670D01*
X4642307Y3813606D01*
X4639208Y3808679D01*
X4637278Y3803243D01*
X4636566Y3796944D01*
G37*
G36*
X4788814Y3763822D02*
G01*
X4848402Y3763822D01*
X4848402Y3796944D01*
X4847691Y3803243D01*
X4845761Y3808679D01*
X4842662Y3813606D01*
X4838598Y3817670D01*
X4833670Y3820769D01*
X4828235Y3822700D01*
X4821936Y3823411D01*
X4788814Y3823411D01*
G37*

%LPD*%
G36*
X2973832Y2929229D02*
G01*
X2969920Y2929991D01*
X2966618Y2932226D01*
X2964434Y2935478D01*
X2963672Y2939389D01*
X2963672Y2968345D01*
X2962960Y2974644D01*
X2961843Y2977743D01*
X2961284Y2981096D01*
X2961843Y2984449D01*
X2962960Y2987497D01*
X2963672Y2993847D01*
X2963672Y3033318D01*
X2962960Y3039668D01*
X2961843Y3042716D01*
X2961284Y3046069D01*
X2961843Y3049422D01*
X2962960Y3052521D01*
X2963672Y3058820D01*
X2963672Y3062071D01*
X2895244Y3062071D01*
X2892247Y3060395D01*
X2888843Y3059785D01*
X2806293Y3059785D01*
X2802890Y3060395D01*
X2799892Y3062071D01*
X2731516Y3062071D01*
X2731516Y3058922D01*
X2730804Y3055264D01*
X2728874Y3052114D01*
X2725877Y3049879D01*
X2722727Y3048304D01*
X2717444Y3044139D01*
X2713380Y3042208D01*
X2708859Y3042259D01*
X2704795Y3044240D01*
X2702001Y3047746D01*
X2701036Y3052165D01*
X2701036Y3075178D01*
X2701798Y3079089D01*
X2703982Y3082391D01*
X2714142Y3092551D01*
X2717139Y3094583D01*
X2720644Y3095498D01*
X2724251Y3095091D01*
X2799943Y3095091D01*
X2802940Y3096717D01*
X2806293Y3097276D01*
X2888843Y3097326D01*
X2892247Y3096768D01*
X2895244Y3095091D01*
X2963672Y3095091D01*
X2963672Y3098342D01*
X2962960Y3104642D01*
X2961843Y3107740D01*
X2961284Y3111093D01*
X2961843Y3114446D01*
X2962960Y3117494D01*
X2963672Y3123844D01*
X2963672Y3163316D01*
X2962960Y3169666D01*
X2961843Y3172714D01*
X2961284Y3176066D01*
X2961843Y3179419D01*
X2962960Y3182518D01*
X2963672Y3188817D01*
X2963672Y3228340D01*
X2962960Y3234639D01*
X2961843Y3237738D01*
X2961284Y3241090D01*
X2961843Y3244443D01*
X2962960Y3247491D01*
X2963672Y3253841D01*
X2963672Y3257042D01*
X2895244Y3257042D01*
X2892247Y3255365D01*
X2888843Y3254806D01*
X2806293Y3254857D01*
X2802940Y3255416D01*
X2799994Y3257042D01*
X2727655Y3257042D01*
X2724658Y3255416D01*
X2721356Y3254857D01*
X2647391Y3254806D01*
X2638602Y3253587D01*
X2630525Y3250895D01*
X2623108Y3246729D01*
X2616149Y3240989D01*
X2557272Y3182061D01*
X2555036Y3179622D01*
X2551785Y3177184D01*
X2547874Y3176219D01*
X2543860Y3176879D01*
X2540406Y3179064D01*
X2538120Y3182416D01*
X2537307Y3186379D01*
X2537307Y3210306D01*
X2538069Y3214217D01*
X2540304Y3217519D01*
X2612136Y3289350D01*
X2615438Y3291586D01*
X2619349Y3292348D01*
X2721356Y3292348D01*
X2724708Y3291738D01*
X2727706Y3290062D01*
X2799892Y3290062D01*
X2802890Y3291738D01*
X2806293Y3292348D01*
X2888843Y3292348D01*
X2892247Y3291738D01*
X2895244Y3290062D01*
X2963672Y3290062D01*
X2963672Y3293313D01*
X2962960Y3299663D01*
X2961843Y3302711D01*
X2961284Y3306064D01*
X2961843Y3309416D01*
X2962960Y3312515D01*
X2963672Y3318814D01*
X2963672Y3358337D01*
X2962960Y3364636D01*
X2961843Y3367735D01*
X2961284Y3371087D01*
X2961843Y3374440D01*
X2962960Y3377488D01*
X2963672Y3383838D01*
X2963672Y3423310D01*
X2962960Y3429660D01*
X2961030Y3435096D01*
X2957931Y3440023D01*
X2953867Y3444087D01*
X2948940Y3447186D01*
X2943504Y3449065D01*
X2937154Y3449777D01*
X2901391Y3449777D01*
X2897479Y3450539D01*
X2894228Y3452723D01*
X2891993Y3456025D01*
X2891231Y3459886D01*
X2891180Y3465880D01*
X2890012Y3474161D01*
X2887472Y3481781D01*
X2883560Y3488791D01*
X2878124Y3495344D01*
X2512466Y3861206D01*
X2505760Y3866235D01*
X2498547Y3869842D01*
X2495956Y3870604D01*
X2492298Y3872484D01*
X2489657Y3875735D01*
X2488590Y3879697D01*
X2489149Y3883761D01*
X2491282Y3887317D01*
X2494686Y3889705D01*
X2498699Y3890518D01*
X3022092Y3890518D01*
X3025952Y3889756D01*
X3029254Y3887571D01*
X3031439Y3884269D01*
X3032252Y3880358D01*
X3032252Y3856380D01*
X3031845Y3853535D01*
X3030677Y3850944D01*
X3027680Y3846220D01*
X3025800Y3840734D01*
X3025089Y3834434D01*
X3025089Y3738575D01*
X3025800Y3732276D01*
X3027680Y3726789D01*
X3030778Y3721912D01*
X3034842Y3717798D01*
X3039770Y3714699D01*
X3045206Y3712819D01*
X3051556Y3712108D01*
X3105404Y3712108D01*
X3111754Y3712819D01*
X3117189Y3714699D01*
X3122117Y3717798D01*
X3126181Y3721912D01*
X3129280Y3726789D01*
X3131159Y3732276D01*
X3131870Y3738575D01*
X3131870Y3834434D01*
X3131159Y3840734D01*
X3129280Y3846220D01*
X3126181Y3851097D01*
X3125063Y3853687D01*
X3124657Y3856482D01*
X3124657Y3880256D01*
X3125419Y3884117D01*
X3127603Y3887419D01*
X3130905Y3889654D01*
X3134817Y3890416D01*
X3463239Y3890518D01*
X3467506Y3889603D01*
X3470960Y3886962D01*
X3473043Y3883151D01*
X3475075Y3875887D01*
X3478885Y3868216D01*
X3482746Y3863136D01*
X3484270Y3860241D01*
X3484778Y3857040D01*
X3484829Y3638753D01*
X3486048Y3629964D01*
X3488791Y3621887D01*
X3492906Y3614420D01*
X3498646Y3607511D01*
X3556254Y3549954D01*
X3563365Y3544620D01*
X3570986Y3540810D01*
X3579164Y3538474D01*
X3588156Y3537661D01*
X3783431Y3537661D01*
X3787241Y3536950D01*
X3790442Y3534816D01*
X3792677Y3531717D01*
X3793591Y3527958D01*
X3793032Y3524148D01*
X3791661Y3520287D01*
X3790950Y3513988D01*
X3790950Y3498392D01*
X3830523Y3498392D01*
X3830523Y3527501D01*
X3831285Y3531362D01*
X3833520Y3534664D01*
X3836822Y3536899D01*
X3840683Y3537661D01*
X3873093Y3537661D01*
X3876954Y3536899D01*
X3880256Y3534664D01*
X3882440Y3531362D01*
X3883253Y3527501D01*
X3883253Y3498392D01*
X3920794Y3498392D01*
X3924706Y3497630D01*
X3928008Y3495446D01*
X3930192Y3492144D01*
X3930954Y3488232D01*
X3930954Y3450844D01*
X3930192Y3446983D01*
X3928008Y3443681D01*
X3924706Y3441496D01*
X3920794Y3440684D01*
X3883253Y3440684D01*
X3883253Y3409543D01*
X3882491Y3405733D01*
X3880408Y3402482D01*
X3877208Y3400247D01*
X3873449Y3399383D01*
X3869182Y3399231D01*
X3857751Y3396996D01*
X3841546Y3391204D01*
X3837381Y3391712D01*
X3833825Y3393846D01*
X3831386Y3397199D01*
X3830523Y3401314D01*
X3830523Y3440684D01*
X3790950Y3440684D01*
X3790950Y3425139D01*
X3791661Y3418789D01*
X3793591Y3413353D01*
X3796690Y3408426D01*
X3800754Y3404362D01*
X3805682Y3401263D01*
X3811117Y3399332D01*
X3817467Y3398621D01*
X3821125Y3398621D01*
X3824986Y3397859D01*
X3828287Y3395675D01*
X3830472Y3392424D01*
X3831285Y3388563D01*
X3830523Y3384702D01*
X3828389Y3381400D01*
X3819296Y3372104D01*
X3812641Y3362604D01*
X3807510Y3352190D01*
X3804005Y3341115D01*
X3802227Y3329635D01*
X3802227Y3318052D01*
X3804005Y3306572D01*
X3807510Y3295497D01*
X3812540Y3285286D01*
X3813556Y3281273D01*
X3812895Y3277108D01*
X3810609Y3273602D01*
X3761536Y3224530D01*
X3758285Y3222345D01*
X3754475Y3221532D01*
X3750665Y3222244D01*
X3747363Y3224326D01*
X3745128Y3227476D01*
X3744163Y3231235D01*
X3744722Y3235045D01*
X3746398Y3239719D01*
X3747109Y3246069D01*
X3747109Y3324910D01*
X3746398Y3331210D01*
X3744468Y3336696D01*
X3741369Y3341573D01*
X3737305Y3345687D01*
X3735425Y3346856D01*
X3732479Y3349701D01*
X3730853Y3353460D01*
X3730853Y3357524D01*
X3732479Y3361283D01*
X3735425Y3364077D01*
X3737305Y3365246D01*
X3741369Y3369360D01*
X3744468Y3374237D01*
X3746398Y3379724D01*
X3747109Y3386023D01*
X3747109Y3399129D01*
X3705047Y3399129D01*
X3705047Y3361537D01*
X3704234Y3357676D01*
X3702050Y3354374D01*
X3698748Y3352139D01*
X3694887Y3351377D01*
X3657498Y3351377D01*
X3653586Y3352139D01*
X3650284Y3354374D01*
X3648100Y3357676D01*
X3647338Y3361537D01*
X3647338Y3399129D01*
X3627272Y3399129D01*
X3623360Y3399891D01*
X3620058Y3402076D01*
X3617874Y3405378D01*
X3617112Y3409289D01*
X3617112Y3441649D01*
X3617874Y3445560D01*
X3620058Y3448862D01*
X3623360Y3451047D01*
X3627272Y3451809D01*
X3647338Y3451809D01*
X3647338Y3491382D01*
X3631742Y3491382D01*
X3625443Y3490671D01*
X3619957Y3488740D01*
X3615080Y3485692D01*
X3611981Y3482594D01*
X3608679Y3480409D01*
X3604818Y3479596D01*
X3600907Y3480409D01*
X3597605Y3482594D01*
X3564737Y3515360D01*
X3557676Y3520744D01*
X3550056Y3524504D01*
X3541877Y3526840D01*
X3532886Y3527704D01*
X3237026Y3527704D01*
X3233166Y3528466D01*
X3229864Y3530650D01*
X3227679Y3533952D01*
X3226866Y3537864D01*
X3226866Y3583076D01*
X3227679Y3586937D01*
X3229864Y3590239D01*
X3233166Y3592474D01*
X3237026Y3593236D01*
X3268217Y3593236D01*
X3272688Y3593439D01*
X3276904Y3593998D01*
X3281070Y3595014D01*
X3285134Y3596335D01*
X3289046Y3598062D01*
X3292754Y3600145D01*
X3296259Y3602583D01*
X3299561Y3605276D01*
X3302558Y3608324D01*
X3305301Y3611575D01*
X3307689Y3615131D01*
X3309772Y3618839D01*
X3311499Y3622751D01*
X3312871Y3626764D01*
X3313836Y3630929D01*
X3314446Y3635146D01*
X3314649Y3639667D01*
X3314649Y3716477D01*
X3315055Y3719322D01*
X3316173Y3721912D01*
X3319272Y3726789D01*
X3321202Y3732276D01*
X3321913Y3738575D01*
X3321913Y3834434D01*
X3321202Y3840734D01*
X3319272Y3846220D01*
X3316173Y3851097D01*
X3312109Y3855212D01*
X3307181Y3858310D01*
X3301746Y3860190D01*
X3295396Y3860901D01*
X3241548Y3860901D01*
X3235248Y3860190D01*
X3229762Y3858310D01*
X3224885Y3855212D01*
X3220770Y3851097D01*
X3217672Y3846220D01*
X3215792Y3840734D01*
X3215081Y3834434D01*
X3215081Y3814419D01*
X3214827Y3812133D01*
X3213557Y3806850D01*
X3213150Y3798315D01*
X3215081Y3786073D01*
X3215081Y3738575D01*
X3215792Y3732276D01*
X3217672Y3726789D01*
X3220669Y3722065D01*
X3221837Y3719474D01*
X3222244Y3716680D01*
X3222244Y3695801D01*
X3221431Y3691890D01*
X3219246Y3688638D01*
X3215944Y3686403D01*
X3212084Y3685641D01*
X3119323Y3685590D01*
X3110534Y3684371D01*
X3102457Y3681679D01*
X3095040Y3677513D01*
X3088081Y3671773D01*
X3052013Y3635705D01*
X3048711Y3633470D01*
X3044850Y3632708D01*
X3015589Y3632708D01*
X3011881Y3633419D01*
X3008680Y3635451D01*
X3006445Y3638448D01*
X3005480Y3642106D01*
X3004515Y3654653D01*
X3001873Y3665931D01*
X2997555Y3676700D01*
X2991612Y3686708D01*
X2984195Y3695649D01*
X2975508Y3703370D01*
X2965805Y3709720D01*
X2955188Y3714445D01*
X2943961Y3717544D01*
X2932430Y3718864D01*
X2920847Y3718407D01*
X2909417Y3716223D01*
X2898495Y3712260D01*
X2888284Y3706723D01*
X2879039Y3699713D01*
X2871012Y3691331D01*
X2864307Y3681831D01*
X2859176Y3671417D01*
X2855671Y3660343D01*
X2853893Y3648862D01*
X2853893Y3637229D01*
X2855671Y3625748D01*
X2859176Y3614674D01*
X2864307Y3604260D01*
X2871012Y3594760D01*
X2879039Y3586378D01*
X2888284Y3579368D01*
X2898495Y3573830D01*
X2909417Y3569868D01*
X2920847Y3567684D01*
X2932430Y3567226D01*
X2937357Y3567328D01*
X2940202Y3566363D01*
X2942640Y3564534D01*
X2954731Y3552545D01*
X2961741Y3547262D01*
X2969361Y3543452D01*
X2977591Y3541115D01*
X2986532Y3540302D01*
X3009900Y3540302D01*
X3013760Y3539540D01*
X3017062Y3537305D01*
X3019247Y3534003D01*
X3020060Y3530142D01*
X3020060Y3470757D01*
X3021330Y3461969D01*
X3024022Y3453892D01*
X3028137Y3446475D01*
X3033928Y3439566D01*
X3080054Y3393389D01*
X3082239Y3390087D01*
X3083102Y3386124D01*
X3087014Y3385362D01*
X3090316Y3383178D01*
X3104032Y3369513D01*
X3111042Y3364229D01*
X3118662Y3360420D01*
X3126841Y3358083D01*
X3135782Y3357270D01*
X3199993Y3357270D01*
X3203854Y3356508D01*
X3207156Y3354273D01*
X3209340Y3350971D01*
X3210153Y3347110D01*
X3210153Y3268878D01*
X3291941Y3268878D01*
X3291941Y3347110D01*
X3292703Y3350971D01*
X3294887Y3354273D01*
X3298190Y3356508D01*
X3302101Y3357270D01*
X3306368Y3357270D01*
X3310229Y3356508D01*
X3313531Y3354273D01*
X3315715Y3350971D01*
X3316528Y3347110D01*
X3316528Y3318814D01*
X3317240Y3312515D01*
X3318306Y3309416D01*
X3318865Y3306064D01*
X3318306Y3302711D01*
X3317240Y3299663D01*
X3316528Y3293313D01*
X3316528Y3253841D01*
X3317240Y3247491D01*
X3318306Y3244443D01*
X3318865Y3241090D01*
X3318306Y3237738D01*
X3317240Y3234639D01*
X3316528Y3228340D01*
X3316528Y3225088D01*
X3384905Y3225088D01*
X3387902Y3226765D01*
X3391306Y3227324D01*
X3473856Y3227324D01*
X3477260Y3226765D01*
X3480257Y3225088D01*
X3552393Y3225088D01*
X3555441Y3226765D01*
X3558844Y3227374D01*
X3608832Y3227374D01*
X3611626Y3226968D01*
X3614216Y3225800D01*
X3619957Y3222193D01*
X3625443Y3220262D01*
X3631742Y3219551D01*
X3720592Y3219551D01*
X3726942Y3220262D01*
X3731615Y3221939D01*
X3735425Y3222498D01*
X3739184Y3221532D01*
X3742334Y3219297D01*
X3744417Y3215995D01*
X3745128Y3212185D01*
X3744315Y3208375D01*
X3742131Y3205124D01*
X3729786Y3192780D01*
X3726484Y3190595D01*
X3722573Y3189782D01*
X3558844Y3189782D01*
X3555441Y3190392D01*
X3552444Y3192068D01*
X3480257Y3192068D01*
X3477260Y3190392D01*
X3473856Y3189782D01*
X3391306Y3189782D01*
X3387902Y3190392D01*
X3384905Y3192068D01*
X3316528Y3192068D01*
X3316528Y3188817D01*
X3317240Y3182518D01*
X3318306Y3179419D01*
X3318865Y3176066D01*
X3318306Y3172714D01*
X3317240Y3169666D01*
X3316528Y3163316D01*
X3316528Y3123844D01*
X3317240Y3117494D01*
X3318306Y3114446D01*
X3318865Y3111093D01*
X3318306Y3107740D01*
X3317240Y3104642D01*
X3316528Y3098342D01*
X3316528Y3058820D01*
X3317240Y3052521D01*
X3318306Y3049422D01*
X3318865Y3046069D01*
X3318306Y3042716D01*
X3317240Y3039668D01*
X3316528Y3033318D01*
X3316528Y2993847D01*
X3317240Y2987497D01*
X3318306Y2984449D01*
X3318865Y2981096D01*
X3318306Y2977743D01*
X3315970Y2969717D01*
X3313582Y2966720D01*
X3310331Y2964840D01*
X3306572Y2964281D01*
X3302914Y2965145D01*
X3299764Y2967278D01*
X3290925Y2976168D01*
X3288537Y2979877D01*
X3287979Y2984195D01*
X3291230Y2993898D01*
X3291941Y3000197D01*
X3291941Y3080918D01*
X3210153Y3080918D01*
X3210153Y3010509D01*
X3209340Y3006598D01*
X3207156Y3003346D01*
X3203854Y3001111D01*
X3199993Y3000349D01*
X3103321Y3000298D01*
X3094532Y2999079D01*
X3086354Y2996336D01*
X3082594Y2995828D01*
X3078835Y2996742D01*
X3075736Y2998978D01*
X3073704Y3002229D01*
X3072993Y3005988D01*
X3072993Y3080918D01*
X2991205Y3080918D01*
X2991205Y3000197D01*
X2991916Y2993898D01*
X2993796Y2988411D01*
X2996895Y2983534D01*
X3000959Y2979420D01*
X3005886Y2976321D01*
X3011322Y2974441D01*
X3017672Y2973730D01*
X3034792Y2973730D01*
X3038703Y2972968D01*
X3042005Y2970733D01*
X3044190Y2967431D01*
X3044952Y2963570D01*
X3044190Y2959658D01*
X3042005Y2956356D01*
X3017824Y2932226D01*
X3014522Y2929991D01*
X3010662Y2929229D01*
G37*

%LPC*%
G36*
X2991205Y3268878D02*
G01*
X3072993Y3268878D01*
X3072993Y3375964D01*
X3017672Y3376066D01*
X3011322Y3375355D01*
X3005886Y3373424D01*
X3000959Y3370376D01*
X2996895Y3366262D01*
X2993796Y3361385D01*
X2991916Y3355898D01*
X2991205Y3349599D01*
G37*
G36*
X3705047Y3451809D02*
G01*
X3747109Y3451809D01*
X3747109Y3464915D01*
X3746398Y3471214D01*
X3744468Y3476701D01*
X3741369Y3481578D01*
X3737305Y3485692D01*
X3732377Y3488740D01*
X3726942Y3490671D01*
X3720592Y3491382D01*
X3705047Y3491382D01*
G37*

%LPD*%
G36*
X1648460Y2788412D02*
G01*
X1644599Y2789174D01*
X1641297Y2791358D01*
X1536344Y2896463D01*
X1529232Y2901848D01*
X1521612Y2905607D01*
X1513433Y2907944D01*
X1504492Y2908808D01*
X1103325Y2908808D01*
X1099464Y2909570D01*
X1096162Y2911754D01*
X992022Y3015691D01*
X989837Y3018993D01*
X989076Y3022854D01*
X989076Y3063036D01*
X988314Y3070809D01*
X988872Y3075228D01*
X991260Y3078937D01*
X993038Y3080766D01*
X996137Y3085642D01*
X998067Y3091129D01*
X998778Y3097428D01*
X998778Y3136950D01*
X998067Y3143250D01*
X996950Y3146348D01*
X996391Y3149701D01*
X996950Y3153054D01*
X998067Y3156102D01*
X998778Y3162452D01*
X998778Y3201924D01*
X998067Y3208274D01*
X996950Y3211322D01*
X996391Y3214674D01*
X996950Y3218027D01*
X998067Y3221126D01*
X998778Y3227425D01*
X998778Y3266948D01*
X998067Y3273247D01*
X996950Y3276346D01*
X996391Y3279698D01*
X996950Y3283051D01*
X998067Y3286099D01*
X998778Y3292449D01*
X998778Y3295650D01*
X930351Y3295650D01*
X927353Y3293973D01*
X923950Y3293414D01*
X841400Y3293414D01*
X837996Y3293973D01*
X834999Y3295650D01*
X762863Y3295650D01*
X759866Y3293973D01*
X756462Y3293364D01*
X684834Y3293364D01*
X680974Y3294176D01*
X677672Y3296361D01*
X675487Y3299663D01*
X674674Y3303524D01*
X674674Y3320745D01*
X675487Y3324606D01*
X677672Y3327908D01*
X680974Y3330143D01*
X684834Y3330905D01*
X756462Y3330905D01*
X759815Y3330346D01*
X762762Y3328670D01*
X835101Y3328670D01*
X838047Y3330346D01*
X841400Y3330905D01*
X923950Y3330956D01*
X927353Y3330346D01*
X930351Y3328670D01*
X998778Y3328670D01*
X998778Y3331921D01*
X998067Y3338271D01*
X996950Y3341319D01*
X996391Y3344672D01*
X996950Y3348024D01*
X998067Y3351123D01*
X998778Y3357422D01*
X998778Y3396945D01*
X998067Y3403244D01*
X996950Y3406343D01*
X996391Y3409696D01*
X996950Y3413048D01*
X998067Y3416096D01*
X998778Y3422446D01*
X998778Y3461918D01*
X998067Y3468268D01*
X996950Y3471316D01*
X996391Y3474669D01*
X996950Y3478022D01*
X998067Y3481120D01*
X998778Y3487420D01*
X998778Y3526942D01*
X998067Y3533241D01*
X996950Y3536340D01*
X996391Y3539693D01*
X996950Y3543046D01*
X998067Y3546094D01*
X998778Y3552444D01*
X998778Y3591915D01*
X998067Y3598265D01*
X996137Y3603701D01*
X993038Y3608628D01*
X988974Y3612692D01*
X984046Y3615791D01*
X978611Y3617671D01*
X974394Y3618179D01*
X970889Y3619246D01*
X967994Y3621481D01*
X966063Y3624630D01*
X965403Y3628237D01*
X965403Y3696614D01*
X966165Y3700475D01*
X968349Y3703777D01*
X981354Y3716782D01*
X984402Y3718864D01*
X991768Y3722166D01*
X1001471Y3728465D01*
X1010158Y3736187D01*
X1017574Y3745179D01*
X1023518Y3755136D01*
X1027836Y3765905D01*
X1030478Y3777234D01*
X1031392Y3788816D01*
X1030478Y3800398D01*
X1027836Y3811727D01*
X1023518Y3822496D01*
X1017574Y3832453D01*
X1010158Y3841445D01*
X1001471Y3849166D01*
X991768Y3855465D01*
X981151Y3860241D01*
X969924Y3863289D01*
X958392Y3864660D01*
X946810Y3864203D01*
X935380Y3861968D01*
X924458Y3858056D01*
X914247Y3852519D01*
X905002Y3845458D01*
X896975Y3837076D01*
X890269Y3827576D01*
X885139Y3817162D01*
X881634Y3806088D01*
X879856Y3794607D01*
X879856Y3783025D01*
X881634Y3771544D01*
X886155Y3756710D01*
X885748Y3752900D01*
X883919Y3749548D01*
X881075Y3746042D01*
X879043Y3742486D01*
X876655Y3739692D01*
X873353Y3737914D01*
X869696Y3737406D01*
X866089Y3738270D01*
X863041Y3740404D01*
X859637Y3743807D01*
X854710Y3746906D01*
X849274Y3748786D01*
X842924Y3749497D01*
X747064Y3749497D01*
X740765Y3748786D01*
X735279Y3746906D01*
X730402Y3743807D01*
X726287Y3739692D01*
X723239Y3734815D01*
X721309Y3729380D01*
X720598Y3723030D01*
X720598Y3669182D01*
X721309Y3662832D01*
X723239Y3657396D01*
X726287Y3652469D01*
X730402Y3648405D01*
X735279Y3645306D01*
X740765Y3643426D01*
X747064Y3642715D01*
X780186Y3642715D01*
X784047Y3641902D01*
X787349Y3639718D01*
X792175Y3634892D01*
X794410Y3631488D01*
X795121Y3627424D01*
X794207Y3623462D01*
X791768Y3620160D01*
X788212Y3618077D01*
X781253Y3615740D01*
X776376Y3612692D01*
X772312Y3608628D01*
X769213Y3603701D01*
X767334Y3598265D01*
X766622Y3591915D01*
X766622Y3586683D01*
X765810Y3582822D01*
X763625Y3579520D01*
X760323Y3577285D01*
X756462Y3576523D01*
X752551Y3577285D01*
X749249Y3579520D01*
X603046Y3725722D01*
X600964Y3728720D01*
X600100Y3732225D01*
X600506Y3735832D01*
X602132Y3739083D01*
X604824Y3741521D01*
X607822Y3743401D01*
X611886Y3747515D01*
X614984Y3752392D01*
X616864Y3757828D01*
X617575Y3764178D01*
X617575Y3818026D01*
X616864Y3824376D01*
X614984Y3829812D01*
X611886Y3834739D01*
X607822Y3838803D01*
X602894Y3841902D01*
X597458Y3843782D01*
X591108Y3844493D01*
X495249Y3844493D01*
X488950Y3843782D01*
X483463Y3841902D01*
X478586Y3838803D01*
X474472Y3834739D01*
X471424Y3829812D01*
X469493Y3824376D01*
X468782Y3818026D01*
X468782Y3764178D01*
X469493Y3757828D01*
X471424Y3752392D01*
X474472Y3747515D01*
X478586Y3743401D01*
X483463Y3740302D01*
X492404Y3737356D01*
X495249Y3735120D01*
X497179Y3732022D01*
X497890Y3728465D01*
X498043Y3718306D01*
X497230Y3714140D01*
X494741Y3710635D01*
X491032Y3708501D01*
X486765Y3708044D01*
X480110Y3708806D01*
X391261Y3708806D01*
X384911Y3708095D01*
X379476Y3706164D01*
X374548Y3703116D01*
X370484Y3699001D01*
X367385Y3694125D01*
X365506Y3688638D01*
X364794Y3682339D01*
X364794Y3603498D01*
X365506Y3597148D01*
X367385Y3591712D01*
X370484Y3586784D01*
X374548Y3582720D01*
X376478Y3581501D01*
X379425Y3578707D01*
X381000Y3574948D01*
X381000Y3570884D01*
X379425Y3567125D01*
X376478Y3564331D01*
X374548Y3563112D01*
X370484Y3559048D01*
X366826Y3553155D01*
X363778Y3550056D01*
X359714Y3548532D01*
X355142Y3547872D01*
X347014Y3545128D01*
X339598Y3541014D01*
X332689Y3535273D01*
X283870Y3486404D01*
X281381Y3484626D01*
X278536Y3483610D01*
X273608Y3483762D01*
X261975Y3483305D01*
X250596Y3481070D01*
X239623Y3477158D01*
X229463Y3471621D01*
X220217Y3464560D01*
X212140Y3456178D01*
X205486Y3446678D01*
X200304Y3436264D01*
X196799Y3425190D01*
X195021Y3413709D01*
X195021Y3402126D01*
X196799Y3390646D01*
X200304Y3379571D01*
X205486Y3369157D01*
X212140Y3359658D01*
X220217Y3351276D01*
X229463Y3344214D01*
X239623Y3338677D01*
X250596Y3334765D01*
X261975Y3332530D01*
X273608Y3332073D01*
X285140Y3333445D01*
X296316Y3336493D01*
X306933Y3341268D01*
X316687Y3347567D01*
X329082Y3358489D01*
X333044Y3359607D01*
X337159Y3358997D01*
X340664Y3356864D01*
X343052Y3353511D01*
X343865Y3349447D01*
X343865Y3283356D01*
X344576Y3277057D01*
X346506Y3271570D01*
X349554Y3266694D01*
X353669Y3262579D01*
X355549Y3261410D01*
X358495Y3258565D01*
X360121Y3254857D01*
X360121Y3250742D01*
X358495Y3247034D01*
X355549Y3244189D01*
X353669Y3243021D01*
X349554Y3238906D01*
X346506Y3234029D01*
X344576Y3228543D01*
X343865Y3222244D01*
X343865Y3209137D01*
X385927Y3209137D01*
X385927Y3246729D01*
X386689Y3250641D01*
X388924Y3253892D01*
X392226Y3256127D01*
X396087Y3256889D01*
X433476Y3256889D01*
X437337Y3256127D01*
X440639Y3253892D01*
X442874Y3250641D01*
X443636Y3246729D01*
X443636Y3209137D01*
X485698Y3209137D01*
X485698Y3222244D01*
X484987Y3228543D01*
X483057Y3234029D01*
X480009Y3238906D01*
X475894Y3243021D01*
X474014Y3244189D01*
X471068Y3247034D01*
X469442Y3250742D01*
X469442Y3254857D01*
X471068Y3258565D01*
X474014Y3261410D01*
X475894Y3262579D01*
X480009Y3266694D01*
X483057Y3271570D01*
X484987Y3277057D01*
X485698Y3283356D01*
X485698Y3362248D01*
X484987Y3368497D01*
X482498Y3375355D01*
X481888Y3378809D01*
X481888Y3428898D01*
X482752Y3432962D01*
X485140Y3436365D01*
X488696Y3438499D01*
X491896Y3439617D01*
X496773Y3442715D01*
X500888Y3446779D01*
X504088Y3451860D01*
X506323Y3454400D01*
X509320Y3456076D01*
X512673Y3456635D01*
X535127Y3456635D01*
X538988Y3455873D01*
X542290Y3453637D01*
X616864Y3379063D01*
X619099Y3375761D01*
X619861Y3371850D01*
X619099Y3367989D01*
X616864Y3364687D01*
X613613Y3362502D01*
X609701Y3361690D01*
X559358Y3361690D01*
X553008Y3360978D01*
X547573Y3359099D01*
X542645Y3356000D01*
X538581Y3351936D01*
X535482Y3347008D01*
X533603Y3341573D01*
X532892Y3335223D01*
X532892Y3256381D01*
X533603Y3250031D01*
X535482Y3244596D01*
X538581Y3239719D01*
X542645Y3235604D01*
X544576Y3234436D01*
X547522Y3231591D01*
X549097Y3227832D01*
X549097Y3223768D01*
X547522Y3220008D01*
X544576Y3217214D01*
X542645Y3216046D01*
X538581Y3211931D01*
X535482Y3207054D01*
X533603Y3201568D01*
X532892Y3195269D01*
X532892Y3182162D01*
X574954Y3182162D01*
X574954Y3219754D01*
X575716Y3223615D01*
X577900Y3226917D01*
X581202Y3229102D01*
X585114Y3229914D01*
X600100Y3229914D01*
X604012Y3229152D01*
X607263Y3226968D01*
X621131Y3213201D01*
X628599Y3207562D01*
X630783Y3205327D01*
X632155Y3202533D01*
X632612Y3199434D01*
X632612Y3182162D01*
X674674Y3182162D01*
X674674Y3190748D01*
X675487Y3194659D01*
X677672Y3197961D01*
X680974Y3200146D01*
X684834Y3200908D01*
X692810Y3200908D01*
X696671Y3200146D01*
X699922Y3197961D01*
X702157Y3194710D01*
X702970Y3190849D01*
X702208Y3186988D01*
X700074Y3183686D01*
X697585Y3181096D01*
X692962Y3175000D01*
X689914Y3172358D01*
X690067Y3171444D01*
X686409Y3158794D01*
X685596Y3150057D01*
X685596Y3139643D01*
X684784Y3135731D01*
X682599Y3132429D01*
X679297Y3130245D01*
X675436Y3129483D01*
X632612Y3129483D01*
X632612Y3088792D01*
X631850Y3084880D01*
X629666Y3081578D01*
X626364Y3079394D01*
X622452Y3078632D01*
X585114Y3078632D01*
X581202Y3079394D01*
X577900Y3081578D01*
X575716Y3084880D01*
X574954Y3088792D01*
X574954Y3129483D01*
X532892Y3129483D01*
X532892Y3118053D01*
X532079Y3114192D01*
X529894Y3110890D01*
X526592Y3108706D01*
X522732Y3107893D01*
X485749Y3107893D01*
X481838Y3108706D01*
X478535Y3110890D01*
X476351Y3114192D01*
X475589Y3118053D01*
X476351Y3121964D01*
X478535Y3125266D01*
X480009Y3126689D01*
X483057Y3131616D01*
X484987Y3137052D01*
X485698Y3143402D01*
X485698Y3156458D01*
X443636Y3156458D01*
X443636Y3116884D01*
X457403Y3116884D01*
X461314Y3116122D01*
X464616Y3113938D01*
X466801Y3110636D01*
X467563Y3106724D01*
X466801Y3102864D01*
X464616Y3099562D01*
X463194Y3098139D01*
X460095Y3093212D01*
X458165Y3087776D01*
X457454Y3081426D01*
X457454Y2985566D01*
X458165Y2979267D01*
X460095Y2973781D01*
X463194Y2968904D01*
X467258Y2964789D01*
X472185Y2961741D01*
X477621Y2959811D01*
X483971Y2959100D01*
X537819Y2959100D01*
X544118Y2959811D01*
X549605Y2961741D01*
X554482Y2964789D01*
X558596Y2968904D01*
X561644Y2973781D01*
X564642Y2982925D01*
X566928Y2985820D01*
X570077Y2987751D01*
X573684Y2988411D01*
X665937Y2988411D01*
X669798Y2987649D01*
X673100Y2985414D01*
X675335Y2982112D01*
X676097Y2978251D01*
X675335Y2974390D01*
X673150Y2971088D01*
X624535Y2922320D01*
X621233Y2920085D01*
X617321Y2919323D01*
X542493Y2919272D01*
X533908Y2918053D01*
X526034Y2915412D01*
X518769Y2911398D01*
X512013Y2905760D01*
X462889Y2856636D01*
X459790Y2854502D01*
X456082Y2853690D01*
X452374Y2854248D01*
X449122Y2855366D01*
X442823Y2856077D01*
X388975Y2856077D01*
X382625Y2855366D01*
X377190Y2853486D01*
X372262Y2850388D01*
X368198Y2846273D01*
X365099Y2841396D01*
X363169Y2835910D01*
X362458Y2829610D01*
X362458Y2826766D01*
X361696Y2822905D01*
X359511Y2819603D01*
X356209Y2817418D01*
X352298Y2816606D01*
X348437Y2817418D01*
X345135Y2819603D01*
X324561Y2840075D01*
X319735Y2843834D01*
X317703Y2845104D01*
X312267Y2847949D01*
X310032Y2848864D01*
X304190Y2850591D01*
X301802Y2851099D01*
X295757Y2851759D01*
X161696Y2850032D01*
X157784Y2850794D01*
X154432Y2852978D01*
X152196Y2856280D01*
X151384Y2860192D01*
X151384Y3596944D01*
X152146Y3600805D01*
X154381Y3604107D01*
X437591Y3887520D01*
X440893Y3889756D01*
X444754Y3890518D01*
X710438Y3890518D01*
X714349Y3889756D01*
X717600Y3887571D01*
X719836Y3884269D01*
X720598Y3880358D01*
X720598Y3859174D01*
X721309Y3852875D01*
X723239Y3847388D01*
X726287Y3842512D01*
X730402Y3838397D01*
X735279Y3835298D01*
X740765Y3833418D01*
X747064Y3832707D01*
X842924Y3832707D01*
X849274Y3833418D01*
X854710Y3835298D01*
X859637Y3838397D01*
X863701Y3842512D01*
X866800Y3847388D01*
X868730Y3852875D01*
X869442Y3859174D01*
X869442Y3880358D01*
X870203Y3884269D01*
X872388Y3887571D01*
X875690Y3889756D01*
X879602Y3890518D01*
X1450390Y3890518D01*
X1454404Y3889705D01*
X1457756Y3887419D01*
X1459890Y3883964D01*
X1460550Y3879951D01*
X1459585Y3876040D01*
X1457147Y3872788D01*
X1453642Y3870706D01*
X1448663Y3869080D01*
X1441653Y3865168D01*
X1435100Y3859733D01*
X1275689Y3700272D01*
X1273251Y3698494D01*
X1270355Y3697478D01*
X1267307Y3697376D01*
X1262227Y3697986D01*
X1250645Y3697528D01*
X1239215Y3695293D01*
X1228293Y3691382D01*
X1218082Y3685844D01*
X1208836Y3678783D01*
X1200810Y3670401D01*
X1194104Y3660901D01*
X1188974Y3650487D01*
X1185468Y3639413D01*
X1183690Y3627932D01*
X1183690Y3616350D01*
X1185468Y3604869D01*
X1188974Y3593795D01*
X1194104Y3583381D01*
X1200810Y3573881D01*
X1208836Y3565499D01*
X1218082Y3558438D01*
X1228293Y3552901D01*
X1235557Y3550310D01*
X1239062Y3548126D01*
X1241450Y3544773D01*
X1242314Y3540709D01*
X1242314Y3439820D01*
X1324102Y3439820D01*
X1324102Y3520541D01*
X1323390Y3526891D01*
X1321460Y3532327D01*
X1318361Y3537254D01*
X1314297Y3541318D01*
X1305153Y3546805D01*
X1302766Y3550208D01*
X1301953Y3554323D01*
X1302867Y3558438D01*
X1305356Y3561791D01*
X1313992Y3569512D01*
X1321409Y3578504D01*
X1327353Y3588461D01*
X1331671Y3599230D01*
X1334312Y3610559D01*
X1335227Y3622141D01*
X1334566Y3630676D01*
X1335176Y3634994D01*
X1337513Y3638651D01*
X1481429Y3782517D01*
X1484731Y3784752D01*
X1488592Y3785514D01*
X1752498Y3785514D01*
X1756410Y3784752D01*
X1759712Y3782517D01*
X1761896Y3779265D01*
X1762658Y3775354D01*
X1762658Y3611981D01*
X1761896Y3608070D01*
X1759712Y3604818D01*
X1756410Y3602583D01*
X1752498Y3601821D01*
X1713433Y3601770D01*
X1704644Y3600551D01*
X1696567Y3597859D01*
X1689150Y3593693D01*
X1682191Y3587953D01*
X1650542Y3556304D01*
X1647240Y3554069D01*
X1643380Y3553307D01*
X1593951Y3553307D01*
X1590040Y3554069D01*
X1586738Y3556304D01*
X1584553Y3559556D01*
X1583791Y3563467D01*
X1583791Y3591915D01*
X1583080Y3598265D01*
X1581150Y3603701D01*
X1578051Y3608628D01*
X1573987Y3612692D01*
X1569059Y3615791D01*
X1563624Y3617671D01*
X1557274Y3618382D01*
X1378102Y3618382D01*
X1371752Y3617671D01*
X1366316Y3615791D01*
X1361389Y3612692D01*
X1357325Y3608628D01*
X1354226Y3603701D01*
X1352346Y3598265D01*
X1351635Y3591915D01*
X1351635Y3552444D01*
X1352346Y3546094D01*
X1353413Y3543046D01*
X1353972Y3539693D01*
X1353413Y3536340D01*
X1352346Y3533241D01*
X1351635Y3526942D01*
X1351635Y3487420D01*
X1352346Y3481120D01*
X1353413Y3478022D01*
X1353972Y3474669D01*
X1353413Y3471316D01*
X1352346Y3468268D01*
X1351635Y3461918D01*
X1351635Y3458667D01*
X1420012Y3458667D01*
X1423009Y3460343D01*
X1426413Y3460953D01*
X1508963Y3460902D01*
X1512316Y3460343D01*
X1515313Y3458667D01*
X1587601Y3458667D01*
X1590598Y3460343D01*
X1593951Y3460902D01*
X1668475Y3460953D01*
X1677263Y3462172D01*
X1685340Y3464864D01*
X1692808Y3469030D01*
X1699717Y3474770D01*
X1731365Y3506419D01*
X1734667Y3508654D01*
X1738579Y3509416D01*
X1758594Y3509416D01*
X1762455Y3508654D01*
X1765757Y3506419D01*
X1767941Y3503117D01*
X1768754Y3499256D01*
X1767941Y3495344D01*
X1765757Y3492042D01*
X1697532Y3423665D01*
X1694230Y3421481D01*
X1690370Y3420719D01*
X1593951Y3420719D01*
X1590497Y3421278D01*
X1587500Y3423005D01*
X1585214Y3425647D01*
X1515364Y3425647D01*
X1512366Y3423970D01*
X1508963Y3423412D01*
X1426413Y3423412D01*
X1423009Y3423970D01*
X1420012Y3425647D01*
X1351635Y3425647D01*
X1351635Y3422446D01*
X1352346Y3416096D01*
X1353413Y3413048D01*
X1353972Y3409696D01*
X1353413Y3406343D01*
X1352346Y3403244D01*
X1351635Y3396945D01*
X1351635Y3357422D01*
X1352346Y3351123D01*
X1353413Y3348024D01*
X1353972Y3344672D01*
X1353413Y3341319D01*
X1352346Y3338271D01*
X1351635Y3331921D01*
X1351635Y3292449D01*
X1352346Y3286099D01*
X1353413Y3283051D01*
X1353972Y3279698D01*
X1353413Y3276346D01*
X1352346Y3273247D01*
X1351635Y3266948D01*
X1351635Y3263696D01*
X1420012Y3263696D01*
X1423009Y3265373D01*
X1426413Y3265932D01*
X1508963Y3265932D01*
X1512366Y3265373D01*
X1515364Y3263696D01*
X1585214Y3263696D01*
X1587500Y3266338D01*
X1590497Y3268014D01*
X1593951Y3268624D01*
X1731873Y3268624D01*
X1735785Y3267862D01*
X1739087Y3265627D01*
X1741271Y3262325D01*
X1742033Y3258464D01*
X1741271Y3254552D01*
X1739036Y3251250D01*
X1719173Y3231388D01*
X1715871Y3229203D01*
X1711960Y3228441D01*
X1593951Y3228441D01*
X1590548Y3229000D01*
X1587601Y3230676D01*
X1515313Y3230676D01*
X1512316Y3229000D01*
X1508963Y3228441D01*
X1426413Y3228390D01*
X1423009Y3229000D01*
X1420012Y3230676D01*
X1351635Y3230676D01*
X1351635Y3227425D01*
X1352346Y3221126D01*
X1353413Y3218027D01*
X1353972Y3214674D01*
X1353413Y3211322D01*
X1352346Y3208274D01*
X1351635Y3201924D01*
X1351635Y3173526D01*
X1350822Y3169615D01*
X1348638Y3166364D01*
X1345336Y3164128D01*
X1341475Y3163366D01*
X1334262Y3163366D01*
X1330350Y3164128D01*
X1327048Y3166364D01*
X1324864Y3169615D01*
X1324102Y3173526D01*
X1324102Y3251860D01*
X1242314Y3251860D01*
X1242314Y3144672D01*
X1270304Y3144672D01*
X1274216Y3143910D01*
X1277518Y3141726D01*
X1279702Y3138424D01*
X1280464Y3134512D01*
X1279702Y3130651D01*
X1277518Y3127349D01*
X1261465Y3111296D01*
X1259027Y3109518D01*
X1256131Y3108502D01*
X1251254Y3108604D01*
X1239672Y3108147D01*
X1228242Y3105962D01*
X1217320Y3102000D01*
X1207109Y3096463D01*
X1197864Y3089452D01*
X1189837Y3081070D01*
X1183132Y3071571D01*
X1178001Y3061157D01*
X1174496Y3050082D01*
X1172718Y3038602D01*
X1172718Y3026968D01*
X1174496Y3015488D01*
X1178001Y3004413D01*
X1183132Y2993999D01*
X1189837Y2984500D01*
X1197864Y2976118D01*
X1207109Y2969107D01*
X1217320Y2963570D01*
X1228242Y2959608D01*
X1239672Y2957423D01*
X1251254Y2956966D01*
X1262786Y2958287D01*
X1274013Y2961386D01*
X1284630Y2966110D01*
X1294333Y2972460D01*
X1303020Y2980182D01*
X1310436Y2989122D01*
X1316380Y2999130D01*
X1320698Y3009900D01*
X1323340Y3021177D01*
X1324254Y3032760D01*
X1323848Y3037941D01*
X1324457Y3042259D01*
X1326794Y3045917D01*
X1348841Y3067964D01*
X1352143Y3070199D01*
X1356004Y3070961D01*
X1531112Y3070961D01*
X1535328Y3070047D01*
X1538782Y3067405D01*
X1540865Y3063595D01*
X1541119Y3059226D01*
X1540408Y3054604D01*
X1540408Y3042970D01*
X1542186Y3031490D01*
X1545691Y3020415D01*
X1550822Y3010001D01*
X1557528Y3000502D01*
X1567891Y2989783D01*
X1569262Y2987040D01*
X1569770Y2983992D01*
X1569821Y2977032D01*
X1571040Y2968294D01*
X1573733Y2960217D01*
X1577898Y2952800D01*
X1583639Y2945892D01*
X1723999Y2805734D01*
X1726184Y2802432D01*
X1726996Y2798572D01*
X1726184Y2794660D01*
X1723999Y2791358D01*
X1720697Y2789174D01*
X1716836Y2788412D01*
G37*

%LPC*%
G36*
X370332Y3116884D02*
G01*
X385927Y3116884D01*
X385927Y3156458D01*
X343865Y3156458D01*
X343865Y3143402D01*
X344576Y3137052D01*
X346506Y3131616D01*
X349554Y3126689D01*
X353669Y3122625D01*
X358546Y3119526D01*
X364032Y3117596D01*
G37*
G36*
X1049832Y3144672D02*
G01*
X1105154Y3144672D01*
X1105154Y3251860D01*
X1023366Y3251860D01*
X1023366Y3171190D01*
X1024077Y3164840D01*
X1025956Y3159404D01*
X1029055Y3154476D01*
X1033119Y3150412D01*
X1038047Y3147314D01*
X1043482Y3145383D01*
G37*
G36*
X1023366Y3439820D02*
G01*
X1105154Y3439820D01*
X1105154Y3547008D01*
X1049832Y3547008D01*
X1043482Y3546297D01*
X1038047Y3544417D01*
X1033119Y3541318D01*
X1029055Y3537254D01*
X1025956Y3532327D01*
X1024077Y3526891D01*
X1023366Y3520541D01*
G37*

%LPD*%
G36*
X5823051Y2075942D02*
G01*
X5819089Y2077008D01*
X5815888Y2079599D01*
X5751525Y2143912D01*
X5744413Y2149246D01*
X5736793Y2153056D01*
X5728614Y2155393D01*
X5719673Y2156206D01*
X5606643Y2156206D01*
X5603595Y2156714D01*
X5600801Y2158085D01*
X5589930Y2168652D01*
X5580430Y2175306D01*
X5570016Y2180488D01*
X5558942Y2183993D01*
X5547461Y2185771D01*
X5535828Y2185771D01*
X5524347Y2183993D01*
X5513273Y2180488D01*
X5502859Y2175306D01*
X5493359Y2168652D01*
X5488635Y2164080D01*
X5485130Y2161844D01*
X5481015Y2161235D01*
X5477002Y2162302D01*
X5473750Y2164892D01*
X5469636Y2169871D01*
X5329732Y2309418D01*
X5322671Y2314803D01*
X5315051Y2318562D01*
X5306822Y2320899D01*
X5297881Y2321763D01*
X5199989Y2321763D01*
X5196179Y2322474D01*
X5192928Y2324557D01*
X5190693Y2327706D01*
X5189829Y2331466D01*
X5190388Y2335276D01*
X5191963Y2339797D01*
X5192674Y2346147D01*
X5192674Y2465019D01*
X5191963Y2471318D01*
X5190083Y2476804D01*
X5186984Y2481681D01*
X5182870Y2485796D01*
X5177993Y2488844D01*
X5172506Y2490774D01*
X5166207Y2491486D01*
X4987340Y2491486D01*
X4981041Y2490774D01*
X4975555Y2488844D01*
X4970678Y2485796D01*
X4966563Y2481681D01*
X4963515Y2476804D01*
X4961585Y2471318D01*
X4960874Y2465019D01*
X4960874Y2346147D01*
X4961585Y2339797D01*
X4963160Y2335276D01*
X4963718Y2331466D01*
X4962855Y2327706D01*
X4960620Y2324557D01*
X4957368Y2322474D01*
X4953609Y2321763D01*
X4791100Y2321763D01*
X4787239Y2322525D01*
X4782820Y2325827D01*
X4777943Y2328875D01*
X4772456Y2330805D01*
X4766157Y2331516D01*
X4702860Y2331516D01*
X4699000Y2332278D01*
X4695698Y2334463D01*
X4673955Y2356205D01*
X4671771Y2359507D01*
X4670958Y2363419D01*
X4670958Y2619908D01*
X4671872Y2624124D01*
X4674463Y2627579D01*
X4678222Y2629662D01*
X4682490Y2630017D01*
X4686554Y2628544D01*
X4690770Y2625852D01*
X4696256Y2623972D01*
X4702556Y2623261D01*
X4881778Y2623261D01*
X4888077Y2623972D01*
X4893564Y2625852D01*
X4898440Y2628950D01*
X4902555Y2633065D01*
X4905603Y2637942D01*
X4907534Y2643428D01*
X4908245Y2649728D01*
X4908245Y2689250D01*
X4907534Y2695549D01*
X4906467Y2698597D01*
X4905857Y2701950D01*
X4906467Y2705354D01*
X4907534Y2708402D01*
X4908245Y2714701D01*
X4908245Y2754223D01*
X4907534Y2760522D01*
X4906467Y2763621D01*
X4905857Y2766974D01*
X4906467Y2770327D01*
X4907534Y2773426D01*
X4908245Y2779725D01*
X4908245Y2782976D01*
X4839817Y2782976D01*
X4836820Y2781300D01*
X4833416Y2780690D01*
X4750866Y2780690D01*
X4747514Y2781300D01*
X4744516Y2782976D01*
X4672634Y2782976D01*
X4670196Y2781350D01*
X4667300Y2780487D01*
X4659172Y2779369D01*
X4651095Y2776677D01*
X4643678Y2772511D01*
X4636719Y2766771D01*
X4624578Y2754630D01*
X4621326Y2752445D01*
X4617415Y2751683D01*
X4613554Y2752445D01*
X4610252Y2754630D01*
X4608017Y2757932D01*
X4607255Y2761843D01*
X4607255Y2773984D01*
X4608017Y2777845D01*
X4610252Y2781147D01*
X4643983Y2814929D01*
X4647285Y2817114D01*
X4651197Y2817926D01*
X4665929Y2817926D01*
X4669028Y2817418D01*
X4671872Y2815996D01*
X4744923Y2815996D01*
X4747768Y2817418D01*
X4750866Y2817926D01*
X4779010Y2817926D01*
X4783124Y2818231D01*
X4833416Y2818231D01*
X4836820Y2817672D01*
X4839817Y2815996D01*
X4908245Y2815996D01*
X4908245Y2819247D01*
X4907534Y2825546D01*
X4906467Y2828594D01*
X4905857Y2831947D01*
X4906467Y2835351D01*
X4907534Y2838399D01*
X4908245Y2844698D01*
X4908245Y2884220D01*
X4907534Y2890520D01*
X4906467Y2893618D01*
X4905857Y2896971D01*
X4906467Y2900324D01*
X4907534Y2903423D01*
X4908245Y2909722D01*
X4908245Y2949244D01*
X4907534Y2955544D01*
X4906467Y2958592D01*
X4905857Y2961944D01*
X4906467Y2965348D01*
X4907534Y2968396D01*
X4908245Y2974695D01*
X4908245Y2977946D01*
X4839817Y2977946D01*
X4836820Y2976270D01*
X4833416Y2975711D01*
X4750866Y2975711D01*
X4747514Y2976270D01*
X4744516Y2977946D01*
X4672584Y2977946D01*
X4669485Y2976118D01*
X4665929Y2975457D01*
X4582312Y2975457D01*
X4578451Y2976219D01*
X4575149Y2978404D01*
X4572965Y2981706D01*
X4572152Y2985617D01*
X4572965Y2989478D01*
X4575149Y2992780D01*
X4592624Y3010306D01*
X4595926Y3012490D01*
X4599838Y3013252D01*
X4665929Y3013252D01*
X4669332Y3012694D01*
X4672330Y3010966D01*
X4744516Y3010966D01*
X4747514Y3012643D01*
X4750866Y3013252D01*
X4833416Y3013252D01*
X4836820Y3012643D01*
X4839817Y3010966D01*
X4908245Y3010966D01*
X4908245Y3014218D01*
X4907534Y3020517D01*
X4906467Y3023616D01*
X4905857Y3026968D01*
X4906467Y3030321D01*
X4907534Y3033420D01*
X4908245Y3039719D01*
X4908245Y3079242D01*
X4907534Y3085541D01*
X4906467Y3088589D01*
X4905857Y3091942D01*
X4906467Y3095345D01*
X4907534Y3098393D01*
X4908245Y3104692D01*
X4908245Y3144215D01*
X4907534Y3150514D01*
X4905603Y3156000D01*
X4902555Y3160877D01*
X4898440Y3164992D01*
X4893564Y3168091D01*
X4888077Y3169970D01*
X4881778Y3170682D01*
X4616500Y3170682D01*
X4612081Y3171647D01*
X4608576Y3174441D01*
X4602022Y3190240D01*
X4596079Y3200196D01*
X4588713Y3209188D01*
X4580026Y3216910D01*
X4570272Y3223209D01*
X4559655Y3227984D01*
X4548479Y3231032D01*
X4536948Y3232404D01*
X4525314Y3231946D01*
X4513935Y3229711D01*
X4502962Y3225800D01*
X4498289Y3223260D01*
X4494326Y3222040D01*
X4490161Y3222548D01*
X4486554Y3224682D01*
X4484166Y3228086D01*
X4483303Y3232200D01*
X4483303Y3277260D01*
X4484065Y3281121D01*
X4486249Y3284423D01*
X4489551Y3286658D01*
X4493463Y3287420D01*
X4738065Y3287471D01*
X4746853Y3288690D01*
X4754930Y3291382D01*
X4762398Y3295548D01*
X4769307Y3301288D01*
X4827879Y3359861D01*
X4831181Y3362096D01*
X4835093Y3362858D01*
X5023256Y3362858D01*
X5026863Y3362198D01*
X5030012Y3360267D01*
X5032298Y3357372D01*
X5035296Y3348278D01*
X5038293Y3343452D01*
X5039461Y3340862D01*
X5039868Y3338068D01*
X5039918Y3266897D01*
X5041138Y3258108D01*
X5043830Y3250031D01*
X5047996Y3242564D01*
X5053736Y3235655D01*
X5175097Y3114294D01*
X5177282Y3110992D01*
X5178044Y3107131D01*
X5177282Y3103219D01*
X5175097Y3099917D01*
X5171795Y3097733D01*
X5167884Y3096971D01*
X5154726Y3096971D01*
X5154726Y2989783D01*
X5236514Y2989783D01*
X5236514Y3067507D01*
X5237276Y3071418D01*
X5239461Y3074720D01*
X5242763Y3076905D01*
X5246674Y3077667D01*
X5250942Y3077667D01*
X5254802Y3076905D01*
X5258104Y3074720D01*
X5260340Y3071418D01*
X5261102Y3067507D01*
X5261102Y3039719D01*
X5261813Y3033420D01*
X5262880Y3030321D01*
X5263438Y3026968D01*
X5262880Y3023616D01*
X5261813Y3020517D01*
X5261102Y3014218D01*
X5261102Y2974695D01*
X5261813Y2968396D01*
X5262880Y2965348D01*
X5263438Y2961944D01*
X5262880Y2958592D01*
X5261813Y2955544D01*
X5261102Y2949244D01*
X5261102Y2945993D01*
X5329529Y2945993D01*
X5332526Y2947670D01*
X5335879Y2948228D01*
X5374182Y2948228D01*
X5377637Y2947974D01*
X5418429Y2947974D01*
X5421630Y2947466D01*
X5424474Y2945993D01*
X5497372Y2945993D01*
X5500217Y2947466D01*
X5503418Y2947974D01*
X5527090Y2947974D01*
X5530951Y2947212D01*
X5534253Y2944977D01*
X5536488Y2941675D01*
X5537250Y2937814D01*
X5536488Y2933903D01*
X5534253Y2930601D01*
X5516727Y2913075D01*
X5513425Y2910840D01*
X5509514Y2910078D01*
X5503418Y2910078D01*
X5499608Y2910840D01*
X5496306Y2912973D01*
X5424830Y2912973D01*
X5421833Y2911297D01*
X5418429Y2910687D01*
X5335879Y2910687D01*
X5332526Y2911297D01*
X5329529Y2912973D01*
X5261102Y2912973D01*
X5261102Y2909722D01*
X5261813Y2903423D01*
X5262880Y2900324D01*
X5263438Y2896971D01*
X5262880Y2893618D01*
X5261813Y2890520D01*
X5261102Y2884220D01*
X5261102Y2844698D01*
X5261813Y2838399D01*
X5262880Y2835351D01*
X5263438Y2831947D01*
X5262880Y2828594D01*
X5261813Y2825546D01*
X5261102Y2819247D01*
X5261102Y2779725D01*
X5261813Y2773426D01*
X5262880Y2770327D01*
X5263438Y2766974D01*
X5262880Y2763621D01*
X5261813Y2760522D01*
X5261102Y2754223D01*
X5261102Y2714701D01*
X5261813Y2708402D01*
X5262880Y2705354D01*
X5263438Y2701950D01*
X5262880Y2698597D01*
X5261813Y2695549D01*
X5261102Y2689250D01*
X5261102Y2649728D01*
X5261813Y2643428D01*
X5263692Y2637942D01*
X5266791Y2633065D01*
X5270906Y2628950D01*
X5275783Y2625852D01*
X5281269Y2623972D01*
X5287568Y2623261D01*
X5353812Y2623261D01*
X5357672Y2622499D01*
X5360974Y2620264D01*
X5565902Y2415336D01*
X5568086Y2412085D01*
X5568848Y2408174D01*
X5568086Y2404262D01*
X5565902Y2401011D01*
X5554370Y2389428D01*
X5551932Y2387650D01*
X5549036Y2386634D01*
X5545988Y2386533D01*
X5540095Y2387244D01*
X5528513Y2386787D01*
X5517083Y2384552D01*
X5506161Y2380640D01*
X5495950Y2375103D01*
X5486704Y2368042D01*
X5478678Y2359660D01*
X5471972Y2350160D01*
X5466842Y2339746D01*
X5463336Y2328672D01*
X5461558Y2317191D01*
X5461558Y2305608D01*
X5463336Y2294128D01*
X5466842Y2283053D01*
X5471972Y2272639D01*
X5478678Y2263140D01*
X5486704Y2254758D01*
X5495950Y2247696D01*
X5506161Y2242159D01*
X5517083Y2238248D01*
X5528513Y2236012D01*
X5540095Y2235555D01*
X5551627Y2236927D01*
X5562854Y2239975D01*
X5573471Y2244750D01*
X5583174Y2251049D01*
X5591860Y2258771D01*
X5599277Y2267762D01*
X5605221Y2277719D01*
X5609539Y2288489D01*
X5612180Y2299817D01*
X5613095Y2311400D01*
X5612384Y2320645D01*
X5612993Y2324963D01*
X5615330Y2328621D01*
X5623255Y2336596D01*
X5626557Y2338781D01*
X5630468Y2339543D01*
X5659628Y2339543D01*
X5665927Y2340254D01*
X5671362Y2342184D01*
X5676290Y2345232D01*
X5680354Y2349347D01*
X5683453Y2354224D01*
X5685383Y2359710D01*
X5686094Y2366010D01*
X5686094Y2461869D01*
X5685383Y2468219D01*
X5683453Y2473655D01*
X5680354Y2478582D01*
X5676290Y2482646D01*
X5671362Y2485745D01*
X5665927Y2487676D01*
X5659628Y2488387D01*
X5627776Y2488387D01*
X5623915Y2489149D01*
X5620613Y2491333D01*
X5489956Y2621991D01*
X5487974Y2624785D01*
X5487009Y2628036D01*
X5487212Y2631440D01*
X5488533Y2634589D01*
X5490616Y2637942D01*
X5492546Y2643428D01*
X5493258Y2649728D01*
X5493258Y2666847D01*
X5494020Y2670759D01*
X5496204Y2674061D01*
X5499506Y2676245D01*
X5503418Y2677007D01*
X5507278Y2676245D01*
X5510580Y2674061D01*
X5552846Y2631846D01*
X5559907Y2626512D01*
X5567527Y2622702D01*
X5575757Y2620416D01*
X5584698Y2619552D01*
X5665012Y2619552D01*
X5669076Y2618689D01*
X5672480Y2616301D01*
X5674614Y2612745D01*
X5676900Y2606040D01*
X5679948Y2601163D01*
X5684062Y2597099D01*
X5688939Y2594000D01*
X5694426Y2592070D01*
X5700725Y2591358D01*
X5754624Y2591358D01*
X5760923Y2592070D01*
X5766409Y2594000D01*
X5771286Y2597099D01*
X5775401Y2601163D01*
X5778449Y2606090D01*
X5780379Y2611526D01*
X5781090Y2617876D01*
X5781090Y2713736D01*
X5780379Y2720035D01*
X5778449Y2725521D01*
X5775401Y2730398D01*
X5771286Y2734513D01*
X5766409Y2737561D01*
X5760923Y2739491D01*
X5754624Y2740202D01*
X5700725Y2740202D01*
X5694426Y2739491D01*
X5688939Y2737561D01*
X5684062Y2734513D01*
X5679948Y2730398D01*
X5676900Y2725521D01*
X5674614Y2718816D01*
X5672480Y2715260D01*
X5669076Y2712821D01*
X5665012Y2711958D01*
X5607558Y2711958D01*
X5603697Y2712770D01*
X5600395Y2714955D01*
X5579719Y2735630D01*
X5577535Y2738882D01*
X5576722Y2742793D01*
X5577484Y2746654D01*
X5579668Y2749956D01*
X5582970Y2752191D01*
X5586831Y2752953D01*
X5597448Y2753004D01*
X5606135Y2754223D01*
X5614212Y2756916D01*
X5621731Y2761132D01*
X5626150Y2764688D01*
X5629859Y2766568D01*
X5634024Y2766771D01*
X5637936Y2765348D01*
X5639257Y2764485D01*
X5644743Y2762554D01*
X5651042Y2761843D01*
X5739942Y2761843D01*
X5746242Y2762554D01*
X5751728Y2764485D01*
X5756605Y2767533D01*
X5760720Y2771648D01*
X5763768Y2776524D01*
X5765698Y2782011D01*
X5766409Y2788310D01*
X5766409Y2867202D01*
X5765698Y2873502D01*
X5763768Y2878988D01*
X5760720Y2883865D01*
X5756605Y2887980D01*
X5754725Y2889148D01*
X5751779Y2891993D01*
X5750153Y2895701D01*
X5750153Y2899816D01*
X5751779Y2903524D01*
X5754725Y2906369D01*
X5756605Y2907538D01*
X5760720Y2911652D01*
X5763768Y2916529D01*
X5765698Y2922016D01*
X5766409Y2928315D01*
X5766409Y2944520D01*
X5767019Y2947924D01*
X5768746Y2950972D01*
X5772200Y2955188D01*
X5776518Y2962046D01*
X5777534Y2964027D01*
X5780735Y2971749D01*
X5781395Y2973882D01*
X5783630Y2984195D01*
X5784138Y2992678D01*
X5784088Y3394049D01*
X5778804Y3513124D01*
X5777585Y3521557D01*
X5765342Y3570020D01*
X5761786Y3580384D01*
X5756757Y3589680D01*
X5750255Y3598011D01*
X5742482Y3605174D01*
X5733643Y3610965D01*
X5723940Y3615232D01*
X5713730Y3617823D01*
X5702757Y3618737D01*
X5640933Y3618737D01*
X5638139Y3619144D01*
X5635548Y3620262D01*
X5631281Y3622954D01*
X5625795Y3624884D01*
X5619496Y3625596D01*
X5540654Y3625596D01*
X5534304Y3624884D01*
X5528868Y3622954D01*
X5523941Y3619855D01*
X5519877Y3615791D01*
X5518658Y3613912D01*
X5515864Y3610965D01*
X5512104Y3609340D01*
X5508040Y3609340D01*
X5504281Y3610965D01*
X5501487Y3613912D01*
X5500268Y3615791D01*
X5496204Y3619855D01*
X5491276Y3622954D01*
X5485841Y3624884D01*
X5479491Y3625596D01*
X5466435Y3625596D01*
X5466435Y3583533D01*
X5503976Y3583533D01*
X5507888Y3582771D01*
X5511190Y3580536D01*
X5513374Y3577234D01*
X5514136Y3573373D01*
X5514136Y3535984D01*
X5513374Y3532073D01*
X5511190Y3528822D01*
X5507888Y3526586D01*
X5503976Y3525824D01*
X5466435Y3525824D01*
X5466435Y3473602D01*
X5465673Y3469792D01*
X5463540Y3466490D01*
X5463540Y3429101D01*
X5501081Y3429101D01*
X5504992Y3428339D01*
X5508294Y3426155D01*
X5510479Y3422853D01*
X5511241Y3418941D01*
X5511241Y3381603D01*
X5510479Y3377692D01*
X5508294Y3374390D01*
X5504992Y3372205D01*
X5501081Y3371443D01*
X5463540Y3371443D01*
X5463540Y3329381D01*
X5476595Y3329381D01*
X5482945Y3330092D01*
X5488381Y3331972D01*
X5493308Y3335070D01*
X5497372Y3339185D01*
X5498592Y3341065D01*
X5501386Y3344011D01*
X5505145Y3345586D01*
X5509209Y3345586D01*
X5512968Y3344011D01*
X5515762Y3341065D01*
X5516981Y3339185D01*
X5521045Y3335070D01*
X5525973Y3331972D01*
X5531408Y3330092D01*
X5537758Y3329381D01*
X5543296Y3329381D01*
X5547207Y3328568D01*
X5550509Y3326384D01*
X5552694Y3323082D01*
X5553456Y3319221D01*
X5553456Y3267202D01*
X5552643Y3263188D01*
X5550306Y3259836D01*
X5546801Y3257651D01*
X5542737Y3257042D01*
X5529935Y3260750D01*
X5520994Y3261563D01*
X5290820Y3261563D01*
X5286959Y3262376D01*
X5283657Y3264560D01*
X5230266Y3317951D01*
X5227878Y3321659D01*
X5227320Y3325977D01*
X5228590Y3330194D01*
X5231536Y3333394D01*
X5235600Y3335121D01*
X5239969Y3334969D01*
X5242407Y3334359D01*
X5249113Y3333597D01*
X5303012Y3333597D01*
X5309311Y3334308D01*
X5314797Y3336188D01*
X5319674Y3339287D01*
X5323789Y3343401D01*
X5326837Y3348278D01*
X5328767Y3353765D01*
X5329478Y3360064D01*
X5329478Y3390341D01*
X5329732Y3392678D01*
X5330596Y3394913D01*
X5335371Y3404260D01*
X5337810Y3412896D01*
X5338673Y3422294D01*
X5338673Y3877056D01*
X5339435Y3880916D01*
X5341670Y3884218D01*
X5344922Y3886454D01*
X5348833Y3887215D01*
X5542534Y3887215D01*
X5546445Y3886454D01*
X5549747Y3884218D01*
X5830874Y3603294D01*
X5833110Y3599992D01*
X5833872Y3596132D01*
X5833872Y2498547D01*
X5833110Y2494635D01*
X5830874Y2491333D01*
X5827572Y2489149D01*
X5823712Y2488387D01*
X5795721Y2488387D01*
X5789422Y2487676D01*
X5783986Y2485745D01*
X5779058Y2482646D01*
X5774994Y2478582D01*
X5771896Y2473655D01*
X5769965Y2468219D01*
X5769254Y2461869D01*
X5769254Y2366010D01*
X5769965Y2359710D01*
X5771896Y2354224D01*
X5774994Y2349347D01*
X5779058Y2345232D01*
X5783986Y2342184D01*
X5789422Y2340254D01*
X5795721Y2339543D01*
X5823712Y2339543D01*
X5827572Y2338781D01*
X5830874Y2336596D01*
X5833110Y2333294D01*
X5833872Y2329383D01*
X5833872Y2086102D01*
X5833008Y2082038D01*
X5830671Y2078685D01*
X5827166Y2076551D01*
G37*

%LPC*%
G36*
X5154726Y2694635D02*
G01*
X5210048Y2694635D01*
X5216347Y2695346D01*
X5221833Y2697226D01*
X5226710Y2700324D01*
X5230825Y2704439D01*
X5233873Y2709316D01*
X5235803Y2714802D01*
X5236514Y2721102D01*
X5236514Y2801823D01*
X5154726Y2801823D01*
G37*
G36*
X4962245Y2694635D02*
G01*
X5017566Y2694635D01*
X5017566Y2801823D01*
X4935778Y2801823D01*
X4935778Y2721102D01*
X4936490Y2714802D01*
X4938369Y2709316D01*
X4941468Y2704439D01*
X4945583Y2700324D01*
X4950460Y2697226D01*
X4955946Y2695346D01*
G37*
G36*
X4935778Y2989783D02*
G01*
X5017566Y2989783D01*
X5017566Y3096971D01*
X4962245Y3096971D01*
X4955946Y3096260D01*
X4950460Y3094329D01*
X4945583Y3091230D01*
X4941468Y3087166D01*
X4938369Y3082239D01*
X4936490Y3076803D01*
X4935778Y3070504D01*
G37*
G36*
X5397754Y3329381D02*
G01*
X5410809Y3329381D01*
X5410809Y3371443D01*
X5371287Y3371443D01*
X5371287Y3355848D01*
X5371998Y3349548D01*
X5373878Y3344062D01*
X5376976Y3339185D01*
X5381091Y3335070D01*
X5385968Y3331972D01*
X5391404Y3330092D01*
G37*
G36*
X5371287Y3429101D02*
G01*
X5410809Y3429101D01*
X5410809Y3481324D01*
X5411571Y3485184D01*
X5413705Y3488436D01*
X5413705Y3525824D01*
X5374182Y3525824D01*
X5374182Y3510229D01*
X5374894Y3503929D01*
X5376773Y3498443D01*
X5379872Y3493566D01*
X5383936Y3489451D01*
X5388203Y3486810D01*
X5390946Y3484219D01*
X5392572Y3480815D01*
X5392877Y3477056D01*
X5391759Y3473450D01*
X5389422Y3470503D01*
X5381091Y3465474D01*
X5376976Y3461410D01*
X5373878Y3456482D01*
X5371998Y3451047D01*
X5371287Y3444697D01*
G37*
G36*
X5374182Y3583533D02*
G01*
X5413705Y3583533D01*
X5413705Y3625596D01*
X5400649Y3625596D01*
X5394299Y3624884D01*
X5388864Y3622954D01*
X5383936Y3619855D01*
X5379872Y3615791D01*
X5376773Y3610864D01*
X5374894Y3605428D01*
X5374182Y3599078D01*
G37*

%LPD*%
G36*
X1245209Y1588058D02*
G01*
X1241348Y1588820D01*
X1238046Y1591056D01*
X1182979Y1645920D01*
X1175918Y1651254D01*
X1168247Y1655064D01*
X1160068Y1657400D01*
X1151128Y1658213D01*
X1075131Y1658213D01*
X1071219Y1658975D01*
X1067917Y1661210D01*
X988009Y1741119D01*
X985723Y1744573D01*
X985012Y1748688D01*
X986028Y1752701D01*
X988568Y1756003D01*
X992174Y1758035D01*
X996340Y1758391D01*
X1001064Y1757883D01*
X1014171Y1757883D01*
X1014171Y1799945D01*
X974598Y1799945D01*
X974598Y1784350D01*
X975106Y1779625D01*
X974750Y1775460D01*
X972718Y1771853D01*
X969416Y1769313D01*
X965403Y1768297D01*
X961339Y1769008D01*
X957834Y1771294D01*
X864971Y1864156D01*
X862787Y1867407D01*
X862025Y1871319D01*
X862025Y1947519D01*
X862939Y1951786D01*
X865530Y1955241D01*
X869340Y1957273D01*
X873709Y1957578D01*
X877722Y1956054D01*
X880770Y1952955D01*
X881583Y1951685D01*
X885647Y1947570D01*
X890574Y1944471D01*
X896010Y1942592D01*
X902360Y1941880D01*
X917956Y1941880D01*
X917956Y1981403D01*
X872185Y1981403D01*
X868273Y1982216D01*
X864971Y1984400D01*
X862787Y1987702D01*
X862025Y1991563D01*
X862025Y2023973D01*
X862787Y2027834D01*
X864971Y2031136D01*
X868273Y2033371D01*
X872185Y2034133D01*
X917956Y2034133D01*
X917956Y2071674D01*
X918718Y2075586D01*
X920902Y2078888D01*
X924204Y2081072D01*
X928116Y2081834D01*
X965453Y2081834D01*
X969365Y2081072D01*
X972667Y2078888D01*
X974852Y2075586D01*
X975614Y2071674D01*
X975614Y2034133D01*
X1017676Y2034133D01*
X1017676Y2040686D01*
X1018489Y2044547D01*
X1020673Y2047849D01*
X1023975Y2050034D01*
X1027836Y2050846D01*
X1031748Y2050084D01*
X1035050Y2047849D01*
X1091336Y1991766D01*
X1098854Y1986076D01*
X1104849Y1982876D01*
X1107541Y1981860D01*
X1110437Y1980184D01*
X1112621Y1977694D01*
X1116431Y1971446D01*
X1120495Y1967382D01*
X1125372Y1964283D01*
X1130858Y1962404D01*
X1137158Y1961692D01*
X1226007Y1961692D01*
X1232357Y1962404D01*
X1237792Y1964283D01*
X1242720Y1967382D01*
X1246784Y1971497D01*
X1249883Y1976374D01*
X1251762Y1981809D01*
X1252575Y1989074D01*
X1253490Y1992375D01*
X1255471Y1995170D01*
X1276096Y2015794D01*
X1279398Y2017979D01*
X1283258Y2018741D01*
X1407922Y2018741D01*
X1411325Y2018182D01*
X1414322Y2016506D01*
X1486509Y2016506D01*
X1489506Y2018182D01*
X1492910Y2018741D01*
X1575460Y2018741D01*
X1578864Y2018182D01*
X1581861Y2016506D01*
X1650238Y2016506D01*
X1650238Y2019706D01*
X1649526Y2026056D01*
X1648460Y2029104D01*
X1647901Y2032457D01*
X1648460Y2035860D01*
X1649526Y2038908D01*
X1650238Y2045207D01*
X1650238Y2084730D01*
X1649526Y2091029D01*
X1648460Y2094128D01*
X1647901Y2097481D01*
X1648460Y2100834D01*
X1649526Y2103882D01*
X1650238Y2110232D01*
X1650238Y2149703D01*
X1649526Y2156053D01*
X1648460Y2159101D01*
X1647901Y2162454D01*
X1648460Y2165858D01*
X1649526Y2168906D01*
X1650238Y2175205D01*
X1650238Y2214727D01*
X1649526Y2221026D01*
X1648460Y2224125D01*
X1647901Y2227478D01*
X1648460Y2230831D01*
X1649526Y2233879D01*
X1650238Y2240229D01*
X1650238Y2279700D01*
X1649526Y2286050D01*
X1647647Y2291486D01*
X1644548Y2296414D01*
X1640484Y2300478D01*
X1635556Y2303576D01*
X1630121Y2305507D01*
X1623771Y2306218D01*
X1557477Y2306218D01*
X1553565Y2306980D01*
X1550263Y2309164D01*
X1451711Y2407767D01*
X1449476Y2411069D01*
X1448714Y2414981D01*
X1448663Y2540203D01*
X1447444Y2548991D01*
X1444752Y2557068D01*
X1440586Y2564485D01*
X1434846Y2571445D01*
X1390700Y2615488D01*
X1383639Y2620873D01*
X1376019Y2624632D01*
X1367790Y2626969D01*
X1358849Y2627833D01*
X1127150Y2627833D01*
X1124305Y2628188D01*
X1121714Y2629357D01*
X1117041Y2632303D01*
X1111605Y2634234D01*
X1105255Y2634945D01*
X1100785Y2634945D01*
X1096619Y2635808D01*
X1093165Y2638348D01*
X1090879Y2640939D01*
X1085037Y2646781D01*
X1082954Y2649880D01*
X1082090Y2653538D01*
X1082649Y2657297D01*
X1084529Y2660548D01*
X1087475Y2662936D01*
X1091082Y2664053D01*
X1096924Y2664714D01*
X1108151Y2667812D01*
X1118768Y2672537D01*
X1128471Y2678887D01*
X1137158Y2686608D01*
X1144574Y2695549D01*
X1150518Y2705557D01*
X1154836Y2716326D01*
X1157478Y2727604D01*
X1158341Y2739644D01*
X1158900Y2743758D01*
X1161034Y2747314D01*
X1164386Y2749753D01*
X1168450Y2750566D01*
X1442212Y2750566D01*
X1446123Y2749804D01*
X1449425Y2747619D01*
X1632051Y2565044D01*
X1639163Y2559659D01*
X1646783Y2555900D01*
X1654962Y2553563D01*
X1663903Y2552700D01*
X1841754Y2552700D01*
X1845665Y2551938D01*
X1848967Y2549753D01*
X1917547Y2481224D01*
X1924659Y2475839D01*
X1932279Y2472080D01*
X1940458Y2469743D01*
X1949399Y2468880D01*
X2019401Y2468880D01*
X2021738Y2468626D01*
X2027123Y2467356D01*
X2035657Y2466949D01*
X2044090Y2468118D01*
X2052167Y2470861D01*
X2061870Y2475839D01*
X2068677Y2480970D01*
X2074418Y2487269D01*
X2077466Y2491638D01*
X2213762Y2627985D01*
X2217064Y2630170D01*
X2220976Y2630932D01*
X2288286Y2630932D01*
X2292096Y2630220D01*
X2295347Y2628138D01*
X2297531Y2624988D01*
X2298446Y2621229D01*
X2297887Y2617419D01*
X2297277Y2615742D01*
X2296566Y2609443D01*
X2296566Y2531160D01*
X2295804Y2527300D01*
X2293620Y2523998D01*
X2219350Y2449677D01*
X2214016Y2442616D01*
X2210206Y2434945D01*
X2207869Y2426766D01*
X2207056Y2417826D01*
X2207056Y2316378D01*
X2206294Y2312466D01*
X2204059Y2309164D01*
X2200757Y2306980D01*
X2196896Y2306218D01*
X2029612Y2306218D01*
X2023262Y2305507D01*
X2017826Y2303576D01*
X2012899Y2300478D01*
X2008835Y2296414D01*
X2005736Y2291486D01*
X2003806Y2286050D01*
X2003094Y2279700D01*
X2003094Y2240229D01*
X2003806Y2233879D01*
X2004923Y2230831D01*
X2005482Y2227478D01*
X2004923Y2224125D01*
X2003806Y2221026D01*
X2003094Y2214727D01*
X2003094Y2175205D01*
X2003806Y2168906D01*
X2004923Y2165858D01*
X2005482Y2162454D01*
X2004923Y2159101D01*
X2003806Y2156053D01*
X2003094Y2149703D01*
X2003094Y2146503D01*
X2071522Y2146503D01*
X2074519Y2148179D01*
X2077923Y2148738D01*
X2114651Y2148738D01*
X2119680Y2148332D01*
X2160473Y2148332D01*
X2163521Y2147874D01*
X2166315Y2146503D01*
X2236978Y2146503D01*
X2239162Y2148840D01*
X2241956Y2150414D01*
X2247849Y2152599D01*
X2253030Y2155342D01*
X2255062Y2156663D01*
X2259838Y2160524D01*
X2261666Y2162302D01*
X2264968Y2164435D01*
X2268829Y2165146D01*
X2272690Y2164334D01*
X2275941Y2162149D01*
X2278126Y2158847D01*
X2278888Y2154986D01*
X2278888Y2145842D01*
X2278126Y2141931D01*
X2275890Y2138629D01*
X2252624Y2115464D01*
X2249170Y2113229D01*
X2245106Y2112518D01*
X2241092Y2113483D01*
X2166823Y2113483D01*
X2163826Y2111806D01*
X2160473Y2111248D01*
X2077923Y2111197D01*
X2074519Y2111806D01*
X2071522Y2113483D01*
X2003094Y2113483D01*
X2003094Y2110232D01*
X2003806Y2103882D01*
X2004923Y2100834D01*
X2005482Y2097481D01*
X2004923Y2094128D01*
X2003806Y2091029D01*
X2003094Y2084730D01*
X2003094Y2045207D01*
X2003806Y2038908D01*
X2004923Y2035860D01*
X2005482Y2032457D01*
X2004923Y2029104D01*
X2003806Y2026056D01*
X2003094Y2019706D01*
X2003094Y1980234D01*
X2003806Y1973884D01*
X2004923Y1970836D01*
X2005482Y1967484D01*
X2004923Y1964131D01*
X2003806Y1961032D01*
X2003094Y1954733D01*
X2003094Y1951482D01*
X2071522Y1951482D01*
X2074519Y1953158D01*
X2077923Y1953768D01*
X2160473Y1953768D01*
X2163876Y1953158D01*
X2166874Y1951482D01*
X2239010Y1951482D01*
X2242058Y1953158D01*
X2245410Y1953768D01*
X2259584Y1953768D01*
X2263495Y1953006D01*
X2266797Y1950770D01*
X2278278Y1939289D01*
X2280513Y1935988D01*
X2281275Y1932076D01*
X2281275Y1912823D01*
X2280310Y1908454D01*
X2277516Y1904949D01*
X2273503Y1902917D01*
X2269083Y1902866D01*
X2264968Y1904695D01*
X2259025Y1909216D01*
X2251354Y1913026D01*
X2242667Y1915515D01*
X2240076Y1916633D01*
X2237892Y1918462D01*
X2166874Y1918462D01*
X2163876Y1916785D01*
X2160473Y1916226D01*
X2077923Y1916226D01*
X2074519Y1916785D01*
X2071522Y1918462D01*
X2003094Y1918462D01*
X2003094Y1915210D01*
X2003806Y1908911D01*
X2004923Y1905863D01*
X2005482Y1902460D01*
X2004923Y1899107D01*
X2003806Y1896059D01*
X2003094Y1889709D01*
X2003094Y1861362D01*
X2002332Y1857502D01*
X2000148Y1854200D01*
X1996846Y1852015D01*
X1992934Y1851202D01*
X1985721Y1851202D01*
X1981860Y1852015D01*
X1978558Y1854200D01*
X1976374Y1857502D01*
X1975561Y1861362D01*
X1975561Y1939696D01*
X1893773Y1939696D01*
X1893773Y1832508D01*
X1916430Y1832508D01*
X1920290Y1831695D01*
X1923592Y1829511D01*
X1925828Y1826209D01*
X1926589Y1822348D01*
X1925828Y1818436D01*
X1923592Y1815134D01*
X1777492Y1669084D01*
X1773834Y1666697D01*
X1769567Y1666138D01*
X1765401Y1667357D01*
X1762150Y1670253D01*
X1760372Y1674215D01*
X1760423Y1678584D01*
X1763217Y1690370D01*
X1764080Y1701952D01*
X1763217Y1713534D01*
X1760575Y1724863D01*
X1756206Y1735632D01*
X1750263Y1745589D01*
X1742897Y1754581D01*
X1734210Y1762302D01*
X1724456Y1768602D01*
X1713839Y1773377D01*
X1702663Y1776425D01*
X1691132Y1777796D01*
X1679498Y1777339D01*
X1668119Y1775104D01*
X1663700Y1773529D01*
X1659636Y1772970D01*
X1655673Y1774037D01*
X1652473Y1776526D01*
X1650492Y1780133D01*
X1650238Y1785213D01*
X1650238Y1824736D01*
X1649526Y1831035D01*
X1648460Y1834134D01*
X1647901Y1837486D01*
X1648460Y1840839D01*
X1649526Y1843887D01*
X1650238Y1850237D01*
X1650238Y1889709D01*
X1649526Y1896059D01*
X1648460Y1899107D01*
X1647901Y1902460D01*
X1648460Y1905863D01*
X1649526Y1908911D01*
X1650238Y1915210D01*
X1650238Y1954733D01*
X1649526Y1961032D01*
X1648460Y1964131D01*
X1647901Y1967484D01*
X1648460Y1970836D01*
X1649526Y1973884D01*
X1650238Y1980234D01*
X1650238Y1983486D01*
X1581861Y1983486D01*
X1578864Y1981809D01*
X1575460Y1981200D01*
X1492910Y1981200D01*
X1489506Y1981809D01*
X1486509Y1983486D01*
X1414322Y1983486D01*
X1411325Y1981809D01*
X1407922Y1981200D01*
X1332788Y1981149D01*
X1324000Y1979930D01*
X1315923Y1977237D01*
X1308404Y1973021D01*
X1303324Y1969007D01*
X1299616Y1965350D01*
X1293876Y1958492D01*
X1290777Y1953717D01*
X1237996Y1900936D01*
X1234897Y1898802D01*
X1231188Y1897989D01*
X1226261Y1898954D01*
X1219911Y1899666D01*
X1141069Y1899666D01*
X1134719Y1898954D01*
X1129284Y1897075D01*
X1124356Y1893976D01*
X1120292Y1889912D01*
X1119073Y1887982D01*
X1116279Y1885035D01*
X1112520Y1883460D01*
X1108456Y1883460D01*
X1104696Y1885035D01*
X1101902Y1887982D01*
X1100683Y1889912D01*
X1096619Y1893976D01*
X1091692Y1897075D01*
X1086256Y1898954D01*
X1079906Y1899666D01*
X1066850Y1899666D01*
X1066850Y1857603D01*
X1104442Y1857603D01*
X1108303Y1856841D01*
X1111605Y1854657D01*
X1113790Y1851355D01*
X1114602Y1847443D01*
X1114602Y1810105D01*
X1113790Y1806193D01*
X1111605Y1802892D01*
X1108303Y1800707D01*
X1104442Y1799945D01*
X1066850Y1799945D01*
X1066850Y1757883D01*
X1079906Y1757883D01*
X1086256Y1758594D01*
X1091692Y1760474D01*
X1096619Y1763572D01*
X1100683Y1767687D01*
X1101902Y1769567D01*
X1104696Y1772513D01*
X1108456Y1774088D01*
X1112520Y1774088D01*
X1116279Y1772513D01*
X1119073Y1769567D01*
X1120292Y1767687D01*
X1124356Y1763572D01*
X1129284Y1760474D01*
X1134719Y1758594D01*
X1141069Y1757883D01*
X1219911Y1757883D01*
X1226261Y1758594D01*
X1231696Y1760474D01*
X1236573Y1763572D01*
X1240688Y1767687D01*
X1243787Y1772564D01*
X1245666Y1778050D01*
X1246682Y1782521D01*
X1248460Y1785162D01*
X1251000Y1787143D01*
X1257300Y1790649D01*
X1264208Y1796389D01*
X1273403Y1805584D01*
X1276705Y1807768D01*
X1280566Y1808530D01*
X1284478Y1807768D01*
X1287780Y1805584D01*
X1289964Y1802282D01*
X1290726Y1798370D01*
X1290726Y1717548D01*
X1291437Y1711248D01*
X1293368Y1705762D01*
X1296416Y1700885D01*
X1300530Y1696770D01*
X1305407Y1693722D01*
X1310894Y1691792D01*
X1317193Y1691081D01*
X1336700Y1691081D01*
X1340713Y1690268D01*
X1344066Y1687880D01*
X1346250Y1684375D01*
X1346809Y1680311D01*
X1345742Y1676298D01*
X1343202Y1673098D01*
X1337056Y1668018D01*
X1260094Y1591056D01*
X1256792Y1588820D01*
X1252880Y1588058D01*
G37*

%LPC*%
G36*
X1701342Y1832508D02*
G01*
X1756613Y1832508D01*
X1756613Y1939696D01*
X1674825Y1939696D01*
X1674825Y1858975D01*
X1675536Y1852625D01*
X1677466Y1847189D01*
X1680565Y1842312D01*
X1684629Y1838198D01*
X1689557Y1835099D01*
X1694992Y1833219D01*
G37*
G36*
X974598Y1857603D02*
G01*
X1014171Y1857603D01*
X1014171Y1899666D01*
X1001064Y1899666D01*
X994765Y1898954D01*
X989279Y1897075D01*
X984402Y1893976D01*
X980287Y1889912D01*
X977188Y1884984D01*
X975309Y1879549D01*
X974598Y1873199D01*
G37*
G36*
X975614Y1941880D02*
G01*
X991209Y1941880D01*
X997559Y1942592D01*
X1002995Y1944471D01*
X1007922Y1947570D01*
X1011986Y1951685D01*
X1015085Y1956562D01*
X1016965Y1962048D01*
X1017676Y1968347D01*
X1017676Y1981403D01*
X975614Y1981403D01*
G37*
G36*
X1674825Y2127656D02*
G01*
X1756613Y2127656D01*
X1756613Y2234844D01*
X1701342Y2234844D01*
X1694992Y2234133D01*
X1689557Y2232202D01*
X1684629Y2229104D01*
X1680565Y2225040D01*
X1677466Y2220112D01*
X1675536Y2214676D01*
X1674825Y2208326D01*
G37*
G36*
X1893773Y2127656D02*
G01*
X1975561Y2127656D01*
X1975561Y2208326D01*
X1974850Y2214676D01*
X1972970Y2220112D01*
X1969871Y2225040D01*
X1965807Y2229104D01*
X1960880Y2232202D01*
X1955444Y2234133D01*
X1949094Y2234844D01*
X1893773Y2234844D01*
G37*

%LPD*%
G36*
X2260854Y1410309D02*
G01*
X2256688Y1411173D01*
X2253284Y1413713D01*
X2251151Y1417370D01*
X2250744Y1421587D01*
X2250897Y1423060D01*
X2250897Y1453794D01*
X2251659Y1457706D01*
X2253894Y1461008D01*
X2361438Y1568602D01*
X2366772Y1575663D01*
X2370582Y1583334D01*
X2372918Y1591513D01*
X2373731Y1600454D01*
X2373731Y1807362D01*
X2374595Y1811477D01*
X2377033Y1814830D01*
X2380589Y1816963D01*
X2384755Y1817471D01*
X2388717Y1816303D01*
X2397150Y1811731D01*
X2408123Y1807768D01*
X2419502Y1805584D01*
X2431135Y1805127D01*
X2442667Y1806448D01*
X2453843Y1809546D01*
X2464460Y1814271D01*
X2474214Y1820621D01*
X2482900Y1828342D01*
X2490266Y1837283D01*
X2496210Y1847291D01*
X2500579Y1858060D01*
X2503220Y1869338D01*
X2504084Y1880920D01*
X2503678Y1886102D01*
X2504287Y1890420D01*
X2506624Y1894078D01*
X2526030Y1913483D01*
X2529332Y1915668D01*
X2533243Y1916430D01*
X2537104Y1915668D01*
X2540406Y1913483D01*
X2542641Y1910181D01*
X2543403Y1906270D01*
X2543403Y1882648D01*
X2544114Y1876298D01*
X2545994Y1870862D01*
X2549093Y1865934D01*
X2553208Y1861870D01*
X2558084Y1858772D01*
X2563571Y1856841D01*
X2569870Y1856130D01*
X2749092Y1856130D01*
X2755392Y1856841D01*
X2760878Y1858772D01*
X2765755Y1861870D01*
X2769870Y1865934D01*
X2772918Y1870862D01*
X2774848Y1876298D01*
X2775559Y1882648D01*
X2775559Y1922119D01*
X2774848Y1928469D01*
X2773781Y1931517D01*
X2773172Y1934870D01*
X2773781Y1938223D01*
X2774848Y1941322D01*
X2775559Y1947621D01*
X2775559Y1987143D01*
X2774848Y1993442D01*
X2773781Y1996541D01*
X2773172Y1999894D01*
X2773781Y2003247D01*
X2774848Y2006295D01*
X2775559Y2012645D01*
X2775559Y2015845D01*
X2707132Y2015845D01*
X2704134Y2014169D01*
X2700731Y2013610D01*
X2618181Y2013610D01*
X2614828Y2014169D01*
X2611831Y2015845D01*
X2543759Y2015845D01*
X2539847Y2016658D01*
X2536596Y2018842D01*
X2534361Y2022144D01*
X2533599Y2026005D01*
X2534361Y2029917D01*
X2536596Y2033219D01*
X2549296Y2045919D01*
X2552547Y2048103D01*
X2556459Y2048865D01*
X2611831Y2048865D01*
X2614828Y2050542D01*
X2618181Y2051151D01*
X2700731Y2051151D01*
X2704134Y2050542D01*
X2707132Y2048865D01*
X2775559Y2048865D01*
X2775559Y2052116D01*
X2774848Y2058466D01*
X2773781Y2061514D01*
X2773172Y2064867D01*
X2773781Y2068220D01*
X2774848Y2071319D01*
X2775559Y2077618D01*
X2775559Y2117140D01*
X2774848Y2123440D01*
X2773781Y2126538D01*
X2773172Y2129891D01*
X2773781Y2133244D01*
X2774848Y2136292D01*
X2775559Y2142642D01*
X2775559Y2182114D01*
X2774848Y2188464D01*
X2773781Y2191512D01*
X2773172Y2194864D01*
X2773781Y2198217D01*
X2774848Y2201316D01*
X2775559Y2207615D01*
X2775559Y2210866D01*
X2707132Y2210866D01*
X2704134Y2209190D01*
X2700731Y2208580D01*
X2618181Y2208631D01*
X2614828Y2209241D01*
X2611882Y2210866D01*
X2537206Y2210866D01*
X2533040Y2211730D01*
X2529636Y2214270D01*
X2527503Y2217978D01*
X2527096Y2222195D01*
X2528468Y2226208D01*
X2532989Y2233828D01*
X2534462Y2237536D01*
X2536698Y2240838D01*
X2540000Y2243074D01*
X2543911Y2243886D01*
X2611831Y2243886D01*
X2614828Y2245563D01*
X2618181Y2246122D01*
X2700731Y2246122D01*
X2704134Y2245563D01*
X2707132Y2243886D01*
X2775559Y2243886D01*
X2775559Y2247138D01*
X2774848Y2253437D01*
X2773781Y2256536D01*
X2773172Y2259888D01*
X2773781Y2263241D01*
X2774848Y2266289D01*
X2775559Y2272639D01*
X2775559Y2312111D01*
X2774848Y2318461D01*
X2773781Y2321509D01*
X2773172Y2324862D01*
X2773781Y2328214D01*
X2774848Y2331313D01*
X2775559Y2337612D01*
X2775559Y2377135D01*
X2774848Y2383434D01*
X2772918Y2388920D01*
X2769870Y2393797D01*
X2765755Y2397912D01*
X2760878Y2400960D01*
X2755442Y2402890D01*
X2747721Y2403652D01*
X2744165Y2404668D01*
X2741218Y2406954D01*
X2739288Y2410104D01*
X2738628Y2413762D01*
X2738577Y2601722D01*
X2737358Y2610510D01*
X2734614Y2618587D01*
X2730500Y2626055D01*
X2724759Y2632964D01*
X2719425Y2638247D01*
X2717241Y2641549D01*
X2716479Y2645410D01*
X2717241Y2649321D01*
X2719425Y2652623D01*
X2722727Y2654808D01*
X2726639Y2655570D01*
X2791714Y2655620D01*
X2800502Y2656840D01*
X2808579Y2659583D01*
X2816047Y2663698D01*
X2822956Y2669438D01*
X2899562Y2746095D01*
X2902864Y2748280D01*
X2906776Y2749042D01*
X2991764Y2749042D01*
X2996082Y2748076D01*
X2999587Y2745384D01*
X3001619Y2741472D01*
X3001772Y2737053D01*
X3000044Y2732989D01*
X2996742Y2730042D01*
X2989122Y2725775D01*
X2982163Y2720035D01*
X2961233Y2699054D01*
X2957931Y2696870D01*
X2954020Y2696108D01*
X2922320Y2696108D01*
X2916021Y2695397D01*
X2910535Y2693466D01*
X2905810Y2690520D01*
X2903321Y2689352D01*
X2900578Y2688945D01*
X2897022Y2688894D01*
X2888284Y2687675D01*
X2880207Y2684983D01*
X2872790Y2680817D01*
X2865831Y2675077D01*
X2813405Y2622550D01*
X2808071Y2615488D01*
X2804261Y2607868D01*
X2801924Y2599639D01*
X2801112Y2590698D01*
X2801162Y2411730D01*
X2802382Y2402941D01*
X2805125Y2394864D01*
X2809290Y2387447D01*
X2815031Y2380538D01*
X2848508Y2347214D01*
X2850743Y2343912D01*
X2851505Y2340051D01*
X2850743Y2336139D01*
X2848508Y2332837D01*
X2845257Y2330653D01*
X2841345Y2329840D01*
X2829560Y2329840D01*
X2823260Y2329129D01*
X2817774Y2327249D01*
X2812897Y2324150D01*
X2808782Y2320086D01*
X2805684Y2315159D01*
X2803804Y2309723D01*
X2803093Y2303373D01*
X2803093Y2222652D01*
X2884881Y2222652D01*
X2884881Y2301951D01*
X2885744Y2306015D01*
X2888183Y2309418D01*
X2891790Y2311552D01*
X2895955Y2312060D01*
X2904134Y2311298D01*
X3011881Y2311298D01*
X3015742Y2310536D01*
X3019044Y2308301D01*
X3021279Y2304999D01*
X3022041Y2301138D01*
X3022041Y2222652D01*
X3103829Y2222652D01*
X3103829Y2301138D01*
X3104591Y2304999D01*
X3106775Y2308301D01*
X3110077Y2310536D01*
X3113989Y2311298D01*
X3118256Y2311298D01*
X3122117Y2310536D01*
X3125419Y2308301D01*
X3127654Y2304999D01*
X3128416Y2301138D01*
X3128416Y2272639D01*
X3129127Y2266289D01*
X3130194Y2263241D01*
X3130753Y2259888D01*
X3130194Y2256536D01*
X3129127Y2253437D01*
X3128416Y2247138D01*
X3128416Y2207615D01*
X3129127Y2201316D01*
X3130194Y2198217D01*
X3130753Y2194864D01*
X3130194Y2191512D01*
X3129127Y2188464D01*
X3128416Y2182114D01*
X3128416Y2178862D01*
X3196844Y2178862D01*
X3199841Y2180539D01*
X3203194Y2181148D01*
X3285744Y2181148D01*
X3289147Y2180539D01*
X3292144Y2178862D01*
X3364229Y2178862D01*
X3367278Y2180640D01*
X3370732Y2181199D01*
X3468420Y2181250D01*
X3477209Y2182469D01*
X3485286Y2185212D01*
X3492754Y2189327D01*
X3499662Y2195068D01*
X3618992Y2314498D01*
X3624376Y2321560D01*
X3628186Y2329332D01*
X3630117Y2335428D01*
X3630574Y2338019D01*
X3632200Y2341880D01*
X3635197Y2344775D01*
X3641191Y2348484D01*
X3645306Y2352548D01*
X3646474Y2354427D01*
X3649319Y2357374D01*
X3653028Y2358999D01*
X3657142Y2358999D01*
X3660851Y2357374D01*
X3663696Y2354427D01*
X3664864Y2352548D01*
X3668979Y2348484D01*
X3673856Y2345385D01*
X3679342Y2343454D01*
X3685641Y2342743D01*
X3698748Y2342743D01*
X3698748Y2384806D01*
X3661156Y2384806D01*
X3657244Y2385618D01*
X3653993Y2387803D01*
X3651758Y2391105D01*
X3650996Y2394966D01*
X3650996Y2432354D01*
X3651758Y2436266D01*
X3653993Y2439568D01*
X3657244Y2441752D01*
X3661156Y2442514D01*
X3698748Y2442514D01*
X3698748Y2484577D01*
X3685641Y2484577D01*
X3679342Y2483866D01*
X3673856Y2481935D01*
X3668979Y2478887D01*
X3664864Y2474772D01*
X3663696Y2472893D01*
X3660851Y2469946D01*
X3657142Y2468372D01*
X3653028Y2468372D01*
X3649319Y2469946D01*
X3646474Y2472893D01*
X3645306Y2474772D01*
X3641191Y2478887D01*
X3636314Y2481935D01*
X3626612Y2485034D01*
X3623665Y2487422D01*
X3621786Y2490673D01*
X3621227Y2494432D01*
X3622090Y2498090D01*
X3624224Y2501239D01*
X3676954Y2553970D01*
X3680256Y2556205D01*
X3684168Y2556967D01*
X3715918Y2556967D01*
X3722217Y2557678D01*
X3727704Y2559608D01*
X3732580Y2562656D01*
X3736695Y2566771D01*
X3739743Y2571648D01*
X3741674Y2577134D01*
X3742334Y2582926D01*
X3743198Y2586075D01*
X3745077Y2588818D01*
X3747668Y2590800D01*
X3750259Y2592171D01*
X3753713Y2594508D01*
X3756964Y2597251D01*
X3760012Y2600248D01*
X3762705Y2603550D01*
X3765143Y2607056D01*
X3767226Y2610764D01*
X3768953Y2614676D01*
X3770274Y2618740D01*
X3771290Y2622905D01*
X3771849Y2627122D01*
X3772052Y2631643D01*
X3772052Y2691638D01*
X3772865Y2695498D01*
X3775049Y2698800D01*
X3825189Y2749042D01*
X3828491Y2751226D01*
X3832402Y2752039D01*
X3836263Y2751277D01*
X3839565Y2749042D01*
X3841800Y2745740D01*
X3842562Y2741879D01*
X3842562Y2673299D01*
X3843375Y2664714D01*
X3844340Y2661056D01*
X3844493Y2656687D01*
X3842816Y2652623D01*
X3839870Y2648407D01*
X3834688Y2637993D01*
X3831183Y2626918D01*
X3829405Y2615438D01*
X3829405Y2603855D01*
X3831183Y2592374D01*
X3834688Y2581300D01*
X3839870Y2570886D01*
X3846525Y2561386D01*
X3857040Y2550566D01*
X3858412Y2547772D01*
X3858869Y2544724D01*
X3858920Y2334564D01*
X3860139Y2325776D01*
X3862832Y2317699D01*
X3866997Y2310282D01*
X3872737Y2303373D01*
X4012387Y2163724D01*
X4014622Y2160422D01*
X4015384Y2156510D01*
X4015384Y1888743D01*
X4014622Y1884883D01*
X4012387Y1881581D01*
X3987444Y1856638D01*
X3985717Y1855165D01*
X3877360Y1746808D01*
X3874058Y1744573D01*
X3870198Y1743811D01*
X3656990Y1743811D01*
X3653078Y1744573D01*
X3649827Y1746808D01*
X3647592Y1750060D01*
X3646830Y1753971D01*
X3647592Y1757832D01*
X3649827Y1761134D01*
X3680053Y1791462D01*
X3685387Y1798523D01*
X3689197Y1806143D01*
X3691483Y1814322D01*
X3692347Y1823313D01*
X3692347Y1887423D01*
X3693109Y1891334D01*
X3695293Y1894586D01*
X3698595Y1896821D01*
X3702507Y1897583D01*
X3716223Y1897583D01*
X3722522Y1898294D01*
X3728008Y1900224D01*
X3732885Y1903272D01*
X3737000Y1907387D01*
X3740048Y1912264D01*
X3741978Y1917750D01*
X3742690Y1924050D01*
X3742690Y2012899D01*
X3741978Y2019249D01*
X3740048Y2024684D01*
X3737000Y2029612D01*
X3732885Y2033676D01*
X3728008Y2036775D01*
X3724401Y2038045D01*
X3720846Y2040178D01*
X3718458Y2043531D01*
X3717594Y2047595D01*
X3717594Y2099970D01*
X3718356Y2103882D01*
X3720592Y2107184D01*
X3723995Y2110587D01*
X3725164Y2112467D01*
X3728008Y2115413D01*
X3731768Y2116988D01*
X3735832Y2116988D01*
X3739591Y2115413D01*
X3742385Y2112467D01*
X3743553Y2110587D01*
X3747668Y2106472D01*
X3752545Y2103424D01*
X3758031Y2101494D01*
X3764330Y2100783D01*
X3777437Y2100783D01*
X3777437Y2142845D01*
X3739845Y2142845D01*
X3735984Y2143607D01*
X3732682Y2145792D01*
X3730447Y2149094D01*
X3729685Y2153005D01*
X3729685Y2190394D01*
X3730447Y2194255D01*
X3732682Y2197557D01*
X3735984Y2199741D01*
X3739845Y2200554D01*
X3777437Y2200554D01*
X3777437Y2242616D01*
X3764330Y2242616D01*
X3758031Y2241905D01*
X3752545Y2239975D01*
X3747668Y2236876D01*
X3743553Y2232812D01*
X3742385Y2230932D01*
X3739591Y2227986D01*
X3735832Y2226360D01*
X3731768Y2226360D01*
X3728008Y2227986D01*
X3725164Y2230932D01*
X3723995Y2232812D01*
X3719880Y2236876D01*
X3715004Y2239975D01*
X3709517Y2241905D01*
X3703218Y2242616D01*
X3624376Y2242616D01*
X3618026Y2241905D01*
X3612591Y2239975D01*
X3607663Y2236876D01*
X3603599Y2232812D01*
X3600500Y2227884D01*
X3598570Y2222449D01*
X3597859Y2216099D01*
X3597859Y2175408D01*
X3597097Y2171496D01*
X3594912Y2168194D01*
X3573272Y2146554D01*
X3569970Y2144369D01*
X3566058Y2143607D01*
X3370732Y2143607D01*
X3367328Y2144166D01*
X3364331Y2145842D01*
X3292144Y2145842D01*
X3289147Y2144166D01*
X3285744Y2143607D01*
X3203194Y2143607D01*
X3199841Y2144166D01*
X3196844Y2145842D01*
X3128416Y2145842D01*
X3128416Y2142642D01*
X3129127Y2136292D01*
X3130194Y2133244D01*
X3130753Y2129891D01*
X3130194Y2126538D01*
X3129127Y2123440D01*
X3128416Y2117140D01*
X3128416Y2077618D01*
X3129127Y2071319D01*
X3130194Y2068220D01*
X3130753Y2064867D01*
X3130194Y2061514D01*
X3129127Y2058466D01*
X3128416Y2052116D01*
X3128416Y2012645D01*
X3129127Y2006295D01*
X3130194Y2003247D01*
X3130753Y1999894D01*
X3130194Y1996541D01*
X3129127Y1993442D01*
X3128416Y1987143D01*
X3128416Y1958746D01*
X3127654Y1954885D01*
X3125419Y1951583D01*
X3122117Y1949348D01*
X3118256Y1948586D01*
X3113989Y1948586D01*
X3110077Y1949348D01*
X3106775Y1951583D01*
X3104591Y1954885D01*
X3103829Y1958746D01*
X3103829Y2034692D01*
X3022041Y2034692D01*
X3022041Y1950466D01*
X3021380Y1946910D01*
X3019602Y1943862D01*
X3016808Y1941575D01*
X3014827Y1940458D01*
X3007918Y1934718D01*
X2895955Y1822754D01*
X2892653Y1820570D01*
X2888742Y1819757D01*
X2721203Y1819757D01*
X2718358Y1820164D01*
X2715768Y1821332D01*
X2710992Y1824380D01*
X2705506Y1826260D01*
X2699207Y1826971D01*
X2603347Y1826971D01*
X2596997Y1826260D01*
X2591562Y1824380D01*
X2586634Y1821281D01*
X2582570Y1817166D01*
X2579471Y1812289D01*
X2577541Y1806854D01*
X2576830Y1800504D01*
X2576830Y1746656D01*
X2577541Y1740306D01*
X2579471Y1734870D01*
X2582773Y1729587D01*
X2584094Y1726438D01*
X2584246Y1723034D01*
X2583332Y1719783D01*
X2581351Y1716989D01*
X2512364Y1647952D01*
X2507030Y1640890D01*
X2503220Y1633270D01*
X2500884Y1625041D01*
X2500071Y1616100D01*
X2500122Y1546098D01*
X2499461Y1542237D01*
X2497378Y1538884D01*
X2494178Y1536598D01*
X2490368Y1535734D01*
X2480665Y1535328D01*
X2469286Y1533144D01*
X2458313Y1529181D01*
X2448153Y1523644D01*
X2438908Y1516634D01*
X2430830Y1508252D01*
X2424176Y1498752D01*
X2418994Y1488338D01*
X2415489Y1477264D01*
X2413711Y1465783D01*
X2413711Y1454150D01*
X2415489Y1442669D01*
X2418994Y1431594D01*
X2422296Y1424990D01*
X2423312Y1421028D01*
X2422702Y1416964D01*
X2420569Y1413459D01*
X2417165Y1411122D01*
X2413152Y1410309D01*
G37*

%LPC*%
G36*
X2829560Y1927504D02*
G01*
X2884881Y1927504D01*
X2884881Y2034692D01*
X2803093Y2034692D01*
X2803093Y1954022D01*
X2803804Y1947672D01*
X2805684Y1942236D01*
X2808782Y1937308D01*
X2812897Y1933244D01*
X2817774Y1930146D01*
X2823260Y1928215D01*
G37*
G36*
X3830116Y2100783D02*
G01*
X3843223Y2100783D01*
X3849522Y2101494D01*
X3855008Y2103424D01*
X3859885Y2106472D01*
X3864000Y2110587D01*
X3867048Y2115464D01*
X3868978Y2120950D01*
X3869690Y2127250D01*
X3869690Y2142845D01*
X3830116Y2142845D01*
G37*
G36*
X3830116Y2200554D02*
G01*
X3869690Y2200554D01*
X3869690Y2216099D01*
X3868978Y2222449D01*
X3867048Y2227884D01*
X3864000Y2232812D01*
X3859885Y2236876D01*
X3855008Y2239975D01*
X3849522Y2241905D01*
X3843223Y2242616D01*
X3830116Y2242616D01*
G37*
G36*
X3751427Y2342743D02*
G01*
X3764483Y2342743D01*
X3770833Y2343454D01*
X3776268Y2345385D01*
X3781196Y2348484D01*
X3785260Y2352548D01*
X3788359Y2357475D01*
X3790289Y2362911D01*
X3791000Y2369261D01*
X3791000Y2384806D01*
X3751427Y2384806D01*
G37*
G36*
X3751427Y2442514D02*
G01*
X3791000Y2442514D01*
X3791000Y2458110D01*
X3790289Y2464409D01*
X3788359Y2469896D01*
X3785260Y2474772D01*
X3781196Y2478887D01*
X3776268Y2481935D01*
X3770833Y2483866D01*
X3764483Y2484577D01*
X3751427Y2484577D01*
G37*

%LPD*%
G36*
X3300374Y603199D02*
G01*
X3296462Y603961D01*
X3293160Y606145D01*
X3290976Y609447D01*
X3290214Y613359D01*
X3290163Y658977D01*
X3288944Y667766D01*
X3286201Y675843D01*
X3282086Y683260D01*
X3276346Y690168D01*
X3235706Y730808D01*
X3233521Y734110D01*
X3232759Y737971D01*
X3233521Y741883D01*
X3235706Y745185D01*
X3239008Y747369D01*
X3242919Y748131D01*
X3290570Y748131D01*
X3296920Y748842D01*
X3302355Y750773D01*
X3307232Y753872D01*
X3311347Y757936D01*
X3314446Y762863D01*
X3316325Y768299D01*
X3317036Y774649D01*
X3317036Y814120D01*
X3316325Y820470D01*
X3315258Y823518D01*
X3314700Y826871D01*
X3315258Y830224D01*
X3316325Y833323D01*
X3317036Y839622D01*
X3317036Y879144D01*
X3316325Y885444D01*
X3315258Y888542D01*
X3314700Y891895D01*
X3315258Y895248D01*
X3316325Y898296D01*
X3317036Y904646D01*
X3317036Y907846D01*
X3248660Y907846D01*
X3245662Y906170D01*
X3242259Y905611D01*
X3159709Y905611D01*
X3156305Y906170D01*
X3153308Y907846D01*
X3081172Y907846D01*
X3078124Y906170D01*
X3074720Y905560D01*
X2915970Y905560D01*
X2912059Y906373D01*
X2908757Y908558D01*
X2852369Y964946D01*
X2850184Y968248D01*
X2849372Y972159D01*
X2849372Y1066749D01*
X2850184Y1070610D01*
X2852369Y1073912D01*
X2857957Y1079449D01*
X2861259Y1081633D01*
X2865120Y1082395D01*
X2869031Y1081633D01*
X2872282Y1079449D01*
X2996234Y955548D01*
X3003346Y950214D01*
X3010966Y946403D01*
X3019145Y944067D01*
X3028086Y943254D01*
X3074720Y943254D01*
X3078175Y942644D01*
X3081223Y940866D01*
X3153308Y940866D01*
X3156305Y942543D01*
X3159709Y943152D01*
X3242259Y943152D01*
X3245662Y942543D01*
X3248660Y940866D01*
X3317036Y940866D01*
X3317036Y944118D01*
X3316325Y950468D01*
X3315258Y953516D01*
X3314700Y956868D01*
X3315258Y960221D01*
X3316325Y963320D01*
X3317036Y969619D01*
X3317036Y1009142D01*
X3316325Y1015441D01*
X3315258Y1018540D01*
X3314700Y1021892D01*
X3315258Y1025245D01*
X3316325Y1028293D01*
X3317036Y1034643D01*
X3317036Y1074115D01*
X3316325Y1080465D01*
X3315258Y1083513D01*
X3314700Y1086866D01*
X3315258Y1090218D01*
X3316325Y1093317D01*
X3317036Y1099616D01*
X3317036Y1102868D01*
X3248660Y1102868D01*
X3245662Y1101191D01*
X3242259Y1100582D01*
X3159709Y1100582D01*
X3156305Y1101191D01*
X3153308Y1102868D01*
X3085896Y1102868D01*
X3081985Y1103630D01*
X3078683Y1105865D01*
X3063697Y1120851D01*
X3061512Y1124153D01*
X3060750Y1128014D01*
X3061512Y1131925D01*
X3063697Y1135227D01*
X3066999Y1137412D01*
X3070910Y1138174D01*
X3074720Y1138174D01*
X3078175Y1137615D01*
X3081172Y1135888D01*
X3153308Y1135888D01*
X3156305Y1137564D01*
X3159709Y1138123D01*
X3242259Y1138123D01*
X3245662Y1137564D01*
X3248660Y1135888D01*
X3317036Y1135888D01*
X3317036Y1139139D01*
X3316325Y1145438D01*
X3315258Y1148537D01*
X3314700Y1151890D01*
X3315258Y1155242D01*
X3316325Y1158290D01*
X3317036Y1164640D01*
X3317036Y1204112D01*
X3316325Y1210462D01*
X3315258Y1213510D01*
X3314700Y1216863D01*
X3315258Y1220216D01*
X3316325Y1223314D01*
X3317036Y1229614D01*
X3317036Y1269136D01*
X3316325Y1275435D01*
X3314446Y1280922D01*
X3311347Y1285798D01*
X3307232Y1289913D01*
X3302355Y1292961D01*
X3296920Y1294892D01*
X3290570Y1295603D01*
X3273247Y1295603D01*
X3269081Y1296466D01*
X3265678Y1299006D01*
X3263544Y1302715D01*
X3263138Y1306931D01*
X3264509Y1310944D01*
X3267506Y1315974D01*
X3271875Y1326743D01*
X3274364Y1337411D01*
X3276193Y1341323D01*
X3279444Y1344066D01*
X3283559Y1345234D01*
X3287826Y1344625D01*
X3291433Y1342288D01*
X3383838Y1249934D01*
X3390950Y1244600D01*
X3397910Y1241094D01*
X3401364Y1238250D01*
X3403295Y1234186D01*
X3403244Y1229715D01*
X3401314Y1225651D01*
X3397758Y1222857D01*
X3393389Y1221841D01*
X3371087Y1221841D01*
X3364737Y1221130D01*
X3359302Y1219250D01*
X3354374Y1216152D01*
X3350310Y1212088D01*
X3347212Y1207160D01*
X3345281Y1201724D01*
X3344570Y1195374D01*
X3344570Y1114653D01*
X3426358Y1114653D01*
X3426358Y1227480D01*
X3427171Y1231341D01*
X3429355Y1234643D01*
X3432657Y1236878D01*
X3436518Y1237640D01*
X3553358Y1237640D01*
X3557270Y1236878D01*
X3560572Y1234643D01*
X3562756Y1231341D01*
X3563518Y1227480D01*
X3563518Y1114653D01*
X3645306Y1114653D01*
X3645306Y1195374D01*
X3644595Y1201877D01*
X3644900Y1205738D01*
X3646678Y1209243D01*
X3649675Y1211834D01*
X3653383Y1213053D01*
X3657295Y1212799D01*
X3660800Y1211122D01*
X3664254Y1208989D01*
X3667251Y1206754D01*
X3669233Y1203604D01*
X3669893Y1199896D01*
X3669893Y1164640D01*
X3670604Y1158290D01*
X3671671Y1155242D01*
X3672281Y1151890D01*
X3671671Y1148537D01*
X3670604Y1145438D01*
X3669893Y1139139D01*
X3669893Y1099616D01*
X3670604Y1093317D01*
X3671671Y1090218D01*
X3672281Y1086866D01*
X3671671Y1083513D01*
X3670604Y1080465D01*
X3669893Y1074115D01*
X3669893Y1070864D01*
X3738321Y1070864D01*
X3741318Y1072540D01*
X3744722Y1073150D01*
X3827272Y1073150D01*
X3830675Y1072540D01*
X3833672Y1070864D01*
X3904691Y1070864D01*
X3908094Y1073353D01*
X3912209Y1074267D01*
X3931412Y1074267D01*
X3935323Y1073454D01*
X3938574Y1071270D01*
X3940810Y1067968D01*
X3941572Y1064107D01*
X3941572Y1053998D01*
X3940810Y1050137D01*
X3938574Y1046835D01*
X3930345Y1038555D01*
X3927043Y1036370D01*
X3923131Y1035608D01*
X3912209Y1035608D01*
X3908806Y1036167D01*
X3905808Y1037844D01*
X3833672Y1037844D01*
X3830675Y1036167D01*
X3827272Y1035608D01*
X3744722Y1035608D01*
X3741318Y1036167D01*
X3738321Y1037844D01*
X3669893Y1037844D01*
X3669893Y1034643D01*
X3670604Y1028293D01*
X3671671Y1025245D01*
X3672281Y1021892D01*
X3671671Y1018540D01*
X3670604Y1015441D01*
X3669893Y1009142D01*
X3669893Y969619D01*
X3670604Y963320D01*
X3671671Y960221D01*
X3672281Y956868D01*
X3671671Y953516D01*
X3670604Y950468D01*
X3669893Y944118D01*
X3669893Y904646D01*
X3670604Y898296D01*
X3671671Y895248D01*
X3672281Y891895D01*
X3671671Y888542D01*
X3670604Y885444D01*
X3669893Y879144D01*
X3669893Y850747D01*
X3669131Y846836D01*
X3666947Y843584D01*
X3663645Y841349D01*
X3659733Y840587D01*
X3655466Y840587D01*
X3651605Y841349D01*
X3648303Y843584D01*
X3646119Y846836D01*
X3645306Y850747D01*
X3645306Y926693D01*
X3563518Y926693D01*
X3563518Y849985D01*
X3562908Y846429D01*
X3561029Y843280D01*
X3558235Y841044D01*
X3554780Y839927D01*
X3550564Y839317D01*
X3542487Y836625D01*
X3535019Y832459D01*
X3528110Y826719D01*
X3307537Y606145D01*
X3304235Y603961D01*
G37*

%LPC*%
G36*
X3371087Y819505D02*
G01*
X3426358Y819505D01*
X3426358Y926693D01*
X3344570Y926693D01*
X3344570Y846023D01*
X3345281Y839673D01*
X3347212Y834237D01*
X3350310Y829310D01*
X3354374Y825246D01*
X3359302Y822147D01*
X3364737Y820216D01*
G37*

%LPD*%
G36*
X3917137Y187706D02*
G01*
X3913225Y188518D01*
X3909872Y190754D01*
X3907688Y194157D01*
X3906977Y198120D01*
X3908958Y280720D01*
X3909923Y284784D01*
X3912362Y288086D01*
X3919931Y294843D01*
X3927348Y303784D01*
X3933291Y313791D01*
X3937609Y324561D01*
X3940251Y335838D01*
X3941165Y347421D01*
X3940251Y359054D01*
X3937609Y370332D01*
X3933291Y381101D01*
X3927348Y391109D01*
X3919931Y400050D01*
X3911244Y407771D01*
X3908196Y410972D01*
X3906774Y415188D01*
X3907282Y419608D01*
X3909364Y425653D01*
X3910076Y431952D01*
X3910076Y485800D01*
X3909364Y492150D01*
X3906062Y501853D01*
X3906570Y506272D01*
X3909009Y510032D01*
X3914394Y515467D01*
X3917696Y517651D01*
X3921607Y518414D01*
X3925468Y517651D01*
X3928770Y515416D01*
X3930954Y512165D01*
X3931767Y506780D01*
X3971290Y506780D01*
X3971290Y521766D01*
X3972051Y525678D01*
X3974287Y528980D01*
X3977589Y531164D01*
X3981450Y531926D01*
X4013860Y531926D01*
X4017721Y531164D01*
X4021023Y528980D01*
X4023207Y525678D01*
X4024020Y521766D01*
X4024020Y506780D01*
X4061561Y506780D01*
X4065473Y506018D01*
X4068775Y503834D01*
X4070959Y500532D01*
X4071721Y496620D01*
X4071721Y459232D01*
X4070959Y455371D01*
X4068775Y452069D01*
X4065473Y449884D01*
X4061561Y449072D01*
X4024020Y449072D01*
X4024020Y407009D01*
X4037076Y407009D01*
X4043426Y407720D01*
X4048861Y409651D01*
X4053789Y412750D01*
X4057853Y416814D01*
X4059021Y418693D01*
X4061866Y421640D01*
X4065625Y423265D01*
X4069689Y423265D01*
X4073448Y421640D01*
X4076242Y418693D01*
X4077462Y416814D01*
X4081526Y412750D01*
X4086453Y409651D01*
X4091889Y407720D01*
X4098188Y407009D01*
X4128668Y407009D01*
X4132579Y406247D01*
X4135882Y404063D01*
X4138066Y400761D01*
X4138828Y396849D01*
X4138828Y345389D01*
X4138117Y341579D01*
X4135983Y338328D01*
X4130548Y332689D01*
X4123893Y323189D01*
X4118711Y312775D01*
X4115206Y301701D01*
X4113428Y290220D01*
X4113428Y278587D01*
X4115206Y267106D01*
X4118711Y256032D01*
X4123893Y245617D01*
X4130548Y236118D01*
X4138625Y227736D01*
X4147870Y220725D01*
X4158030Y215188D01*
X4169003Y211226D01*
X4180382Y209042D01*
X4192015Y208584D01*
X4203547Y209905D01*
X4214723Y213004D01*
X4225340Y217728D01*
X4235094Y224078D01*
X4243781Y231800D01*
X4251147Y240741D01*
X4257090Y250748D01*
X4261459Y261518D01*
X4264101Y272796D01*
X4264964Y284378D01*
X4264101Y296011D01*
X4261459Y307289D01*
X4257090Y318058D01*
X4251147Y328066D01*
X4243781Y337007D01*
X4242663Y338023D01*
X4240123Y341426D01*
X4239260Y345592D01*
X4239260Y406146D01*
X4239971Y409956D01*
X4242104Y413207D01*
X4245254Y415442D01*
X4251350Y418134D01*
X4261053Y424484D01*
X4269740Y432206D01*
X4277156Y441147D01*
X4283506Y451916D01*
X4285792Y454609D01*
X4288840Y456336D01*
X4292244Y456946D01*
X4456176Y456946D01*
X4460087Y456133D01*
X4463389Y453948D01*
X4537811Y379577D01*
X4544923Y374243D01*
X4552543Y370433D01*
X4560722Y368096D01*
X4569663Y367284D01*
X4738370Y367284D01*
X4747158Y368554D01*
X4755235Y371246D01*
X4762703Y375361D01*
X4769612Y381152D01*
X4808321Y419912D01*
X4813757Y427126D01*
X4816652Y432562D01*
X4818430Y437946D01*
X4820361Y441350D01*
X4823460Y443738D01*
X4830572Y448005D01*
X4834636Y452120D01*
X4837734Y456996D01*
X4839614Y462483D01*
X4840325Y468782D01*
X4840325Y557682D01*
X4839614Y563981D01*
X4837734Y569468D01*
X4834636Y574344D01*
X4830572Y578459D01*
X4825644Y581507D01*
X4824222Y582015D01*
X4820462Y584352D01*
X4818075Y588010D01*
X4816144Y593039D01*
X4815484Y596646D01*
X4815484Y637336D01*
X4816094Y640740D01*
X4817770Y643737D01*
X4817770Y715924D01*
X4816094Y718921D01*
X4815484Y722274D01*
X4815484Y804824D01*
X4816094Y808228D01*
X4817770Y811225D01*
X4817770Y879652D01*
X4814519Y879652D01*
X4808220Y878941D01*
X4805121Y877874D01*
X4801768Y877316D01*
X4798415Y877874D01*
X4795367Y878941D01*
X4789017Y879652D01*
X4749546Y879652D01*
X4743196Y878941D01*
X4740148Y877874D01*
X4736795Y877316D01*
X4733391Y877874D01*
X4730343Y878941D01*
X4724044Y879652D01*
X4684522Y879652D01*
X4678222Y878941D01*
X4675124Y877874D01*
X4671771Y877316D01*
X4668418Y877874D01*
X4665370Y878941D01*
X4659020Y879652D01*
X4619548Y879652D01*
X4613198Y878941D01*
X4610150Y877874D01*
X4606798Y877316D01*
X4603394Y877874D01*
X4600346Y878941D01*
X4594047Y879652D01*
X4554524Y879652D01*
X4548225Y878941D01*
X4542739Y877011D01*
X4537862Y873963D01*
X4533747Y869848D01*
X4530648Y864971D01*
X4528769Y859485D01*
X4528058Y853186D01*
X4528058Y786892D01*
X4527296Y782980D01*
X4525060Y779678D01*
X4437227Y691845D01*
X4433925Y689660D01*
X4430014Y688848D01*
X4231894Y688848D01*
X4227728Y689762D01*
X4224324Y692251D01*
X4222242Y695960D01*
X4221784Y700176D01*
X4223156Y704240D01*
X4226712Y710133D01*
X4231030Y720902D01*
X4233672Y732231D01*
X4234586Y743813D01*
X4233672Y755396D01*
X4231030Y766724D01*
X4226712Y777494D01*
X4220768Y787450D01*
X4213352Y796442D01*
X4207154Y801979D01*
X4204665Y805383D01*
X4203750Y809548D01*
X4203750Y969771D01*
X4203293Y975004D01*
X4203700Y978865D01*
X4205579Y982319D01*
X4208576Y984808D01*
X4218076Y987907D01*
X4223004Y991006D01*
X4227068Y995121D01*
X4228287Y997000D01*
X4231081Y999947D01*
X4234840Y1001521D01*
X4238904Y1001521D01*
X4242663Y999947D01*
X4245457Y997000D01*
X4246676Y995121D01*
X4250740Y991006D01*
X4255668Y987907D01*
X4261104Y986028D01*
X4267454Y985316D01*
X4280509Y985316D01*
X4280509Y1027379D01*
X4242968Y1027379D01*
X4239056Y1028141D01*
X4235754Y1030325D01*
X4233570Y1033627D01*
X4232808Y1037539D01*
X4232808Y1074928D01*
X4233570Y1078788D01*
X4235754Y1082090D01*
X4239056Y1084275D01*
X4242968Y1085088D01*
X4280509Y1085088D01*
X4280509Y1127099D01*
X4267454Y1127099D01*
X4261104Y1126388D01*
X4255668Y1124508D01*
X4250740Y1121410D01*
X4246676Y1117346D01*
X4245457Y1115415D01*
X4242663Y1112469D01*
X4238904Y1110894D01*
X4234840Y1110894D01*
X4231081Y1112469D01*
X4228287Y1115415D01*
X4227068Y1117346D01*
X4223004Y1121410D01*
X4218076Y1124508D01*
X4212640Y1126388D01*
X4206290Y1127099D01*
X4127449Y1127099D01*
X4121150Y1126388D01*
X4115663Y1124508D01*
X4110786Y1121410D01*
X4106722Y1117346D01*
X4102912Y1111250D01*
X4100677Y1108659D01*
X4097680Y1106982D01*
X4094276Y1106424D01*
X4040378Y1106424D01*
X4036517Y1107186D01*
X4033215Y1109370D01*
X4031030Y1112672D01*
X4030218Y1116584D01*
X4031030Y1120444D01*
X4033215Y1123746D01*
X4078782Y1169314D01*
X4082084Y1171549D01*
X4085945Y1172311D01*
X4118508Y1172311D01*
X4124807Y1173022D01*
X4130294Y1174902D01*
X4135170Y1178001D01*
X4139285Y1182116D01*
X4142333Y1186992D01*
X4144264Y1192479D01*
X4144975Y1198778D01*
X4144975Y1277620D01*
X4144264Y1283970D01*
X4142333Y1289405D01*
X4139285Y1294333D01*
X4135170Y1298397D01*
X4133291Y1299616D01*
X4130344Y1302410D01*
X4128770Y1306169D01*
X4128770Y1310233D01*
X4130344Y1313992D01*
X4133291Y1316786D01*
X4135170Y1318006D01*
X4139285Y1322070D01*
X4142333Y1326997D01*
X4144264Y1332433D01*
X4144975Y1338783D01*
X4144975Y1351838D01*
X4102912Y1351838D01*
X4102912Y1314297D01*
X4102150Y1310386D01*
X4099966Y1307084D01*
X4096664Y1304899D01*
X4092752Y1304137D01*
X4055364Y1304137D01*
X4051503Y1304899D01*
X4048201Y1307084D01*
X4046016Y1310386D01*
X4045204Y1314297D01*
X4045204Y1351838D01*
X4040022Y1351838D01*
X4036110Y1352600D01*
X4032859Y1354836D01*
X4030624Y1358138D01*
X4029862Y1361998D01*
X4029862Y1394409D01*
X4030624Y1398270D01*
X4032859Y1401572D01*
X4036110Y1403756D01*
X4040022Y1404569D01*
X4045204Y1404569D01*
X4045204Y1444091D01*
X4029659Y1444091D01*
X4023309Y1443380D01*
X4016959Y1441196D01*
X4013250Y1440586D01*
X4009542Y1441450D01*
X4006443Y1443583D01*
X3984040Y1465884D01*
X3976979Y1471218D01*
X3968140Y1475536D01*
X3965194Y1477721D01*
X3963212Y1480820D01*
X3962450Y1484426D01*
X3963009Y1488033D01*
X3964990Y1493672D01*
X3965701Y1499971D01*
X3965701Y1553870D01*
X3964940Y1560677D01*
X3965346Y1564894D01*
X3967479Y1568602D01*
X3970883Y1571091D01*
X3975049Y1571955D01*
X4049471Y1571955D01*
X4053332Y1571193D01*
X4056634Y1569008D01*
X4058869Y1565706D01*
X4059631Y1561795D01*
X4059631Y1516024D01*
X4059834Y1511554D01*
X4060444Y1507337D01*
X4061409Y1503172D01*
X4062780Y1499108D01*
X4064457Y1495196D01*
X4066540Y1491488D01*
X4068978Y1487982D01*
X4071670Y1484680D01*
X4074718Y1481683D01*
X4077970Y1478940D01*
X4081526Y1476552D01*
X4085234Y1474470D01*
X4089146Y1472742D01*
X4093210Y1471371D01*
X4097324Y1470406D01*
X4101592Y1469796D01*
X4106062Y1469593D01*
X4220413Y1469593D01*
X4224172Y1468882D01*
X4227423Y1466850D01*
X4229658Y1463700D01*
X4230573Y1459992D01*
X4230065Y1456232D01*
X4228185Y1452880D01*
X4221937Y1445514D01*
X4214723Y1434134D01*
X4212539Y1429512D01*
X4259326Y1429512D01*
X4259326Y1459433D01*
X4260088Y1463344D01*
X4262323Y1466646D01*
X4265625Y1468831D01*
X4269486Y1469593D01*
X4336846Y1469593D01*
X4340758Y1468831D01*
X4344060Y1466646D01*
X4346244Y1463344D01*
X4347006Y1459433D01*
X4347006Y1429512D01*
X4379671Y1429512D01*
X4383532Y1428750D01*
X4386834Y1426565D01*
X4389069Y1423263D01*
X4389831Y1419352D01*
X4389831Y1351991D01*
X4389069Y1348079D01*
X4386834Y1344777D01*
X4383532Y1342593D01*
X4379671Y1341831D01*
X4347006Y1341831D01*
X4347006Y1294942D01*
X4348683Y1295654D01*
X4360265Y1302512D01*
X4370832Y1310843D01*
X4372356Y1312418D01*
X4375658Y1314704D01*
X4379569Y1315516D01*
X4383481Y1314754D01*
X4386834Y1312570D01*
X4389018Y1309268D01*
X4389831Y1305356D01*
X4389831Y1116025D01*
X4389018Y1112062D01*
X4386783Y1108760D01*
X4383430Y1106576D01*
X4379468Y1105865D01*
X4375556Y1106728D01*
X4372305Y1109014D01*
X4367072Y1117346D01*
X4363008Y1121410D01*
X4358081Y1124508D01*
X4352645Y1126388D01*
X4346295Y1127099D01*
X4333240Y1127099D01*
X4333240Y1085088D01*
X4379671Y1085088D01*
X4383532Y1084275D01*
X4386834Y1082090D01*
X4389069Y1078788D01*
X4389831Y1074928D01*
X4389831Y1055776D01*
X4389069Y1051915D01*
X4386834Y1048613D01*
X4368596Y1030325D01*
X4365294Y1028141D01*
X4361383Y1027379D01*
X4333240Y1027379D01*
X4333240Y999185D01*
X4332427Y995324D01*
X4330242Y992022D01*
X4271365Y933094D01*
X4266031Y925982D01*
X4262221Y918362D01*
X4259884Y910183D01*
X4259072Y901242D01*
X4259072Y813358D01*
X4258614Y810310D01*
X4256836Y804672D01*
X4255058Y793191D01*
X4255058Y781608D01*
X4256836Y770128D01*
X4260342Y759053D01*
X4265472Y748639D01*
X4272178Y739140D01*
X4280204Y730758D01*
X4289450Y723696D01*
X4299661Y718159D01*
X4310583Y714248D01*
X4322013Y712012D01*
X4333595Y711555D01*
X4345127Y712927D01*
X4356354Y715975D01*
X4366971Y720750D01*
X4376674Y727049D01*
X4385360Y734771D01*
X4392777Y743762D01*
X4398721Y753719D01*
X4403039Y764489D01*
X4405680Y775817D01*
X4406595Y787400D01*
X4406392Y789736D01*
X4406950Y793953D01*
X4409186Y797560D01*
X4412742Y799947D01*
X4416907Y800709D01*
X4422495Y800455D01*
X4434027Y801827D01*
X4445254Y804875D01*
X4455871Y809650D01*
X4465574Y815949D01*
X4474260Y823671D01*
X4481677Y832662D01*
X4487621Y842619D01*
X4491939Y853389D01*
X4494580Y864717D01*
X4495495Y876300D01*
X4495088Y881430D01*
X4495698Y885748D01*
X4498035Y889406D01*
X4539030Y930452D01*
X4544364Y937514D01*
X4548174Y945134D01*
X4550511Y953312D01*
X4551324Y962304D01*
X4551324Y1222349D01*
X4552086Y1226261D01*
X4554321Y1229512D01*
X4557572Y1231747D01*
X4561484Y1232509D01*
X4594047Y1232509D01*
X4600346Y1233220D01*
X4603394Y1234287D01*
X4606798Y1234846D01*
X4610150Y1234287D01*
X4613198Y1233220D01*
X4619548Y1232509D01*
X4659020Y1232509D01*
X4665370Y1233220D01*
X4668418Y1234287D01*
X4671771Y1234846D01*
X4675124Y1234287D01*
X4678222Y1233220D01*
X4684522Y1232509D01*
X4687773Y1232509D01*
X4687773Y1300937D01*
X4686096Y1303934D01*
X4685487Y1307287D01*
X4685487Y1389837D01*
X4686096Y1393240D01*
X4687773Y1396238D01*
X4687773Y1468424D01*
X4686046Y1471422D01*
X4685487Y1474825D01*
X4685487Y1540154D01*
X4686249Y1544015D01*
X4688433Y1547317D01*
X4705705Y1564589D01*
X4709007Y1566773D01*
X4712868Y1567535D01*
X4716780Y1566773D01*
X4720082Y1564589D01*
X4722266Y1561287D01*
X4723028Y1557375D01*
X4723028Y1474825D01*
X4722469Y1471422D01*
X4720793Y1468424D01*
X4720793Y1396238D01*
X4722469Y1393240D01*
X4723028Y1389837D01*
X4723028Y1307287D01*
X4722469Y1303934D01*
X4720793Y1300937D01*
X4720793Y1232509D01*
X4724044Y1232509D01*
X4730343Y1233220D01*
X4733391Y1234287D01*
X4736795Y1234846D01*
X4740148Y1234287D01*
X4743196Y1233220D01*
X4749546Y1232509D01*
X4789017Y1232509D01*
X4795367Y1233220D01*
X4798415Y1234287D01*
X4801768Y1234846D01*
X4805121Y1234287D01*
X4808220Y1233220D01*
X4814519Y1232509D01*
X4854041Y1232509D01*
X4860340Y1233220D01*
X4863388Y1234287D01*
X4866792Y1234846D01*
X4870145Y1234287D01*
X4873193Y1233220D01*
X4879543Y1232509D01*
X4882743Y1232509D01*
X4882743Y1300937D01*
X4881067Y1303934D01*
X4880508Y1307287D01*
X4880508Y1389837D01*
X4881067Y1393240D01*
X4882743Y1396238D01*
X4882743Y1468424D01*
X4881067Y1471422D01*
X4880457Y1474825D01*
X4880457Y1494078D01*
X4881219Y1497990D01*
X4883454Y1501292D01*
X4910175Y1528013D01*
X4913477Y1530248D01*
X4917389Y1531010D01*
X4929174Y1531010D01*
X4933035Y1530248D01*
X4936337Y1528013D01*
X4938572Y1524762D01*
X4939334Y1520850D01*
X4938572Y1516989D01*
X4936388Y1513687D01*
X4930343Y1507591D01*
X4925060Y1500581D01*
X4921250Y1492961D01*
X4918913Y1484782D01*
X4918100Y1474825D01*
X4917490Y1471422D01*
X4915763Y1468374D01*
X4915763Y1396238D01*
X4917440Y1393240D01*
X4918049Y1389837D01*
X4918049Y1307287D01*
X4917440Y1303934D01*
X4915763Y1300937D01*
X4915763Y1232509D01*
X4919014Y1232509D01*
X4925364Y1233220D01*
X4928412Y1234287D01*
X4931765Y1234846D01*
X4935118Y1234287D01*
X4938217Y1233220D01*
X4944516Y1232509D01*
X4972913Y1232509D01*
X4976825Y1231747D01*
X4980127Y1229512D01*
X4982311Y1226261D01*
X4983073Y1222349D01*
X4983073Y1215136D01*
X4982311Y1211224D01*
X4980127Y1207973D01*
X4976825Y1205738D01*
X4972913Y1204976D01*
X4894580Y1204976D01*
X4894580Y1123188D01*
X4972913Y1123188D01*
X4976825Y1122426D01*
X4980127Y1120190D01*
X4982311Y1116939D01*
X4983073Y1113028D01*
X4983073Y996187D01*
X4982311Y992276D01*
X4980127Y989025D01*
X4976825Y986790D01*
X4972913Y986028D01*
X4894580Y986028D01*
X4894580Y904240D01*
X4975301Y904240D01*
X4981600Y904951D01*
X4987086Y906881D01*
X4992319Y910132D01*
X4995468Y911453D01*
X4998872Y911656D01*
X5002123Y910691D01*
X5004917Y908761D01*
X5016652Y896975D01*
X5018786Y893876D01*
X5019598Y890168D01*
X5019040Y886409D01*
X5017109Y883158D01*
X5014163Y880821D01*
X5010505Y879703D01*
X5003139Y878941D01*
X5000142Y877874D01*
X4996789Y877316D01*
X4993386Y877874D01*
X4990338Y878941D01*
X4984038Y879652D01*
X4944516Y879652D01*
X4938217Y878941D01*
X4935118Y877874D01*
X4931765Y877316D01*
X4928412Y877874D01*
X4925364Y878941D01*
X4919014Y879652D01*
X4879543Y879652D01*
X4873193Y878941D01*
X4870145Y877874D01*
X4866792Y877316D01*
X4863388Y877874D01*
X4860340Y878941D01*
X4854041Y879652D01*
X4850790Y879652D01*
X4850790Y811225D01*
X4852466Y808228D01*
X4853025Y804824D01*
X4853025Y722274D01*
X4852466Y718921D01*
X4850790Y715924D01*
X4850790Y643788D01*
X4852466Y640740D01*
X4853076Y637336D01*
X4853127Y597408D01*
X4854346Y588619D01*
X4857038Y580542D01*
X4861204Y573125D01*
X4866944Y566166D01*
X4932883Y500278D01*
X4935067Y496976D01*
X4935829Y493064D01*
X4935829Y452323D01*
X4936540Y445973D01*
X4938471Y440537D01*
X4941570Y435609D01*
X4945634Y431546D01*
X4950561Y428447D01*
X4955997Y426516D01*
X4962347Y425805D01*
X5041188Y425805D01*
X5047488Y426516D01*
X5052974Y428447D01*
X5057851Y431546D01*
X5061966Y435609D01*
X5063134Y437489D01*
X5065979Y440435D01*
X5069687Y442061D01*
X5073802Y442061D01*
X5077510Y440435D01*
X5080355Y437489D01*
X5081524Y435609D01*
X5085638Y431546D01*
X5090515Y428447D01*
X5096002Y426516D01*
X5102301Y425805D01*
X5115407Y425805D01*
X5115407Y467868D01*
X5077815Y467868D01*
X5073954Y468680D01*
X5070652Y470865D01*
X5068417Y474167D01*
X5067655Y478028D01*
X5067655Y515416D01*
X5068417Y519328D01*
X5070652Y522630D01*
X5073954Y524814D01*
X5077815Y525576D01*
X5115407Y525576D01*
X5115407Y538886D01*
X5116169Y542747D01*
X5118354Y546049D01*
X5121656Y548284D01*
X5125567Y549046D01*
X5157927Y549046D01*
X5161838Y548284D01*
X5165140Y546049D01*
X5167325Y542747D01*
X5168087Y538886D01*
X5168087Y525576D01*
X5207660Y525576D01*
X5207660Y534924D01*
X5208371Y538734D01*
X5210454Y541934D01*
X5213604Y544169D01*
X5217363Y545084D01*
X5221173Y544525D01*
X5226812Y542544D01*
X5233162Y541832D01*
X5329021Y541832D01*
X5339740Y543356D01*
X5343448Y542544D01*
X5346547Y540410D01*
X5419496Y467715D01*
X5421731Y464413D01*
X5422493Y460501D01*
X5421731Y456641D01*
X5419547Y453339D01*
X5314391Y348183D01*
X5311089Y345948D01*
X5307177Y345186D01*
X4496511Y345186D01*
X4492650Y345948D01*
X4489348Y348183D01*
X4456480Y381000D01*
X4455007Y382930D01*
X4449521Y391922D01*
X4442104Y400913D01*
X4433417Y408635D01*
X4423714Y414985D01*
X4413097Y419709D01*
X4401870Y422808D01*
X4390339Y424129D01*
X4378756Y423672D01*
X4367326Y421487D01*
X4356404Y417525D01*
X4346194Y411988D01*
X4336948Y404977D01*
X4328922Y396595D01*
X4322216Y387096D01*
X4317085Y376682D01*
X4313580Y365607D01*
X4311802Y354126D01*
X4311802Y342493D01*
X4313580Y331012D01*
X4317085Y319938D01*
X4322216Y309524D01*
X4328922Y300024D01*
X4336948Y291642D01*
X4346194Y284632D01*
X4356404Y279095D01*
X4367326Y275132D01*
X4378756Y272948D01*
X4390339Y272491D01*
X4401870Y273812D01*
X4413097Y276910D01*
X4418330Y279247D01*
X4422292Y280111D01*
X4426254Y279400D01*
X4429658Y277164D01*
X4441901Y265023D01*
X4448860Y259740D01*
X4456480Y255930D01*
X4464710Y253593D01*
X4473651Y252780D01*
X5332323Y252831D01*
X5341112Y254050D01*
X5349189Y256743D01*
X5356606Y260908D01*
X5363565Y266649D01*
X5540756Y443839D01*
X5544058Y446074D01*
X5547918Y446836D01*
X5580837Y446836D01*
X5587136Y447548D01*
X5592622Y449478D01*
X5597499Y452526D01*
X5601614Y456641D01*
X5604662Y461518D01*
X5606592Y467004D01*
X5607304Y473303D01*
X5607304Y527151D01*
X5606592Y533501D01*
X5604662Y538937D01*
X5601614Y543864D01*
X5597499Y547928D01*
X5592622Y551027D01*
X5587136Y552958D01*
X5580837Y553669D01*
X5484977Y553669D01*
X5478627Y552958D01*
X5474512Y551484D01*
X5470753Y550926D01*
X5467096Y551738D01*
X5463946Y553872D01*
X5428386Y589330D01*
X5426151Y592632D01*
X5425389Y596544D01*
X5425338Y654405D01*
X5424119Y663194D01*
X5421426Y671271D01*
X5417261Y678738D01*
X5411520Y685647D01*
X5320030Y777138D01*
X5317845Y780440D01*
X5317083Y784301D01*
X5317845Y788212D01*
X5320030Y791514D01*
X5323332Y793699D01*
X5327243Y794461D01*
X5665520Y794461D01*
X5669635Y793597D01*
X5673090Y791057D01*
X5675172Y787349D01*
X5676290Y783844D01*
X5681472Y773430D01*
X5688126Y763930D01*
X5696204Y755548D01*
X5705449Y748538D01*
X5708091Y747064D01*
X5711444Y744169D01*
X5713222Y740054D01*
X5713069Y735634D01*
X5711037Y731672D01*
X5707532Y728929D01*
X5703163Y728014D01*
X5610504Y728573D01*
X5607151Y729132D01*
X5604205Y730758D01*
X5601614Y733856D01*
X5597499Y737971D01*
X5592622Y741019D01*
X5587136Y742950D01*
X5580837Y743661D01*
X5484977Y743661D01*
X5478627Y742950D01*
X5473192Y741019D01*
X5468264Y737971D01*
X5464200Y733856D01*
X5461101Y728980D01*
X5459222Y723493D01*
X5458510Y717194D01*
X5458510Y663295D01*
X5459222Y656996D01*
X5461101Y651510D01*
X5464200Y646633D01*
X5468264Y642518D01*
X5473192Y639470D01*
X5478627Y637540D01*
X5484977Y636828D01*
X5534609Y636828D01*
X5538012Y636574D01*
X5823762Y634847D01*
X5827623Y634034D01*
X5830925Y631850D01*
X5833110Y628548D01*
X5833872Y624687D01*
X5833872Y487426D01*
X5833110Y483514D01*
X5830874Y480212D01*
X5541314Y190652D01*
X5538063Y188468D01*
X5534152Y187706D01*
G37*

%LPC*%
G36*
X3958234Y407009D02*
G01*
X3971290Y407009D01*
X3971290Y449072D01*
X3931767Y449072D01*
X3931767Y433527D01*
X3932478Y427177D01*
X3934358Y421741D01*
X3937457Y416814D01*
X3941521Y412750D01*
X3946448Y409651D01*
X3951884Y407720D01*
G37*
G36*
X5168087Y425805D02*
G01*
X5181193Y425805D01*
X5187492Y426516D01*
X5192979Y428447D01*
X5197856Y431546D01*
X5201970Y435609D01*
X5205018Y440537D01*
X5206949Y445973D01*
X5207660Y452323D01*
X5207660Y467868D01*
X5168087Y467868D01*
G37*
G36*
X4625898Y904240D02*
G01*
X4706620Y904240D01*
X4706620Y986028D01*
X4599432Y986028D01*
X4599432Y930706D01*
X4600143Y924407D01*
X4602022Y918921D01*
X4605121Y914044D01*
X4609236Y909929D01*
X4614113Y906881D01*
X4619599Y904951D01*
G37*
G36*
X4599432Y1123188D02*
G01*
X4706620Y1123188D01*
X4706620Y1204976D01*
X4625898Y1204976D01*
X4619599Y1204264D01*
X4614113Y1202334D01*
X4609236Y1199286D01*
X4605121Y1195171D01*
X4602022Y1190294D01*
X4600143Y1184808D01*
X4599432Y1178509D01*
G37*
G36*
X4259326Y1294942D02*
G01*
X4259326Y1341831D01*
X4212437Y1341831D01*
X4218127Y1331417D01*
X4226153Y1320546D01*
X4235500Y1310843D01*
X4246067Y1302512D01*
X4257700Y1295654D01*
G37*
G36*
X4102912Y1404569D02*
G01*
X4144975Y1404569D01*
X4144975Y1417624D01*
X4144264Y1423974D01*
X4142333Y1429410D01*
X4139285Y1434287D01*
X4135170Y1438402D01*
X4130294Y1441500D01*
X4124807Y1443380D01*
X4118508Y1444091D01*
X4102912Y1444091D01*
G37*

%LPD*%
D10*
X5541553Y1859818D02*
G01*
X5511385Y1859818D01*
X5437301Y1933902D01*
X5437301Y2136848D01*
X5298356Y2275532D01*
X4689266Y2275532D01*
X3583942Y553763D02*
G01*
X3672588Y642663D01*
X4453384Y642663D01*
X4574288Y763567D01*
X3583820Y553862D02*
G01*
X3357415Y327451D01*
X3172025Y327451D01*
X3093107Y406372D01*
X2944515Y406372D01*
X2890057Y460832D01*
X2890057Y572025D01*
X2922699Y604667D01*
X3057179Y604667D01*
X3057179Y608068D01*
X1058336Y2391608D02*
G01*
X987216Y2391608D01*
X707562Y2671262D01*
X386328Y2671262D01*
X340580Y2717010D01*
X340580Y2758805D01*
X293781Y2805605D01*
X105074Y2803065D01*
X1037762Y1365702D02*
G01*
X1037762Y1534866D01*
X632632Y1939996D01*
X632632Y2179264D01*
X644316Y2190948D01*
X644316Y2308804D01*
X639744Y2313376D01*
X639744Y2332172D01*
X635172Y2336744D01*
X635172Y2390338D01*
X621710Y2405578D01*
X486582Y2405578D01*
X438576Y2357572D01*
X438576Y1643832D01*
X347898Y1553154D01*
X269412Y1553154D01*
X105074Y1696664D01*
D11*
X1195867Y841974D02*
G01*
X929495Y841974D01*
X785167Y986302D01*
X657778Y986302D01*
D10*
X2490175Y896231D02*
G01*
X2490175Y792853D01*
X2400005Y702683D01*
X2064979Y702683D01*
X1990811Y777105D01*
X1780753Y777105D01*
D11*
X3689014Y2631384D02*
G01*
X3725844Y2631384D01*
X3725844Y2714950D01*
X3873672Y2863032D01*
X4003212Y2863032D01*
X4105574Y2965394D01*
X4105574Y3073344D01*
X4146468Y3113984D01*
X4146468Y3267908D01*
X4268388Y3389828D01*
X4268388Y3545784D01*
X4230288Y3583884D01*
X3587668Y3583884D01*
X3531026Y3640526D01*
X3531026Y3905702D01*
D10*
X4689266Y2175705D02*
G01*
X5276517Y2175705D01*
X5365925Y2086302D01*
X5365925Y1889955D01*
X5521030Y1734850D01*
X5541553Y1734850D01*
X4689017Y2075629D02*
G01*
X5224698Y2075629D01*
X5294040Y2006290D01*
X5294040Y1835856D01*
X5520014Y1609882D01*
X5541553Y1609882D01*
X4689017Y1975556D02*
G01*
X5174917Y1975556D01*
X5223433Y1927044D01*
X5223433Y1789625D01*
X5528147Y1484914D01*
X5541553Y1484914D01*
X1534078Y2260036D02*
G01*
X1402506Y2391608D01*
X1402506Y2538420D01*
X1359326Y2581600D01*
X1058336Y2581600D01*
X2746461Y2804025D02*
G01*
X2825455Y2883019D01*
X3033989Y2883019D01*
X3105109Y2954139D01*
X3247603Y2954139D01*
X3365967Y2835521D01*
X3365967Y2744589D01*
X3309071Y2687693D01*
X3015193Y2687693D01*
X2970235Y2642735D01*
X5377174Y2863872D02*
G01*
X5532874Y2863872D01*
X5636755Y2967756D01*
X5695487Y2967756D01*
D12*
X3877878Y3323864D02*
G01*
X3940114Y3323859D01*
X3996862Y3380605D01*
X3996862Y3469558D01*
D10*
X3517602Y2775320D02*
G01*
X3687541Y2775320D01*
X3843512Y2931304D01*
X3968478Y2931304D01*
X4041876Y3004703D01*
X4041876Y3277809D01*
X4138973Y3374905D01*
X4138973Y3488481D01*
X4156120Y3488481D01*
D11*
X3740322Y2979872D02*
G01*
X3698920Y2979872D01*
X3600114Y3078678D01*
X3432474Y3078678D01*
X3432474Y3013654D02*
G01*
X3548298Y3013654D01*
X3594018Y2968188D01*
X3594018Y2883098D01*
X2970237Y2452743D02*
G01*
X3064720Y2452743D01*
X3094944Y2482966D01*
X3094944Y2567551D01*
X3150580Y2623174D01*
X3359622Y2623174D01*
X3390082Y2592720D01*
X3390082Y2565542D01*
X3453348Y2502270D01*
X3559876Y2502270D01*
X3688963Y2631358D01*
X3498974Y2864228D02*
G01*
X3498974Y2861287D01*
X3498974Y2631361D01*
X3498971Y2631358D01*
X3416076Y2947304D02*
G01*
X3500480Y2862902D01*
X3501161Y2862902D01*
D10*
X321482Y986480D02*
G01*
X321482Y1013912D01*
X404540Y1097224D01*
X404540Y1246830D01*
X496742Y1339032D01*
X596310Y1339032D01*
D11*
X657778Y986302D02*
G01*
X536397Y986302D01*
X475686Y1047010D01*
D13*
X4002481Y3799992D02*
G01*
X4396673Y3799992D01*
X4488370Y3708293D01*
D10*
X270682Y3407915D02*
G01*
X365676Y3502908D01*
X435681Y3502908D01*
D14*
X415970Y2781752D02*
G01*
X451784Y2781752D01*
X544240Y2874208D01*
X645840Y2874208D01*
X645840Y2879796D01*
X882568Y3117286D01*
D10*
X608248Y2671262D02*
G01*
X605962Y2781752D01*
D14*
X510880Y3033509D02*
G01*
X681786Y3033509D01*
X730681Y3082404D01*
X730681Y3150504D01*
X762360Y3182183D01*
X882695Y3182183D01*
D11*
X435782Y3502858D02*
G01*
X558464Y3502858D01*
X684194Y3377128D01*
X889426Y3377128D01*
X435782Y3642812D02*
G01*
X522396Y3642812D01*
X723310Y3442152D01*
X889426Y3442152D01*
D15*
X903183Y3507171D02*
G01*
X757516Y3507171D01*
X543199Y3721488D01*
X543199Y3791097D01*
D12*
X3740271Y3119902D02*
G01*
X3877878Y3257509D01*
X3877878Y3323864D01*
D10*
X4704298Y765926D02*
G01*
X4704298Y615058D01*
X4634435Y545195D01*
X4634435Y513242D01*
X3242523Y1537327D02*
G01*
X3242523Y1456555D01*
X3415243Y1283835D01*
X3651971Y1283835D01*
X3686515Y1249291D01*
X3781765Y1249291D01*
X3334725Y1641975D02*
G01*
X3268700Y1635879D01*
X3192178Y1635879D01*
X3173376Y1618099D01*
X3173376Y1610479D01*
X3122576Y1559679D01*
X2674139Y1560677D01*
X2651236Y1583580D01*
X2366223Y3048881D02*
G01*
X2366223Y3011035D01*
X2426421Y2950583D01*
X2533355Y2950583D01*
X2589743Y3006971D01*
X2589743Y3149211D01*
X2649179Y3208647D01*
X2839425Y3208647D01*
X5086055Y3409053D02*
G01*
X4811735Y3409053D01*
X4736297Y3333615D01*
X4437085Y3333615D01*
X4437085Y3061835D01*
X4406605Y3031863D01*
X4254205Y3031863D01*
X4171960Y2949618D01*
X4171960Y2938950D01*
X4041607Y2808597D01*
X4041607Y2756273D01*
X4689175Y1975589D02*
G01*
X4518964Y1975589D01*
X4426376Y2068177D01*
X4426376Y2909371D01*
X4576478Y3059473D01*
X4792177Y3059473D01*
X1780885Y646976D02*
G01*
X1984481Y646976D01*
X2011182Y620275D01*
X2011182Y386577D01*
X2048080Y349679D01*
X2271481Y349679D01*
X2321082Y399280D01*
X2321082Y541477D01*
X2370579Y541477D01*
X2590124Y761022D01*
X2590124Y896226D01*
X2390099Y896231D02*
G01*
X2390099Y803013D01*
X2357587Y770755D01*
X2094189Y770755D01*
X2023069Y841875D01*
X1780753Y841875D01*
X4639271Y1348605D02*
G01*
X4639271Y1563489D01*
X4815037Y1739254D01*
X5159712Y1739254D01*
X5410672Y1488305D01*
X5410672Y1319397D01*
X5495091Y1234978D01*
X5541553Y1234978D01*
X4769261Y1348579D02*
G01*
X4769261Y1572839D01*
X4864313Y1667885D01*
X5115770Y1667885D01*
X5247345Y1536059D01*
X5247345Y1258435D01*
X5454106Y1051681D01*
X5626572Y1051681D01*
X5651972Y1077081D01*
X5651972Y1314828D01*
X5606854Y1359946D01*
X5541553Y1359946D01*
X3794973Y859401D02*
G01*
X3899113Y859401D01*
X3947119Y811395D01*
X3947119Y751197D01*
X3911813Y715891D01*
X3588979Y715891D01*
X3285449Y412361D01*
X3267161Y412361D01*
X5377174Y2994172D02*
G01*
X5551672Y2994172D01*
X5599678Y3042178D01*
X5599678Y3403620D01*
X5577326Y3403620D01*
X5377164Y3059473D02*
G01*
X5506476Y3059473D01*
X5532874Y3085871D01*
X5526575Y3092170D01*
X5526575Y3210272D01*
X5521474Y3215373D01*
X5267474Y3215373D01*
X5181064Y3301784D01*
X5181064Y3659814D01*
X5086075Y3412169D02*
G01*
X5086075Y3268659D01*
X5230855Y3123879D01*
X5377159Y3123879D01*
X5377174Y2799171D02*
G01*
X5595566Y2799171D01*
X5624146Y2827751D01*
X5695487Y2827751D01*
X5727661Y2665773D02*
G01*
X5584215Y2665773D01*
X5515879Y2734106D01*
X5377185Y2734106D01*
X3196777Y1249392D02*
G01*
X3141380Y1249392D01*
X2962798Y1427975D01*
X2521381Y1427975D01*
X2489380Y1459976D01*
X2651236Y1773570D02*
G01*
X2651236Y1721543D01*
X2546276Y1616580D01*
X2546276Y1547977D01*
X2599606Y1494652D01*
X3012902Y1494652D01*
X3157882Y1349672D01*
X3199470Y1349672D01*
X3891315Y1336921D02*
G01*
X3803777Y1249382D01*
X3781780Y1249382D01*
X4899286Y763569D02*
G01*
X4899286Y599191D01*
X5001745Y496732D01*
X4964287Y763567D02*
G01*
X4964287Y640572D01*
X5009616Y595241D01*
X5281079Y595241D01*
D16*
X2178517Y3307453D02*
G01*
X2178517Y3444105D01*
X2134829Y3487793D01*
X1823171Y3487793D01*
X1712681Y3377049D01*
X1474429Y3377049D01*
X2078441Y3307453D02*
G01*
X2078441Y3395083D01*
X2044405Y3429119D01*
X1878035Y3429119D01*
X1761195Y3312279D01*
X1474429Y3312279D01*
D10*
X3196777Y1054397D02*
G01*
X3064799Y1054397D01*
X2970994Y1148199D01*
X2970994Y1229479D01*
X2902160Y1298313D01*
X2169716Y1298313D01*
X2053148Y1181742D01*
X2053148Y1131674D01*
X3196803Y989449D02*
G01*
X3027639Y989449D01*
X2901655Y1115433D01*
X2901655Y1180711D01*
X2855173Y1227193D01*
X2729443Y1227193D01*
X2678135Y1175885D01*
X2678135Y1131689D01*
X3676764Y1968492D02*
G01*
X3646126Y1937854D01*
X3646126Y1822825D01*
X3595326Y1772025D01*
X3211784Y1772025D01*
X3098142Y1658383D01*
X3054487Y1658383D01*
X2651211Y1773547D02*
G01*
X2670261Y1773547D01*
X2980776Y729988D02*
G01*
X3171187Y729988D01*
X3243994Y657179D01*
X3243994Y563745D01*
X3187600Y507359D01*
X3003128Y507359D01*
X2970235Y2642735D02*
G01*
X2898861Y2642735D01*
X2847299Y2591173D01*
X2847299Y2413627D01*
X2903687Y2357493D01*
X3244555Y2357493D01*
X1474429Y3182231D02*
G01*
X1735287Y3182231D01*
X1860763Y3307453D01*
X1978619Y3307453D01*
X5029286Y763567D02*
G01*
X5268249Y763567D01*
X5379171Y652645D01*
X5379171Y573140D01*
X5452318Y500245D01*
X5531830Y500245D01*
X4769274Y763569D02*
G01*
X4769274Y578396D01*
X4774440Y573229D01*
X4774440Y513242D01*
D11*
X979129Y1069967D02*
G01*
X1077173Y971923D01*
X1195791Y971923D01*
X785886Y1270576D02*
G01*
X959911Y1096551D01*
X980485Y1076276D01*
X2119182Y1804992D02*
G01*
X1978820Y1804992D01*
X1450553Y1276725D01*
X967445Y1276725D01*
X919690Y1324475D01*
X919690Y1397121D01*
X544029Y1772782D01*
X544029Y2312278D01*
D10*
X4834262Y1348579D02*
G01*
X4834262Y1517444D01*
X4894028Y1577205D01*
X5108663Y1577205D01*
X5163271Y1522597D01*
X5163271Y1084701D01*
X5269448Y978532D01*
X5665180Y978532D01*
X5719787Y1033393D01*
X5719787Y1951093D01*
X5685840Y1985040D01*
X5541553Y1985040D01*
X4779479Y2864114D02*
G01*
X4627836Y2864114D01*
X4561050Y2797322D01*
X4561050Y2175603D01*
X4689231Y2175603D01*
X4797252Y2929244D02*
G01*
X4548337Y2929244D01*
X4497537Y2878444D01*
X4495678Y2117575D01*
X4538967Y2075578D01*
X4689180Y2075578D01*
X3432515Y3403465D02*
G01*
X3135335Y3403465D01*
X3066247Y3472553D01*
X3066247Y3584567D01*
X3121111Y3639431D01*
X3268431Y3639431D01*
X3268431Y3786497D01*
X4964287Y1348579D02*
G01*
X4964287Y1476275D01*
X4974544Y1486532D01*
X5082494Y1486532D01*
X5097736Y1471289D01*
X5097736Y1054224D01*
X5238206Y913759D01*
X5709630Y913759D01*
X5783536Y987671D01*
X5783536Y2046597D01*
X5720125Y2110008D01*
X5541553Y2110008D01*
X4792179Y2734429D02*
G01*
X4669744Y2734429D01*
X4624773Y2689463D01*
X4624773Y2340061D01*
X4689231Y2275603D01*
D11*
X3837137Y2826435D02*
G01*
X3888780Y2774800D01*
X3888780Y2673174D01*
X3905082Y2656873D01*
X3905082Y2609664D01*
D10*
X3196777Y859375D02*
G01*
X2892605Y859375D01*
X2803179Y948801D01*
X2803179Y1131661D01*
X2651236Y1773572D02*
G01*
X2912099Y1773572D01*
X3040905Y1902381D01*
X3244466Y1902381D01*
D17*
X1439136Y1513641D02*
G01*
X1518970Y1593476D01*
X1589184Y1593476D01*
X1688183Y1692475D01*
X1688183Y1701975D01*
D10*
X1195791Y582033D02*
G01*
X1040851Y582033D01*
X996655Y537837D01*
X812759Y537837D01*
X741385Y466463D01*
X741385Y380103D01*
D16*
X1259291Y3622159D02*
G01*
X1466303Y3829171D01*
X2482814Y3829171D01*
X2847553Y3464171D01*
X2847553Y3403467D01*
D10*
X3078439Y3786497D02*
G01*
X3078439Y3936611D01*
X3156417Y3936611D01*
D18*
X5276060Y3407973D02*
G01*
X5289915Y3421829D01*
X5289915Y3933563D01*
D10*
X1037727Y1365572D02*
G01*
X1289946Y1365572D01*
X1439070Y1514695D01*
D18*
X946871Y2147689D02*
G01*
X1003767Y2147943D01*
X1124417Y2027547D01*
X1181567Y2027547D01*
D10*
X1344074Y1764634D02*
G01*
X1355986Y1776547D01*
X1355986Y1852640D01*
X1373337Y1869991D01*
X1534195Y1869991D01*
X931377Y380103D02*
G01*
X932652Y380103D01*
X1046185Y230779D01*
X795040Y3886093D02*
G01*
X753854Y3927279D01*
X753854Y3936613D01*
D13*
X252394Y2684393D02*
G01*
X252394Y2475898D01*
X291294Y2436997D01*
X302475Y2425562D01*
X423125Y2546212D01*
X662137Y2546212D01*
X665944Y2542405D01*
X696175Y2542405D01*
X889213Y2349362D01*
X890483Y2170272D01*
X912992Y2147768D01*
X946797Y2147768D01*
D11*
X1181567Y2027544D02*
G01*
X1222463Y2027544D01*
X1259903Y2064986D01*
X1534195Y2064986D01*
D10*
X3268482Y3786522D02*
G01*
X3268482Y3791272D01*
X3259287Y3800467D01*
D19*
X5695487Y2967756D02*
G01*
X5720074Y2992343D01*
X5720074Y3391159D01*
X5714977Y3508070D01*
X5703168Y3554671D01*
X5580087Y3554671D01*
D10*
X5531744Y500197D02*
G01*
X5330540Y298980D01*
X4473181Y298980D01*
X4423831Y348327D01*
X4387446Y348327D01*
X5029288Y1348577D02*
G01*
X5029288Y949693D01*
X5127404Y851580D01*
X5225072Y851580D01*
X5235973Y840679D01*
X5718195Y840676D01*
X5746643Y812228D01*
X4533986Y3156577D02*
G01*
X4566104Y3124459D01*
X4792167Y3124459D01*
X1194290Y489884D02*
G01*
X1195867Y491462D01*
X1195867Y581982D01*
D20*
X3663759Y2171692D02*
G01*
X3663759Y1968492D01*
X3676761Y1968492D01*
D10*
X1248318Y3032803D02*
G01*
X1332674Y3117159D01*
X1474378Y3117159D01*
X955492Y3788811D02*
G01*
X955492Y3756256D01*
X919187Y3719951D01*
X919187Y3572172D01*
X889368Y3572172D01*
X3432596Y3273572D02*
G01*
X3664267Y3273572D01*
X3676177Y3285482D01*
X2178517Y3307453D02*
G01*
X2178517Y3148703D01*
X2116287Y3086219D01*
X2116287Y3048881D01*
X1195865Y1036970D02*
G01*
X1219487Y1036970D01*
X1325280Y1142763D01*
X1037727Y1175580D02*
G01*
X1176337Y1036970D01*
X1195865Y1036970D01*
X2590124Y896231D02*
G01*
X2598887Y904994D01*
X2598887Y1074773D01*
X2553009Y1120642D01*
X2553009Y1131661D01*
X2490175Y896231D02*
G01*
X2497287Y903343D01*
X2497287Y1020437D01*
X2426929Y1095113D01*
X2427945Y1131689D01*
X2303078Y1131661D02*
G01*
X2303078Y1111178D01*
X2390099Y1024158D01*
X2390099Y896282D01*
X1780877Y971976D02*
G01*
X2214405Y971976D01*
X2290099Y896282D01*
X2178113Y1008268D01*
X2178113Y1131661D01*
D11*
X3244476Y2097371D02*
G01*
X3589439Y2097371D01*
X3663759Y2171692D01*
X1181559Y2171715D02*
G01*
X1223291Y2129985D01*
X1534195Y2129985D01*
X3244476Y2032375D02*
G01*
X3472901Y2032375D01*
X3536784Y1968492D01*
X3432599Y3143572D02*
G01*
X3740271Y3143572D01*
X3740271Y3119902D01*
D15*
X795040Y3696101D02*
G01*
X889368Y3601773D01*
X889368Y3572172D01*
D11*
X603778Y3295822D02*
G01*
X652444Y3247156D01*
X889368Y3247156D01*
X1562491Y507585D02*
G01*
X1636890Y581985D01*
X1780877Y581985D01*
D21*
X321599Y982774D02*
G01*
X385836Y1047008D01*
X475686Y1047008D01*
D10*
X836383Y630036D02*
G01*
X853328Y646981D01*
X1195867Y646981D01*
D11*
X1195867Y711979D02*
G01*
X945705Y711979D01*
X899398Y758286D01*
X674771Y758286D01*
X1195867Y906975D02*
G01*
X1004963Y906975D01*
X785632Y1126307D01*
X657778Y1126307D01*
D10*
X3003128Y507359D02*
G01*
X3274095Y507359D01*
X3561113Y794377D01*
X3781790Y794377D01*
D11*
X3244552Y2227445D02*
G01*
X3466655Y2227445D01*
X3585093Y2345885D01*
X3585093Y2413652D01*
D10*
X3196777Y1184394D02*
G01*
X3044403Y1184394D01*
X3044403Y1254371D01*
X2934680Y1364099D01*
X2117552Y1364099D01*
X1928180Y1174722D01*
X1928180Y1131661D01*
D11*
X3222203Y2547739D02*
G01*
X3254969Y2547739D01*
X3396447Y2406261D01*
X3396447Y2335903D01*
X3353013Y2292469D01*
X3244555Y2292469D01*
X1180500Y1828766D02*
G01*
X1231201Y1828766D01*
X1331937Y1929505D01*
X1331981Y1932376D02*
G01*
X1334594Y1934989D01*
X1534195Y1934989D01*
D10*
X1308336Y2486474D02*
G01*
X1308336Y2221021D01*
X1334373Y2194984D01*
X1534195Y2194984D01*
X784981Y2881497D02*
G01*
X1058405Y2608074D01*
X1058405Y2581473D01*
D16*
X2847578Y3078573D02*
G01*
X3128657Y3078573D01*
X3197362Y3147278D01*
X2847578Y3273569D02*
G01*
X3071070Y3273569D01*
X3197362Y3147278D01*
X1534220Y1998337D02*
G01*
X1789897Y1998337D01*
X1825228Y2033668D01*
X2119182Y2129985D02*
G01*
X1923221Y2129985D01*
X1825254Y2032015D01*
X2119182Y1934989D02*
G01*
X1922279Y1934989D01*
X1825254Y2032015D01*
D10*
X2278573Y3307478D02*
G01*
X2278573Y3086199D01*
X2241153Y3048779D01*
D11*
X2847578Y3338565D02*
G01*
X2595984Y3338565D01*
X2491089Y3233671D01*
X2491089Y3048779D01*
D10*
X1978545Y3307529D02*
G01*
X1866249Y3195231D01*
X1866249Y3048779D01*
X2929493Y3643063D02*
G01*
X2986049Y3586507D01*
X3068030Y3586507D01*
D16*
X1991217Y3048779D02*
G01*
X1991217Y3092909D01*
X2078548Y3180237D01*
X2078548Y3307529D01*
D10*
X3173486Y3534681D02*
G01*
X3173486Y3481471D01*
X3533378Y3481471D01*
X3570884Y3443973D01*
X3570884Y3348078D01*
X3561372Y3338565D01*
X3432596Y3338565D01*
X2818582Y3013575D02*
G01*
X2847578Y3013575D01*
D22*
X2713949Y2948805D02*
G01*
X2713949Y2984365D01*
X2744683Y3013575D01*
X2847553Y3013575D01*
D11*
X2659496Y2292362D02*
G01*
X2489873Y2292362D01*
X2464993Y2267483D01*
X2659595Y1967349D02*
G01*
X2514559Y1967349D01*
X2428173Y1880963D01*
X2659595Y2162421D02*
G01*
X2485095Y2162421D01*
X2461244Y2138570D01*
X2424592Y2138570D01*
D10*
X1249078Y1514695D02*
G01*
X1370055Y1635673D01*
X1395984Y1635673D01*
X1534195Y1773885D01*
X1534195Y1804992D01*
X4123197Y2546471D02*
G01*
X4268005Y2401663D01*
X4303201Y2401663D01*
X4018869Y1822714D02*
G01*
X4061581Y1865416D01*
X4061581Y2179871D01*
X3905082Y2336370D01*
X3905082Y2609664D01*
X1249133Y1514718D02*
G01*
X1151595Y1612003D01*
X1051775Y1612003D01*
X815807Y1847969D01*
X815807Y2304915D01*
X646894Y2473822D01*
X463506Y2473822D01*
X296379Y2306695D01*
X296379Y2045837D01*
X306649Y2035566D01*
X306649Y1672833D01*
X2903077Y1678576D02*
G01*
X2911187Y1678576D01*
X3071256Y1838645D01*
X3382083Y1838645D01*
X3412482Y1869048D01*
X3412482Y1928375D01*
X3373475Y1967382D01*
X3244466Y1967382D01*
D23*
X4137634Y477944D02*
G01*
X4208180Y477944D01*
X4215056Y484819D01*
D10*
X4639312Y763567D02*
G01*
X4639312Y651553D01*
X4602228Y614469D01*
X4558540Y614469D01*
X4522218Y578147D01*
X3911856Y578147D01*
X3835656Y502201D01*
X3835656Y458767D01*
X4137662Y477987D02*
G01*
X4137662Y503133D01*
X4479546Y503133D01*
X4569208Y413471D01*
X4736594Y413471D01*
X4774440Y451317D01*
X4774440Y513293D01*
X3785979Y989383D02*
G01*
X3946502Y989383D01*
X3990715Y1033597D01*
X4012458Y1033597D01*
D11*
X3781785Y924369D02*
G01*
X3947604Y924369D01*
X3978358Y893617D01*
X4012458Y893617D01*
D14*
X4012458Y1033597D02*
G01*
X4020929Y1025126D01*
X4103750Y1025126D01*
X4158642Y970234D01*
X4158642Y743823D01*
D23*
X4215051Y484832D02*
G01*
X4189046Y458830D01*
X4189046Y284439D01*
X4012458Y1033597D02*
G01*
X4035061Y1056203D01*
X4166890Y1056203D01*
D10*
X3003128Y317365D02*
G01*
X3058627Y231259D01*
X3053079Y225712D01*
X3084469Y164551D01*
X3863952Y330936D02*
G01*
X3859428Y141437D01*
X3583823Y363872D02*
G01*
X3649985Y297710D01*
X3649985Y224109D01*
X3663154Y141437D01*
X435681Y3502908D02*
G01*
X435681Y3322797D01*
X414779Y3322797D01*
X3781724Y1184346D02*
G01*
X3895262Y1184346D01*
X3983654Y1272738D01*
X3983654Y1401008D01*
X3952666Y1431996D01*
X3639484Y1431996D01*
X3890477Y1526913D02*
G01*
X3577041Y1526913D01*
X3481283Y1430901D01*
X3386541Y1430901D01*
X3335995Y1481447D01*
X3335995Y1643245D01*
X3390351Y1697601D01*
X3893525Y1697601D01*
X4018747Y1822823D01*
D14*
X3785989Y1119360D02*
G01*
X3965023Y1119360D01*
X4070065Y1224401D01*
D10*
X2278593Y3307453D02*
G01*
X2278593Y3486269D01*
X2209251Y3555611D01*
X1715221Y3555611D01*
X1666707Y3507097D01*
X1474429Y3507097D01*
D11*
X3518164Y3892555D02*
G01*
X3518164Y3936751D01*
X421396Y3936751D01*
X105166Y3620267D01*
X105166Y1696725D01*
D10*
X1615958Y3048767D02*
G01*
X1615958Y2978917D01*
X1785122Y2810007D01*
X2623068Y2810007D01*
X2652278Y2838963D01*
X2652278Y2865633D01*
X2713492Y2926847D01*
X2714000Y2948691D01*
X2847604Y3143509D02*
G01*
X2699776Y3143509D01*
X2654818Y3098551D01*
X2654818Y2978917D01*
X2553980Y2878079D01*
X1809252Y2878079D01*
X1741180Y2946151D01*
X1741180Y3048767D01*
X4419587Y876292D02*
G01*
X4505114Y961819D01*
X4505114Y1532580D01*
X4501814Y1536133D01*
X4501814Y1665168D01*
X4407829Y1759148D01*
X4241972Y1759148D01*
X4168823Y1832302D01*
X4168823Y2272225D01*
X4029633Y2411417D01*
X4029633Y2597602D01*
X4177964Y2745940D01*
X4177964Y2779971D01*
X3431207Y1535879D02*
G01*
X3431207Y1618175D01*
X4105833Y1618175D01*
X4105833Y1515813D01*
X4401741Y1515813D01*
X4436033Y1481526D01*
X4436033Y1032443D01*
X4305274Y901692D01*
X4305274Y787392D01*
X4330687Y787392D01*
X5632665Y2413932D02*
G01*
X5380926Y2665671D01*
X5377185Y2665671D01*
D24*
X5632660Y2413934D02*
G01*
X5638774Y2413934D01*
X5638774Y2412979D01*
X5537187Y2311392D01*
D11*
X5880087Y3595108D02*
G01*
X5880087Y464050D01*
X5557507Y141470D01*
X1015225Y141470D01*
X1015225Y271518D01*
D10*
X5534345Y686407D02*
G01*
X5537972Y682779D01*
X5880087Y680712D01*
D24*
X5822660Y2413927D02*
G01*
X5880087Y2413927D01*
D11*
X2124989Y1482496D02*
G01*
X2209998Y1482496D01*
X2327498Y1599994D01*
X2327498Y1955446D01*
X2282949Y1999995D01*
X2119127Y1999995D01*
X2119188Y2194557D02*
G01*
X2228552Y2194557D01*
X2253282Y2219957D01*
X2253282Y2418283D01*
X2345001Y2510002D01*
X2382494Y2510002D01*
X2125141Y1682292D02*
G01*
X2156729Y1713880D01*
X2258827Y1713880D01*
X2258827Y1845815D01*
X2234691Y1869950D01*
X2119127Y1869950D01*
X2659595Y2097397D02*
G01*
X2535387Y2097397D01*
X2415031Y1977042D01*
D10*
X2037588Y2515107D02*
G01*
X1948941Y2515107D01*
X1865121Y2598928D01*
X1663445Y2598928D01*
X1465579Y2796794D01*
X1140205Y2796794D01*
X1082547Y2739136D01*
D11*
X5880087Y3594854D02*
G01*
X5880087Y3619492D01*
X5565889Y3933436D01*
X3531095Y3933436D01*
X3531095Y3905496D01*
X2119122Y2065020D02*
G01*
X2267458Y2065020D01*
X2325115Y2122423D01*
X2325115Y2284729D01*
X2402840Y2362454D01*
X2484881Y2362454D01*
X2582418Y2459989D01*
X2582418Y2509773D01*
D10*
X889507Y3117087D02*
G01*
X942847Y3063494D01*
X942847Y2999486D01*
X1080007Y2862579D01*
X1504950Y2862579D01*
X1625092Y2742184D01*
X2652775Y2742184D01*
X2693161Y2701797D01*
X2789936Y2701797D01*
X2883408Y2795270D01*
X3267456Y2795270D01*
X2657602Y2358644D02*
G01*
X2692400Y2393695D01*
X2692400Y2599944D01*
X2615184Y2677160D01*
X2197608Y2677160D01*
X2033524Y2513076D01*
D25*
G01*
X411479Y1200404D03*
G01*
X271475Y1200404D03*
G01*
X5580075Y3554679D03*
G01*
X5440070Y3554679D03*
D26*
G01*
X5695492Y2967761D03*
G01*
X5695492Y2827756D03*
D25*
G01*
X5437174Y3400272D03*
G01*
X5577179Y3400272D03*
D27*
G01*
X4792167Y3124479D03*
G01*
X5377179Y2669463D03*
G01*
X5377179Y2734462D03*
G01*
X5377179Y2799461D03*
G01*
X5377179Y2864459D03*
G01*
X5377179Y2929458D03*
G01*
X5377179Y2994456D03*
G01*
X5377179Y3059455D03*
G01*
X5377179Y3124479D03*
D28*
G01*
X5086146Y2895777D03*
D27*
G01*
X4792167Y3059455D03*
G01*
X4792167Y2994456D03*
G01*
X4792167Y2929458D03*
G01*
X4792167Y2864459D03*
G01*
X4792167Y2799461D03*
G01*
X4792167Y2734462D03*
G01*
X4792167Y2669463D03*
D25*
G01*
X4137659Y477926D03*
G01*
X3997655Y477926D03*
G01*
X4774438Y513232D03*
G01*
X4634458Y513232D03*
G01*
X5141747Y496722D03*
G01*
X5001742Y496722D03*
D29*
G01*
X5029276Y1348587D03*
G01*
X4574286Y763574D03*
G01*
X4639284Y763574D03*
G01*
X4704283Y763574D03*
G01*
X4769281Y763574D03*
G01*
X4834280Y763574D03*
G01*
X4899279Y763574D03*
G01*
X4964277Y763574D03*
G01*
X5029276Y763574D03*
D30*
G01*
X4800600Y1054607D03*
D29*
G01*
X4964277Y1348587D03*
G01*
X4899279Y1348587D03*
G01*
X4834280Y1348587D03*
G01*
X4769281Y1348587D03*
G01*
X4704283Y1348587D03*
G01*
X4639284Y1348587D03*
G01*
X4574286Y1348562D03*
D31*
G01*
X2720086Y508685D03*
G01*
X2160092Y508736D03*
D32*
G01*
X2490114Y896238D03*
G01*
X2590114Y896238D03*
G01*
X2290114Y896289D03*
G01*
X2390114Y896289D03*
D31*
G01*
X1848586Y3693871D03*
G01*
X2408580Y3693820D03*
D32*
G01*
X2078532Y3306318D03*
G01*
X1978558Y3306318D03*
G01*
X2278557Y3306267D03*
G01*
X2178558Y3306267D03*
D27*
G01*
X3200984Y1249375D03*
G01*
X3785971Y794385D03*
G01*
X3785971Y859383D03*
G01*
X3785971Y924382D03*
G01*
X3785971Y989380D03*
G01*
X3785971Y1054379D03*
G01*
X3785971Y1119378D03*
G01*
X3785971Y1184376D03*
G01*
X3785971Y1249375D03*
D28*
G01*
X3494938Y1020698D03*
D27*
G01*
X3200984Y1184376D03*
G01*
X3200984Y1119378D03*
G01*
X3200984Y1054379D03*
G01*
X3200984Y989380D03*
G01*
X3200984Y924382D03*
G01*
X3200984Y859383D03*
G01*
X3200984Y794385D03*
G01*
X1780895Y581990D03*
G01*
X1195882Y1036980D03*
G01*
X1195882Y971981D03*
G01*
X1195882Y906983D03*
G01*
X1195882Y841984D03*
G01*
X1195882Y776986D03*
G01*
X1195882Y711987D03*
G01*
X1195882Y646988D03*
G01*
X1195882Y581990D03*
D28*
G01*
X1486915Y810666D03*
D27*
G01*
X1780895Y646988D03*
G01*
X1780895Y711987D03*
G01*
X1780895Y776986D03*
G01*
X1780895Y841984D03*
G01*
X1780895Y906983D03*
G01*
X1780895Y971981D03*
G01*
X1780895Y1036980D03*
G01*
X2847568Y3403574D03*
G01*
X3432581Y2948559D03*
G01*
X3432581Y3013582D03*
G01*
X3432581Y3078581D03*
G01*
X3432581Y3143580D03*
G01*
X3432581Y3208578D03*
G01*
X3432581Y3273577D03*
G01*
X3432581Y3338576D03*
G01*
X3432581Y3403574D03*
D28*
G01*
X3141548Y3174898D03*
D27*
G01*
X2847568Y3338576D03*
G01*
X2847568Y3273577D03*
G01*
X2847568Y3208578D03*
G01*
X2847568Y3143580D03*
G01*
X2847568Y3078581D03*
G01*
X2847568Y3013582D03*
G01*
X2847593Y2948559D03*
G01*
X1467688Y3117164D03*
G01*
X882675Y3572179D03*
G01*
X882675Y3507181D03*
G01*
X882675Y3442182D03*
G01*
X882675Y3377158D03*
G01*
X882675Y3312160D03*
G01*
X882675Y3247161D03*
G01*
X882675Y3182162D03*
G01*
X882675Y3117164D03*
D28*
G01*
X1173708Y3345865D03*
D27*
G01*
X1467688Y3182162D03*
G01*
X1467688Y3247161D03*
G01*
X1467688Y3312160D03*
G01*
X1467688Y3377158D03*
G01*
X1467688Y3442182D03*
G01*
X1467688Y3507181D03*
G01*
X1467688Y3572179D03*
G01*
X2119172Y1804974D03*
G01*
X1534185Y2259964D03*
G01*
X1534185Y2194966D03*
G01*
X1534185Y2129967D03*
G01*
X1534185Y2064969D03*
G01*
X1534185Y1999970D03*
G01*
X1534185Y1934971D03*
G01*
X1534185Y1869973D03*
G01*
X1534185Y1804974D03*
D28*
G01*
X1825218Y2033651D03*
D27*
G01*
X2119172Y1869973D03*
G01*
X2119172Y1934971D03*
G01*
X2119172Y1999970D03*
G01*
X2119172Y2064969D03*
G01*
X2119172Y2129967D03*
G01*
X2119172Y2194966D03*
G01*
X2119172Y2259964D03*
G01*
X2659481Y2357373D03*
G01*
X3244494Y1902383D03*
G01*
X3244494Y1967382D03*
G01*
X3244494Y2032380D03*
G01*
X3244494Y2097379D03*
G01*
X3244494Y2162378D03*
G01*
X3244494Y2227376D03*
G01*
X3244494Y2292375D03*
G01*
X3244494Y2357373D03*
D28*
G01*
X2953461Y2128697D03*
D27*
G01*
X2659481Y2292375D03*
G01*
X2659481Y2227376D03*
G01*
X2659481Y2162378D03*
G01*
X2659481Y2097379D03*
G01*
X2659481Y2032380D03*
G01*
X2659481Y1967382D03*
G01*
X2659481Y1902383D03*
D26*
G01*
X4074083Y1378204D03*
G01*
X4074083Y1238199D03*
G01*
X4012463Y1033602D03*
G01*
X4012463Y893597D03*
D25*
G01*
X4166870Y1056208D03*
G01*
X4306874Y1056208D03*
G01*
X534771Y758317D03*
G01*
X674776Y758317D03*
D26*
G01*
X657783Y986307D03*
G01*
X657783Y1126312D03*
G01*
X3676192Y3425469D03*
G01*
X3676192Y3285464D03*
G01*
X3740277Y3119907D03*
G01*
X3740277Y2979902D03*
D25*
G01*
X3996867Y3469563D03*
G01*
X3856863Y3469563D03*
D26*
G01*
X603783Y3155797D03*
G01*
X603783Y3295802D03*
G01*
X435686Y3502913D03*
G01*
X435686Y3642893D03*
G01*
X414781Y3322802D03*
G01*
X414781Y3182797D03*
D25*
G01*
X1040485Y1828774D03*
G01*
X1180490Y1828774D03*
D26*
G01*
X1181582Y2027580D03*
G01*
X1181582Y2167585D03*
G01*
X946785Y2147773D03*
G01*
X946785Y2007768D03*
D25*
G01*
X3725087Y2413660D03*
G01*
X3585083Y2413660D03*
G01*
X3663772Y2171674D03*
G01*
X3803777Y2171674D03*
G01*
X3676777Y1968474D03*
G01*
X3536772Y1968474D03*
D33*
G01*
X5076774Y2405583D03*
G01*
X5076723Y1845563D03*
D34*
G01*
X4689220Y2175611D03*
G01*
X4689220Y2275611D03*
G01*
X4689170Y1975586D03*
G01*
X4689170Y2075586D03*
D35*
G01*
X5532907Y500253D03*
G01*
X5532907Y690245D03*
G01*
X5281066Y595248D03*
G01*
X3583838Y553872D03*
G01*
X3583838Y363880D03*
G01*
X3835679Y458876D03*
G01*
X3891305Y1336929D03*
G01*
X3891305Y1526920D03*
G01*
X3639464Y1431925D03*
G01*
X3001924Y507364D03*
G01*
X3001924Y317372D03*
G01*
X3253765Y412369D03*
D36*
G01*
X741400Y379018D03*
G01*
X931392Y379018D03*
G01*
X836396Y630859D03*
D35*
G01*
X1037742Y1175588D03*
G01*
X1037742Y1365580D03*
G01*
X785901Y1270584D03*
D36*
G01*
X5086070Y3407968D03*
G01*
X5276062Y3407968D03*
G01*
X5181066Y3659809D03*
G01*
X5632678Y2413939D03*
G01*
X5822670Y2413939D03*
G01*
X5727674Y2665780D03*
G01*
X3268472Y3786530D03*
G01*
X3078479Y3786530D03*
G01*
X3173475Y3534689D03*
G01*
X3498977Y2631363D03*
G01*
X3688968Y2631363D03*
G01*
X3593972Y2883204D03*
G01*
X415899Y2781655D03*
G01*
X605891Y2781655D03*
G01*
X510895Y3033496D03*
D35*
G01*
X795020Y3696106D03*
G01*
X795020Y3886098D03*
G01*
X543179Y3791102D03*
D36*
G01*
X1249146Y1513636D03*
G01*
X1439138Y1513636D03*
G01*
X1344142Y1765477D03*
D35*
G01*
X1057300Y2581529D03*
G01*
X1057300Y2391537D03*
G01*
X1309141Y2486532D03*
G01*
X2651226Y1773580D03*
G01*
X2651226Y1583588D03*
G01*
X2903067Y1678584D03*
G01*
X2970225Y2642666D03*
G01*
X2970225Y2452674D03*
G01*
X3222066Y2547670D03*
D37*
G01*
X4002481Y3799992D03*
G01*
X3802481Y3799992D03*
D38*
G01*
X4742484Y3717493D03*
D39*
G01*
X4492495Y3717491D03*
D40*
G01*
X2491130Y3048762D03*
G01*
X2366111Y3048762D03*
G01*
X2241143Y3048762D03*
G01*
X2116200Y3048762D03*
G01*
X1991233Y3048762D03*
G01*
X1866290Y3048762D03*
G01*
X1741068Y3048762D03*
G01*
X1616100Y3048762D03*
G01*
X5541645Y1235075D03*
G01*
X5541645Y1360043D03*
G01*
X5541645Y1485011D03*
G01*
X5541645Y1609979D03*
G01*
X5541645Y1734946D03*
G01*
X5541645Y1859914D03*
G01*
X5541645Y1985137D03*
G01*
X5541645Y2110104D03*
G01*
X1928215Y1131646D03*
G01*
X2053158Y1131646D03*
G01*
X2178100Y1131646D03*
G01*
X2303068Y1131646D03*
G01*
X2428087Y1131646D03*
G01*
X2553055Y1131646D03*
G01*
X2678252Y1131646D03*
G01*
X2803220Y1131646D03*
D41*
G01*
X2382494Y2509994D03*
D42*
G01*
X2582290Y2509850D03*
D43*
G01*
X2124997Y1482496D03*
D44*
G01*
X2125141Y1682292D03*
D45*
G01*
X4303179Y3163672D03*
D46*
G01*
X4303166Y2909646D03*
G01*
X4303166Y2655646D03*
G01*
X4303166Y2401646D03*
G01*
X4303166Y2147646D03*
G01*
X4303166Y1893646D03*
G01*
X4303166Y1639646D03*
G01*
X4303166Y1385646D03*
D47*
G01*
X5626100Y3708400D03*
G01*
X5809589Y218287D03*
D40*
G01*
X190322Y3844086D03*
G01*
X4189095Y284403D03*
D47*
G01*
X3804158Y2649016D03*
G01*
X3982872Y360832D03*
G01*
X312318Y298602D03*
G01*
X269976Y3196513D03*
G01*
X5832017Y3801541D03*
G01*
X2434488Y466521D03*
G01*
X5710504Y518160D03*
G01*
X2945434Y950798D03*
G01*
X2843149Y1856028D03*
G01*
X2534284Y1754936D03*
G01*
X2221763Y2585186D03*
D40*
G01*
X1688211Y1701952D03*
D47*
G01*
X5152516Y375462D03*
G01*
X1489989Y2422499D03*
G01*
X429615Y1501698D03*
G01*
X3397732Y3803142D03*
G01*
X5053126Y3191255D03*
G01*
X5382869Y3835298D03*
D40*
G01*
X596315Y1338961D03*
G01*
X3054527Y1658365D03*
G01*
X252399Y2684398D03*
G01*
X4158691Y743813D03*
G01*
X4215079Y484809D03*
D48*
G01*
X5715000Y3225800D03*
D40*
G01*
X3877868Y3323844D03*
G01*
X3905072Y2609646D03*
G01*
X4156125Y3488486D03*
G01*
X2428214Y1880946D03*
G01*
X2418029Y2004466D03*
G01*
X2424633Y2138553D03*
G01*
X2464993Y2267483D03*
G01*
X2746527Y2803956D03*
G01*
X4330700Y787400D03*
G01*
X3431108Y1535760D03*
G01*
X3865270Y347446D03*
G01*
X4534027Y3156559D03*
G01*
X3057220Y608050D03*
G01*
X4419600Y876300D03*
G01*
X4387443Y348310D03*
G01*
X1248359Y3032785D03*
G01*
X3267532Y2795346D03*
G01*
X5537200Y2311400D03*
G01*
X544017Y2312263D03*
G01*
X1259331Y3622141D03*
G01*
X3199511Y1349654D03*
G01*
X284810Y3656279D03*
G01*
X306679Y1672818D03*
G01*
X321640Y986536D03*
G01*
X270687Y3407918D03*
G01*
X4123232Y2546451D03*
G01*
X4177893Y2779953D03*
G01*
X2929534Y3643045D03*
G01*
X4041724Y2756255D03*
G01*
X784987Y2881503D03*
G01*
X955497Y3788816D03*
G01*
X1082497Y2739212D03*
G01*
X1562531Y507568D03*
G01*
X1194333Y489864D03*
G01*
X1325321Y1142745D03*
G01*
X3242513Y1537258D03*
G01*
X2980816Y729970D03*
G01*
X5746673Y812215D03*
G01*
X2489377Y1459966D03*
D47*
G01*
X1064996Y1942490D03*
G01*
X1189989Y1929993D03*
G01*
X1557477Y2932480D03*
G01*
X1610004Y2880004D03*
M02*
