M48
INCH,LZ
;FILE_FORMAT=2:4
;TYPE=PLATED
;Layer: PTH_Through_Via
;EasyEDA v6.5.48, 2025-03-06 20:58:06
;bc0108e7a25f4f9495a06a5a4f8deb47,84066bfdb5964fb78f634a0d0c1972bb,10
;Gerber Generator version 0.2
;Holesize 1 = 0.0120 inch
T01C0.0120
%
G05
G90
T01
X003929Y012457
X007440Y007486
X015208Y010904
X015159Y011678
X013997Y004740
X016162Y008645
X013988Y007351
X015014Y008680
X012415Y005784
X001337Y011661
X006078Y010380
X005568Y013311
X004681Y012414
X005172Y012843
X015057Y012288
X004845Y009529
X015560Y010452
X014670Y007907
X012756Y005184
X013465Y006931
X014799Y004364
X003618Y005749
X005319Y005153
X015030Y013937
X003797Y007227
X003656Y009015
X004470Y006653
X007957Y006961
X017700Y000700
M30
