M48
INCH,LZ
;FILE_FORMAT=2:4
;TYPE=PLATED
;Layer: PTH_Through
;EasyEDA v6.5.48, 2025-03-06 20:58:06
;bc0108e7a25f4f9495a06a5a4f8deb47,84066bfdb5964fb78f634a0d0c1972bb,10
;Gerber Generator version 0.2
;Holesize 1 = 0.0120 inch
T01C0.0120
;Holesize 2 = 0.0280 inch
T02C0.0280
;Holesize 3 = 0.0320 inch
T03C0.0320
;Holesize 4 = 0.0390 inch
T04C0.0390
;Holesize 5 = 0.0430 inch
T05C0.0430
%
G05
G90
T01
X003929Y012457
X007440Y007486
X015208Y010904
X015159Y011678
X013997Y004740
X016162Y008645
X013988Y007351
X015014Y008680
X012415Y005784
X001337Y011661
X006078Y010380
X005568Y013311
X004681Y012414
X005172Y012843
X015057Y012288
X004845Y009529
X015560Y010452
X014670Y007907
X012756Y005184
X013465Y006931
X014799Y004364
X003618Y005749
X005319Y005153
X015030Y013937
X003797Y007227
X003656Y009015
X004470Y006653
X007957Y006961
X017700Y000700
T02
X015300Y002646
X015300Y002154
X016300Y005246
X016300Y004754
T03
X013000Y002906
X013000Y003694
X001200Y013506
X001200Y014294
X001106Y005300
X001894Y005300
T04
X001208Y001000G85X001208Y001000
X002192Y001000G85X002192Y001000
X006100Y001300
X007100Y001300
X008100Y001300
X009100Y001300
X010100Y001300
X011100Y001300
X012100Y001300
X013100Y001300
T05
X017269Y013567
X017269Y012567
X017269Y011567
X017269Y010567
X017269Y009567
M30
