G04 Layer: BottomSilkscreenLayer*
G04 Panelize: , Column: 1, Row: 1, Board Size: 1.85inch x 1.54inch, Panelized Board Size: 1.85inch x 1.54inch*
G04 EasyEDA v6.5.48, 2025-03-06 20:58:06*
G04 bc0108e7a25f4f9495a06a5a4f8deb47,84066bfdb5964fb78f634a0d0c1972bb,10*
G04 Gerber Generator version 0.2*
G04 Scale: 100 percent, Rotated: No, Reflected: No *
G04 Dimensions in inches *
G04 leading zeros omitted , absolute positions ,3 integer and 6 decimal *
%FSLAX36Y36*%
%MOIN*%

%ADD10C,0.0039*%
%ADD11C,0.0060*%
%ADD12C,0.0100*%
%ADD13C,0.0079*%
%ADD14C,0.0118*%
%ADD15C,0.0140*%

%LPD*%
D10*
X1805371Y1178523D02*
G01*
X1802509Y1179955D01*
X1799645Y1182818D01*
X1798213Y1185682D01*
X1798213Y1191408D01*
X1799645Y1194270D01*
X1802509Y1197134D01*
X1805371Y1198566D01*
X1809666Y1199998D01*
X1816824Y1199998D01*
X1821120Y1198566D01*
X1823982Y1197134D01*
X1826845Y1194270D01*
X1828278Y1191408D01*
X1828278Y1185682D01*
X1826845Y1182818D01*
X1823982Y1179955D01*
X1821120Y1178523D01*
X1816824Y1178523D01*
X1816824Y1185682D02*
G01*
X1816824Y1178523D01*
X1798213Y1169074D02*
G01*
X1828278Y1169074D01*
X1798213Y1169074D02*
G01*
X1828278Y1149032D01*
X1798213Y1149032D02*
G01*
X1828278Y1149032D01*
X1798213Y1139582D02*
G01*
X1828278Y1139582D01*
X1798213Y1139582D02*
G01*
X1798213Y1129560D01*
X1799645Y1125266D01*
X1802509Y1122402D01*
X1805371Y1120972D01*
X1809666Y1119540D01*
X1816824Y1119540D01*
X1821120Y1120972D01*
X1823982Y1122402D01*
X1826845Y1125266D01*
X1828278Y1129560D01*
X1828278Y1139582D01*
X1798213Y1279996D02*
G01*
X1828278Y1279996D01*
X1798213Y1279996D02*
G01*
X1798213Y1267112D01*
X1799645Y1262817D01*
X1801076Y1261386D01*
X1803940Y1259953D01*
X1806803Y1259953D01*
X1809666Y1261386D01*
X1811098Y1262817D01*
X1812529Y1267112D01*
X1812529Y1279996D01*
X1812529Y1269976D02*
G01*
X1828278Y1259953D01*
X1798213Y1250504D02*
G01*
X1828278Y1230462D01*
X1798213Y1230462D02*
G01*
X1828278Y1250504D01*
X1798213Y1369976D02*
G01*
X1828278Y1369976D01*
X1798213Y1379996D02*
G01*
X1798213Y1359953D01*
X1798213Y1350504D02*
G01*
X1828278Y1330462D01*
X1798213Y1330462D02*
G01*
X1828278Y1350504D01*
X1798213Y1097134D02*
G01*
X1798213Y1081386D01*
X1809666Y1089976D01*
X1809666Y1085682D01*
X1811098Y1082818D01*
X1812529Y1081386D01*
X1816824Y1079955D01*
X1819687Y1079955D01*
X1823982Y1081386D01*
X1826845Y1084250D01*
X1828278Y1088544D01*
X1828278Y1092840D01*
X1826845Y1097134D01*
X1825415Y1098566D01*
X1822551Y1099998D01*
X1798213Y1070506D02*
G01*
X1828278Y1059052D01*
X1798213Y1047600D02*
G01*
X1828278Y1059052D01*
X1798213Y1035288D02*
G01*
X1798213Y1019540D01*
X1809666Y1028130D01*
X1809666Y1023834D01*
X1811098Y1020972D01*
X1812529Y1019540D01*
X1816824Y1018108D01*
X1819687Y1018108D01*
X1823982Y1019540D01*
X1826845Y1022402D01*
X1828278Y1026698D01*
X1828278Y1030992D01*
X1826845Y1035288D01*
X1825415Y1036720D01*
X1822551Y1038150D01*
X1798213Y999998D02*
G01*
X1828278Y999998D01*
X1798213Y999998D02*
G01*
X1828278Y988544D01*
X1798213Y977091D02*
G01*
X1828278Y988544D01*
X1798213Y977091D02*
G01*
X1828278Y977091D01*
X1805371Y946167D02*
G01*
X1802509Y947600D01*
X1799645Y950462D01*
X1798213Y953326D01*
X1798213Y959052D01*
X1799645Y961916D01*
X1802509Y964780D01*
X1805371Y966210D01*
X1809666Y967642D01*
X1816824Y967642D01*
X1821120Y966210D01*
X1823982Y964780D01*
X1826845Y961916D01*
X1828278Y959052D01*
X1828278Y953326D01*
X1826845Y950462D01*
X1823982Y947600D01*
X1821120Y946167D01*
X1798213Y936720D02*
G01*
X1828278Y936720D01*
X1828278Y936720D02*
G01*
X1828278Y919540D01*
X1798213Y910091D02*
G01*
X1828278Y910091D01*
X1798213Y890048D02*
G01*
X1818257Y910091D01*
X1811098Y902932D02*
G01*
X1828278Y890048D01*
X628524Y44623D02*
G01*
X629956Y47487D01*
X632818Y50351D01*
X635682Y51781D01*
X641408Y51781D01*
X644272Y50351D01*
X647136Y47487D01*
X648566Y44623D01*
X649998Y40329D01*
X649998Y33171D01*
X648566Y28876D01*
X647136Y26012D01*
X644272Y23150D01*
X641408Y21718D01*
X635682Y21718D01*
X632818Y23150D01*
X629956Y26012D01*
X628524Y28876D01*
X628524Y33171D01*
X635682Y33171D02*
G01*
X628524Y33171D01*
X619076Y51781D02*
G01*
X619076Y21718D01*
X619076Y51781D02*
G01*
X599032Y21718D01*
X599032Y51781D02*
G01*
X599032Y21718D01*
X589583Y51781D02*
G01*
X589583Y21718D01*
X589583Y51781D02*
G01*
X579562Y51781D01*
X575268Y50351D01*
X572404Y47487D01*
X570972Y44623D01*
X569540Y40329D01*
X569540Y33171D01*
X570972Y28876D01*
X572404Y26012D01*
X575268Y23150D01*
X579562Y21718D01*
X589583Y21718D01*
X749976Y51781D02*
G01*
X749976Y21718D01*
X759998Y51781D02*
G01*
X739954Y51781D01*
X730506Y51781D02*
G01*
X730506Y21718D01*
X730506Y51781D02*
G01*
X719052Y21718D01*
X707600Y51781D02*
G01*
X719052Y21718D01*
X707600Y51781D02*
G01*
X707600Y21718D01*
X678108Y47487D02*
G01*
X680972Y50351D01*
X685266Y51781D01*
X690992Y51781D01*
X695288Y50351D01*
X698150Y47487D01*
X698150Y44623D01*
X696720Y41761D01*
X695288Y40329D01*
X692424Y38897D01*
X683834Y36033D01*
X680972Y34603D01*
X679540Y33171D01*
X678108Y30307D01*
X678108Y26012D01*
X680972Y23150D01*
X685266Y21718D01*
X690992Y21718D01*
X695288Y23150D01*
X698150Y26012D01*
X1047134Y51781D02*
G01*
X1031387Y51781D01*
X1039976Y40329D01*
X1035681Y40329D01*
X1032817Y38897D01*
X1031387Y37465D01*
X1029954Y33171D01*
X1029954Y30307D01*
X1031387Y26012D01*
X1034250Y23150D01*
X1038545Y21718D01*
X1042839Y21718D01*
X1047134Y23150D01*
X1048566Y24580D01*
X1049997Y27444D01*
X1020505Y51781D02*
G01*
X1020505Y21718D01*
X1020505Y21718D02*
G01*
X1003326Y21718D01*
X993878Y51781D02*
G01*
X993878Y21718D01*
X993878Y51781D02*
G01*
X980992Y51781D01*
X976697Y50351D01*
X975267Y48919D01*
X973834Y46055D01*
X973834Y41761D01*
X975267Y38897D01*
X976697Y37465D01*
X980992Y36033D01*
X993878Y36033D01*
X1139976Y51781D02*
G01*
X1139976Y21718D01*
X1149997Y51781D02*
G01*
X1129955Y51781D01*
X1120505Y51781D02*
G01*
X1120505Y21718D01*
X1120505Y51781D02*
G01*
X1110484Y51781D01*
X1106189Y50351D01*
X1103326Y47487D01*
X1101895Y44623D01*
X1100462Y40329D01*
X1100462Y33171D01*
X1101895Y28876D01*
X1103326Y26012D01*
X1106189Y23149D01*
X1110484Y21718D01*
X1120505Y21718D01*
X1082425Y51781D02*
G01*
X1085288Y50351D01*
X1088150Y47487D01*
X1089583Y44623D01*
X1091014Y40329D01*
X1091014Y33171D01*
X1089583Y28876D01*
X1088150Y26012D01*
X1085288Y23149D01*
X1082425Y21718D01*
X1076697Y21718D01*
X1073834Y23149D01*
X1070972Y26012D01*
X1069539Y28876D01*
X1068108Y33171D01*
X1068108Y40329D01*
X1069539Y44623D01*
X1070972Y47487D01*
X1073834Y50351D01*
X1076697Y51781D01*
X1082425Y51781D01*
X839976Y51781D02*
G01*
X839976Y21718D01*
X849997Y51781D02*
G01*
X829954Y51781D01*
X820505Y51781D02*
G01*
X820505Y21718D01*
X820505Y51781D02*
G01*
X810484Y51781D01*
X806189Y50351D01*
X803326Y47487D01*
X801895Y44623D01*
X800462Y40329D01*
X800462Y33171D01*
X801895Y28876D01*
X803326Y26012D01*
X806189Y23149D01*
X810484Y21718D01*
X820505Y21718D01*
X791014Y51781D02*
G01*
X791014Y21718D01*
X939976Y51781D02*
G01*
X939976Y21718D01*
X949997Y51781D02*
G01*
X929954Y51781D01*
X899031Y44623D02*
G01*
X900462Y47487D01*
X903326Y50351D01*
X906189Y51781D01*
X911916Y51781D01*
X914780Y50351D01*
X917642Y47487D01*
X919075Y44623D01*
X920505Y40329D01*
X920505Y33171D01*
X919075Y28876D01*
X917642Y26012D01*
X914780Y23149D01*
X911916Y21718D01*
X906189Y21718D01*
X903326Y23149D01*
X900462Y26012D01*
X899031Y28876D01*
X889583Y51781D02*
G01*
X889583Y21718D01*
X869539Y51781D02*
G01*
X889583Y31738D01*
X882425Y38897D02*
G01*
X869539Y21718D01*
D11*
X400000Y75399D02*
G01*
X371399Y32500D01*
X371399Y75399D02*
G01*
X400000Y32500D01*
X357899Y67199D02*
G01*
X353800Y69299D01*
X347600Y75399D01*
X347600Y32500D01*
X1158028Y1290189D02*
G01*
X1158028Y1247289D01*
X1158028Y1290189D02*
G01*
X1131428Y1290189D01*
X1158028Y1269789D02*
G01*
X1141629Y1269789D01*
X1117929Y1290189D02*
G01*
X1117929Y1247289D01*
X1117929Y1290189D02*
G01*
X1099529Y1290189D01*
X1093428Y1288189D01*
X1091328Y1286089D01*
X1089328Y1281990D01*
X1089328Y1275889D01*
X1091328Y1271790D01*
X1093428Y1269789D01*
X1099529Y1267689D01*
X1117929Y1267689D01*
X1045128Y1279989D02*
G01*
X1047129Y1284090D01*
X1051229Y1288189D01*
X1055329Y1290189D01*
X1063528Y1290189D01*
X1067628Y1288189D01*
X1071728Y1284090D01*
X1073729Y1279989D01*
X1075829Y1273789D01*
X1075829Y1263589D01*
X1073729Y1257489D01*
X1071728Y1253389D01*
X1067628Y1249290D01*
X1063528Y1247289D01*
X1055329Y1247289D01*
X1051229Y1249290D01*
X1047129Y1253389D01*
X1045128Y1257489D01*
X1031629Y1281990D02*
G01*
X1027529Y1284090D01*
X1021428Y1290189D01*
X1021428Y1247289D01*
X1658089Y646498D02*
G01*
X1662188Y644497D01*
X1666288Y640398D01*
X1668388Y636298D01*
X1670388Y630097D01*
X1670388Y619897D01*
X1668388Y613798D01*
X1666288Y609697D01*
X1662188Y605598D01*
X1658089Y603598D01*
X1649889Y603598D01*
X1645888Y605598D01*
X1641788Y609697D01*
X1639688Y613798D01*
X1637689Y619897D01*
X1637689Y630097D01*
X1639688Y636298D01*
X1641788Y640398D01*
X1645888Y644497D01*
X1649889Y646498D01*
X1658089Y646498D01*
X1651989Y611698D02*
G01*
X1639688Y599497D01*
X1622088Y636298D02*
G01*
X1622088Y638297D01*
X1620088Y642397D01*
X1617988Y644497D01*
X1613888Y646498D01*
X1605789Y646498D01*
X1601688Y644497D01*
X1599588Y642397D01*
X1597588Y638297D01*
X1597588Y634198D01*
X1599588Y630097D01*
X1603689Y623998D01*
X1624188Y603598D01*
X1595488Y603598D01*
X274587Y575419D02*
G01*
X274587Y544720D01*
X272588Y538620D01*
X268488Y534520D01*
X262287Y532519D01*
X258188Y532519D01*
X252087Y534520D01*
X247988Y538620D01*
X245988Y544720D01*
X245988Y575419D01*
X207887Y569319D02*
G01*
X209987Y573420D01*
X216087Y575419D01*
X220187Y575419D01*
X226287Y573420D01*
X230387Y567220D01*
X232487Y557020D01*
X232487Y546819D01*
X230387Y538620D01*
X226287Y534520D01*
X220187Y532519D01*
X218087Y532519D01*
X211988Y534520D01*
X207887Y538620D01*
X205887Y544720D01*
X205887Y546819D01*
X207887Y552919D01*
X211988Y557020D01*
X218087Y559020D01*
X220187Y559020D01*
X226287Y557020D01*
X230387Y552919D01*
X232487Y546819D01*
X470311Y229935D02*
G01*
X472411Y234034D01*
X476511Y238135D01*
X480511Y240135D01*
X488710Y240135D01*
X492811Y238135D01*
X496911Y234034D01*
X499011Y229935D01*
X501010Y223735D01*
X501010Y213535D01*
X499011Y207435D01*
X496911Y203335D01*
X492811Y199234D01*
X488710Y197235D01*
X480511Y197235D01*
X476511Y199234D01*
X472411Y203335D01*
X470311Y207435D01*
X456810Y231934D02*
G01*
X452710Y234034D01*
X446610Y240135D01*
X446610Y197235D01*
X422910Y240135D02*
G01*
X429011Y238135D01*
X431010Y234034D01*
X431010Y229935D01*
X429011Y225835D01*
X424911Y223735D01*
X416711Y221734D01*
X410610Y219735D01*
X406511Y215635D01*
X404511Y211534D01*
X404511Y205335D01*
X406511Y201235D01*
X408510Y199234D01*
X414711Y197235D01*
X422910Y197235D01*
X429011Y199234D01*
X431010Y201235D01*
X433110Y205335D01*
X433110Y211534D01*
X431010Y215635D01*
X427011Y219735D01*
X420810Y221734D01*
X412611Y223735D01*
X408510Y225835D01*
X406511Y229935D01*
X406511Y234034D01*
X408510Y238135D01*
X414711Y240135D01*
X422910Y240135D01*
X1470886Y548279D02*
G01*
X1472986Y552379D01*
X1477085Y556478D01*
X1481085Y558479D01*
X1489286Y558479D01*
X1493386Y556478D01*
X1497485Y552379D01*
X1499585Y548279D01*
X1501585Y542078D01*
X1501585Y531878D01*
X1499585Y525779D01*
X1497485Y521678D01*
X1493386Y517579D01*
X1489286Y515578D01*
X1481085Y515578D01*
X1477085Y517579D01*
X1472986Y521678D01*
X1470886Y525779D01*
X1430785Y544178D02*
G01*
X1432885Y538078D01*
X1436985Y533978D01*
X1443086Y531878D01*
X1445086Y531878D01*
X1451286Y533978D01*
X1455385Y538078D01*
X1457385Y544178D01*
X1457385Y546179D01*
X1455385Y552379D01*
X1451286Y556478D01*
X1445086Y558479D01*
X1443086Y558479D01*
X1436985Y556478D01*
X1432885Y552379D01*
X1430785Y544178D01*
X1430785Y533978D01*
X1432885Y523679D01*
X1436985Y517579D01*
X1443086Y515578D01*
X1447186Y515578D01*
X1453285Y517579D01*
X1455385Y521678D01*
X580255Y454360D02*
G01*
X582354Y458460D01*
X586455Y462559D01*
X590455Y464560D01*
X598654Y464560D01*
X602755Y462559D01*
X606855Y458460D01*
X608955Y454360D01*
X610954Y448159D01*
X610954Y437959D01*
X608955Y431860D01*
X606855Y427759D01*
X602755Y423659D01*
X598654Y421660D01*
X590455Y421660D01*
X586455Y423659D01*
X582354Y427759D01*
X580255Y431860D01*
X566754Y456359D02*
G01*
X562654Y458460D01*
X556554Y464560D01*
X556554Y421660D01*
X518454Y464560D02*
G01*
X538955Y464560D01*
X540954Y446159D01*
X538955Y448159D01*
X532854Y450259D01*
X526655Y450259D01*
X520554Y448159D01*
X516455Y444160D01*
X514454Y437959D01*
X514454Y433859D01*
X516455Y427759D01*
X520554Y423659D01*
X526655Y421660D01*
X532854Y421660D01*
X538955Y423659D01*
X540954Y425659D01*
X543054Y429760D01*
X516118Y712881D02*
G01*
X516118Y669980D01*
X516118Y712881D02*
G01*
X497719Y712881D01*
X491619Y710880D01*
X489519Y708780D01*
X487519Y704681D01*
X487519Y700581D01*
X489519Y696480D01*
X491619Y694481D01*
X497719Y692480D01*
X516118Y692480D01*
X501819Y692480D02*
G01*
X487519Y669980D01*
X447418Y698580D02*
G01*
X449418Y692480D01*
X453519Y688380D01*
X459618Y686280D01*
X461718Y686280D01*
X467818Y688380D01*
X471918Y692480D01*
X474018Y698580D01*
X474018Y700581D01*
X471918Y706781D01*
X467818Y710880D01*
X461718Y712881D01*
X459618Y712881D01*
X453519Y710880D01*
X449418Y706781D01*
X447418Y698580D01*
X447418Y688380D01*
X449418Y678081D01*
X453519Y671981D01*
X459618Y669980D01*
X463719Y669980D01*
X469918Y671981D01*
X471918Y676080D01*
X614690Y296404D02*
G01*
X616790Y300504D01*
X620891Y304605D01*
X624890Y306604D01*
X633090Y306604D01*
X637190Y304605D01*
X641291Y300504D01*
X643391Y296404D01*
X645390Y290205D01*
X645390Y280005D01*
X643391Y273904D01*
X641291Y269805D01*
X637190Y265704D01*
X633090Y263704D01*
X624890Y263704D01*
X620891Y265704D01*
X616790Y269805D01*
X614690Y273904D01*
X599191Y296404D02*
G01*
X599191Y298404D01*
X597091Y302505D01*
X595091Y304605D01*
X590990Y306604D01*
X582791Y306604D01*
X578690Y304605D01*
X576691Y302505D01*
X574591Y298404D01*
X574591Y294304D01*
X576691Y290205D01*
X580790Y284104D01*
X601190Y263704D01*
X572591Y263704D01*
X546790Y306604D02*
G01*
X552890Y304605D01*
X556990Y298404D01*
X559090Y288204D01*
X559090Y282105D01*
X556990Y271804D01*
X552890Y265704D01*
X546790Y263704D01*
X542690Y263704D01*
X536590Y265704D01*
X532491Y271804D01*
X530390Y282105D01*
X530390Y288204D01*
X532491Y298404D01*
X536590Y304605D01*
X542690Y306604D01*
X546790Y306604D01*
X1019062Y566718D02*
G01*
X1021162Y570817D01*
X1025263Y574917D01*
X1029263Y576918D01*
X1037462Y576918D01*
X1041562Y574917D01*
X1045663Y570817D01*
X1047763Y566718D01*
X1049763Y560518D01*
X1049763Y550318D01*
X1047763Y544218D01*
X1045663Y540118D01*
X1041562Y536017D01*
X1037462Y534018D01*
X1029263Y534018D01*
X1025263Y536017D01*
X1021162Y540118D01*
X1019062Y544218D01*
X1003563Y566718D02*
G01*
X1003563Y568717D01*
X1001463Y572818D01*
X999462Y574917D01*
X995362Y576918D01*
X987163Y576918D01*
X983063Y574917D01*
X981063Y572818D01*
X978963Y568717D01*
X978963Y564618D01*
X981063Y560518D01*
X985163Y554418D01*
X1005563Y534018D01*
X976962Y534018D01*
X963463Y568717D02*
G01*
X959363Y570817D01*
X953262Y576918D01*
X953262Y534018D01*
X1259300Y665194D02*
G01*
X1261400Y669295D01*
X1265501Y673395D01*
X1269501Y675394D01*
X1277700Y675394D01*
X1281800Y673395D01*
X1285901Y669295D01*
X1288001Y665194D01*
X1290001Y658994D01*
X1290001Y648795D01*
X1288001Y642694D01*
X1285901Y638595D01*
X1281800Y634495D01*
X1277700Y632494D01*
X1269501Y632494D01*
X1265501Y634495D01*
X1261400Y638595D01*
X1259300Y642694D01*
X1243801Y665194D02*
G01*
X1243801Y667195D01*
X1241701Y671295D01*
X1239700Y673395D01*
X1235600Y675394D01*
X1227400Y675394D01*
X1223301Y673395D01*
X1221301Y671295D01*
X1219201Y667195D01*
X1219201Y663094D01*
X1221301Y658994D01*
X1225401Y652894D01*
X1245801Y632494D01*
X1217200Y632494D01*
X1201601Y665194D02*
G01*
X1201601Y667195D01*
X1199601Y671295D01*
X1197501Y673395D01*
X1193500Y675394D01*
X1185300Y675394D01*
X1181201Y673395D01*
X1179101Y671295D01*
X1177101Y667195D01*
X1177101Y663094D01*
X1179101Y658994D01*
X1183200Y652894D01*
X1203701Y632494D01*
X1175001Y632494D01*
X718751Y410327D02*
G01*
X718751Y367427D01*
X718751Y410327D02*
G01*
X700351Y410327D01*
X694252Y408328D01*
X692152Y406228D01*
X690151Y402127D01*
X690151Y398027D01*
X692152Y393928D01*
X694252Y391927D01*
X700351Y389927D01*
X718751Y389927D01*
X704452Y389927D02*
G01*
X690151Y367427D01*
X676651Y402127D02*
G01*
X672552Y404227D01*
X666352Y410327D01*
X666352Y367427D01*
X640652Y410327D02*
G01*
X646752Y408328D01*
X650851Y402127D01*
X652851Y391927D01*
X652851Y385828D01*
X650851Y375527D01*
X646752Y369427D01*
X640652Y367427D01*
X636552Y367427D01*
X630351Y369427D01*
X626251Y375527D01*
X624252Y385828D01*
X624252Y391927D01*
X626251Y402127D01*
X630351Y408328D01*
X636552Y410327D01*
X640652Y410327D01*
X864411Y258735D02*
G01*
X864411Y215835D01*
X864411Y258735D02*
G01*
X846010Y258735D01*
X839911Y256734D01*
X837811Y254634D01*
X835811Y250534D01*
X835811Y246435D01*
X837811Y242334D01*
X839911Y240335D01*
X846010Y238335D01*
X864411Y238335D01*
X850110Y238335D02*
G01*
X835811Y215835D01*
X822310Y250534D02*
G01*
X818211Y252635D01*
X812011Y258735D01*
X812011Y215835D01*
X798510Y250534D02*
G01*
X794411Y252635D01*
X788311Y258735D01*
X788311Y215835D01*
X1150001Y675394D02*
G01*
X1150001Y632494D01*
X1150001Y675394D02*
G01*
X1131601Y675394D01*
X1125501Y673395D01*
X1123401Y671295D01*
X1121400Y667195D01*
X1121400Y663094D01*
X1123401Y658994D01*
X1125501Y656995D01*
X1131601Y654994D01*
X1150001Y654994D01*
X1135700Y654994D02*
G01*
X1121400Y632494D01*
X1107901Y667195D02*
G01*
X1103801Y669295D01*
X1097601Y675394D01*
X1097601Y632494D01*
X1082101Y665194D02*
G01*
X1082101Y667195D01*
X1080001Y671295D01*
X1078001Y673395D01*
X1073900Y675394D01*
X1065700Y675394D01*
X1061601Y673395D01*
X1059601Y671295D01*
X1057501Y667195D01*
X1057501Y663094D01*
X1059601Y658994D01*
X1063701Y652894D01*
X1084101Y632494D01*
X1055501Y632494D01*
X774095Y545747D02*
G01*
X774095Y502847D01*
X774095Y545747D02*
G01*
X755695Y545747D01*
X749596Y543746D01*
X747496Y541646D01*
X745495Y537546D01*
X745495Y533447D01*
X747496Y529346D01*
X749596Y527346D01*
X755695Y525347D01*
X774095Y525347D01*
X759796Y525347D02*
G01*
X745495Y502847D01*
X731995Y537546D02*
G01*
X727896Y539646D01*
X721696Y545747D01*
X721696Y502847D01*
X704095Y545747D02*
G01*
X681595Y545747D01*
X693895Y529346D01*
X687795Y529346D01*
X683695Y527346D01*
X681595Y525347D01*
X679596Y519146D01*
X679596Y515046D01*
X681595Y508946D01*
X685695Y504846D01*
X691896Y502847D01*
X697995Y502847D01*
X704095Y504846D01*
X706195Y506846D01*
X708195Y510947D01*
X1590002Y345394D02*
G01*
X1590002Y302494D01*
X1590002Y345394D02*
G01*
X1571602Y345394D01*
X1565502Y343395D01*
X1563402Y341295D01*
X1561403Y337195D01*
X1561403Y333094D01*
X1563402Y328994D01*
X1565502Y326995D01*
X1571602Y324994D01*
X1590002Y324994D01*
X1575703Y324994D02*
G01*
X1561403Y302494D01*
X1547902Y337195D02*
G01*
X1543802Y339295D01*
X1537602Y345394D01*
X1537602Y302494D01*
X1503702Y345394D02*
G01*
X1524102Y316795D01*
X1493503Y316795D01*
X1503702Y345394D02*
G01*
X1503702Y302494D01*
X1239996Y435396D02*
G01*
X1239996Y404697D01*
X1237996Y398596D01*
X1233896Y394497D01*
X1227695Y392496D01*
X1223595Y392496D01*
X1217496Y394497D01*
X1213396Y398596D01*
X1211396Y404697D01*
X1211396Y435396D01*
X1171296Y421096D02*
G01*
X1173296Y414996D01*
X1177395Y410896D01*
X1183495Y408796D01*
X1185595Y408796D01*
X1191696Y410896D01*
X1195796Y414996D01*
X1197896Y421096D01*
X1197896Y423096D01*
X1195796Y429297D01*
X1191696Y433396D01*
X1185595Y435396D01*
X1183495Y435396D01*
X1177395Y433396D01*
X1173296Y429297D01*
X1171296Y421096D01*
X1171296Y410896D01*
X1173296Y400596D01*
X1177395Y394497D01*
X1183495Y392496D01*
X1187596Y392496D01*
X1193796Y394497D01*
X1195796Y398596D01*
X650239Y593076D02*
G01*
X650239Y550176D01*
X650239Y593076D02*
G01*
X635938Y593076D01*
X629738Y591075D01*
X625738Y586975D01*
X623638Y582876D01*
X621639Y576676D01*
X621639Y566475D01*
X623638Y560376D01*
X625738Y556275D01*
X629738Y552175D01*
X635938Y550176D01*
X650239Y550176D01*
X608139Y584875D02*
G01*
X604038Y586975D01*
X597838Y593076D01*
X597838Y550176D01*
X148827Y1017527D02*
G01*
X152917Y1015482D01*
X157008Y1011390D01*
X159054Y1007300D01*
X161100Y1001163D01*
X161100Y990936D01*
X159054Y984800D01*
X157008Y980709D01*
X152917Y976617D01*
X148827Y974573D01*
X140644Y974573D01*
X136554Y976617D01*
X132463Y980709D01*
X130417Y984800D01*
X128373Y990936D01*
X128373Y1001163D01*
X130417Y1007300D01*
X132463Y1011390D01*
X136554Y1015482D01*
X140644Y1017527D01*
X148827Y1017527D01*
X142690Y982753D02*
G01*
X130417Y970482D01*
X114872Y1009344D02*
G01*
X110781Y1011390D01*
X104645Y1017527D01*
X104645Y974573D01*
X951961Y806214D02*
G01*
X951961Y763260D01*
X951961Y806214D02*
G01*
X933551Y806214D01*
X927416Y804169D01*
X925370Y802123D01*
X923325Y798031D01*
X923325Y793940D01*
X925370Y789850D01*
X927416Y787804D01*
X933551Y785760D01*
X951961Y785760D01*
X937642Y785760D02*
G01*
X923325Y763260D01*
X905734Y806214D02*
G01*
X883234Y806214D01*
X895505Y789850D01*
X889369Y789850D01*
X885279Y787804D01*
X883234Y785760D01*
X881188Y779623D01*
X881188Y775531D01*
X883234Y769396D01*
X887325Y765304D01*
X893460Y763260D01*
X899597Y763260D01*
X905734Y765304D01*
X907779Y767350D01*
X909825Y771440D01*
X292977Y845515D02*
G01*
X295077Y849614D01*
X299176Y853715D01*
X303177Y855715D01*
X311377Y855715D01*
X315477Y853715D01*
X319576Y849614D01*
X321676Y845515D01*
X323676Y839315D01*
X323676Y829115D01*
X321676Y823015D01*
X319576Y818915D01*
X315477Y814814D01*
X311377Y812815D01*
X303177Y812815D01*
X299176Y814814D01*
X295077Y818915D01*
X292977Y823015D01*
X275376Y855715D02*
G01*
X252876Y855715D01*
X265176Y839315D01*
X259077Y839315D01*
X254976Y837314D01*
X252876Y835315D01*
X250877Y829115D01*
X250877Y825014D01*
X252876Y818915D01*
X256977Y814814D01*
X263177Y812815D01*
X269277Y812815D01*
X275376Y814814D01*
X277476Y816815D01*
X279477Y820915D01*
X570509Y947136D02*
G01*
X572609Y951235D01*
X576709Y955336D01*
X580709Y957336D01*
X588908Y957336D01*
X593009Y955336D01*
X597109Y951235D01*
X599209Y947136D01*
X601208Y940936D01*
X601208Y930736D01*
X599209Y924636D01*
X597109Y920536D01*
X593009Y916435D01*
X588908Y914436D01*
X580709Y914436D01*
X576709Y916435D01*
X572609Y920536D01*
X570509Y924636D01*
X536608Y957336D02*
G01*
X557008Y928735D01*
X526309Y928735D01*
X536608Y957336D02*
G01*
X536608Y914436D01*
X659409Y947336D02*
G01*
X661509Y951435D01*
X665608Y955536D01*
X669609Y957536D01*
X677809Y957536D01*
X681909Y955536D01*
X686008Y951435D01*
X688108Y947336D01*
X690109Y941136D01*
X690109Y930936D01*
X688108Y924836D01*
X686008Y920736D01*
X681909Y916635D01*
X677809Y914636D01*
X669609Y914636D01*
X665608Y916635D01*
X661509Y920736D01*
X659409Y924836D01*
X621408Y951435D02*
G01*
X623409Y955536D01*
X629609Y957536D01*
X633609Y957536D01*
X639809Y955536D01*
X643908Y949335D01*
X645909Y939135D01*
X645909Y928935D01*
X643908Y920736D01*
X639809Y916635D01*
X633609Y914636D01*
X631608Y914636D01*
X625509Y916635D01*
X621408Y920736D01*
X619308Y926835D01*
X619308Y928935D01*
X621408Y935036D01*
X625509Y939135D01*
X631608Y941136D01*
X633609Y941136D01*
X639809Y939135D01*
X643908Y935036D01*
X645909Y928935D01*
X342878Y1157584D02*
G01*
X344978Y1161685D01*
X349077Y1165785D01*
X353078Y1167784D01*
X361278Y1167784D01*
X365378Y1165785D01*
X369477Y1161685D01*
X371577Y1157584D01*
X373578Y1151385D01*
X373578Y1141185D01*
X371577Y1135084D01*
X369477Y1130985D01*
X365378Y1126885D01*
X361278Y1124884D01*
X353078Y1124884D01*
X349077Y1126885D01*
X344978Y1130985D01*
X342878Y1135084D01*
X300778Y1167784D02*
G01*
X321177Y1124884D01*
X329378Y1167784D02*
G01*
X300778Y1167784D01*
X595515Y1095353D02*
G01*
X597615Y1099452D01*
X601716Y1103553D01*
X605716Y1105553D01*
X613915Y1105553D01*
X618015Y1103553D01*
X622116Y1099452D01*
X624216Y1095353D01*
X626215Y1089153D01*
X626215Y1078953D01*
X624216Y1072853D01*
X622116Y1068753D01*
X618015Y1064652D01*
X613915Y1062653D01*
X605716Y1062653D01*
X601716Y1064652D01*
X597615Y1068753D01*
X595515Y1072853D01*
X571815Y1105553D02*
G01*
X577916Y1103553D01*
X580016Y1099452D01*
X580016Y1095353D01*
X577916Y1091253D01*
X573816Y1089153D01*
X565716Y1087152D01*
X559515Y1085153D01*
X555416Y1081053D01*
X553416Y1076952D01*
X553416Y1070752D01*
X555416Y1066653D01*
X557516Y1064652D01*
X563616Y1062653D01*
X571815Y1062653D01*
X577916Y1064652D01*
X580016Y1066653D01*
X582015Y1070752D01*
X582015Y1076952D01*
X580016Y1081053D01*
X575916Y1085153D01*
X569715Y1087152D01*
X561615Y1089153D01*
X557516Y1091253D01*
X555416Y1095353D01*
X555416Y1099452D01*
X557516Y1103553D01*
X563616Y1105553D01*
X571815Y1105553D01*
X836760Y800437D02*
G01*
X838860Y804537D01*
X842960Y808638D01*
X846961Y810637D01*
X855160Y810637D01*
X859260Y808638D01*
X863361Y804537D01*
X865460Y800437D01*
X867461Y794238D01*
X867461Y784038D01*
X865460Y777937D01*
X863361Y773838D01*
X859260Y769738D01*
X855160Y767737D01*
X846961Y767737D01*
X842960Y769738D01*
X838860Y773838D01*
X836760Y777937D01*
X823261Y802438D02*
G01*
X819161Y804537D01*
X813060Y810637D01*
X813060Y767737D01*
X787260Y810637D02*
G01*
X793460Y808638D01*
X797461Y802438D01*
X799561Y792238D01*
X799561Y786138D01*
X797461Y775837D01*
X793460Y769738D01*
X787260Y767737D01*
X783161Y767737D01*
X777061Y769738D01*
X772960Y775837D01*
X770960Y786138D01*
X770960Y792238D01*
X772960Y802438D01*
X777061Y808638D01*
X783161Y810637D01*
X787260Y810637D01*
X612285Y1277721D02*
G01*
X614385Y1281822D01*
X618485Y1285922D01*
X622485Y1287921D01*
X630684Y1287921D01*
X634785Y1285922D01*
X638885Y1281822D01*
X640985Y1277721D01*
X642984Y1271522D01*
X642984Y1261322D01*
X640985Y1255221D01*
X638885Y1251122D01*
X634785Y1247022D01*
X630684Y1245021D01*
X622485Y1245021D01*
X618485Y1247022D01*
X614385Y1251122D01*
X612285Y1255221D01*
X598784Y1279722D02*
G01*
X594684Y1281822D01*
X588584Y1287921D01*
X588584Y1245021D01*
X570985Y1287921D02*
G01*
X548485Y1287921D01*
X560785Y1271522D01*
X554585Y1271522D01*
X550484Y1269522D01*
X548485Y1267521D01*
X546484Y1261322D01*
X546484Y1257222D01*
X548485Y1251122D01*
X552584Y1247022D01*
X558685Y1245021D01*
X564884Y1245021D01*
X570985Y1247022D01*
X572984Y1249022D01*
X575084Y1253121D01*
X181064Y652168D02*
G01*
X181064Y609268D01*
X181064Y652168D02*
G01*
X162663Y652168D01*
X156563Y650169D01*
X154463Y648069D01*
X152463Y643969D01*
X152463Y639868D01*
X154463Y635769D01*
X156563Y633769D01*
X162663Y631768D01*
X181064Y631768D01*
X166763Y631768D02*
G01*
X152463Y609268D01*
X138964Y643969D02*
G01*
X134863Y646069D01*
X128663Y652168D01*
X128663Y609268D01*
X296900Y719450D02*
G01*
X296900Y676550D01*
X296900Y719450D02*
G01*
X278499Y719450D01*
X272399Y717451D01*
X270300Y715351D01*
X268299Y711251D01*
X268299Y707150D01*
X270300Y703051D01*
X272399Y701051D01*
X278499Y699050D01*
X296900Y699050D01*
X282600Y699050D02*
G01*
X268299Y676550D01*
X252699Y709250D02*
G01*
X252699Y711251D01*
X250700Y715351D01*
X248600Y717451D01*
X244499Y719450D01*
X236399Y719450D01*
X232300Y717451D01*
X230199Y715351D01*
X228200Y711251D01*
X228200Y707150D01*
X230199Y703051D01*
X234299Y696950D01*
X254800Y676550D01*
X226100Y676550D01*
X1075910Y804535D02*
G01*
X1075910Y761635D01*
X1075910Y804535D02*
G01*
X1057511Y804535D01*
X1051410Y802534D01*
X1049310Y800435D01*
X1047310Y796334D01*
X1047310Y792235D01*
X1049310Y788135D01*
X1051410Y786134D01*
X1057511Y784135D01*
X1075910Y784135D01*
X1061611Y784135D02*
G01*
X1047310Y761635D01*
X1033810Y796334D02*
G01*
X1029710Y798434D01*
X1023510Y804535D01*
X1023510Y761635D01*
X985510Y804535D02*
G01*
X1005910Y804535D01*
X1008010Y786134D01*
X1005910Y788135D01*
X999810Y790234D01*
X993711Y790234D01*
X987511Y788135D01*
X983410Y784135D01*
X981410Y777935D01*
X981410Y773834D01*
X983410Y767734D01*
X987511Y763634D01*
X993711Y761635D01*
X999810Y761635D01*
X1005910Y763634D01*
X1008010Y765635D01*
X1010011Y769735D01*
X454571Y965189D02*
G01*
X454571Y934490D01*
X452570Y928389D01*
X448470Y924290D01*
X442271Y922289D01*
X438171Y922289D01*
X432071Y924290D01*
X427970Y928389D01*
X425970Y934490D01*
X425970Y965189D01*
X408371Y965189D02*
G01*
X385871Y965189D01*
X398070Y948789D01*
X391970Y948789D01*
X387871Y946790D01*
X385871Y944789D01*
X383771Y938589D01*
X383771Y934490D01*
X385871Y928389D01*
X389971Y924290D01*
X396071Y922289D01*
X402170Y922289D01*
X408371Y924290D01*
X410371Y926289D01*
X412471Y930390D01*
X297055Y1061363D02*
G01*
X297055Y1030664D01*
X295055Y1024564D01*
X290956Y1020464D01*
X284756Y1018463D01*
X280655Y1018463D01*
X274555Y1020464D01*
X270455Y1024564D01*
X268456Y1030664D01*
X268456Y1061363D01*
X234456Y1061363D02*
G01*
X254956Y1032764D01*
X224256Y1032764D01*
X234456Y1061363D02*
G01*
X234456Y1018463D01*
X1359288Y242759D02*
G01*
X1359288Y199859D01*
X1330689Y242759D02*
G01*
X1330689Y199859D01*
X1359288Y222359D02*
G01*
X1330689Y222359D01*
X1317188Y234560D02*
G01*
X1313089Y236660D01*
X1306889Y242759D01*
X1306889Y199859D01*
X1425200Y400700D02*
G01*
X1429300Y398600D01*
X1433400Y394499D01*
X1435399Y390500D01*
X1435399Y382300D01*
X1433400Y378200D01*
X1429300Y374099D01*
X1425200Y371999D01*
X1418999Y370000D01*
X1408800Y370000D01*
X1402700Y371999D01*
X1398599Y374099D01*
X1394499Y378200D01*
X1392500Y382300D01*
X1392500Y390500D01*
X1394499Y394499D01*
X1398599Y398600D01*
X1402700Y400700D01*
X1425200Y416199D02*
G01*
X1427200Y416199D01*
X1431300Y418299D01*
X1433400Y420300D01*
X1435399Y424400D01*
X1435399Y432600D01*
X1433400Y436700D01*
X1431300Y438699D01*
X1427200Y440799D01*
X1423100Y440799D01*
X1418999Y438699D01*
X1412899Y434600D01*
X1392500Y414200D01*
X1392500Y442800D01*
X1435399Y476799D02*
G01*
X1406800Y456300D01*
X1406800Y486999D01*
X1435399Y476799D02*
G01*
X1392500Y476799D01*
G36*
X1300000Y428420D02*
G01*
X1294620Y428260D01*
X1289259Y427780D01*
X1283940Y426980D01*
X1278680Y425860D01*
X1273500Y424420D01*
X1270940Y423600D01*
X1265900Y421700D01*
X1260980Y419520D01*
X1256200Y417040D01*
X1251580Y414280D01*
X1247140Y411240D01*
X1242880Y407939D01*
X1238840Y404400D01*
X1235000Y400640D01*
X1365000Y400640D01*
X1361160Y404400D01*
X1357120Y407939D01*
X1352860Y411240D01*
X1348420Y414280D01*
X1343800Y417040D01*
X1339019Y419520D01*
X1334100Y421700D01*
X1329060Y423600D01*
X1323920Y425180D01*
X1318700Y426460D01*
X1313400Y427420D01*
X1308060Y428060D01*
X1302700Y428380D01*
G37*
X317640Y233859D02*
G01*
X22359Y233859D01*
X22359Y7480D01*
X317640Y7480D01*
X317640Y233859D01*
D12*
X767220Y947132D02*
G01*
X1456208Y947159D01*
X1456208Y947159D02*
G01*
X1456196Y1193195D01*
X767220Y1193195D02*
G01*
X767220Y947132D01*
X1456196Y1193195D02*
G01*
X1377408Y1193159D01*
X846009Y1193159D02*
G01*
X767220Y1193195D01*
X1711966Y635428D02*
G01*
X1711966Y609448D01*
X1711966Y635428D01*
X1711966Y609448D01*
X1744056Y609448D01*
X1744056Y724409D02*
G01*
X1711966Y724409D01*
X1711966Y698427D01*
D13*
X1772986Y678737D02*
G01*
X1772986Y655118D01*
D11*
X331867Y249047D02*
G01*
X331867Y510952D01*
X216008Y510952D01*
X216008Y249047D01*
X331867Y249047D01*
D12*
X502791Y322500D02*
G01*
X502791Y353996D01*
X459097Y366194D02*
G01*
X490594Y366194D01*
X446900Y322500D02*
G01*
X446900Y353996D01*
X503020Y299827D02*
G01*
X503020Y268332D01*
X447130Y299827D02*
G01*
X447130Y268332D01*
X459326Y256134D02*
G01*
X490823Y256134D01*
X1575586Y543016D02*
G01*
X1575586Y574513D01*
X1531894Y586711D02*
G01*
X1563389Y586711D01*
X1519696Y543016D02*
G01*
X1519696Y574513D01*
X1575816Y520344D02*
G01*
X1575816Y488850D01*
X1519925Y520344D02*
G01*
X1519925Y488850D01*
X1532123Y476651D02*
G01*
X1563620Y476651D01*
X447831Y432770D02*
G01*
X447831Y401273D01*
X491523Y389076D02*
G01*
X460028Y389076D01*
X503721Y432770D02*
G01*
X503721Y401273D01*
X447600Y455443D02*
G01*
X447600Y486936D01*
X503492Y455443D02*
G01*
X503492Y486936D01*
X491295Y499135D02*
G01*
X459798Y499135D01*
D11*
X456008Y563220D02*
G01*
X456008Y525468D01*
X403991Y525468D01*
X403991Y563220D01*
X456008Y596779D02*
G01*
X456008Y634531D01*
X403991Y634531D01*
X403991Y596779D01*
D12*
X653631Y272170D02*
G01*
X653631Y240673D01*
X697323Y228476D02*
G01*
X665828Y228476D01*
X709522Y272170D02*
G01*
X709522Y240673D01*
X653400Y294843D02*
G01*
X653400Y326336D01*
X709292Y294843D02*
G01*
X709292Y326336D01*
X697094Y338535D02*
G01*
X665598Y338535D01*
X932890Y568600D02*
G01*
X932890Y600097D01*
X889197Y612294D02*
G01*
X920694Y612294D01*
X876999Y568600D02*
G01*
X876999Y600097D01*
X933121Y545927D02*
G01*
X933121Y514432D01*
X877229Y545927D02*
G01*
X877229Y514432D01*
X889426Y502235D02*
G01*
X920924Y502235D01*
X1203091Y562699D02*
G01*
X1203091Y594196D01*
X1159398Y606394D02*
G01*
X1190893Y606394D01*
X1147200Y562699D02*
G01*
X1147200Y594196D01*
X1203320Y540027D02*
G01*
X1203320Y508533D01*
X1147430Y540027D02*
G01*
X1147430Y508533D01*
X1159627Y496334D02*
G01*
X1191123Y496334D01*
D11*
X735003Y440014D02*
G01*
X735003Y477766D01*
X787019Y477766D01*
X787019Y440014D01*
X735003Y406455D02*
G01*
X735003Y368703D01*
X787019Y368703D01*
X787019Y406455D01*
X932631Y212327D02*
G01*
X894880Y212327D01*
X894880Y264342D01*
X932631Y264342D01*
X966190Y212327D02*
G01*
X1003941Y212327D01*
X1003941Y264342D01*
X966190Y264342D01*
X1061702Y570315D02*
G01*
X1061702Y608065D01*
X1113719Y608065D01*
X1113719Y570315D01*
X1061702Y536754D02*
G01*
X1061702Y499003D01*
X1113719Y499003D01*
X1113719Y536754D01*
X804903Y572314D02*
G01*
X804903Y610066D01*
X856918Y610066D01*
X856918Y572314D01*
X804903Y538755D02*
G01*
X804903Y501003D01*
X856918Y501003D01*
X856918Y538755D01*
X1466008Y263220D02*
G01*
X1466008Y225468D01*
X1413991Y225468D01*
X1413991Y263220D01*
X1466008Y296779D02*
G01*
X1466008Y334531D01*
X1413991Y334531D01*
X1413991Y296779D01*
X950513Y273209D02*
G01*
X1070308Y273209D01*
X1070308Y476060D01*
X950513Y476060D01*
X950513Y273209D01*
D12*
X581775Y616743D02*
G01*
X652642Y616743D01*
X582638Y679735D02*
G01*
X651779Y679735D01*
D13*
X612208Y648240D02*
G01*
X631208Y629239D01*
X631208Y667240D01*
X613209Y649239D01*
X608209Y625239D02*
G01*
X608209Y669239D01*
X593209Y648240D02*
G01*
X644209Y648240D01*
D12*
X150311Y936925D02*
G01*
X124331Y936925D01*
X150311Y936925D01*
X124331Y936925D01*
X124331Y904834D01*
X239292Y904834D02*
G01*
X239292Y936925D01*
X213310Y936925D01*
D13*
X193620Y875904D02*
G01*
X170001Y875904D01*
D11*
X899102Y710414D02*
G01*
X899102Y748166D01*
X951118Y748166D01*
X951118Y710414D01*
X899102Y676855D02*
G01*
X899102Y639104D01*
X951118Y639104D01*
X951118Y676855D01*
D12*
X312890Y941999D02*
G01*
X312890Y973497D01*
X269198Y985693D02*
G01*
X300693Y985693D01*
X256999Y941999D02*
G01*
X256999Y973497D01*
X313121Y919326D02*
G01*
X313121Y887833D01*
X257229Y919326D02*
G01*
X257229Y887833D01*
X269427Y875635D02*
G01*
X300924Y875635D01*
X535729Y832874D02*
G01*
X535729Y801377D01*
X579421Y789180D02*
G01*
X547926Y789180D01*
X591619Y832874D02*
G01*
X591619Y801377D01*
X535498Y855547D02*
G01*
X535498Y887042D01*
X591390Y855547D02*
G01*
X591390Y887042D01*
X579193Y899239D02*
G01*
X547696Y899239D01*
X620129Y826975D02*
G01*
X620129Y795477D01*
X663822Y783281D02*
G01*
X632325Y783281D01*
X676019Y826975D02*
G01*
X676019Y795477D01*
X619899Y849648D02*
G01*
X619899Y881141D01*
X675790Y849648D02*
G01*
X675790Y881141D01*
X663593Y893339D02*
G01*
X632096Y893339D01*
X433845Y1168515D02*
G01*
X402348Y1168515D01*
X390151Y1124821D02*
G01*
X390151Y1156318D01*
X433845Y1112624D02*
G01*
X402348Y1112624D01*
X456518Y1168744D02*
G01*
X488013Y1168744D01*
X456518Y1112854D02*
G01*
X488013Y1112854D01*
X500210Y1125050D02*
G01*
X500210Y1156547D01*
X538290Y1052800D02*
G01*
X538290Y1084297D01*
X494598Y1096493D02*
G01*
X526093Y1096493D01*
X482399Y1052800D02*
G01*
X482399Y1084297D01*
X538521Y1030127D02*
G01*
X538521Y998632D01*
X482629Y1030127D02*
G01*
X482629Y998632D01*
X494827Y986435D02*
G01*
X526323Y986435D01*
X872591Y707600D02*
G01*
X872591Y739097D01*
X828897Y751293D02*
G01*
X860393Y751293D01*
X816700Y707600D02*
G01*
X816700Y739097D01*
X872821Y684926D02*
G01*
X872821Y653433D01*
X816930Y684926D02*
G01*
X816930Y653433D01*
X829126Y641235D02*
G01*
X860623Y641235D01*
X633778Y1186588D02*
G01*
X633778Y1218085D01*
X590084Y1230282D02*
G01*
X621581Y1230282D01*
X577887Y1186588D02*
G01*
X577887Y1218085D01*
X634007Y1163915D02*
G01*
X634007Y1132420D01*
X578117Y1163915D02*
G01*
X578117Y1132420D01*
X590313Y1120223D02*
G01*
X621810Y1120223D01*
D11*
X128802Y743515D02*
G01*
X128802Y781266D01*
X180819Y781266D01*
X180819Y743515D01*
X128802Y709954D02*
G01*
X128802Y672204D01*
X180819Y672204D01*
X180819Y709954D01*
X245731Y731826D02*
G01*
X207979Y731826D01*
X207979Y783843D01*
X245731Y783843D01*
X279290Y731826D02*
G01*
X317042Y731826D01*
X317042Y783843D01*
X279290Y783843D01*
X994302Y708215D02*
G01*
X994302Y745965D01*
X1046319Y745965D01*
X1046319Y708215D01*
X994302Y674654D02*
G01*
X994302Y636903D01*
X1046319Y636903D01*
X1046319Y674654D01*
X462899Y780659D02*
G01*
X393908Y780659D01*
X393908Y821667D01*
X462899Y901619D02*
G01*
X393908Y901619D01*
X393908Y860612D01*
X462899Y823211D02*
G01*
X462899Y859068D01*
X435790Y1062826D02*
G01*
X435790Y993834D01*
X394783Y993834D01*
X314830Y1062826D02*
G01*
X314830Y993834D01*
X355839Y993834D01*
X393240Y1062826D02*
G01*
X357381Y1062826D01*
D12*
X1359998Y80000D02*
G01*
X1359998Y180000D01*
X560001Y180000D01*
X560001Y80000D01*
X1359998Y80000D01*
X660925Y80000D02*
G01*
X660925Y180000D01*
X1359049Y270309D02*
G01*
X1359049Y310309D01*
X1378739Y290630D02*
G01*
X1338739Y290630D01*
G75*
G01*
X459098Y366195D02*
G03*
X446900Y353997I0J-12198D01*
G75*
G01*
X502792Y353997D02*
G03*
X490594Y366195I-12198J0D01*
G75*
G01*
X447129Y268333D02*
G03*
X459327Y256135I12198J0D01*
G75*
G01*
X490823Y256135D02*
G03*
X503021Y268333I0J12198D01*
G75*
G01*
X1531894Y586712D02*
G03*
X1519696Y574514I0J-12198D01*
G75*
G01*
X1575588Y574514D02*
G03*
X1563390Y586712I-12198J0D01*
G75*
G01*
X1519925Y488850D02*
G03*
X1532123Y476652I12198J0D01*
G75*
G01*
X1563619Y476652D02*
G03*
X1575817Y488850I0J12198D01*
G75*
G01*
X491524Y389075D02*
G03*
X503722Y401273I0J12198D01*
G75*
G01*
X447830Y401273D02*
G03*
X460028Y389075I12198J0D01*
G75*
G01*
X503493Y486937D02*
G03*
X491295Y499135I-12198J0D01*
G75*
G01*
X459799Y499135D02*
G03*
X447601Y486937I0J-12198D01*
G75*
G01*
X697324Y228475D02*
G03*
X709522Y240673I0J12198D01*
G75*
G01*
X653630Y240673D02*
G03*
X665828Y228475I12198J0D01*
G75*
G01*
X709293Y326337D02*
G03*
X697095Y338535I-12198J0D01*
G75*
G01*
X665599Y338535D02*
G03*
X653401Y326337I0J-12198D01*
G75*
G01*
X889198Y612295D02*
G03*
X877000Y600097I0J-12198D01*
G75*
G01*
X932892Y600097D02*
G03*
X920694Y612295I-12198J0D01*
G75*
G01*
X877229Y514433D02*
G03*
X889427Y502235I12198J0D01*
G75*
G01*
X920923Y502235D02*
G03*
X933121Y514433I0J12198D01*
G75*
G01*
X1159398Y606395D02*
G03*
X1147200Y594197I0J-12198D01*
G75*
G01*
X1203092Y594197D02*
G03*
X1190894Y606395I-12198J0D01*
G75*
G01*
X1147429Y508533D02*
G03*
X1159627Y496335I12198J0D01*
G75*
G01*
X1191123Y496335D02*
G03*
X1203321Y508533I0J12198D01*
G75*
G01*
X269198Y985695D02*
G03*
X257000Y973497I0J-12198D01*
G75*
G01*
X312892Y973497D02*
G03*
X300694Y985695I-12198J0D01*
G75*
G01*
X257229Y887833D02*
G03*
X269427Y875635I12198J0D01*
G75*
G01*
X300923Y875635D02*
G03*
X313121Y887833I0J12198D01*
G75*
G01*
X579422Y789180D02*
G03*
X591620Y801378I0J12198D01*
G75*
G01*
X535728Y801378D02*
G03*
X547926Y789180I12198J0D01*
G75*
G01*
X591391Y887042D02*
G03*
X579193Y899240I-12198J0D01*
G75*
G01*
X547697Y899240D02*
G03*
X535499Y887042I0J-12198D01*
G75*
G01*
X663822Y783280D02*
G03*
X676020Y795478I0J12198D01*
G75*
G01*
X620128Y795478D02*
G03*
X632326Y783280I12198J0D01*
G75*
G01*
X675791Y881142D02*
G03*
X663593Y893340I-12198J0D01*
G75*
G01*
X632097Y893340D02*
G03*
X619899Y881142I0J-12198D01*
G75*
G01*
X390151Y1124822D02*
G03*
X402349Y1112624I12198J0D01*
G75*
G01*
X402349Y1168516D02*
G03*
X390151Y1156318I0J-12198D01*
G75*
G01*
X488013Y1112853D02*
G03*
X500211Y1125051I0J12198D01*
G75*
G01*
X500211Y1156547D02*
G03*
X488013Y1168745I-12198J0D01*
G75*
G01*
X494598Y1096495D02*
G03*
X482400Y1084297I0J-12198D01*
G75*
G01*
X538292Y1084297D02*
G03*
X526094Y1096495I-12198J0D01*
G75*
G01*
X482629Y998633D02*
G03*
X494827Y986435I12198J0D01*
G75*
G01*
X526323Y986435D02*
G03*
X538521Y998633I0J12198D01*
G75*
G01*
X828898Y751295D02*
G03*
X816700Y739097I0J-12198D01*
G75*
G01*
X872592Y739097D02*
G03*
X860394Y751295I-12198J0D01*
G75*
G01*
X816929Y653433D02*
G03*
X829127Y641235I12198J0D01*
G75*
G01*
X860623Y641235D02*
G03*
X872821Y653433I0J12198D01*
G75*
G01*
X590085Y1230283D02*
G03*
X577887Y1218085I0J-12198D01*
G75*
G01*
X633779Y1218085D02*
G03*
X621581Y1230283I-12198J0D01*
G75*
G01*
X578116Y1132421D02*
G03*
X590314Y1120223I12198J0D01*
G75*
G01*
X621810Y1120223D02*
G03*
X634008Y1132421I0J12198D01*
D14*
G75*
G01
X986040Y299640D02*
G03X986040Y299640I-5910J0D01*
G75*
G01
X910710Y269430D02*
G03X910710Y269430I-5910J0D01*
G75*
G01
X1398430Y330000D02*
G03X1398430Y330000I-98430J0D01*
M02*
