G04 Layer: BottomLayer*
G04 Panelize: , Column: 1, Row: 1, Board Size: 1.85inch x 1.54inch, Panelized Board Size: 1.85inch x 1.54inch*
G04 EasyEDA v6.5.48, 2025-03-06 20:58:06*
G04 bc0108e7a25f4f9495a06a5a4f8deb47,84066bfdb5964fb78f634a0d0c1972bb,10*
G04 Gerber Generator version 0.2*
G04 Scale: 100 percent, Rotated: No, Reflected: No *
G04 Dimensions in inches *
G04 leading zeros omitted , absolute positions ,3 integer and 6 decimal *
%FSLAX36Y36*%
%MOIN*%

%AMMACRO1*21,1,$1,$2,0,0,$3*%
%AMMACRO2*4,1,8,-0.0291,0.012,-0.0121,0.0291,0.0121,0.0291,0.0291,0.012,0.0291,-0.012,0.0121,-0.0291,-0.0121,-0.0291,-0.0291,-0.012,-0.0291,0.012,0*%
%ADD10C,0.0140*%
%ADD11C,0.0194*%
%ADD12C,0.0300*%
%ADD13C,0.0180*%
%ADD14C,0.0118*%
%ADD15C,0.0200*%
%ADD16C,0.0250*%
%ADD17C,0.0296*%
%ADD18C,0.0315*%
%ADD19C,0.0394*%
%ADD20MACRO1,0.0118X0.0512X0.0000*%
%ADD21MACRO1,0.063X0.0787X90.0000*%
%ADD22MACRO1,0.0276X0.0492X90.0000*%
%ADD23MACRO1,0.0984X0.0433X0.0000*%
%ADD24R,0.0921X0.1417*%
%ADD25MACRO1,0.0315X0.0354X-90.0000*%
%ADD26MACRO1,0.0315X0.0354X90.0000*%
%ADD27R,0.0340X0.0318*%
%ADD28MACRO1,0.034X0.0318X0.0000*%
%ADD29MACRO1,0.034X0.0318X90.0000*%
%ADD30O,0.073425X0.024803000000000002*%
%ADD31MACRO1,0.0433X0.0669X0.0000*%
%ADD32MACRO1,0.0276X0.0492X0.0000*%
%ADD33MACRO1,0.0315X0.0354X0.0000*%
%ADD34MACRO1,0.0421X0.0236X0.0000*%
%ADD35MACRO1,0.0421X0.0236X90.0000*%
%ADD36MACRO1,0.063X0.063X0.0000*%
%ADD37MACRO2*%
%ADD38MACRO1,0.0591X0.0591X0.0000*%
%ADD39C,0.0591*%
%ADD40C,0.0512*%
%ADD41R,0.0669X0.0669*%
%ADD42C,0.0669*%
%ADD43C,0.0115*%

%LPD*%
G36*
X14200Y10200D02*
G01*
X12660Y10500D01*
X11379Y11379D01*
X10500Y12660D01*
X10200Y14200D01*
X10200Y1521220D01*
X10500Y1522760D01*
X11379Y1524060D01*
X12660Y1524920D01*
X14200Y1525220D01*
X1832260Y1525220D01*
X1833779Y1524920D01*
X1835080Y1524060D01*
X1835940Y1522760D01*
X1836260Y1521220D01*
X1836260Y14200D01*
X1835940Y12660D01*
X1835080Y11379D01*
X1833779Y10500D01*
X1832260Y10200D01*
G37*

%LPC*%
G36*
X454320Y24200D02*
G01*
X1647680Y24200D01*
X1651020Y24400D01*
X1655080Y25280D01*
X1655900Y25540D01*
X1658959Y26800D01*
X1659720Y27200D01*
X1663220Y29460D01*
X1665720Y31680D01*
X1753540Y119600D01*
X1755740Y122080D01*
X1758000Y125580D01*
X1759160Y128180D01*
X1760020Y129480D01*
X1761320Y130360D01*
X1762860Y130660D01*
X1764379Y130360D01*
X1765680Y129480D01*
X1766540Y128180D01*
X1766860Y126660D01*
X1766860Y103020D01*
X1766620Y101679D01*
X1765940Y100480D01*
X1764900Y99600D01*
X1763620Y99100D01*
X1762080Y98800D01*
X1757780Y97260D01*
X1753760Y95079D01*
X1750120Y92300D01*
X1746960Y89000D01*
X1744319Y85260D01*
X1742300Y81160D01*
X1740920Y76800D01*
X1740220Y72280D01*
X1740220Y67720D01*
X1740920Y63200D01*
X1742300Y58840D01*
X1744319Y54740D01*
X1746960Y51000D01*
X1750120Y47699D01*
X1753760Y44920D01*
X1757780Y42740D01*
X1762080Y41200D01*
X1766579Y40320D01*
X1771140Y40140D01*
X1775680Y40679D01*
X1780100Y41880D01*
X1784280Y43760D01*
X1788100Y46240D01*
X1791519Y49280D01*
X1794440Y52820D01*
X1796780Y56740D01*
X1798480Y60980D01*
X1799520Y65439D01*
X1799900Y70300D01*
X1800160Y71480D01*
X1800780Y72500D01*
X1803080Y75380D01*
X1804000Y76800D01*
X1804800Y78340D01*
X1805460Y79960D01*
X1805980Y81600D01*
X1806360Y83300D01*
X1806579Y85020D01*
X1806660Y86840D01*
X1806660Y601540D01*
X1806960Y603080D01*
X1807840Y604380D01*
X1809139Y605240D01*
X1813620Y605820D01*
X1815780Y606580D01*
X1817700Y607800D01*
X1819319Y609400D01*
X1820540Y611340D01*
X1821279Y613480D01*
X1821560Y615980D01*
X1821560Y643080D01*
X1821279Y645580D01*
X1820540Y647720D01*
X1819319Y649659D01*
X1817700Y651260D01*
X1815780Y652480D01*
X1813620Y653220D01*
X1811140Y653500D01*
X1762380Y653500D01*
X1759880Y653220D01*
X1757740Y652480D01*
X1755800Y651260D01*
X1754199Y649659D01*
X1752980Y647720D01*
X1752240Y645580D01*
X1751960Y643080D01*
X1751960Y615980D01*
X1752240Y613480D01*
X1752980Y611340D01*
X1754199Y609400D01*
X1755800Y607800D01*
X1757740Y606580D01*
X1759880Y605820D01*
X1762860Y605540D01*
X1764379Y605240D01*
X1765680Y604380D01*
X1766540Y603080D01*
X1766860Y601540D01*
X1766860Y374840D01*
X1766540Y373320D01*
X1765680Y372020D01*
X1764379Y371140D01*
X1762860Y370840D01*
X1761320Y371140D01*
X1760020Y372020D01*
X1759160Y373320D01*
X1758000Y375920D01*
X1755740Y379420D01*
X1753540Y381900D01*
X1699100Y436340D01*
X1696620Y438540D01*
X1693120Y440800D01*
X1692340Y441200D01*
X1689300Y442460D01*
X1688460Y442720D01*
X1684400Y443600D01*
X1681080Y443800D01*
X1649640Y443800D01*
X1648040Y444120D01*
X1646720Y445060D01*
X1645880Y446440D01*
X1645640Y448060D01*
X1646080Y449620D01*
X1647080Y450880D01*
X1650720Y453880D01*
X1653760Y457299D01*
X1656240Y461120D01*
X1657100Y463060D01*
X1642340Y463060D01*
X1642340Y447800D01*
X1642040Y446260D01*
X1641180Y444980D01*
X1639880Y444099D01*
X1638340Y443800D01*
X1621660Y443800D01*
X1620120Y444099D01*
X1618820Y444980D01*
X1617960Y446260D01*
X1617660Y447800D01*
X1617660Y463060D01*
X1602900Y463060D01*
X1603760Y461120D01*
X1606240Y457299D01*
X1609280Y453880D01*
X1612920Y450880D01*
X1613920Y449620D01*
X1614360Y448060D01*
X1614120Y446440D01*
X1613280Y445060D01*
X1611960Y444120D01*
X1610360Y443800D01*
X1554240Y443800D01*
X1552720Y444099D01*
X1551420Y444960D01*
X1542160Y454180D01*
X1539720Y456340D01*
X1536220Y458600D01*
X1535380Y459040D01*
X1532400Y460260D01*
X1531500Y460540D01*
X1528380Y461260D01*
X1527420Y461400D01*
X1524180Y461599D01*
X1509100Y461599D01*
X1507560Y461900D01*
X1506279Y462780D01*
X1505400Y464060D01*
X1505100Y465600D01*
X1505100Y512100D01*
X1505400Y513620D01*
X1506279Y514920D01*
X1513360Y522000D01*
X1514660Y522879D01*
X1516180Y523180D01*
X1517720Y522879D01*
X1519019Y522000D01*
X1519880Y520720D01*
X1520180Y519180D01*
X1520180Y514460D01*
X1536740Y514460D01*
X1536740Y529260D01*
X1537040Y530780D01*
X1537920Y532080D01*
X1539220Y532940D01*
X1540740Y533260D01*
X1555460Y533260D01*
X1557000Y532940D01*
X1558280Y532080D01*
X1559160Y530780D01*
X1559460Y529260D01*
X1559460Y514460D01*
X1576020Y514460D01*
X1576020Y519600D01*
X1575740Y522100D01*
X1574980Y524240D01*
X1573779Y526180D01*
X1572160Y527780D01*
X1571420Y528260D01*
X1570260Y529360D01*
X1569620Y530840D01*
X1569620Y532440D01*
X1570260Y533920D01*
X1571420Y535020D01*
X1572160Y535500D01*
X1573779Y537100D01*
X1574980Y539040D01*
X1575740Y541180D01*
X1576020Y543680D01*
X1576020Y574720D01*
X1575740Y577220D01*
X1574460Y581020D01*
X1574680Y582740D01*
X1575620Y584220D01*
X1629620Y638180D01*
X1631840Y640680D01*
X1632360Y641380D01*
X1634500Y644940D01*
X1635760Y648000D01*
X1636020Y648820D01*
X1636900Y652900D01*
X1637100Y656220D01*
X1637100Y722500D01*
X1637400Y724040D01*
X1638280Y725340D01*
X1686740Y773800D01*
X1688940Y776280D01*
X1691200Y779780D01*
X1691600Y780560D01*
X1692860Y783600D01*
X1693120Y784440D01*
X1694000Y788500D01*
X1694199Y791820D01*
X1694199Y918720D01*
X1694480Y920200D01*
X1695300Y921460D01*
X1696519Y922340D01*
X1697980Y922720D01*
X1699480Y922500D01*
X1700820Y921740D01*
X1705500Y918700D01*
X1710540Y916260D01*
X1715860Y914500D01*
X1721339Y913439D01*
X1726920Y913080D01*
X1732500Y913439D01*
X1738000Y914500D01*
X1743300Y916260D01*
X1748340Y918700D01*
X1753040Y921740D01*
X1757300Y925360D01*
X1761060Y929520D01*
X1763440Y932920D01*
X1764660Y934060D01*
X1766260Y934599D01*
X1767920Y934460D01*
X1769379Y933620D01*
X1770360Y932280D01*
X1770720Y930639D01*
X1770720Y897000D01*
X1770540Y895819D01*
X1768720Y892500D01*
X1768060Y890900D01*
X1767540Y889240D01*
X1767160Y887540D01*
X1766940Y885819D01*
X1766860Y884000D01*
X1766860Y732300D01*
X1766540Y730780D01*
X1765680Y729479D01*
X1764379Y728620D01*
X1759880Y728020D01*
X1757740Y727280D01*
X1755800Y726060D01*
X1754199Y724460D01*
X1752980Y722520D01*
X1752240Y720380D01*
X1751960Y717880D01*
X1751960Y690780D01*
X1752240Y688280D01*
X1752980Y686140D01*
X1754199Y684200D01*
X1755800Y682600D01*
X1757740Y681380D01*
X1759880Y680620D01*
X1762380Y680340D01*
X1811140Y680340D01*
X1813620Y680620D01*
X1815780Y681380D01*
X1817700Y682600D01*
X1819319Y684200D01*
X1820540Y686140D01*
X1821279Y688280D01*
X1821560Y690780D01*
X1821560Y717880D01*
X1821279Y720380D01*
X1820540Y722520D01*
X1819319Y724460D01*
X1817700Y726060D01*
X1815780Y727280D01*
X1813620Y728020D01*
X1810660Y728300D01*
X1809139Y728620D01*
X1807840Y729479D01*
X1806960Y730780D01*
X1806660Y732300D01*
X1806660Y875040D01*
X1806840Y876220D01*
X1808660Y879539D01*
X1809319Y881140D01*
X1809840Y882800D01*
X1810220Y884500D01*
X1810440Y886220D01*
X1810520Y888040D01*
X1810520Y1292940D01*
X1810460Y1294760D01*
X1810220Y1296500D01*
X1809840Y1298180D01*
X1809319Y1299840D01*
X1808660Y1301440D01*
X1807860Y1302980D01*
X1806920Y1304440D01*
X1805860Y1305820D01*
X1804640Y1307180D01*
X1771759Y1340040D01*
X1770900Y1341339D01*
X1770600Y1342880D01*
X1770600Y1389960D01*
X1770320Y1392460D01*
X1769560Y1394600D01*
X1768340Y1396540D01*
X1766740Y1398140D01*
X1764800Y1399360D01*
X1762660Y1400120D01*
X1760160Y1400400D01*
X1693680Y1400400D01*
X1691200Y1400120D01*
X1689040Y1399360D01*
X1687120Y1398140D01*
X1685500Y1396540D01*
X1684300Y1394600D01*
X1683540Y1392460D01*
X1683260Y1389960D01*
X1683260Y1323500D01*
X1683540Y1321000D01*
X1684300Y1318860D01*
X1685500Y1316920D01*
X1687120Y1315320D01*
X1689040Y1314100D01*
X1691200Y1313340D01*
X1693680Y1313060D01*
X1740780Y1313060D01*
X1742320Y1312760D01*
X1743620Y1311900D01*
X1756740Y1298779D01*
X1757660Y1297340D01*
X1757900Y1295660D01*
X1757420Y1294040D01*
X1756300Y1292740D01*
X1754760Y1292040D01*
X1753060Y1292040D01*
X1751519Y1292740D01*
X1750740Y1293320D01*
X1745860Y1296060D01*
X1740680Y1298160D01*
X1735280Y1299580D01*
X1729720Y1300300D01*
X1724120Y1300300D01*
X1718580Y1299580D01*
X1713180Y1298160D01*
X1707980Y1296060D01*
X1703120Y1293320D01*
X1698620Y1289980D01*
X1694600Y1286080D01*
X1691120Y1281699D01*
X1688220Y1276920D01*
X1685960Y1271800D01*
X1684360Y1266440D01*
X1683480Y1260920D01*
X1683300Y1255340D01*
X1683839Y1249760D01*
X1685080Y1244300D01*
X1687000Y1239060D01*
X1689600Y1234100D01*
X1692800Y1229520D01*
X1696560Y1225360D01*
X1700820Y1221740D01*
X1705500Y1218700D01*
X1710540Y1216260D01*
X1715860Y1214500D01*
X1721339Y1213440D01*
X1726920Y1213080D01*
X1732500Y1213440D01*
X1738000Y1214500D01*
X1743300Y1216260D01*
X1748340Y1218700D01*
X1753040Y1221740D01*
X1757300Y1225360D01*
X1761060Y1229520D01*
X1763440Y1232920D01*
X1764660Y1234060D01*
X1766260Y1234600D01*
X1767920Y1234460D01*
X1769379Y1233620D01*
X1770360Y1232280D01*
X1770720Y1230640D01*
X1770720Y1182840D01*
X1770360Y1181160D01*
X1769319Y1179800D01*
X1767800Y1179000D01*
X1766080Y1178900D01*
X1764480Y1179520D01*
X1763300Y1180780D01*
X1762740Y1181700D01*
X1759240Y1186080D01*
X1755220Y1189980D01*
X1750740Y1193320D01*
X1746160Y1195900D01*
X1746160Y1175960D01*
X1766720Y1175960D01*
X1768260Y1175660D01*
X1769540Y1174800D01*
X1770420Y1173500D01*
X1770720Y1171960D01*
X1770720Y1141500D01*
X1770420Y1139960D01*
X1769540Y1138660D01*
X1768260Y1137800D01*
X1766720Y1137500D01*
X1746160Y1137500D01*
X1746160Y1117640D01*
X1748340Y1118700D01*
X1753040Y1121740D01*
X1757300Y1125360D01*
X1761060Y1129520D01*
X1763440Y1132920D01*
X1764660Y1134060D01*
X1766260Y1134600D01*
X1767920Y1134460D01*
X1769379Y1133620D01*
X1770360Y1132280D01*
X1770720Y1130640D01*
X1770720Y1082840D01*
X1770360Y1081160D01*
X1769319Y1079800D01*
X1767800Y1079000D01*
X1766080Y1078900D01*
X1764480Y1079520D01*
X1763300Y1080780D01*
X1762740Y1081700D01*
X1759240Y1086080D01*
X1755220Y1089980D01*
X1750740Y1093320D01*
X1745860Y1096060D01*
X1740680Y1098160D01*
X1735280Y1099580D01*
X1729720Y1100300D01*
X1724120Y1100300D01*
X1718580Y1099580D01*
X1713180Y1098160D01*
X1707980Y1096060D01*
X1703120Y1093320D01*
X1698620Y1089980D01*
X1694600Y1086080D01*
X1692340Y1083240D01*
X1691120Y1082200D01*
X1689580Y1081740D01*
X1687320Y1081540D01*
X1683400Y1080560D01*
X1680360Y1079300D01*
X1679580Y1078900D01*
X1676080Y1076640D01*
X1673600Y1074440D01*
X1651260Y1052100D01*
X1649060Y1049620D01*
X1646800Y1046120D01*
X1646399Y1045340D01*
X1645140Y1042300D01*
X1644880Y1041460D01*
X1644000Y1037400D01*
X1643800Y1034080D01*
X1643800Y888780D01*
X1643500Y887280D01*
X1642680Y886000D01*
X1641440Y885140D01*
X1639960Y884780D01*
X1638440Y885020D01*
X1637140Y885800D01*
X1634319Y888300D01*
X1630480Y890800D01*
X1626300Y892660D01*
X1621900Y893880D01*
X1617360Y894400D01*
X1612780Y894220D01*
X1608300Y893360D01*
X1603980Y891800D01*
X1599980Y889620D01*
X1596339Y886860D01*
X1593160Y883560D01*
X1590540Y879820D01*
X1588500Y875720D01*
X1587120Y871360D01*
X1586420Y866840D01*
X1586420Y863240D01*
X1586120Y861700D01*
X1585260Y860400D01*
X1553020Y828180D01*
X1551740Y827320D01*
X1550200Y827020D01*
X1548680Y827320D01*
X1547380Y828180D01*
X1546500Y829479D01*
X1546200Y831020D01*
X1546200Y842920D01*
X1546140Y844580D01*
X1545880Y846520D01*
X1545560Y848060D01*
X1544980Y849920D01*
X1544379Y851380D01*
X1543480Y853120D01*
X1542640Y854440D01*
X1541459Y856000D01*
X1532440Y865260D01*
X1531660Y866400D01*
X1531300Y867760D01*
X1530940Y872600D01*
X1529900Y877060D01*
X1528180Y881300D01*
X1525840Y885220D01*
X1522940Y888760D01*
X1519520Y891800D01*
X1515680Y894280D01*
X1511500Y896160D01*
X1507100Y897360D01*
X1502560Y897900D01*
X1497980Y897720D01*
X1493500Y896840D01*
X1489180Y895300D01*
X1485180Y893120D01*
X1481540Y890340D01*
X1478360Y887039D01*
X1475740Y883300D01*
X1473700Y879200D01*
X1472320Y874840D01*
X1471620Y870320D01*
X1471620Y865759D01*
X1472320Y861240D01*
X1473700Y856880D01*
X1475740Y852780D01*
X1478360Y849040D01*
X1481540Y845740D01*
X1485180Y842960D01*
X1489180Y840780D01*
X1493500Y839240D01*
X1497980Y838360D01*
X1500800Y838259D01*
X1502260Y837920D01*
X1503500Y837060D01*
X1504660Y835900D01*
X1505500Y834599D01*
X1505800Y833100D01*
X1505800Y787020D01*
X1505500Y785500D01*
X1504620Y784200D01*
X1503340Y782920D01*
X1502000Y782020D01*
X1500400Y781740D01*
X1498839Y782099D01*
X1497540Y783060D01*
X1496720Y784440D01*
X1496519Y786040D01*
X1496879Y790740D01*
X1496540Y795300D01*
X1495500Y799760D01*
X1493779Y804000D01*
X1491440Y807920D01*
X1488540Y811460D01*
X1485120Y814500D01*
X1481279Y816979D01*
X1477100Y818860D01*
X1472700Y820060D01*
X1468160Y820600D01*
X1463580Y820420D01*
X1459100Y819539D01*
X1454780Y818000D01*
X1450780Y815819D01*
X1447140Y813040D01*
X1443959Y809740D01*
X1440180Y804280D01*
X1438920Y803520D01*
X1437480Y803240D01*
X1221420Y803240D01*
X1219880Y803540D01*
X1218600Y804419D01*
X1144580Y878420D01*
X1143720Y879720D01*
X1143400Y881240D01*
X1143420Y1137560D01*
X1143060Y1141280D01*
X1142100Y1144680D01*
X1141560Y1145740D01*
X1141160Y1147300D01*
X1141400Y1148900D01*
X1142240Y1150280D01*
X1143560Y1151200D01*
X1145140Y1151520D01*
X1147000Y1151520D01*
X1149480Y1151800D01*
X1151160Y1152160D01*
X1152840Y1151800D01*
X1155540Y1151520D01*
X1155540Y1154820D01*
X1155700Y1155920D01*
X1156400Y1157320D01*
X1157220Y1159700D01*
X1158080Y1161100D01*
X1159400Y1162060D01*
X1161000Y1162380D01*
X1162600Y1162060D01*
X1163940Y1161100D01*
X1164780Y1159700D01*
X1165620Y1157320D01*
X1166300Y1155940D01*
X1166460Y1154840D01*
X1166460Y1151520D01*
X1169160Y1151800D01*
X1170840Y1152160D01*
X1172520Y1151800D01*
X1175000Y1151520D01*
X1176780Y1151520D01*
X1178320Y1151220D01*
X1179600Y1150360D01*
X1180480Y1149060D01*
X1180780Y1147520D01*
X1180480Y1146000D01*
X1179600Y1144700D01*
X1170060Y1135160D01*
X1167620Y1132220D01*
X1165920Y1129120D01*
X1164800Y1125760D01*
X1164660Y1125060D01*
X1164300Y1121220D01*
X1164320Y1037260D01*
X1164820Y1033600D01*
X1165960Y1030260D01*
X1167680Y1027159D01*
X1170060Y1024300D01*
X1280460Y913900D01*
X1283400Y911700D01*
X1286579Y910120D01*
X1289980Y909140D01*
X1293680Y908800D01*
X1512240Y908820D01*
X1515900Y909320D01*
X1519240Y910460D01*
X1522340Y912180D01*
X1525200Y914560D01*
X1608500Y997860D01*
X1610700Y1000800D01*
X1612280Y1003980D01*
X1613260Y1007380D01*
X1613600Y1011080D01*
X1613580Y1204140D01*
X1613100Y1207660D01*
X1611980Y1211020D01*
X1610260Y1214120D01*
X1608520Y1216300D01*
X1591980Y1232800D01*
X1591100Y1234100D01*
X1590800Y1235640D01*
X1590780Y1325840D01*
X1590280Y1329500D01*
X1589139Y1332840D01*
X1587420Y1335940D01*
X1585040Y1338800D01*
X1533980Y1389860D01*
X1533060Y1391300D01*
X1532820Y1393000D01*
X1532880Y1393740D01*
X1532540Y1398300D01*
X1531500Y1402760D01*
X1529780Y1407000D01*
X1527440Y1410920D01*
X1524540Y1414460D01*
X1521120Y1417500D01*
X1517280Y1419980D01*
X1513100Y1421860D01*
X1508700Y1423060D01*
X1504160Y1423600D01*
X1499580Y1423420D01*
X1495100Y1422540D01*
X1490780Y1421000D01*
X1486780Y1418820D01*
X1483140Y1416040D01*
X1479960Y1412740D01*
X1477340Y1409000D01*
X1475300Y1404900D01*
X1473920Y1400540D01*
X1473220Y1396020D01*
X1473220Y1391459D01*
X1473920Y1386940D01*
X1475300Y1382580D01*
X1477340Y1378480D01*
X1479960Y1374740D01*
X1483140Y1371440D01*
X1486780Y1368660D01*
X1490780Y1366480D01*
X1495100Y1364940D01*
X1499580Y1364060D01*
X1504160Y1363880D01*
X1505600Y1363560D01*
X1506819Y1362720D01*
X1551220Y1318320D01*
X1552100Y1317020D01*
X1552400Y1315500D01*
X1552420Y1225160D01*
X1552900Y1221640D01*
X1554019Y1218280D01*
X1555740Y1215180D01*
X1557480Y1213000D01*
X1574019Y1196500D01*
X1574900Y1195200D01*
X1575200Y1193660D01*
X1575200Y1075460D01*
X1574880Y1073900D01*
X1574000Y1072600D01*
X1572660Y1071740D01*
X1571100Y1071460D01*
X1569560Y1071800D01*
X1566100Y1073360D01*
X1561699Y1074560D01*
X1557160Y1075100D01*
X1552760Y1074920D01*
X1551180Y1075180D01*
X1549840Y1076020D01*
X1548940Y1077320D01*
X1548600Y1078860D01*
X1548880Y1080420D01*
X1549280Y1081360D01*
X1550320Y1085820D01*
X1550660Y1090380D01*
X1550320Y1094940D01*
X1549280Y1099400D01*
X1547560Y1103640D01*
X1545220Y1107560D01*
X1542320Y1111100D01*
X1538899Y1114140D01*
X1535060Y1116620D01*
X1530880Y1118500D01*
X1526480Y1119700D01*
X1521940Y1120240D01*
X1517360Y1120060D01*
X1512880Y1119180D01*
X1508560Y1117640D01*
X1504560Y1115460D01*
X1500920Y1112680D01*
X1497740Y1109380D01*
X1495120Y1105640D01*
X1493080Y1101540D01*
X1491699Y1097180D01*
X1491000Y1092660D01*
X1491000Y1088100D01*
X1491699Y1083580D01*
X1493080Y1079220D01*
X1493839Y1077680D01*
X1494259Y1076080D01*
X1493980Y1074460D01*
X1493080Y1073080D01*
X1459220Y1039220D01*
X1457840Y1038300D01*
X1456200Y1038040D01*
X1455680Y1038180D01*
X1455800Y1037660D01*
X1455540Y1036020D01*
X1454640Y1034640D01*
X1443140Y1023120D01*
X1441840Y1022260D01*
X1440300Y1021960D01*
X1379920Y1021960D01*
X1378400Y1022260D01*
X1377100Y1023120D01*
X1367780Y1032440D01*
X1366920Y1033740D01*
X1366600Y1035260D01*
X1366920Y1036800D01*
X1367780Y1038100D01*
X1369079Y1038960D01*
X1370600Y1039260D01*
X1382840Y1039260D01*
X1382840Y1062720D01*
X1355460Y1062720D01*
X1355460Y1054420D01*
X1355140Y1052900D01*
X1354280Y1051600D01*
X1352980Y1050720D01*
X1351459Y1050420D01*
X1349920Y1050720D01*
X1348620Y1051600D01*
X1303680Y1096540D01*
X1302820Y1097840D01*
X1302520Y1099360D01*
X1302520Y1138160D01*
X1302160Y1141880D01*
X1300880Y1146380D01*
X1300740Y1148120D01*
X1301360Y1149740D01*
X1302620Y1150940D01*
X1304259Y1151500D01*
X1306960Y1151800D01*
X1308640Y1152160D01*
X1310320Y1151800D01*
X1312800Y1151520D01*
X1324160Y1151520D01*
X1326639Y1151800D01*
X1328320Y1152160D01*
X1330000Y1151800D01*
X1332480Y1151520D01*
X1343860Y1151520D01*
X1346339Y1151800D01*
X1348500Y1152560D01*
X1350420Y1153780D01*
X1352040Y1155380D01*
X1353240Y1157320D01*
X1354000Y1159460D01*
X1354280Y1161960D01*
X1354280Y1212680D01*
X1354000Y1215180D01*
X1353240Y1217320D01*
X1352040Y1219260D01*
X1350420Y1220860D01*
X1348500Y1222080D01*
X1346339Y1222840D01*
X1343860Y1223120D01*
X1332480Y1223120D01*
X1330000Y1222840D01*
X1328320Y1222480D01*
X1326240Y1222980D01*
X1324860Y1223800D01*
X1323920Y1225100D01*
X1323560Y1226660D01*
X1323860Y1228240D01*
X1324740Y1229580D01*
X1325240Y1230080D01*
X1326540Y1230940D01*
X1328060Y1231260D01*
X1395680Y1231260D01*
X1397220Y1230940D01*
X1398520Y1230080D01*
X1474940Y1153680D01*
X1477880Y1151480D01*
X1481040Y1149900D01*
X1484480Y1148920D01*
X1487140Y1148600D01*
X1491399Y1148580D01*
X1492960Y1148260D01*
X1494259Y1147360D01*
X1496060Y1145480D01*
X1499700Y1142700D01*
X1503720Y1140520D01*
X1508020Y1138980D01*
X1512520Y1138100D01*
X1517080Y1137920D01*
X1521620Y1138460D01*
X1526040Y1139660D01*
X1530220Y1141540D01*
X1534040Y1144020D01*
X1537460Y1147060D01*
X1540380Y1150600D01*
X1542720Y1154520D01*
X1544420Y1158760D01*
X1545460Y1163220D01*
X1545820Y1167780D01*
X1545460Y1172340D01*
X1544420Y1176800D01*
X1542720Y1181040D01*
X1540380Y1184960D01*
X1537460Y1188500D01*
X1534040Y1191540D01*
X1530220Y1194020D01*
X1526040Y1195900D01*
X1523120Y1196700D01*
X1521759Y1197380D01*
X1520740Y1198500D01*
X1520240Y1199940D01*
X1520280Y1201460D01*
X1520920Y1202860D01*
X1522020Y1203900D01*
X1523820Y1205080D01*
X1527240Y1208120D01*
X1530140Y1211660D01*
X1532480Y1215580D01*
X1534199Y1219820D01*
X1535240Y1224280D01*
X1535580Y1228840D01*
X1535240Y1233400D01*
X1534199Y1237860D01*
X1532480Y1242100D01*
X1530140Y1246020D01*
X1527240Y1249560D01*
X1523820Y1252600D01*
X1519980Y1255080D01*
X1515800Y1256960D01*
X1511399Y1258160D01*
X1506860Y1258700D01*
X1502280Y1258520D01*
X1497800Y1257640D01*
X1493480Y1256100D01*
X1489480Y1253920D01*
X1487260Y1252240D01*
X1486000Y1251580D01*
X1484580Y1251420D01*
X1483180Y1251780D01*
X1482020Y1252580D01*
X1425340Y1309220D01*
X1422400Y1311440D01*
X1419240Y1313020D01*
X1415840Y1314000D01*
X1412120Y1314340D01*
X1279960Y1314319D01*
X1276320Y1313800D01*
X1272960Y1312680D01*
X1269880Y1310960D01*
X1267000Y1308580D01*
X1255220Y1296800D01*
X1253920Y1295920D01*
X1252400Y1295620D01*
X1250880Y1295920D01*
X1249580Y1296780D01*
X1248700Y1298060D01*
X1248380Y1299580D01*
X1246820Y1464160D01*
X1246740Y1465780D01*
X1246460Y1467760D01*
X1246120Y1469240D01*
X1245520Y1471140D01*
X1244920Y1472560D01*
X1244000Y1474319D01*
X1243160Y1475600D01*
X1241940Y1477180D01*
X1240840Y1478380D01*
X1212160Y1507060D01*
X1210780Y1508320D01*
X1209400Y1509379D01*
X1207900Y1510340D01*
X1206340Y1511140D01*
X1204720Y1511819D01*
X1203040Y1512340D01*
X1201320Y1512720D01*
X1199560Y1512960D01*
X1197720Y1513040D01*
X640180Y1513040D01*
X638320Y1512960D01*
X636580Y1512720D01*
X634860Y1512340D01*
X633180Y1511819D01*
X631560Y1511140D01*
X630000Y1510340D01*
X628500Y1509379D01*
X627100Y1508320D01*
X625740Y1507060D01*
X395300Y1276620D01*
X394080Y1275780D01*
X392640Y1275460D01*
X389480Y1275340D01*
X385000Y1274460D01*
X380680Y1272920D01*
X376680Y1270740D01*
X373040Y1267960D01*
X369860Y1264660D01*
X367239Y1260920D01*
X365200Y1256820D01*
X363820Y1252460D01*
X363120Y1247940D01*
X363120Y1243380D01*
X363820Y1238860D01*
X365200Y1234500D01*
X367239Y1230400D01*
X370040Y1226460D01*
X370940Y1225000D01*
X371160Y1223320D01*
X370640Y1221700D01*
X369500Y1220440D01*
X367939Y1219760D01*
X365240Y1219240D01*
X363600Y1218720D01*
X361980Y1218040D01*
X360420Y1217240D01*
X358920Y1216280D01*
X357520Y1215220D01*
X356160Y1213960D01*
X280180Y1137980D01*
X278940Y1136620D01*
X277860Y1135220D01*
X276920Y1133740D01*
X276100Y1132180D01*
X275440Y1130540D01*
X274900Y1128860D01*
X274520Y1127140D01*
X274280Y1125400D01*
X274200Y1123560D01*
X274200Y999680D01*
X273900Y998160D01*
X273040Y996860D01*
X271740Y996000D01*
X270200Y995680D01*
X185219Y995680D01*
X180859Y995340D01*
X168260Y995340D01*
X165760Y995060D01*
X163619Y994300D01*
X161680Y993100D01*
X160080Y991480D01*
X158860Y989560D01*
X158120Y987400D01*
X157840Y984920D01*
X157840Y967720D01*
X157720Y966800D01*
X157140Y964360D01*
X156840Y960240D01*
X157240Y956140D01*
X157700Y954380D01*
X157840Y953360D01*
X157840Y936160D01*
X158120Y933660D01*
X158860Y931520D01*
X160080Y929580D01*
X161680Y927980D01*
X163619Y926760D01*
X165760Y926000D01*
X168260Y925720D01*
X195360Y925720D01*
X197860Y926000D01*
X200000Y926760D01*
X201940Y927980D01*
X203540Y929580D01*
X204760Y931520D01*
X205520Y933660D01*
X205799Y936160D01*
X205799Y941280D01*
X206100Y942820D01*
X206960Y944120D01*
X208260Y944980D01*
X209800Y945280D01*
X253619Y945280D01*
X255040Y945020D01*
X256280Y944280D01*
X257180Y943120D01*
X257600Y941740D01*
X257780Y940180D01*
X258520Y938040D01*
X259740Y936100D01*
X261340Y934500D01*
X262100Y934020D01*
X263260Y932920D01*
X263880Y931440D01*
X263880Y929840D01*
X263260Y928360D01*
X262100Y927260D01*
X261340Y926780D01*
X259740Y925180D01*
X258520Y923240D01*
X257780Y921100D01*
X257500Y918600D01*
X257500Y913460D01*
X274060Y913460D01*
X274060Y928259D01*
X274360Y929780D01*
X275220Y931080D01*
X276520Y931940D01*
X278060Y932260D01*
X292760Y932260D01*
X294300Y931940D01*
X295600Y931080D01*
X296460Y929780D01*
X296760Y928259D01*
X296760Y913460D01*
X307320Y913460D01*
X308840Y913160D01*
X310140Y912280D01*
X311000Y910980D01*
X311320Y909460D01*
X311320Y896720D01*
X311000Y895180D01*
X310140Y893880D01*
X308840Y893020D01*
X307320Y892720D01*
X296760Y892720D01*
X296760Y877140D01*
X302900Y877140D01*
X305380Y877420D01*
X307540Y878160D01*
X309320Y879300D01*
X310700Y879840D01*
X312180Y879840D01*
X313580Y879300D01*
X314660Y878300D01*
X316060Y876420D01*
X317280Y875080D01*
X339820Y852540D01*
X341560Y850060D01*
X343960Y847480D01*
X346920Y845280D01*
X347780Y844400D01*
X348320Y843300D01*
X348519Y842080D01*
X348519Y829560D01*
X348800Y827080D01*
X349540Y824920D01*
X350760Y823000D01*
X352380Y821380D01*
X354300Y820180D01*
X356920Y819260D01*
X358320Y818420D01*
X359280Y817099D01*
X359600Y815480D01*
X359600Y803920D01*
X359680Y802080D01*
X359920Y800340D01*
X360300Y798620D01*
X360840Y796940D01*
X361500Y795300D01*
X362320Y793740D01*
X363260Y792260D01*
X364340Y790860D01*
X365580Y789500D01*
X401820Y753259D01*
X402740Y751860D01*
X403000Y750220D01*
X402560Y748620D01*
X401520Y747320D01*
X400040Y746560D01*
X398380Y746480D01*
X396820Y747060D01*
X394000Y748900D01*
X389820Y750780D01*
X385400Y751979D01*
X383500Y752200D01*
X382220Y752580D01*
X381120Y753360D01*
X360720Y773760D01*
X357720Y776300D01*
X354500Y778220D01*
X351019Y779580D01*
X347299Y780360D01*
X344420Y780540D01*
X318320Y780540D01*
X316780Y780840D01*
X315480Y781700D01*
X314380Y782800D01*
X312460Y784020D01*
X310300Y784780D01*
X307820Y785060D01*
X276520Y785060D01*
X274020Y784780D01*
X271880Y784020D01*
X269940Y782800D01*
X268340Y781200D01*
X267120Y779260D01*
X266280Y776880D01*
X265440Y775480D01*
X264100Y774520D01*
X262500Y774200D01*
X260900Y774520D01*
X259579Y775480D01*
X258740Y776880D01*
X257900Y779260D01*
X256680Y781200D01*
X255080Y782800D01*
X253780Y783620D01*
X252780Y784500D01*
X252140Y785680D01*
X251920Y787000D01*
X251920Y806660D01*
X251580Y810560D01*
X250660Y814200D01*
X249160Y817640D01*
X247100Y820800D01*
X245180Y822980D01*
X243080Y825060D01*
X242220Y826360D01*
X241920Y827900D01*
X241920Y831720D01*
X242140Y833040D01*
X242920Y835260D01*
X243200Y837760D01*
X243200Y886520D01*
X242920Y889000D01*
X242160Y891160D01*
X240940Y893080D01*
X239340Y894700D01*
X237399Y895900D01*
X235260Y896660D01*
X232760Y896940D01*
X205660Y896940D01*
X203160Y896660D01*
X201020Y895900D01*
X199080Y894700D01*
X197480Y893080D01*
X196260Y891160D01*
X195520Y889000D01*
X195240Y886520D01*
X195240Y837760D01*
X195520Y835260D01*
X196280Y833060D01*
X196520Y831740D01*
X196520Y817000D01*
X196840Y813100D01*
X197760Y809460D01*
X199259Y806040D01*
X201340Y802860D01*
X203240Y800699D01*
X205340Y798600D01*
X206200Y797300D01*
X206520Y795780D01*
X206520Y730400D01*
X206200Y728860D01*
X205340Y727560D01*
X200479Y722700D01*
X199180Y721840D01*
X197659Y721540D01*
X178340Y721540D01*
X177240Y721680D01*
X176240Y722120D01*
X173860Y722960D01*
X172460Y723800D01*
X171500Y725140D01*
X171180Y726740D01*
X171500Y728340D01*
X172460Y729680D01*
X173860Y730520D01*
X176240Y731360D01*
X178180Y732560D01*
X179780Y734180D01*
X181000Y736100D01*
X181740Y738259D01*
X182020Y740740D01*
X182020Y772039D01*
X181740Y774539D01*
X181000Y776680D01*
X180159Y778300D01*
X180000Y779400D01*
X180000Y851600D01*
X179800Y854920D01*
X179680Y855800D01*
X178939Y859000D01*
X177399Y862880D01*
X175320Y866360D01*
X174100Y867840D01*
X173280Y869500D01*
X172960Y870939D01*
X171320Y875100D01*
X168939Y879220D01*
X168540Y880180D01*
X168400Y881220D01*
X168400Y886520D01*
X168120Y889000D01*
X167360Y891160D01*
X166140Y893080D01*
X164540Y894700D01*
X162600Y895900D01*
X160460Y896660D01*
X157960Y896940D01*
X130860Y896940D01*
X128360Y896660D01*
X126220Y895900D01*
X124280Y894700D01*
X122680Y893080D01*
X121460Y891160D01*
X120719Y889000D01*
X120440Y886520D01*
X120440Y881240D01*
X120300Y880200D01*
X119900Y879240D01*
X117500Y875100D01*
X115860Y870939D01*
X114880Y866580D01*
X114520Y861979D01*
X114520Y855300D01*
X114880Y850699D01*
X115860Y846360D01*
X117480Y842220D01*
X120079Y837840D01*
X120600Y836260D01*
X120719Y835260D01*
X121460Y833120D01*
X122680Y831180D01*
X124280Y829580D01*
X126220Y828360D01*
X126940Y828120D01*
X128320Y827260D01*
X129280Y825939D01*
X129600Y824340D01*
X129600Y785500D01*
X129300Y783960D01*
X128440Y782680D01*
X127140Y781800D01*
X125600Y781500D01*
X122720Y781500D01*
X119400Y781300D01*
X115340Y780420D01*
X114500Y780160D01*
X111460Y778900D01*
X110680Y778500D01*
X107180Y776240D01*
X104700Y774040D01*
X44160Y713500D01*
X41960Y711020D01*
X39700Y707520D01*
X39300Y706740D01*
X38040Y703700D01*
X37780Y702860D01*
X36900Y698800D01*
X36700Y695480D01*
X36700Y238220D01*
X36900Y234899D01*
X37780Y230840D01*
X38040Y230000D01*
X39300Y226960D01*
X39700Y226180D01*
X41960Y222680D01*
X44160Y220200D01*
X102100Y162260D01*
X104580Y160060D01*
X108080Y157800D01*
X108859Y157400D01*
X111900Y156140D01*
X112739Y155880D01*
X116800Y155000D01*
X120120Y154800D01*
X311500Y154800D01*
X313040Y154500D01*
X314340Y153620D01*
X436300Y31660D01*
X438780Y29460D01*
X442280Y27200D01*
X443060Y26800D01*
X446100Y25540D01*
X446940Y25280D01*
X451000Y24400D01*
G37*
G36*
X89520Y58300D02*
G01*
X102540Y58300D01*
X102540Y81760D01*
X79100Y81760D01*
X79100Y68720D01*
X79380Y66240D01*
X80120Y64100D01*
X81340Y62160D01*
X82960Y60560D01*
X84880Y59340D01*
X87040Y58580D01*
G37*
G36*
X139040Y58300D02*
G01*
X152060Y58300D01*
X154540Y58580D01*
X156700Y59340D01*
X158620Y60560D01*
X160240Y62160D01*
X161460Y64100D01*
X162200Y66240D01*
X162480Y68720D01*
X162480Y81760D01*
X139040Y81760D01*
G37*
G36*
X207360Y60700D02*
G01*
X231080Y60700D01*
X233260Y60920D01*
X235159Y61500D01*
X236920Y62440D01*
X238619Y63820D01*
X255380Y80600D01*
X256780Y82300D01*
X257719Y84060D01*
X258299Y85960D01*
X258520Y88140D01*
X258520Y111860D01*
X258299Y114040D01*
X257719Y115940D01*
X256780Y117700D01*
X255380Y119400D01*
X238619Y136180D01*
X236920Y137560D01*
X235159Y138500D01*
X233260Y139080D01*
X231080Y139300D01*
X207360Y139300D01*
X205180Y139080D01*
X203260Y138500D01*
X201500Y137560D01*
X199800Y136180D01*
X183039Y119400D01*
X181640Y117700D01*
X180700Y115940D01*
X180120Y114040D01*
X179920Y111860D01*
X179920Y88140D01*
X180120Y85960D01*
X180700Y84060D01*
X181640Y82300D01*
X183039Y80600D01*
X199800Y63820D01*
X201500Y62440D01*
X203260Y61500D01*
X205180Y60920D01*
G37*
G36*
X139040Y118240D02*
G01*
X162480Y118240D01*
X162480Y131280D01*
X162200Y133760D01*
X161460Y135900D01*
X160240Y137840D01*
X158620Y139440D01*
X156700Y140660D01*
X154540Y141420D01*
X152060Y141700D01*
X139040Y141700D01*
G37*
G36*
X79100Y118240D02*
G01*
X102540Y118240D01*
X102540Y141700D01*
X89520Y141700D01*
X87040Y141420D01*
X84880Y140660D01*
X82960Y139440D01*
X81340Y137840D01*
X80120Y135900D01*
X79380Y133760D01*
X79100Y131280D01*
G37*
G36*
X1559460Y478140D02*
G01*
X1565600Y478140D01*
X1568080Y478420D01*
X1570240Y479180D01*
X1572160Y480379D01*
X1573779Y482000D01*
X1574980Y483920D01*
X1575740Y486079D01*
X1576020Y488560D01*
X1576020Y493720D01*
X1559460Y493720D01*
G37*
G36*
X1530620Y478140D02*
G01*
X1536740Y478140D01*
X1536740Y493720D01*
X1520180Y493720D01*
X1520180Y488560D01*
X1520460Y486079D01*
X1521220Y483920D01*
X1522440Y482000D01*
X1524040Y480379D01*
X1525980Y479180D01*
X1528120Y478420D01*
G37*
G36*
X1602800Y487740D02*
G01*
X1617660Y487740D01*
X1617660Y491860D01*
X1617920Y493260D01*
X1618660Y494500D01*
X1619780Y495379D01*
X1621140Y495820D01*
X1622560Y495740D01*
X1625440Y495080D01*
X1630000Y494720D01*
X1634560Y495080D01*
X1637440Y495740D01*
X1638860Y495820D01*
X1640220Y495379D01*
X1641339Y494500D01*
X1642080Y493260D01*
X1642340Y491860D01*
X1642340Y487740D01*
X1657200Y487740D01*
X1655080Y491640D01*
X1652300Y495280D01*
X1650440Y497060D01*
X1649540Y498360D01*
X1649220Y499900D01*
X1649500Y501460D01*
X1650380Y502760D01*
X1651120Y503519D01*
X1652420Y504380D01*
X1653959Y504700D01*
X1681420Y504700D01*
X1682780Y504460D01*
X1683980Y503760D01*
X1686200Y501900D01*
X1689199Y500180D01*
X1692460Y498980D01*
X1695880Y498380D01*
X1698980Y498380D01*
X1702440Y498920D01*
X1705720Y500040D01*
X1708899Y501820D01*
X1723040Y511340D01*
X1724820Y512680D01*
X1725800Y513560D01*
X1727260Y515140D01*
X1728080Y516160D01*
X1729259Y517980D01*
X1729860Y519140D01*
X1730720Y521120D01*
X1731120Y522380D01*
X1731600Y524480D01*
X1731780Y525780D01*
X1731900Y528000D01*
X1731900Y643220D01*
X1731819Y645040D01*
X1731600Y646760D01*
X1731220Y648460D01*
X1730700Y650100D01*
X1730040Y651720D01*
X1729240Y653259D01*
X1728300Y654720D01*
X1727240Y656100D01*
X1724340Y659120D01*
X1723460Y660420D01*
X1723160Y661940D01*
X1723160Y680480D01*
X1722880Y682980D01*
X1722140Y685120D01*
X1720920Y687060D01*
X1719300Y688660D01*
X1717380Y689880D01*
X1715220Y690620D01*
X1712740Y690900D01*
X1663980Y690900D01*
X1661480Y690620D01*
X1659340Y689880D01*
X1657400Y688660D01*
X1655800Y687060D01*
X1654580Y685120D01*
X1653839Y682980D01*
X1653560Y680480D01*
X1653560Y653379D01*
X1653839Y650879D01*
X1654580Y648740D01*
X1655800Y646800D01*
X1657400Y645200D01*
X1659340Y643980D01*
X1661480Y643220D01*
X1663980Y642940D01*
X1682540Y642940D01*
X1684079Y642640D01*
X1685380Y641780D01*
X1690920Y636220D01*
X1691800Y634920D01*
X1692100Y633400D01*
X1692100Y548500D01*
X1691800Y546980D01*
X1690920Y545680D01*
X1689620Y544800D01*
X1688100Y544500D01*
X1653880Y544500D01*
X1652380Y544800D01*
X1651120Y545620D01*
X1649000Y547640D01*
X1645260Y550280D01*
X1641160Y552300D01*
X1636800Y553680D01*
X1632280Y554380D01*
X1627720Y554380D01*
X1623200Y553680D01*
X1618839Y552300D01*
X1614740Y550280D01*
X1611000Y547640D01*
X1607700Y544480D01*
X1604920Y540840D01*
X1602740Y536820D01*
X1601200Y532520D01*
X1600320Y528020D01*
X1600140Y523459D01*
X1600680Y518920D01*
X1601879Y514500D01*
X1603760Y510319D01*
X1606240Y506500D01*
X1609340Y503040D01*
X1610380Y501719D01*
X1610780Y500100D01*
X1610500Y498459D01*
X1609560Y497060D01*
X1607700Y495280D01*
X1604920Y491640D01*
G37*
G36*
X267920Y877140D02*
G01*
X274060Y877140D01*
X274060Y892720D01*
X257500Y892720D01*
X257500Y887560D01*
X257780Y885080D01*
X258520Y882920D01*
X259740Y881000D01*
X261340Y879380D01*
X263280Y878160D01*
X265420Y877420D01*
G37*
G36*
X1427200Y1039260D02*
G01*
X1444160Y1039260D01*
X1446660Y1039539D01*
X1448800Y1040300D01*
X1449680Y1040860D01*
X1451240Y1041420D01*
X1452520Y1041340D01*
X1452440Y1042620D01*
X1453000Y1044160D01*
X1453560Y1045040D01*
X1454300Y1047200D01*
X1454600Y1049680D01*
X1454600Y1062720D01*
X1427200Y1062720D01*
G37*
G36*
X1355460Y1099200D02*
G01*
X1382840Y1099200D01*
X1382840Y1122660D01*
X1365880Y1122660D01*
X1363380Y1122380D01*
X1361240Y1121620D01*
X1359300Y1120420D01*
X1357700Y1118800D01*
X1356480Y1116880D01*
X1355740Y1114720D01*
X1355460Y1112240D01*
G37*
G36*
X1427200Y1099200D02*
G01*
X1454600Y1099200D01*
X1454600Y1112240D01*
X1454300Y1114720D01*
X1453560Y1116880D01*
X1452340Y1118800D01*
X1450740Y1120420D01*
X1448800Y1121620D01*
X1446660Y1122380D01*
X1444160Y1122660D01*
X1427200Y1122660D01*
G37*
G36*
X1707700Y1117640D02*
G01*
X1707700Y1137500D01*
X1687820Y1137500D01*
X1689600Y1134100D01*
X1692800Y1129520D01*
X1696560Y1125360D01*
X1700820Y1121740D01*
X1705500Y1118700D01*
G37*
G36*
X1687800Y1175960D02*
G01*
X1707700Y1175960D01*
X1707700Y1195900D01*
X1703120Y1193320D01*
X1698620Y1189980D01*
X1694600Y1186080D01*
X1691120Y1181700D01*
X1688220Y1176920D01*
G37*
G36*
X117500Y1314940D02*
G01*
X122500Y1314940D01*
X127440Y1315640D01*
X132240Y1317000D01*
X136800Y1319040D01*
X141040Y1321680D01*
X144860Y1324900D01*
X148200Y1328600D01*
X150980Y1332740D01*
X153180Y1337220D01*
X154720Y1341980D01*
X155580Y1346879D01*
X155760Y1351879D01*
X155240Y1356840D01*
X154020Y1361680D01*
X152160Y1366320D01*
X149660Y1370640D01*
X146600Y1374580D01*
X143000Y1378040D01*
X138960Y1380980D01*
X134560Y1383320D01*
X129860Y1385020D01*
X124840Y1386080D01*
X120000Y1386420D01*
X115020Y1386060D01*
X110140Y1385020D01*
X105440Y1383320D01*
X101039Y1380980D01*
X97000Y1378040D01*
X93400Y1374580D01*
X90340Y1370640D01*
X87840Y1366320D01*
X85980Y1361680D01*
X84760Y1356840D01*
X84240Y1351879D01*
X84420Y1346879D01*
X85280Y1341980D01*
X86820Y1337220D01*
X89019Y1332740D01*
X91800Y1328600D01*
X95140Y1324900D01*
X98960Y1321680D01*
X103200Y1319040D01*
X107760Y1317000D01*
X112560Y1315640D01*
G37*
G36*
X135300Y1397100D02*
G01*
X136800Y1397780D01*
X141040Y1400420D01*
X144860Y1403640D01*
X148200Y1407340D01*
X150980Y1411480D01*
X152260Y1414079D01*
X135300Y1414079D01*
G37*
G36*
X104700Y1397100D02*
G01*
X104700Y1414079D01*
X87739Y1414079D01*
X89019Y1411480D01*
X91800Y1407340D01*
X95140Y1403640D01*
X98960Y1400420D01*
X103200Y1397780D01*
G37*
G36*
X87680Y1444660D02*
G01*
X104700Y1444660D01*
X104700Y1461660D01*
X101039Y1459720D01*
X97000Y1456780D01*
X93400Y1453320D01*
X90340Y1449379D01*
X87840Y1445060D01*
G37*
G36*
X135300Y1444660D02*
G01*
X152320Y1444660D01*
X152160Y1445060D01*
X149660Y1449379D01*
X146600Y1453320D01*
X143000Y1456780D01*
X138960Y1459720D01*
X135300Y1461660D01*
G37*

%LPD*%
G36*
X674820Y607940D02*
G01*
X673280Y608240D01*
X671979Y609120D01*
X671120Y610400D01*
X670819Y611940D01*
X670819Y629000D01*
X652280Y629000D01*
X652300Y614900D01*
X652140Y613260D01*
X651360Y611840D01*
X650060Y610840D01*
X648480Y610460D01*
X646860Y610720D01*
X645500Y611620D01*
X639480Y617640D01*
X638620Y618940D01*
X638300Y620460D01*
X638300Y692260D01*
X638220Y694100D01*
X638000Y695840D01*
X637620Y697560D01*
X637080Y699240D01*
X636420Y700879D01*
X635600Y702440D01*
X634660Y703920D01*
X633580Y705320D01*
X632340Y706680D01*
X604060Y734960D01*
X602700Y736220D01*
X601300Y737280D01*
X599800Y738240D01*
X598240Y739040D01*
X596620Y739720D01*
X594940Y740240D01*
X593220Y740620D01*
X591460Y740860D01*
X589620Y740939D01*
X472939Y740939D01*
X471400Y741240D01*
X470100Y742120D01*
X401180Y811040D01*
X400319Y812340D01*
X400000Y813860D01*
X400000Y815500D01*
X400340Y817099D01*
X401280Y818420D01*
X402680Y819280D01*
X405260Y820160D01*
X407180Y821380D01*
X408800Y823000D01*
X410020Y824920D01*
X410760Y827080D01*
X411040Y829560D01*
X411040Y852740D01*
X410760Y855220D01*
X410020Y857380D01*
X408800Y859300D01*
X407180Y860920D01*
X405260Y862120D01*
X403100Y862880D01*
X400620Y863160D01*
X388000Y863160D01*
X386460Y863460D01*
X385160Y864340D01*
X381100Y868379D01*
X380340Y869460D01*
X379960Y870720D01*
X380020Y872039D01*
X380500Y874280D01*
X381100Y875720D01*
X382239Y876820D01*
X383720Y877780D01*
X387140Y880819D01*
X390040Y884360D01*
X392380Y888280D01*
X394099Y892520D01*
X395140Y896979D01*
X395480Y901540D01*
X395140Y906100D01*
X394099Y910560D01*
X392380Y914800D01*
X390040Y918720D01*
X387140Y922260D01*
X383720Y925300D01*
X379880Y927780D01*
X375700Y929659D01*
X371300Y930860D01*
X366760Y931400D01*
X362180Y931220D01*
X355560Y929880D01*
X354080Y930240D01*
X352819Y931100D01*
X352000Y932380D01*
X351719Y933880D01*
X351719Y941280D01*
X352020Y942820D01*
X352879Y944120D01*
X354180Y944980D01*
X355720Y945280D01*
X365980Y945280D01*
X370160Y945620D01*
X373360Y946360D01*
X374180Y946620D01*
X377660Y948120D01*
X379240Y948460D01*
X386900Y948460D01*
X389380Y948740D01*
X391540Y949479D01*
X393459Y950699D01*
X395080Y952300D01*
X396280Y954240D01*
X397040Y956380D01*
X397320Y958880D01*
X397320Y966500D01*
X397460Y967560D01*
X399460Y972520D01*
X400300Y976580D01*
X400480Y980740D01*
X399960Y984880D01*
X398780Y988860D01*
X397720Y991000D01*
X397320Y992760D01*
X397320Y1000560D01*
X397040Y1003040D01*
X396280Y1005200D01*
X395080Y1007120D01*
X393459Y1008740D01*
X391540Y1009940D01*
X389380Y1010699D01*
X386900Y1010980D01*
X363720Y1010980D01*
X361240Y1010699D01*
X359080Y1009940D01*
X357160Y1008740D01*
X355540Y1007120D01*
X354340Y1005200D01*
X353579Y1003040D01*
X353300Y1000560D01*
X353300Y999680D01*
X353000Y998160D01*
X352120Y996860D01*
X350820Y996000D01*
X349300Y995680D01*
X318600Y995680D01*
X317080Y996000D01*
X315780Y996860D01*
X314920Y998160D01*
X314600Y999680D01*
X314600Y1043940D01*
X314960Y1045600D01*
X315980Y1046940D01*
X317460Y1047760D01*
X319140Y1047900D01*
X320740Y1047320D01*
X321680Y1046720D01*
X323840Y1045980D01*
X326320Y1045699D01*
X329500Y1045699D01*
X329500Y1063920D01*
X318600Y1063920D01*
X317080Y1064240D01*
X315780Y1065100D01*
X314920Y1066400D01*
X314600Y1067920D01*
X314600Y1086000D01*
X314920Y1087520D01*
X315780Y1088820D01*
X317080Y1089680D01*
X318600Y1090000D01*
X329500Y1090000D01*
X329500Y1108220D01*
X326320Y1108220D01*
X323840Y1107940D01*
X321680Y1107200D01*
X320740Y1106600D01*
X319140Y1106020D01*
X317460Y1106160D01*
X315980Y1106980D01*
X314960Y1108320D01*
X314600Y1109980D01*
X314600Y1113620D01*
X314920Y1115140D01*
X315780Y1116440D01*
X377700Y1178360D01*
X379000Y1179240D01*
X380540Y1179540D01*
X580360Y1179540D01*
X581460Y1179380D01*
X582980Y1178620D01*
X584140Y1177500D01*
X584760Y1176040D01*
X584760Y1174420D01*
X584140Y1172960D01*
X582980Y1171840D01*
X582240Y1171380D01*
X580620Y1169760D01*
X579420Y1167840D01*
X578660Y1165680D01*
X578380Y1163200D01*
X578380Y1158040D01*
X594940Y1158040D01*
X594940Y1172840D01*
X595240Y1174360D01*
X596100Y1175660D01*
X597400Y1176540D01*
X598940Y1176840D01*
X613660Y1176840D01*
X615180Y1176540D01*
X616480Y1175660D01*
X617340Y1174360D01*
X617660Y1172840D01*
X617660Y1158040D01*
X634220Y1158040D01*
X634220Y1163200D01*
X633940Y1165680D01*
X633180Y1167840D01*
X631960Y1169760D01*
X630360Y1171380D01*
X629620Y1171840D01*
X628460Y1172960D01*
X627820Y1174420D01*
X627820Y1176040D01*
X628460Y1177500D01*
X630100Y1178920D01*
X631120Y1179380D01*
X632240Y1179540D01*
X681520Y1179540D01*
X683360Y1179620D01*
X685120Y1179860D01*
X686840Y1180240D01*
X688520Y1180760D01*
X690140Y1181440D01*
X691700Y1182240D01*
X693199Y1183200D01*
X694599Y1184260D01*
X695960Y1185520D01*
X820900Y1310460D01*
X822200Y1311339D01*
X823740Y1311639D01*
X1019380Y1311639D01*
X1020920Y1311339D01*
X1022220Y1310460D01*
X1024760Y1307920D01*
X1025639Y1306560D01*
X1025920Y1304980D01*
X1025560Y1303400D01*
X1024580Y1302100D01*
X1023180Y1301300D01*
X1021560Y1301120D01*
X1018020Y1301440D01*
X843160Y1301420D01*
X839520Y1300920D01*
X836160Y1299780D01*
X833060Y1298060D01*
X830200Y1295680D01*
X638820Y1104320D01*
X637540Y1103440D01*
X636000Y1103140D01*
X510900Y1103140D01*
X509040Y1103060D01*
X507280Y1102800D01*
X505560Y1102400D01*
X503880Y1101840D01*
X502260Y1101120D01*
X500700Y1100260D01*
X499240Y1099260D01*
X497840Y1098080D01*
X496640Y1097400D01*
X495280Y1097160D01*
X441860Y1097160D01*
X440319Y1097460D01*
X439020Y1098340D01*
X438160Y1099620D01*
X437860Y1101160D01*
X437860Y1111960D01*
X438080Y1113280D01*
X438720Y1114460D01*
X441360Y1116980D01*
X441840Y1117720D01*
X442939Y1118880D01*
X444420Y1119520D01*
X446019Y1119520D01*
X447500Y1118880D01*
X448600Y1117720D01*
X449080Y1116980D01*
X450680Y1115360D01*
X452620Y1114160D01*
X454760Y1113400D01*
X457260Y1113120D01*
X462400Y1113120D01*
X462400Y1129680D01*
X447620Y1129680D01*
X446079Y1129980D01*
X444780Y1130860D01*
X443920Y1132140D01*
X443620Y1133680D01*
X443620Y1148400D01*
X443920Y1149920D01*
X444780Y1151220D01*
X446079Y1152100D01*
X447620Y1152400D01*
X462400Y1152400D01*
X462400Y1168960D01*
X457260Y1168960D01*
X454760Y1168680D01*
X452620Y1167920D01*
X450680Y1166700D01*
X449080Y1165100D01*
X448600Y1164360D01*
X447500Y1163200D01*
X446019Y1162560D01*
X444420Y1162560D01*
X442939Y1163200D01*
X441840Y1164360D01*
X441360Y1165100D01*
X439760Y1166700D01*
X437819Y1167920D01*
X435680Y1168680D01*
X433180Y1168960D01*
X402140Y1168960D01*
X399660Y1168680D01*
X397500Y1167920D01*
X395580Y1166700D01*
X393960Y1165100D01*
X392740Y1163160D01*
X392000Y1161020D01*
X391719Y1158520D01*
X391719Y1123540D01*
X392000Y1121060D01*
X392740Y1118900D01*
X393960Y1116980D01*
X396580Y1114460D01*
X397220Y1113300D01*
X397460Y1111980D01*
X397460Y1110000D01*
X397220Y1108680D01*
X396580Y1107520D01*
X395580Y1106620D01*
X394560Y1105980D01*
X392939Y1104360D01*
X391740Y1102440D01*
X390980Y1100280D01*
X390700Y1097800D01*
X390700Y1056120D01*
X390980Y1053640D01*
X391740Y1051480D01*
X392939Y1049560D01*
X394560Y1047940D01*
X396480Y1046720D01*
X398640Y1045980D01*
X401120Y1045699D01*
X424300Y1045699D01*
X426780Y1045980D01*
X428940Y1046720D01*
X430860Y1047940D01*
X432480Y1049560D01*
X433680Y1051480D01*
X434600Y1054080D01*
X435439Y1055480D01*
X436760Y1056420D01*
X438360Y1056760D01*
X478960Y1056760D01*
X480379Y1056500D01*
X481620Y1055740D01*
X482500Y1054600D01*
X482920Y1053200D01*
X483180Y1050980D01*
X483940Y1048820D01*
X485140Y1046900D01*
X486760Y1045280D01*
X487500Y1044820D01*
X488660Y1043700D01*
X489280Y1042220D01*
X489280Y1040620D01*
X488660Y1039140D01*
X487500Y1038040D01*
X486760Y1037580D01*
X485140Y1035960D01*
X483940Y1034040D01*
X483180Y1031880D01*
X482900Y1029400D01*
X482900Y1024240D01*
X499460Y1024240D01*
X499460Y1039040D01*
X499760Y1040560D01*
X500620Y1041860D01*
X501920Y1042740D01*
X503459Y1043040D01*
X518180Y1043040D01*
X519700Y1042740D01*
X521000Y1041860D01*
X521860Y1040560D01*
X522180Y1039040D01*
X522180Y1024240D01*
X538740Y1024240D01*
X538740Y1029400D01*
X538460Y1031880D01*
X537700Y1034040D01*
X536480Y1035960D01*
X534880Y1037580D01*
X534140Y1038040D01*
X532980Y1039140D01*
X532340Y1040620D01*
X532340Y1042220D01*
X532980Y1043700D01*
X534140Y1044820D01*
X534880Y1045280D01*
X536480Y1046900D01*
X537700Y1048820D01*
X538460Y1050980D01*
X538740Y1053460D01*
X538740Y1060740D01*
X539040Y1062280D01*
X539900Y1063560D01*
X541200Y1064440D01*
X542740Y1064740D01*
X582760Y1064740D01*
X584280Y1064440D01*
X585580Y1063580D01*
X586440Y1062300D01*
X586760Y1060800D01*
X586480Y1059260D01*
X585640Y1057960D01*
X584760Y1057040D01*
X582140Y1053300D01*
X580100Y1049200D01*
X578720Y1044840D01*
X578020Y1040320D01*
X578020Y1035759D01*
X578720Y1031240D01*
X580100Y1026880D01*
X582140Y1022780D01*
X584760Y1019040D01*
X587940Y1015740D01*
X591580Y1012960D01*
X595580Y1010780D01*
X599900Y1009240D01*
X604380Y1008360D01*
X608960Y1008180D01*
X613500Y1008720D01*
X617900Y1009920D01*
X622080Y1011800D01*
X625920Y1014280D01*
X629380Y1017380D01*
X630760Y1018460D01*
X632460Y1018840D01*
X641960Y1018860D01*
X645600Y1019360D01*
X648960Y1020500D01*
X652039Y1022220D01*
X654920Y1024599D01*
X861800Y1231460D01*
X863080Y1232340D01*
X864620Y1232640D01*
X983420Y1232640D01*
X984940Y1232340D01*
X986240Y1231460D01*
X987099Y1230180D01*
X987420Y1228640D01*
X987420Y1227120D01*
X987099Y1225580D01*
X986240Y1224280D01*
X984940Y1223420D01*
X983420Y1223120D01*
X978160Y1223120D01*
X975680Y1222840D01*
X974000Y1222480D01*
X972320Y1222840D01*
X969840Y1223120D01*
X958460Y1223120D01*
X955980Y1222840D01*
X954300Y1222480D01*
X952640Y1222840D01*
X950160Y1223120D01*
X938780Y1223120D01*
X936300Y1222840D01*
X934620Y1222480D01*
X932940Y1222840D01*
X930460Y1223120D01*
X919100Y1223120D01*
X916620Y1222840D01*
X914940Y1222480D01*
X913259Y1222840D01*
X910560Y1223120D01*
X910560Y1219820D01*
X910400Y1218720D01*
X909700Y1217320D01*
X908880Y1214940D01*
X908020Y1213540D01*
X906700Y1212580D01*
X905100Y1212260D01*
X903500Y1212580D01*
X902159Y1213540D01*
X901320Y1214940D01*
X900480Y1217320D01*
X899800Y1218700D01*
X899640Y1219800D01*
X899640Y1223120D01*
X896940Y1222840D01*
X895260Y1222480D01*
X893580Y1222840D01*
X891100Y1223120D01*
X879720Y1223120D01*
X877240Y1222840D01*
X875080Y1222080D01*
X873160Y1220860D01*
X871540Y1219260D01*
X870340Y1217320D01*
X869580Y1215180D01*
X869300Y1212680D01*
X869300Y1161960D01*
X869580Y1159460D01*
X870340Y1157320D01*
X871540Y1155380D01*
X873160Y1153780D01*
X875080Y1152560D01*
X877240Y1151800D01*
X879720Y1151520D01*
X881620Y1151520D01*
X883180Y1151220D01*
X884500Y1150320D01*
X885360Y1148960D01*
X885620Y1147400D01*
X885240Y1145840D01*
X884300Y1144560D01*
X882480Y1142920D01*
X880340Y1140100D01*
X878740Y1136920D01*
X877760Y1133520D01*
X877420Y1129820D01*
X877140Y1052380D01*
X876840Y1050860D01*
X875980Y1049560D01*
X874800Y1048400D01*
X873500Y1047520D01*
X871979Y1047220D01*
X870440Y1047520D01*
X869140Y1048400D01*
X868280Y1049680D01*
X867960Y1051220D01*
X867960Y1062720D01*
X840580Y1062720D01*
X840580Y1039260D01*
X856020Y1039260D01*
X857540Y1038960D01*
X858840Y1038100D01*
X859720Y1036800D01*
X860020Y1035260D01*
X859720Y1033740D01*
X858840Y1032440D01*
X799680Y973280D01*
X798379Y972400D01*
X796860Y972099D01*
X509099Y972099D01*
X507400Y972480D01*
X505980Y973620D01*
X502560Y976660D01*
X498720Y979140D01*
X496200Y980280D01*
X494940Y981160D01*
X494120Y982460D01*
X493840Y983980D01*
X494159Y985500D01*
X495040Y986780D01*
X496320Y987620D01*
X497840Y987920D01*
X499460Y987920D01*
X499460Y1003500D01*
X482900Y1003500D01*
X482900Y998340D01*
X483180Y995860D01*
X483940Y993700D01*
X485140Y991780D01*
X488060Y988940D01*
X488660Y987360D01*
X488579Y985680D01*
X487819Y984180D01*
X486500Y983139D01*
X484880Y982720D01*
X481019Y982580D01*
X476540Y981700D01*
X472220Y980160D01*
X468220Y977980D01*
X464580Y975200D01*
X461400Y971900D01*
X458780Y968160D01*
X456740Y964060D01*
X455360Y959700D01*
X454660Y955180D01*
X454660Y950620D01*
X455360Y946100D01*
X456740Y941740D01*
X458780Y937640D01*
X461400Y933900D01*
X464580Y930600D01*
X468220Y927820D01*
X472220Y925639D01*
X476540Y924100D01*
X481019Y923220D01*
X485600Y923040D01*
X490140Y923580D01*
X494540Y924780D01*
X498720Y926660D01*
X502560Y929140D01*
X506019Y932240D01*
X507400Y933319D01*
X509099Y933700D01*
X801160Y933700D01*
X802680Y933400D01*
X803980Y932520D01*
X804840Y931240D01*
X805160Y929700D01*
X804840Y928160D01*
X803980Y926880D01*
X708280Y831160D01*
X706979Y830300D01*
X705440Y829980D01*
X677300Y829980D01*
X675980Y830220D01*
X674820Y830860D01*
X673920Y831860D01*
X673280Y832880D01*
X671660Y834500D01*
X670920Y834960D01*
X669760Y836080D01*
X669140Y837540D01*
X669140Y839160D01*
X669760Y840620D01*
X670920Y841740D01*
X671660Y842200D01*
X673280Y843820D01*
X674500Y845740D01*
X675240Y847900D01*
X675520Y850380D01*
X675520Y855540D01*
X658960Y855540D01*
X658960Y840740D01*
X658660Y839200D01*
X657800Y837920D01*
X656500Y837039D01*
X654960Y836740D01*
X643860Y836740D01*
X640240Y836880D01*
X638720Y837180D01*
X637420Y838060D01*
X636560Y839340D01*
X636240Y840879D01*
X636240Y855540D01*
X619700Y855540D01*
X619700Y850380D01*
X619980Y847900D01*
X620720Y845740D01*
X622900Y842420D01*
X623220Y840879D01*
X622900Y839340D01*
X622040Y838060D01*
X620740Y837180D01*
X619220Y836880D01*
X592280Y836880D01*
X590960Y837099D01*
X589800Y837760D01*
X587260Y840400D01*
X586520Y840860D01*
X585360Y841979D01*
X584740Y843439D01*
X584740Y845060D01*
X585360Y846520D01*
X586520Y847640D01*
X587260Y848100D01*
X588880Y849720D01*
X590100Y851640D01*
X590840Y853800D01*
X591120Y856280D01*
X591120Y861440D01*
X574560Y861440D01*
X574560Y846640D01*
X574260Y845100D01*
X573400Y843820D01*
X572100Y842940D01*
X570560Y842640D01*
X555840Y842640D01*
X554320Y842940D01*
X553020Y843820D01*
X552160Y845100D01*
X551840Y846640D01*
X551840Y861440D01*
X535300Y861440D01*
X535300Y856280D01*
X535580Y853800D01*
X536320Y851640D01*
X537540Y849720D01*
X539140Y848100D01*
X539900Y847640D01*
X541060Y846520D01*
X541680Y845060D01*
X541680Y843439D01*
X541060Y841979D01*
X539900Y840860D01*
X539140Y840400D01*
X536620Y837760D01*
X535440Y837099D01*
X534120Y836880D01*
X490060Y836880D01*
X488220Y836800D01*
X486480Y836560D01*
X484760Y836180D01*
X483080Y835660D01*
X481440Y834980D01*
X479880Y834180D01*
X478400Y833220D01*
X477000Y832159D01*
X475640Y830900D01*
X471659Y826919D01*
X470360Y826060D01*
X468840Y825759D01*
X456180Y825759D01*
X453700Y825480D01*
X451540Y824720D01*
X449620Y823520D01*
X448000Y821900D01*
X446800Y819980D01*
X446040Y817820D01*
X445760Y815340D01*
X445760Y792159D01*
X446040Y789680D01*
X446800Y787520D01*
X448000Y785600D01*
X449620Y783980D01*
X451540Y782760D01*
X453700Y782020D01*
X456180Y781740D01*
X497860Y781740D01*
X500360Y782020D01*
X502500Y782760D01*
X504440Y783980D01*
X506040Y785600D01*
X507260Y787520D01*
X508000Y789640D01*
X508300Y792860D01*
X508720Y794280D01*
X509600Y795440D01*
X510840Y796220D01*
X512280Y796480D01*
X534140Y796480D01*
X535460Y796260D01*
X536640Y795600D01*
X539140Y792980D01*
X541080Y791780D01*
X543220Y791020D01*
X545720Y790740D01*
X580700Y790740D01*
X583180Y791020D01*
X585340Y791780D01*
X587260Y792980D01*
X589780Y795600D01*
X590940Y796260D01*
X592280Y796480D01*
X615980Y796480D01*
X617400Y796220D01*
X618640Y795460D01*
X619540Y794320D01*
X620720Y790620D01*
X621940Y788700D01*
X623540Y787080D01*
X625480Y785879D01*
X627620Y785120D01*
X630120Y784840D01*
X665100Y784840D01*
X667580Y785120D01*
X669740Y785879D01*
X671660Y787080D01*
X673280Y788700D01*
X673920Y789720D01*
X674820Y790720D01*
X675980Y791360D01*
X677300Y791580D01*
X715800Y791600D01*
X719440Y792120D01*
X722800Y793240D01*
X725900Y794960D01*
X728760Y797340D01*
X879560Y948139D01*
X881020Y949080D01*
X882760Y949300D01*
X884419Y948760D01*
X885680Y947580D01*
X886340Y945960D01*
X886240Y944220D01*
X885860Y942880D01*
X885500Y939160D01*
X885500Y926460D01*
X885200Y924940D01*
X884340Y923640D01*
X739500Y778800D01*
X738560Y778100D01*
X737440Y777700D01*
X736100Y777440D01*
X731780Y775900D01*
X727780Y773720D01*
X724140Y770939D01*
X720960Y767640D01*
X718340Y763900D01*
X716300Y759800D01*
X714920Y755440D01*
X714220Y750920D01*
X714220Y746360D01*
X714920Y741840D01*
X716300Y737480D01*
X718340Y733379D01*
X720960Y729640D01*
X724140Y726340D01*
X727780Y723560D01*
X731780Y721380D01*
X736100Y719840D01*
X740580Y718960D01*
X745160Y718780D01*
X749700Y719320D01*
X754100Y720520D01*
X758280Y722400D01*
X762120Y724880D01*
X765540Y727920D01*
X768439Y731460D01*
X770780Y735380D01*
X772500Y739620D01*
X773540Y744080D01*
X773880Y748640D01*
X773540Y753199D01*
X773040Y755340D01*
X772940Y756700D01*
X773319Y757980D01*
X774100Y759080D01*
X918800Y903820D01*
X921020Y906760D01*
X922600Y909920D01*
X923560Y913319D01*
X923900Y917039D01*
X923900Y929760D01*
X924220Y931280D01*
X925080Y932580D01*
X979960Y987540D01*
X982340Y990420D01*
X984060Y993500D01*
X985180Y996860D01*
X985680Y1000360D01*
X985639Y1001600D01*
X985800Y1003500D01*
X984920Y1100000D01*
X985200Y1101540D01*
X986060Y1102840D01*
X987360Y1103720D01*
X988900Y1104020D01*
X990440Y1103720D01*
X991740Y1102860D01*
X993840Y1100760D01*
X994700Y1099460D01*
X995000Y1097940D01*
X995000Y915240D01*
X994700Y913720D01*
X993840Y912420D01*
X911020Y829580D01*
X908800Y826640D01*
X907220Y823460D01*
X906260Y820060D01*
X905900Y816360D01*
X905900Y752540D01*
X905600Y751000D01*
X904740Y749720D01*
X903439Y748840D01*
X901900Y748540D01*
X868420Y748540D01*
X867099Y748760D01*
X865080Y749460D01*
X862600Y749740D01*
X827620Y749740D01*
X825120Y749460D01*
X822980Y748720D01*
X821040Y747500D01*
X819440Y745900D01*
X818220Y743960D01*
X817480Y741820D01*
X817220Y739620D01*
X816960Y738560D01*
X816020Y737120D01*
X814040Y733460D01*
X812700Y729520D01*
X812000Y725420D01*
X812000Y721260D01*
X812700Y717159D01*
X814040Y713220D01*
X816020Y709560D01*
X817080Y707960D01*
X817480Y705780D01*
X818220Y703640D01*
X819440Y701700D01*
X821040Y700100D01*
X821800Y699620D01*
X822960Y698520D01*
X823580Y697039D01*
X823580Y695440D01*
X822960Y693960D01*
X821800Y692860D01*
X821040Y692380D01*
X819440Y690780D01*
X818220Y688840D01*
X817480Y686700D01*
X817200Y684200D01*
X817200Y679060D01*
X833760Y679060D01*
X833760Y693860D01*
X834060Y695380D01*
X834920Y696680D01*
X836220Y697540D01*
X837760Y697860D01*
X852460Y697860D01*
X854000Y697540D01*
X855300Y696680D01*
X856160Y695380D01*
X856460Y693860D01*
X856460Y679060D01*
X873020Y679060D01*
X873020Y684200D01*
X872740Y686700D01*
X872000Y688840D01*
X870780Y690780D01*
X870240Y691320D01*
X869380Y692600D01*
X869080Y694140D01*
X869380Y695680D01*
X870240Y696960D01*
X871540Y697840D01*
X873080Y698139D01*
X903319Y698139D01*
X904640Y697920D01*
X906080Y697420D01*
X907480Y696560D01*
X908420Y695240D01*
X908760Y693640D01*
X908420Y692039D01*
X907480Y690699D01*
X906080Y689860D01*
X903680Y689020D01*
X901760Y687820D01*
X900140Y686200D01*
X898940Y684280D01*
X898180Y682120D01*
X897900Y679640D01*
X897900Y666960D01*
X897600Y665420D01*
X896740Y664140D01*
X882820Y650220D01*
X881520Y649340D01*
X879980Y649040D01*
X877020Y649040D01*
X875500Y649340D01*
X874200Y650220D01*
X873319Y651500D01*
X873020Y653040D01*
X873020Y658319D01*
X856460Y658319D01*
X856460Y653040D01*
X856160Y651500D01*
X855300Y650220D01*
X854000Y649340D01*
X852460Y649040D01*
X837760Y649040D01*
X836220Y649340D01*
X834920Y650220D01*
X834060Y651500D01*
X833760Y653040D01*
X833760Y658319D01*
X817200Y658319D01*
X817200Y653040D01*
X816880Y651500D01*
X816020Y650220D01*
X814720Y649340D01*
X813199Y649040D01*
X779000Y649040D01*
X777140Y648960D01*
X775400Y648720D01*
X773680Y648340D01*
X772000Y647820D01*
X770380Y647140D01*
X768820Y646340D01*
X767320Y645380D01*
X765920Y644320D01*
X764560Y643060D01*
X730620Y609120D01*
X729320Y608240D01*
X727780Y607940D01*
X719680Y607940D01*
X718040Y608280D01*
X716700Y609280D01*
X715860Y610720D01*
X715699Y612380D01*
X716000Y615000D01*
X716000Y629000D01*
X697460Y629000D01*
X697460Y611940D01*
X697159Y610400D01*
X696300Y609120D01*
X695000Y608240D01*
X693460Y607940D01*
G37*

%LPC*%
G36*
X652280Y667480D02*
G01*
X670819Y667480D01*
X670819Y691900D01*
X662720Y691900D01*
X660220Y691620D01*
X658080Y690879D01*
X656140Y689659D01*
X654539Y688040D01*
X653319Y686120D01*
X652560Y683960D01*
X652280Y681480D01*
G37*
G36*
X697460Y667480D02*
G01*
X716000Y667480D01*
X716000Y681480D01*
X715720Y683960D01*
X714960Y686120D01*
X713740Y688040D01*
X712140Y689659D01*
X710200Y690879D01*
X708060Y691620D01*
X705560Y691900D01*
X697460Y691900D01*
G37*
G36*
X490060Y856540D02*
G01*
X497860Y856540D01*
X500360Y856820D01*
X502500Y857580D01*
X504440Y858780D01*
X506040Y860400D01*
X507260Y862320D01*
X508000Y864479D01*
X508280Y866960D01*
X508280Y870140D01*
X490060Y870140D01*
G37*
G36*
X456180Y856540D02*
G01*
X464000Y856540D01*
X464000Y870140D01*
X445760Y870140D01*
X445760Y866960D01*
X446040Y864479D01*
X446800Y862320D01*
X448000Y860400D01*
X449620Y858780D01*
X451540Y857580D01*
X453700Y856820D01*
G37*
G36*
X658960Y876280D02*
G01*
X675520Y876280D01*
X675520Y881420D01*
X675240Y883920D01*
X674500Y886060D01*
X673280Y888000D01*
X671660Y889599D01*
X669740Y890819D01*
X667580Y891580D01*
X665100Y891860D01*
X658960Y891860D01*
G37*
G36*
X619700Y876280D02*
G01*
X636240Y876280D01*
X636240Y891860D01*
X630120Y891860D01*
X627620Y891580D01*
X625480Y890819D01*
X623540Y889599D01*
X621940Y888000D01*
X620720Y886060D01*
X619980Y883920D01*
X619700Y881420D01*
G37*
G36*
X535300Y882180D02*
G01*
X551840Y882180D01*
X551840Y897760D01*
X545720Y897760D01*
X543220Y897480D01*
X541080Y896720D01*
X539140Y895500D01*
X537540Y893900D01*
X536320Y891960D01*
X535580Y889820D01*
X535300Y887320D01*
G37*
G36*
X574560Y882180D02*
G01*
X591120Y882180D01*
X591120Y887320D01*
X590840Y889820D01*
X590100Y891960D01*
X588880Y893900D01*
X587260Y895500D01*
X585340Y896720D01*
X583180Y897480D01*
X580700Y897760D01*
X574560Y897760D01*
G37*
G36*
X490060Y886960D02*
G01*
X508280Y886960D01*
X508280Y890140D01*
X508000Y892620D01*
X507260Y894780D01*
X506040Y896700D01*
X504440Y898319D01*
X502500Y899520D01*
X500360Y900280D01*
X497860Y900560D01*
X490060Y900560D01*
G37*
G36*
X445760Y886960D02*
G01*
X464000Y886960D01*
X464000Y900560D01*
X456180Y900560D01*
X453700Y900280D01*
X451540Y899520D01*
X449620Y898319D01*
X448000Y896700D01*
X446800Y894780D01*
X446040Y892620D01*
X445760Y890140D01*
G37*
G36*
X522180Y987920D02*
G01*
X528300Y987920D01*
X530800Y988199D01*
X532940Y988960D01*
X534880Y990160D01*
X536480Y991780D01*
X537700Y993700D01*
X538460Y995860D01*
X538740Y998340D01*
X538740Y1003500D01*
X522180Y1003500D01*
G37*
G36*
X779260Y1039260D02*
G01*
X796220Y1039260D01*
X796220Y1062720D01*
X768840Y1062720D01*
X768840Y1049680D01*
X769120Y1047200D01*
X769860Y1045040D01*
X771080Y1043120D01*
X772680Y1041500D01*
X774620Y1040300D01*
X776760Y1039539D01*
G37*
G36*
X346320Y1045699D02*
G01*
X349500Y1045699D01*
X351980Y1045980D01*
X354140Y1046720D01*
X356060Y1047940D01*
X357680Y1049560D01*
X358880Y1051480D01*
X359640Y1053640D01*
X359920Y1056120D01*
X359920Y1063920D01*
X346320Y1063920D01*
G37*
G36*
X346320Y1090000D02*
G01*
X359920Y1090000D01*
X359920Y1097800D01*
X359640Y1100280D01*
X358880Y1102440D01*
X357680Y1104360D01*
X356060Y1105980D01*
X354140Y1107200D01*
X351980Y1107940D01*
X349500Y1108220D01*
X346320Y1108220D01*
G37*
G36*
X768840Y1099200D02*
G01*
X796220Y1099200D01*
X796220Y1122660D01*
X779260Y1122660D01*
X776760Y1122380D01*
X774620Y1121620D01*
X772680Y1120420D01*
X771080Y1118800D01*
X769860Y1116880D01*
X769120Y1114720D01*
X768840Y1112240D01*
G37*
G36*
X840580Y1099200D02*
G01*
X867960Y1099200D01*
X867960Y1112240D01*
X867680Y1114720D01*
X866940Y1116880D01*
X865720Y1118800D01*
X864120Y1120420D01*
X862180Y1121620D01*
X860040Y1122380D01*
X857540Y1122660D01*
X840580Y1122660D01*
G37*
G36*
X483160Y1113120D02*
G01*
X488300Y1113120D01*
X490800Y1113400D01*
X492939Y1114160D01*
X494860Y1115360D01*
X496480Y1116980D01*
X497700Y1118900D01*
X498440Y1121060D01*
X498720Y1123540D01*
X498720Y1129680D01*
X483160Y1129680D01*
G37*
G36*
X617660Y1121720D02*
G01*
X623780Y1121720D01*
X626280Y1122000D01*
X628420Y1122760D01*
X630360Y1123980D01*
X631960Y1125580D01*
X633180Y1127520D01*
X633940Y1129660D01*
X634220Y1132140D01*
X634220Y1137300D01*
X617660Y1137300D01*
G37*
G36*
X588800Y1121720D02*
G01*
X594940Y1121720D01*
X594940Y1137300D01*
X578380Y1137300D01*
X578380Y1132140D01*
X578660Y1129660D01*
X579420Y1127520D01*
X580620Y1125580D01*
X582240Y1123980D01*
X584160Y1122760D01*
X586320Y1122000D01*
G37*
G36*
X483160Y1152400D02*
G01*
X498720Y1152400D01*
X498720Y1158520D01*
X498440Y1161020D01*
X497700Y1163160D01*
X496480Y1165100D01*
X494860Y1166700D01*
X492939Y1167920D01*
X490800Y1168680D01*
X488300Y1168960D01*
X483160Y1168960D01*
G37*

%LPD*%
G36*
X91700Y403920D02*
G01*
X90000Y404020D01*
X88500Y404840D01*
X87460Y406200D01*
X87100Y407860D01*
X87100Y442680D01*
X87460Y444360D01*
X88500Y445720D01*
X90000Y446520D01*
X91700Y446640D01*
X93300Y446019D01*
X94480Y444820D01*
X95900Y442560D01*
X97520Y440940D01*
X99440Y439739D01*
X101600Y438980D01*
X104080Y438700D01*
X202060Y438700D01*
X204540Y438980D01*
X206700Y439739D01*
X208619Y440940D01*
X210240Y442560D01*
X211460Y444480D01*
X212200Y446640D01*
X212480Y449120D01*
X212480Y491980D01*
X212200Y494460D01*
X211460Y496620D01*
X210580Y498500D01*
X210580Y499960D01*
X211080Y501320D01*
X212040Y502420D01*
X213320Y503400D01*
X216780Y507000D01*
X219720Y511040D01*
X221660Y514700D01*
X204660Y514700D01*
X204660Y506400D01*
X204360Y504880D01*
X203500Y503579D01*
X202200Y502700D01*
X200660Y502400D01*
X178080Y502400D01*
X176540Y502700D01*
X175240Y503579D01*
X174380Y504880D01*
X174080Y506400D01*
X174080Y514700D01*
X157100Y514700D01*
X157780Y513200D01*
X161160Y507660D01*
X161340Y506160D01*
X160980Y504700D01*
X160100Y503500D01*
X158820Y502680D01*
X157360Y502400D01*
X142560Y502400D01*
X140840Y502780D01*
X139460Y503860D01*
X138680Y505400D01*
X138620Y507160D01*
X139320Y508760D01*
X140980Y511040D01*
X143320Y515439D01*
X145020Y520140D01*
X146080Y525160D01*
X146420Y530000D01*
X146060Y534980D01*
X145020Y539860D01*
X143320Y544560D01*
X140980Y548960D01*
X138040Y553000D01*
X134580Y556600D01*
X130640Y559660D01*
X126320Y562160D01*
X121679Y564020D01*
X116840Y565240D01*
X111880Y565760D01*
X106880Y565580D01*
X101980Y564720D01*
X97220Y563180D01*
X92860Y561040D01*
X91300Y560640D01*
X89700Y560880D01*
X88340Y561740D01*
X87420Y563060D01*
X87100Y564640D01*
X87100Y627600D01*
X87400Y629140D01*
X88280Y630440D01*
X89560Y631300D01*
X91100Y631600D01*
X92640Y631300D01*
X93920Y630440D01*
X105500Y618860D01*
X107980Y616660D01*
X111480Y614400D01*
X112260Y614000D01*
X115300Y612740D01*
X116140Y612480D01*
X120200Y611600D01*
X123520Y611400D01*
X155500Y611400D01*
X157040Y611100D01*
X158340Y610220D01*
X203500Y565060D01*
X204360Y563780D01*
X204660Y562240D01*
X204660Y545300D01*
X221860Y545300D01*
X221980Y547060D01*
X222860Y548600D01*
X224320Y549620D01*
X226060Y549900D01*
X229420Y549700D01*
X344860Y549700D01*
X345840Y549580D01*
X346760Y549220D01*
X349580Y547680D01*
X353900Y546140D01*
X358380Y545260D01*
X362960Y545080D01*
X367500Y545620D01*
X371900Y546820D01*
X376079Y548700D01*
X379920Y551180D01*
X383340Y554220D01*
X386240Y557760D01*
X388579Y561680D01*
X390300Y565920D01*
X390600Y567240D01*
X391000Y568280D01*
X391659Y569160D01*
X397180Y574680D01*
X398459Y575540D01*
X399940Y575840D01*
X401460Y575580D01*
X402740Y574760D01*
X403640Y573520D01*
X404000Y572040D01*
X403780Y570520D01*
X403080Y568480D01*
X402800Y566000D01*
X402800Y560420D01*
X402480Y558900D01*
X401620Y557600D01*
X369200Y525180D01*
X367000Y522680D01*
X366480Y521980D01*
X364320Y518400D01*
X362800Y514540D01*
X362060Y511340D01*
X361940Y510460D01*
X361740Y507140D01*
X361740Y465060D01*
X361420Y463540D01*
X360560Y462239D01*
X359260Y461380D01*
X357740Y461060D01*
X341100Y461060D01*
X338600Y460780D01*
X336460Y460040D01*
X334520Y458820D01*
X332920Y457200D01*
X331700Y455280D01*
X330940Y453140D01*
X330660Y450640D01*
X330660Y413880D01*
X330360Y412340D01*
X329500Y411040D01*
X328200Y410180D01*
X326659Y409880D01*
X209360Y409880D01*
X208260Y410040D01*
X206700Y410820D01*
X204540Y411580D01*
X202060Y411860D01*
X104080Y411860D01*
X101600Y411580D01*
X99440Y410820D01*
X97520Y409600D01*
X95900Y408000D01*
X94480Y405740D01*
X93300Y404520D01*
G37*

%LPC*%
G36*
X157100Y545300D02*
G01*
X174080Y545300D01*
X174080Y562260D01*
X171480Y560980D01*
X167340Y558200D01*
X163640Y554860D01*
X160420Y551040D01*
X157780Y546800D01*
G37*

%LPD*%
G36*
X1406399Y192440D02*
G01*
X1404880Y192740D01*
X1403580Y193619D01*
X1381220Y215980D01*
X1380340Y217260D01*
X1380040Y218800D01*
X1380340Y220340D01*
X1381220Y221620D01*
X1382520Y222500D01*
X1384040Y222800D01*
X1430360Y222820D01*
X1433680Y223280D01*
X1436240Y224080D01*
X1437440Y224259D01*
X1456780Y224259D01*
X1459280Y224540D01*
X1460720Y225060D01*
X1461860Y225280D01*
X1464400Y225479D01*
X1467600Y226220D01*
X1468440Y226480D01*
X1471480Y227740D01*
X1472260Y228140D01*
X1475760Y230400D01*
X1478240Y232600D01*
X1483860Y238220D01*
X1485160Y239100D01*
X1486699Y239400D01*
X1502760Y239400D01*
X1504480Y239020D01*
X1505860Y237920D01*
X1506660Y236340D01*
X1506680Y234579D01*
X1505940Y232979D01*
X1504920Y231640D01*
X1502800Y227740D01*
X1517660Y227740D01*
X1517660Y231860D01*
X1517920Y233260D01*
X1518660Y234500D01*
X1519780Y235380D01*
X1521140Y235820D01*
X1522560Y235740D01*
X1525440Y235080D01*
X1530000Y234720D01*
X1534560Y235080D01*
X1537440Y235740D01*
X1538860Y235820D01*
X1540220Y235380D01*
X1541339Y234500D01*
X1542080Y233260D01*
X1542340Y231860D01*
X1542340Y227740D01*
X1557200Y227740D01*
X1555080Y231640D01*
X1552300Y235280D01*
X1550440Y237060D01*
X1549500Y238460D01*
X1549220Y240100D01*
X1549620Y241720D01*
X1550720Y243080D01*
X1553760Y246500D01*
X1556240Y250320D01*
X1558120Y254500D01*
X1559319Y258920D01*
X1559860Y263460D01*
X1559680Y268020D01*
X1558800Y272520D01*
X1557260Y276820D01*
X1556320Y278540D01*
X1555860Y280120D01*
X1556060Y281740D01*
X1556900Y283160D01*
X1558240Y284120D01*
X1559840Y284440D01*
X1567600Y284440D01*
X1569139Y284140D01*
X1570440Y283280D01*
X1574340Y279380D01*
X1575200Y278080D01*
X1575500Y276540D01*
X1575500Y216940D01*
X1575200Y215400D01*
X1574340Y214100D01*
X1564460Y204220D01*
X1563160Y203359D01*
X1561639Y203060D01*
X1542340Y203060D01*
X1542340Y196439D01*
X1542040Y194920D01*
X1541180Y193619D01*
X1539880Y192740D01*
X1538340Y192440D01*
X1521660Y192440D01*
X1520120Y192740D01*
X1518820Y193619D01*
X1517960Y194920D01*
X1517660Y196439D01*
X1517660Y203060D01*
X1502900Y203060D01*
X1503760Y201119D01*
X1505380Y198619D01*
X1505980Y197020D01*
X1505860Y195320D01*
X1505060Y193820D01*
X1503700Y192800D01*
X1502020Y192440D01*
G37*

%LPD*%
G36*
X466300Y74600D02*
G01*
X464760Y74900D01*
X463459Y75780D01*
X341500Y197740D01*
X339020Y199940D01*
X335520Y202200D01*
X334739Y202600D01*
X331700Y203860D01*
X330860Y204120D01*
X326800Y205000D01*
X323480Y205200D01*
X132100Y205200D01*
X130559Y205500D01*
X129260Y206380D01*
X88280Y247360D01*
X87400Y248660D01*
X87100Y250200D01*
X87100Y261580D01*
X87460Y263240D01*
X88500Y264620D01*
X90000Y265420D01*
X91700Y265540D01*
X93300Y264920D01*
X94480Y263700D01*
X95900Y261460D01*
X97520Y259840D01*
X99440Y258619D01*
X101600Y257880D01*
X104080Y257600D01*
X125960Y257600D01*
X125960Y276120D01*
X91100Y276120D01*
X89560Y276420D01*
X88280Y277300D01*
X87400Y278600D01*
X87100Y280120D01*
X87100Y298780D01*
X87400Y300300D01*
X88280Y301600D01*
X89560Y302480D01*
X91100Y302780D01*
X125960Y302780D01*
X125960Y321300D01*
X104080Y321300D01*
X101600Y321019D01*
X99440Y320260D01*
X97520Y319060D01*
X95900Y317440D01*
X94480Y315180D01*
X93300Y313980D01*
X91700Y313360D01*
X90000Y313480D01*
X88500Y314280D01*
X87460Y315640D01*
X87100Y317320D01*
X87100Y352140D01*
X87460Y353800D01*
X88500Y355160D01*
X90000Y355980D01*
X91700Y356079D01*
X93300Y355480D01*
X94480Y354260D01*
X95900Y352000D01*
X97520Y350400D01*
X99440Y349180D01*
X101600Y348420D01*
X104080Y348140D01*
X202060Y348140D01*
X204540Y348420D01*
X206700Y349180D01*
X208220Y349940D01*
X209320Y350100D01*
X326659Y350100D01*
X328200Y349799D01*
X329500Y348940D01*
X330360Y347640D01*
X330660Y346100D01*
X330660Y309360D01*
X330940Y306860D01*
X331700Y304720D01*
X332920Y302800D01*
X334520Y301180D01*
X336460Y299960D01*
X338600Y299220D01*
X341100Y298940D01*
X432760Y298940D01*
X435260Y299220D01*
X437400Y299960D01*
X439340Y301180D01*
X440600Y302440D01*
X441960Y303340D01*
X443579Y303600D01*
X445160Y303220D01*
X446460Y302220D01*
X447260Y300800D01*
X447400Y299100D01*
X447400Y293960D01*
X463960Y293960D01*
X463960Y308740D01*
X464260Y310280D01*
X465120Y311560D01*
X466420Y312440D01*
X467960Y312740D01*
X482660Y312740D01*
X484200Y312440D01*
X485500Y311580D01*
X486360Y310280D01*
X486680Y308740D01*
X486680Y293960D01*
X503220Y293960D01*
X503220Y299100D01*
X502939Y301580D01*
X502200Y303740D01*
X500980Y305660D01*
X499380Y307280D01*
X498620Y307740D01*
X497460Y308860D01*
X496840Y310340D01*
X496840Y311940D01*
X497460Y313420D01*
X498620Y314520D01*
X499380Y314980D01*
X500980Y316600D01*
X502200Y318520D01*
X502939Y320680D01*
X503220Y323160D01*
X503220Y354219D01*
X502939Y356700D01*
X502200Y358860D01*
X501420Y360400D01*
X501260Y361500D01*
X501260Y393780D01*
X501420Y394880D01*
X502200Y396420D01*
X502939Y398560D01*
X503220Y401060D01*
X503220Y432100D01*
X502939Y434600D01*
X502200Y436740D01*
X500980Y438680D01*
X499380Y440280D01*
X498620Y440740D01*
X497460Y441860D01*
X496840Y443340D01*
X496840Y444940D01*
X497460Y446420D01*
X498620Y447520D01*
X499380Y448000D01*
X500980Y449600D01*
X502200Y451540D01*
X502939Y453680D01*
X503220Y456160D01*
X503220Y461320D01*
X486680Y461320D01*
X486680Y446520D01*
X486360Y445000D01*
X485500Y443700D01*
X484200Y442840D01*
X482680Y442520D01*
X467960Y442520D01*
X466420Y442840D01*
X465120Y443700D01*
X464260Y445000D01*
X463960Y446520D01*
X463960Y461320D01*
X447400Y461320D01*
X447400Y460420D01*
X447100Y458880D01*
X446220Y457600D01*
X444920Y456719D01*
X443400Y456420D01*
X441860Y456719D01*
X440560Y457600D01*
X439340Y458820D01*
X437400Y460040D01*
X435260Y460780D01*
X432760Y461060D01*
X416140Y461060D01*
X414600Y461380D01*
X413300Y462239D01*
X412440Y463540D01*
X412140Y465060D01*
X412140Y495180D01*
X412440Y496700D01*
X413300Y498000D01*
X438400Y523100D01*
X439700Y523960D01*
X441220Y524260D01*
X446780Y524260D01*
X449280Y524540D01*
X451420Y525300D01*
X453360Y526520D01*
X454960Y528120D01*
X456180Y530060D01*
X456920Y532200D01*
X457200Y534700D01*
X457200Y566000D01*
X456920Y568480D01*
X456180Y570640D01*
X454960Y572560D01*
X453360Y574180D01*
X451420Y575380D01*
X449040Y576220D01*
X447640Y577060D01*
X446680Y578400D01*
X446360Y580000D01*
X446680Y581600D01*
X447640Y582940D01*
X449040Y583780D01*
X450340Y584240D01*
X451659Y584460D01*
X511580Y584460D01*
X514900Y584660D01*
X518960Y585540D01*
X519799Y585800D01*
X522840Y587060D01*
X523620Y587460D01*
X527120Y589720D01*
X529600Y591920D01*
X541080Y603400D01*
X542380Y604280D01*
X543900Y604580D01*
X571700Y604580D01*
X574200Y604860D01*
X576340Y605600D01*
X578280Y606820D01*
X579880Y608440D01*
X581100Y610360D01*
X581860Y612520D01*
X582140Y615000D01*
X582140Y681480D01*
X581860Y683960D01*
X581100Y686120D01*
X579880Y688040D01*
X578280Y689659D01*
X576340Y690879D01*
X574200Y691620D01*
X571700Y691900D01*
X528860Y691900D01*
X526360Y691620D01*
X524219Y690879D01*
X522280Y689659D01*
X520680Y688040D01*
X519460Y686120D01*
X518700Y683960D01*
X518420Y681480D01*
X518420Y653680D01*
X518120Y652159D01*
X517260Y650860D01*
X502440Y636040D01*
X501140Y635160D01*
X499600Y634860D01*
X451640Y634860D01*
X450319Y635080D01*
X449280Y635460D01*
X446780Y635740D01*
X413220Y635740D01*
X410720Y635460D01*
X409680Y635080D01*
X408360Y634860D01*
X396659Y634860D01*
X393340Y634660D01*
X389260Y633780D01*
X388420Y633520D01*
X385379Y632260D01*
X381820Y630120D01*
X381120Y629600D01*
X378620Y627400D01*
X356100Y604880D01*
X355160Y604160D01*
X349580Y602200D01*
X346620Y600580D01*
X345700Y600220D01*
X344720Y600100D01*
X241400Y600100D01*
X239860Y600400D01*
X238560Y601280D01*
X185500Y654340D01*
X183020Y656540D01*
X179520Y658800D01*
X178740Y659200D01*
X175700Y660460D01*
X174860Y660720D01*
X170799Y661600D01*
X167480Y661800D01*
X135500Y661800D01*
X133960Y662099D01*
X132660Y662980D01*
X130719Y664920D01*
X129860Y666200D01*
X129540Y667680D01*
X129820Y669200D01*
X130620Y670480D01*
X131860Y671380D01*
X133360Y671740D01*
X134860Y671520D01*
X135540Y671280D01*
X138040Y671000D01*
X171600Y671000D01*
X174100Y671280D01*
X176240Y672039D01*
X178180Y673259D01*
X179880Y674960D01*
X181180Y675840D01*
X182719Y676140D01*
X208540Y676140D01*
X212440Y676460D01*
X216080Y677380D01*
X219500Y678880D01*
X222680Y680960D01*
X224860Y682880D01*
X245140Y703160D01*
X247680Y706160D01*
X249600Y709380D01*
X250960Y712860D01*
X251740Y716560D01*
X251920Y719460D01*
X251920Y728680D01*
X252140Y730000D01*
X252780Y731180D01*
X253780Y732060D01*
X255080Y732880D01*
X256680Y734500D01*
X257900Y736420D01*
X258740Y738820D01*
X259579Y740220D01*
X260900Y741160D01*
X262500Y741500D01*
X264100Y741160D01*
X265440Y740220D01*
X266280Y738820D01*
X267120Y736420D01*
X268340Y734500D01*
X269940Y732880D01*
X271880Y731660D01*
X274020Y730920D01*
X276520Y730639D01*
X307820Y730639D01*
X310300Y730920D01*
X312460Y731660D01*
X314380Y732880D01*
X315460Y733960D01*
X316760Y734840D01*
X318300Y735140D01*
X333480Y735140D01*
X335020Y734840D01*
X336320Y733960D01*
X349020Y721260D01*
X349760Y720240D01*
X350140Y719040D01*
X350640Y715860D01*
X352020Y711500D01*
X354040Y707400D01*
X356680Y703660D01*
X359840Y700360D01*
X363480Y697580D01*
X367500Y695400D01*
X371800Y693860D01*
X376300Y692980D01*
X380860Y692800D01*
X385400Y693340D01*
X389820Y694539D01*
X394000Y696420D01*
X397819Y698900D01*
X401240Y701940D01*
X404159Y705480D01*
X406500Y709400D01*
X408200Y713640D01*
X409240Y718100D01*
X409600Y722660D01*
X409240Y727220D01*
X408200Y731680D01*
X406500Y735920D01*
X404240Y739700D01*
X403700Y741260D01*
X403840Y742900D01*
X404620Y744340D01*
X405920Y745340D01*
X407520Y745740D01*
X409140Y745480D01*
X410500Y744580D01*
X448560Y706520D01*
X449920Y705260D01*
X451320Y704200D01*
X452819Y703240D01*
X454380Y702440D01*
X456000Y701760D01*
X457680Y701240D01*
X459400Y700860D01*
X461140Y700620D01*
X463000Y700540D01*
X579680Y700540D01*
X581220Y700240D01*
X582520Y699360D01*
X596740Y685140D01*
X597600Y683840D01*
X597900Y682320D01*
X597900Y610520D01*
X597980Y608680D01*
X598220Y606940D01*
X598600Y605220D01*
X599140Y603540D01*
X599800Y601900D01*
X600620Y600340D01*
X601560Y598860D01*
X602640Y597460D01*
X603880Y596100D01*
X626460Y573520D01*
X627820Y572260D01*
X629220Y571200D01*
X630720Y570240D01*
X632280Y569440D01*
X633900Y568760D01*
X635580Y568240D01*
X637300Y567860D01*
X639040Y567620D01*
X640900Y567540D01*
X737720Y567540D01*
X739560Y567620D01*
X741320Y567860D01*
X743040Y568240D01*
X744720Y568760D01*
X746340Y569440D01*
X747900Y570240D01*
X749400Y571200D01*
X750800Y572260D01*
X752159Y573520D01*
X786100Y607460D01*
X787400Y608340D01*
X788940Y608640D01*
X800200Y608640D01*
X801700Y608360D01*
X802960Y607540D01*
X803840Y606300D01*
X804200Y604820D01*
X803700Y600840D01*
X803700Y595620D01*
X819900Y595620D01*
X819900Y604640D01*
X820220Y606180D01*
X821080Y607460D01*
X822380Y608340D01*
X823900Y608640D01*
X837920Y608640D01*
X839440Y608340D01*
X840740Y607460D01*
X841620Y606180D01*
X841919Y604640D01*
X841919Y595620D01*
X858120Y595620D01*
X858120Y600840D01*
X857620Y604820D01*
X857980Y606300D01*
X858860Y607540D01*
X860140Y608360D01*
X861620Y608640D01*
X874180Y608640D01*
X875680Y608360D01*
X876940Y607540D01*
X877820Y606300D01*
X878180Y604820D01*
X877780Y602800D01*
X877500Y600320D01*
X877500Y595160D01*
X894060Y595160D01*
X894060Y606020D01*
X894360Y607560D01*
X895240Y608880D01*
X896560Y609740D01*
X898560Y610540D01*
X900100Y611340D01*
X901600Y612300D01*
X903000Y613360D01*
X904360Y614620D01*
X922280Y632540D01*
X923580Y633400D01*
X925100Y633720D01*
X926640Y633400D01*
X927940Y632540D01*
X954659Y605820D01*
X956020Y604560D01*
X957420Y603500D01*
X958920Y602540D01*
X960480Y601740D01*
X962099Y601060D01*
X963780Y600520D01*
X965500Y600140D01*
X967260Y599920D01*
X969100Y599840D01*
X1031440Y599840D01*
X1032980Y599540D01*
X1034280Y598660D01*
X1035140Y597360D01*
X1035440Y595840D01*
X1035140Y594300D01*
X1034280Y593000D01*
X994780Y553520D01*
X993480Y552640D01*
X991940Y552340D01*
X932159Y552340D01*
X931020Y552500D01*
X929980Y552980D01*
X928640Y553860D01*
X927500Y554980D01*
X926900Y556460D01*
X926919Y558040D01*
X927540Y559500D01*
X928700Y560600D01*
X929479Y561080D01*
X931080Y562700D01*
X932300Y564620D01*
X933040Y566780D01*
X933319Y569260D01*
X933319Y574420D01*
X916780Y574420D01*
X916780Y559620D01*
X916460Y558100D01*
X915600Y556800D01*
X914300Y555920D01*
X912780Y555620D01*
X898060Y555620D01*
X896520Y555920D01*
X895220Y556800D01*
X894360Y558100D01*
X894060Y559620D01*
X894060Y574420D01*
X877500Y574420D01*
X877500Y569260D01*
X877780Y566780D01*
X878520Y564620D01*
X879740Y562700D01*
X881360Y561080D01*
X882099Y560620D01*
X883259Y559520D01*
X883880Y558040D01*
X883880Y556440D01*
X883259Y554960D01*
X882099Y553840D01*
X881360Y553380D01*
X880220Y552240D01*
X878920Y551380D01*
X877380Y551080D01*
X852580Y551080D01*
X851260Y551300D01*
X849940Y551760D01*
X848540Y552600D01*
X847600Y553940D01*
X847260Y555540D01*
X847600Y557140D01*
X848540Y558460D01*
X849940Y559320D01*
X852340Y560140D01*
X854260Y561360D01*
X855879Y562980D01*
X857080Y564900D01*
X857840Y567060D01*
X858120Y569540D01*
X858120Y574760D01*
X841919Y574760D01*
X841919Y555960D01*
X841620Y554420D01*
X840740Y553120D01*
X839440Y552260D01*
X837920Y551960D01*
X823900Y551960D01*
X822380Y552260D01*
X821080Y553120D01*
X820220Y554420D01*
X819900Y555960D01*
X819900Y574760D01*
X803700Y574760D01*
X803700Y569540D01*
X803980Y567060D01*
X804740Y564900D01*
X805939Y562980D01*
X807560Y561360D01*
X809479Y560140D01*
X811880Y559320D01*
X813280Y558460D01*
X814220Y557140D01*
X814560Y555540D01*
X814220Y553940D01*
X813280Y552600D01*
X811880Y551760D01*
X809479Y550920D01*
X807560Y549720D01*
X805939Y548100D01*
X804740Y546180D01*
X803980Y544020D01*
X803700Y541540D01*
X803700Y510220D01*
X803980Y507740D01*
X804740Y505580D01*
X805939Y503660D01*
X807560Y502040D01*
X809479Y500840D01*
X811640Y500080D01*
X814120Y499799D01*
X847700Y499799D01*
X850180Y500080D01*
X851220Y500439D01*
X852540Y500680D01*
X901480Y500680D01*
X904840Y500880D01*
X905680Y501000D01*
X909700Y502000D01*
X913040Y503420D01*
X914580Y503720D01*
X922900Y503720D01*
X925400Y504000D01*
X927420Y504720D01*
X928740Y504940D01*
X952240Y504940D01*
X953780Y504640D01*
X955080Y503760D01*
X966640Y492200D01*
X967500Y490920D01*
X967800Y489380D01*
X967800Y426340D01*
X967500Y424799D01*
X966640Y423519D01*
X965340Y422640D01*
X963800Y422340D01*
X941919Y422340D01*
X940280Y422700D01*
X938920Y423720D01*
X938100Y425200D01*
X937960Y426880D01*
X938540Y428480D01*
X939740Y429680D01*
X942980Y431820D01*
X945740Y434340D01*
X948020Y437280D01*
X949800Y440560D01*
X949920Y440940D01*
X925660Y440940D01*
X925660Y426340D01*
X925360Y424799D01*
X924479Y423519D01*
X923180Y422640D01*
X921660Y422340D01*
X904980Y422340D01*
X903560Y422239D01*
X887940Y422239D01*
X886420Y422540D01*
X885120Y423400D01*
X884260Y424700D01*
X883940Y426240D01*
X883940Y440940D01*
X859680Y440940D01*
X859800Y440560D01*
X861580Y437280D01*
X863880Y434340D01*
X866620Y431820D01*
X869740Y429760D01*
X873100Y428300D01*
X874360Y427420D01*
X875200Y426140D01*
X875480Y424640D01*
X875200Y423120D01*
X874360Y421840D01*
X873100Y420980D01*
X869740Y419500D01*
X866620Y417460D01*
X863880Y414940D01*
X861580Y411980D01*
X859800Y408700D01*
X858600Y405180D01*
X857980Y401500D01*
X857980Y397760D01*
X858600Y394080D01*
X859800Y390560D01*
X861580Y387280D01*
X863880Y384340D01*
X866620Y381820D01*
X869880Y379680D01*
X871060Y378480D01*
X871640Y376880D01*
X871520Y375200D01*
X870699Y373700D01*
X869340Y372700D01*
X867680Y372340D01*
X851620Y372340D01*
X850080Y372640D01*
X848780Y373500D01*
X847920Y374799D01*
X847620Y376340D01*
X847620Y413160D01*
X847280Y417060D01*
X846360Y420700D01*
X844860Y424120D01*
X842780Y427299D01*
X840879Y429480D01*
X819580Y450760D01*
X816600Y453300D01*
X813379Y455220D01*
X809880Y456580D01*
X806180Y457360D01*
X803280Y457540D01*
X792220Y457540D01*
X790680Y457840D01*
X789400Y458700D01*
X788520Y460000D01*
X788220Y461540D01*
X788220Y468540D01*
X787940Y471019D01*
X787180Y473180D01*
X785980Y475100D01*
X784360Y476719D01*
X782440Y477939D01*
X780280Y478680D01*
X777800Y478960D01*
X744220Y478960D01*
X741740Y478680D01*
X739580Y477939D01*
X737660Y476719D01*
X736040Y475100D01*
X734840Y473180D01*
X734080Y471019D01*
X733800Y468540D01*
X733800Y437239D01*
X734080Y434760D01*
X734840Y432600D01*
X736040Y430680D01*
X737660Y429060D01*
X739580Y427840D01*
X741979Y427020D01*
X743379Y426160D01*
X744320Y424840D01*
X744659Y423240D01*
X744320Y421640D01*
X743379Y420300D01*
X741979Y419460D01*
X740100Y419040D01*
X691880Y419040D01*
X690340Y419340D01*
X689040Y420200D01*
X577980Y531280D01*
X575000Y533800D01*
X571780Y535720D01*
X568280Y537080D01*
X564580Y537860D01*
X561680Y538040D01*
X552760Y538040D01*
X551320Y538300D01*
X546200Y541580D01*
X542020Y543460D01*
X537620Y544660D01*
X533080Y545200D01*
X528500Y545020D01*
X524020Y544140D01*
X519700Y542600D01*
X515700Y540420D01*
X512060Y537640D01*
X508880Y534340D01*
X506260Y530600D01*
X504219Y526500D01*
X502840Y522140D01*
X502140Y517620D01*
X502140Y513060D01*
X502840Y508540D01*
X504219Y504180D01*
X506260Y500080D01*
X507020Y498960D01*
X507680Y497220D01*
X508680Y496560D01*
X512060Y493040D01*
X515700Y490260D01*
X519700Y488080D01*
X524020Y486540D01*
X528500Y485660D01*
X533080Y485480D01*
X537620Y486019D01*
X542020Y487220D01*
X546200Y489099D01*
X549400Y491160D01*
X550640Y491700D01*
X552000Y491780D01*
X553300Y491420D01*
X554400Y490640D01*
X664640Y380400D01*
X667640Y377879D01*
X670840Y375959D01*
X674340Y374600D01*
X678040Y373820D01*
X680939Y373640D01*
X732400Y373640D01*
X733720Y373420D01*
X734900Y372760D01*
X736040Y371360D01*
X737140Y370260D01*
X738000Y368980D01*
X738319Y367440D01*
X738319Y354900D01*
X738640Y351000D01*
X739560Y347360D01*
X741060Y343940D01*
X743139Y340760D01*
X745220Y338420D01*
X746060Y336880D01*
X746160Y335120D01*
X745500Y333480D01*
X744200Y332299D01*
X742500Y331780D01*
X740759Y332040D01*
X738720Y332840D01*
X735020Y333620D01*
X732120Y333800D01*
X707840Y333800D01*
X706700Y333960D01*
X705660Y334440D01*
X703220Y336019D01*
X701100Y336760D01*
X698600Y337040D01*
X663620Y337040D01*
X661140Y336760D01*
X658980Y336000D01*
X657060Y334799D01*
X655440Y333180D01*
X654220Y331260D01*
X653480Y329099D01*
X653199Y326620D01*
X653199Y295560D01*
X653480Y293080D01*
X654220Y290940D01*
X655440Y289000D01*
X657060Y287400D01*
X657800Y286920D01*
X658960Y285820D01*
X659580Y284340D01*
X659580Y282740D01*
X658960Y281260D01*
X657800Y280140D01*
X657060Y279680D01*
X655440Y278080D01*
X654220Y276140D01*
X653480Y274000D01*
X653199Y271500D01*
X653199Y240460D01*
X653480Y237960D01*
X654220Y235820D01*
X655440Y233880D01*
X657060Y232280D01*
X658980Y231060D01*
X661140Y230320D01*
X663620Y230040D01*
X698600Y230040D01*
X701100Y230320D01*
X703240Y231060D01*
X705180Y232280D01*
X706460Y233560D01*
X707760Y234420D01*
X709280Y234740D01*
X710819Y234420D01*
X712120Y233560D01*
X768319Y177380D01*
X770960Y175400D01*
X773800Y173980D01*
X776840Y173100D01*
X780180Y172800D01*
X789960Y172800D01*
X791480Y172500D01*
X792760Y171660D01*
X793640Y170400D01*
X793960Y168900D01*
X793700Y167380D01*
X792900Y166080D01*
X791640Y165180D01*
X790920Y164840D01*
X786440Y161980D01*
X782380Y158560D01*
X778820Y154620D01*
X775819Y150240D01*
X773439Y145500D01*
X771700Y140500D01*
X770639Y135300D01*
X770280Y130000D01*
X770639Y124700D01*
X771700Y119500D01*
X773439Y114500D01*
X775819Y109760D01*
X778820Y105380D01*
X782380Y101440D01*
X786440Y98020D01*
X790920Y95160D01*
X795720Y92940D01*
X800800Y91359D01*
X806020Y90480D01*
X811320Y90300D01*
X816600Y90840D01*
X821760Y92060D01*
X826720Y93980D01*
X831380Y96519D01*
X835639Y99660D01*
X839460Y103360D01*
X842740Y107520D01*
X845460Y112080D01*
X847520Y116980D01*
X848920Y122080D01*
X849640Y127340D01*
X849640Y132660D01*
X848920Y137920D01*
X847520Y143020D01*
X845460Y147920D01*
X842740Y152480D01*
X839460Y156640D01*
X835639Y160340D01*
X831380Y163480D01*
X828060Y165300D01*
X826760Y166439D01*
X826060Y168039D01*
X826120Y169800D01*
X826900Y171340D01*
X828280Y172420D01*
X829980Y172800D01*
X889960Y172800D01*
X891480Y172500D01*
X892760Y171660D01*
X893640Y170400D01*
X893960Y168900D01*
X893700Y167380D01*
X892900Y166080D01*
X891640Y165180D01*
X890920Y164840D01*
X886440Y161980D01*
X882380Y158560D01*
X878820Y154620D01*
X875819Y150240D01*
X873439Y145500D01*
X871700Y140500D01*
X870639Y135300D01*
X870280Y130000D01*
X870639Y124700D01*
X871700Y119500D01*
X873439Y114500D01*
X875819Y109760D01*
X878820Y105380D01*
X882380Y101440D01*
X886440Y98020D01*
X890920Y95160D01*
X895720Y92940D01*
X900800Y91359D01*
X906020Y90480D01*
X911320Y90300D01*
X916600Y90840D01*
X921760Y92060D01*
X926720Y93980D01*
X931380Y96519D01*
X935639Y99660D01*
X939460Y103360D01*
X942740Y107520D01*
X945460Y112080D01*
X947520Y116980D01*
X948920Y122080D01*
X949640Y127340D01*
X949640Y132660D01*
X948920Y137920D01*
X947520Y143020D01*
X945460Y147920D01*
X942740Y152480D01*
X939460Y156640D01*
X935639Y160340D01*
X931380Y163480D01*
X928060Y165300D01*
X926760Y166439D01*
X926060Y168039D01*
X926120Y169800D01*
X926900Y171340D01*
X928280Y172420D01*
X929980Y172800D01*
X989960Y172800D01*
X991480Y172500D01*
X992760Y171660D01*
X993640Y170400D01*
X993960Y168900D01*
X993700Y167380D01*
X992900Y166080D01*
X991640Y165180D01*
X990920Y164840D01*
X986440Y161980D01*
X982380Y158560D01*
X978820Y154620D01*
X975819Y150240D01*
X973439Y145500D01*
X971700Y140500D01*
X970639Y135300D01*
X970280Y130000D01*
X970639Y124700D01*
X971700Y119500D01*
X973439Y114500D01*
X975819Y109760D01*
X978820Y105380D01*
X982380Y101440D01*
X986440Y98020D01*
X990920Y95160D01*
X995720Y92940D01*
X1000800Y91359D01*
X1006020Y90480D01*
X1011320Y90300D01*
X1016600Y90840D01*
X1021760Y92060D01*
X1026720Y93980D01*
X1031380Y96519D01*
X1035639Y99660D01*
X1039460Y103360D01*
X1042740Y107520D01*
X1045460Y112080D01*
X1047520Y116980D01*
X1048920Y122080D01*
X1049640Y127340D01*
X1049640Y132340D01*
X1049940Y133860D01*
X1050800Y135160D01*
X1068320Y152680D01*
X1069660Y153560D01*
X1071240Y153860D01*
X1072800Y153500D01*
X1074100Y152560D01*
X1074920Y151180D01*
X1075140Y149600D01*
X1074720Y148060D01*
X1073440Y145500D01*
X1071700Y140500D01*
X1070640Y135300D01*
X1070280Y130000D01*
X1070640Y124700D01*
X1071700Y119500D01*
X1073440Y114500D01*
X1075820Y109760D01*
X1078820Y105380D01*
X1082380Y101440D01*
X1086440Y98020D01*
X1090920Y95160D01*
X1095720Y92940D01*
X1100800Y91359D01*
X1106020Y90480D01*
X1111320Y90300D01*
X1116600Y90840D01*
X1121760Y92060D01*
X1126720Y93980D01*
X1131380Y96519D01*
X1135640Y99660D01*
X1139460Y103360D01*
X1142740Y107520D01*
X1145460Y112080D01*
X1147520Y116980D01*
X1148920Y122080D01*
X1149640Y127340D01*
X1149640Y132660D01*
X1148920Y137920D01*
X1147520Y143020D01*
X1145460Y147920D01*
X1142740Y152480D01*
X1139460Y156640D01*
X1135640Y160340D01*
X1131380Y163480D01*
X1126720Y166020D01*
X1121760Y167940D01*
X1116600Y169160D01*
X1111320Y169700D01*
X1106020Y169520D01*
X1100800Y168640D01*
X1095720Y167060D01*
X1091900Y165280D01*
X1090360Y164920D01*
X1088780Y165180D01*
X1087440Y166020D01*
X1086540Y167320D01*
X1086200Y168860D01*
X1086500Y170420D01*
X1087380Y171740D01*
X1099260Y183619D01*
X1100560Y184500D01*
X1102100Y184800D01*
X1339460Y184800D01*
X1340980Y184500D01*
X1342280Y183619D01*
X1376399Y149500D01*
X1378899Y147300D01*
X1379600Y146780D01*
X1382380Y145040D01*
X1383160Y144640D01*
X1386200Y143380D01*
X1387040Y143120D01*
X1391100Y142240D01*
X1394440Y142040D01*
X1562980Y142040D01*
X1566300Y142240D01*
X1570380Y143120D01*
X1571220Y143380D01*
X1574259Y144640D01*
X1577820Y146780D01*
X1578520Y147300D01*
X1581020Y149500D01*
X1618440Y186940D01*
X1620640Y189420D01*
X1621160Y190120D01*
X1622900Y192920D01*
X1623300Y193700D01*
X1624840Y197560D01*
X1625580Y200780D01*
X1625700Y201640D01*
X1625900Y204960D01*
X1625900Y288520D01*
X1625700Y291840D01*
X1625580Y292700D01*
X1624840Y295900D01*
X1623300Y299780D01*
X1622900Y300560D01*
X1620640Y304060D01*
X1618440Y306540D01*
X1597600Y327380D01*
X1595100Y329580D01*
X1594400Y330100D01*
X1590840Y332260D01*
X1586960Y333780D01*
X1583760Y334520D01*
X1582900Y334640D01*
X1579580Y334840D01*
X1461660Y334840D01*
X1460340Y335080D01*
X1459280Y335460D01*
X1456780Y335740D01*
X1423220Y335740D01*
X1420720Y335460D01*
X1418580Y334700D01*
X1416639Y333480D01*
X1415040Y331880D01*
X1413820Y329940D01*
X1413080Y327800D01*
X1412900Y326260D01*
X1412480Y324860D01*
X1411600Y323720D01*
X1410360Y322960D01*
X1408920Y322700D01*
X1316579Y322700D01*
X1314940Y323040D01*
X1312240Y324260D01*
X1307440Y325620D01*
X1302500Y326320D01*
X1297500Y326320D01*
X1292560Y325620D01*
X1287760Y324260D01*
X1285060Y323040D01*
X1283420Y322700D01*
X1241060Y322700D01*
X1239520Y323000D01*
X1238240Y323880D01*
X1213880Y348220D01*
X1213020Y349520D01*
X1212700Y351060D01*
X1212800Y509320D01*
X1212480Y513220D01*
X1211560Y516860D01*
X1210060Y520280D01*
X1207980Y523459D01*
X1206060Y525640D01*
X1204700Y527000D01*
X1203840Y528300D01*
X1203520Y529840D01*
X1203520Y539300D01*
X1203240Y541780D01*
X1202500Y543940D01*
X1201280Y545860D01*
X1199680Y547480D01*
X1198920Y547940D01*
X1197760Y549060D01*
X1197140Y550540D01*
X1197140Y552140D01*
X1197760Y553620D01*
X1198920Y554720D01*
X1199680Y555180D01*
X1201280Y556800D01*
X1202500Y558720D01*
X1203240Y560880D01*
X1203520Y563360D01*
X1203520Y568520D01*
X1186980Y568520D01*
X1186980Y553720D01*
X1186660Y552200D01*
X1185800Y550900D01*
X1184500Y550020D01*
X1182980Y549720D01*
X1168260Y549720D01*
X1166720Y550020D01*
X1165420Y550900D01*
X1164560Y552200D01*
X1164260Y553720D01*
X1164260Y568520D01*
X1156720Y568520D01*
X1155180Y568820D01*
X1153880Y569680D01*
X1153020Y570980D01*
X1152720Y572520D01*
X1152720Y585260D01*
X1153020Y586800D01*
X1153880Y588100D01*
X1155180Y588960D01*
X1156720Y589260D01*
X1164260Y589260D01*
X1164260Y604840D01*
X1158120Y604840D01*
X1156380Y604640D01*
X1155000Y604720D01*
X1153740Y605280D01*
X1152720Y606220D01*
X1152100Y607440D01*
X1151480Y609460D01*
X1150820Y611080D01*
X1150000Y612640D01*
X1149060Y614120D01*
X1147980Y615520D01*
X1146740Y616880D01*
X1129360Y634260D01*
X1128000Y635500D01*
X1126600Y636580D01*
X1125100Y637520D01*
X1123540Y638340D01*
X1121920Y639020D01*
X1120240Y639540D01*
X1118520Y639920D01*
X1116780Y640160D01*
X1114920Y640240D01*
X1051320Y640240D01*
X1049700Y640580D01*
X1048340Y641560D01*
X1047520Y643020D01*
X1047360Y644680D01*
X1047520Y646140D01*
X1047520Y651360D01*
X1031320Y651360D01*
X1031320Y644240D01*
X1031000Y642700D01*
X1030140Y641400D01*
X1028840Y640540D01*
X1027320Y640240D01*
X1013300Y640240D01*
X1011780Y640540D01*
X1010480Y641400D01*
X1009599Y642700D01*
X1009300Y644240D01*
X1009300Y651360D01*
X993100Y651360D01*
X993100Y646140D01*
X993259Y644680D01*
X993100Y643020D01*
X992280Y641560D01*
X990920Y640580D01*
X989300Y640240D01*
X979040Y640240D01*
X977500Y640540D01*
X976200Y641400D01*
X953500Y664120D01*
X952620Y665420D01*
X952320Y666940D01*
X952320Y679640D01*
X952039Y682120D01*
X951280Y684280D01*
X950080Y686200D01*
X948460Y687820D01*
X946540Y689020D01*
X944140Y689860D01*
X942740Y690699D01*
X941800Y692039D01*
X941460Y693640D01*
X941800Y695240D01*
X942740Y696560D01*
X944140Y697420D01*
X946540Y698240D01*
X948460Y699460D01*
X950080Y701080D01*
X951280Y703000D01*
X952039Y705160D01*
X952320Y707640D01*
X952320Y738940D01*
X952039Y741420D01*
X951280Y743580D01*
X950080Y745500D01*
X948460Y747120D01*
X946180Y748560D01*
X945180Y749440D01*
X944539Y750620D01*
X944300Y751940D01*
X944300Y806940D01*
X944620Y808460D01*
X945480Y809760D01*
X1025180Y889460D01*
X1026480Y890320D01*
X1028020Y890639D01*
X1029539Y890320D01*
X1030840Y889460D01*
X1031700Y888160D01*
X1032020Y886640D01*
X1032020Y761600D01*
X1031700Y760080D01*
X1030840Y758780D01*
X1020400Y748340D01*
X1019120Y747480D01*
X1017580Y747180D01*
X1003520Y747180D01*
X1001040Y746900D01*
X998880Y746140D01*
X996960Y744920D01*
X995340Y743319D01*
X994140Y741380D01*
X993379Y739240D01*
X993100Y736740D01*
X993100Y705440D01*
X993379Y702960D01*
X994140Y700800D01*
X995340Y698880D01*
X996960Y697260D01*
X998880Y696060D01*
X1001280Y695220D01*
X1002680Y694380D01*
X1003620Y693040D01*
X1003960Y691440D01*
X1003620Y689840D01*
X1002680Y688520D01*
X1001280Y687660D01*
X998880Y686840D01*
X996960Y685620D01*
X995340Y684000D01*
X994140Y682080D01*
X993379Y679920D01*
X993100Y677440D01*
X993100Y672220D01*
X1009300Y672220D01*
X1009300Y691020D01*
X1009599Y692560D01*
X1010480Y693860D01*
X1011780Y694720D01*
X1013300Y695020D01*
X1027320Y695020D01*
X1028840Y694720D01*
X1030140Y693860D01*
X1031000Y692560D01*
X1031320Y691020D01*
X1031320Y672220D01*
X1047520Y672220D01*
X1047520Y677440D01*
X1047240Y679920D01*
X1046480Y682080D01*
X1045280Y684000D01*
X1043660Y685620D01*
X1041740Y686840D01*
X1039340Y687660D01*
X1037940Y688520D01*
X1037000Y689840D01*
X1036660Y691440D01*
X1037000Y693040D01*
X1037940Y694380D01*
X1039340Y695220D01*
X1041740Y696060D01*
X1043660Y697260D01*
X1045280Y698880D01*
X1046480Y700800D01*
X1047240Y702960D01*
X1047520Y705440D01*
X1047520Y719500D01*
X1047820Y721020D01*
X1048680Y722320D01*
X1065300Y738960D01*
X1067520Y741900D01*
X1069100Y745060D01*
X1070060Y748480D01*
X1070420Y752180D01*
X1070420Y824620D01*
X1070720Y826140D01*
X1071580Y827440D01*
X1072880Y828300D01*
X1074420Y828620D01*
X1075940Y828300D01*
X1077240Y827440D01*
X1183760Y720920D01*
X1185120Y719659D01*
X1186520Y718600D01*
X1188020Y717640D01*
X1189580Y716840D01*
X1191200Y716160D01*
X1192880Y715639D01*
X1194600Y715260D01*
X1196340Y715020D01*
X1198200Y714940D01*
X1317800Y714940D01*
X1319500Y714560D01*
X1320860Y713500D01*
X1321660Y711979D01*
X1321740Y710240D01*
X1318820Y704220D01*
X1317440Y699860D01*
X1316740Y695340D01*
X1316740Y690780D01*
X1317440Y686260D01*
X1318820Y681900D01*
X1320860Y677800D01*
X1323480Y674060D01*
X1325220Y672260D01*
X1326040Y670980D01*
X1326320Y669479D01*
X1326320Y599380D01*
X1326020Y597860D01*
X1325160Y596560D01*
X1278000Y549400D01*
X1276780Y548560D01*
X1275340Y548240D01*
X1272180Y548120D01*
X1267700Y547240D01*
X1263380Y545700D01*
X1259380Y543520D01*
X1255740Y540740D01*
X1252560Y537440D01*
X1249940Y533700D01*
X1247900Y529600D01*
X1246520Y525240D01*
X1245820Y520720D01*
X1245820Y516160D01*
X1246520Y511640D01*
X1247900Y507280D01*
X1249940Y503180D01*
X1252560Y499440D01*
X1255740Y496140D01*
X1259380Y493360D01*
X1263380Y491180D01*
X1267700Y489640D01*
X1272180Y488760D01*
X1276760Y488579D01*
X1281300Y489120D01*
X1285700Y490319D01*
X1289880Y492200D01*
X1293720Y494680D01*
X1297140Y497720D01*
X1300040Y501260D01*
X1302380Y505180D01*
X1304100Y509420D01*
X1305140Y513880D01*
X1305480Y518380D01*
X1305840Y519739D01*
X1306639Y520900D01*
X1360760Y575020D01*
X1362000Y576380D01*
X1363080Y577780D01*
X1364019Y579260D01*
X1364840Y580820D01*
X1365880Y583660D01*
X1366660Y585060D01*
X1367940Y586040D01*
X1369500Y586440D01*
X1371100Y586200D01*
X1372460Y585340D01*
X1373380Y584020D01*
X1373700Y582460D01*
X1373700Y564000D01*
X1373400Y562480D01*
X1372540Y561180D01*
X1331160Y519720D01*
X1329940Y518380D01*
X1328839Y516960D01*
X1327920Y515500D01*
X1327080Y513920D01*
X1326420Y512299D01*
X1325880Y510600D01*
X1325520Y508900D01*
X1325280Y507140D01*
X1325200Y505319D01*
X1325200Y446079D01*
X1325280Y444260D01*
X1325520Y442500D01*
X1325880Y440780D01*
X1326420Y439099D01*
X1327080Y437480D01*
X1327920Y435900D01*
X1328839Y434420D01*
X1329920Y433020D01*
X1331160Y431659D01*
X1403240Y359480D01*
X1404620Y358220D01*
X1406000Y357160D01*
X1407500Y356200D01*
X1409040Y355400D01*
X1410700Y354720D01*
X1412360Y354200D01*
X1414100Y353820D01*
X1415820Y353579D01*
X1417680Y353500D01*
X1639379Y353500D01*
X1640900Y353200D01*
X1642200Y352320D01*
X1655720Y338800D01*
X1656600Y337500D01*
X1656900Y335980D01*
X1656900Y184040D01*
X1656600Y182500D01*
X1655720Y181200D01*
X1599379Y124940D01*
X1598100Y124080D01*
X1596600Y123760D01*
X1353320Y120380D01*
X1351660Y120719D01*
X1350280Y121740D01*
X1349440Y123219D01*
X1349300Y124920D01*
X1349640Y127340D01*
X1349640Y132660D01*
X1348920Y137920D01*
X1347520Y143020D01*
X1345460Y147920D01*
X1342740Y152480D01*
X1339460Y156640D01*
X1335640Y160340D01*
X1331380Y163480D01*
X1326720Y166020D01*
X1321759Y167940D01*
X1316600Y169160D01*
X1311320Y169700D01*
X1306020Y169520D01*
X1300800Y168640D01*
X1295720Y167060D01*
X1290920Y164840D01*
X1286440Y161980D01*
X1282380Y158560D01*
X1278820Y154620D01*
X1275820Y150240D01*
X1273440Y145500D01*
X1271700Y140500D01*
X1270640Y135300D01*
X1270280Y130000D01*
X1270640Y124700D01*
X1271700Y119500D01*
X1273440Y114500D01*
X1275820Y109760D01*
X1278820Y105380D01*
X1282380Y101440D01*
X1286440Y98020D01*
X1290920Y95160D01*
X1295720Y92940D01*
X1300800Y91359D01*
X1306020Y90480D01*
X1311320Y90300D01*
X1316600Y90840D01*
X1317660Y91080D01*
X1319000Y91180D01*
X1320300Y90800D01*
X1321420Y90020D01*
X1325640Y85780D01*
X1327260Y84340D01*
X1328400Y83480D01*
X1330560Y82160D01*
X1331900Y81039D01*
X1332640Y79420D01*
X1332620Y77660D01*
X1331840Y76080D01*
X1330460Y74980D01*
X1328740Y74600D01*
G37*

%LPC*%
G36*
X580700Y90280D02*
G01*
X592740Y90280D01*
X592740Y112739D01*
X570280Y112739D01*
X570280Y100700D01*
X570560Y98200D01*
X571300Y96060D01*
X572520Y94120D01*
X574120Y92520D01*
X576060Y91300D01*
X578200Y90559D01*
G37*
G36*
X627260Y90280D02*
G01*
X639300Y90280D01*
X641800Y90559D01*
X643940Y91300D01*
X645879Y92520D01*
X647480Y94120D01*
X648700Y96060D01*
X649440Y98200D01*
X649720Y100700D01*
X649720Y112739D01*
X627260Y112739D01*
G37*
G36*
X711320Y90300D02*
G01*
X716600Y90840D01*
X721760Y92060D01*
X726720Y93980D01*
X731380Y96519D01*
X735639Y99660D01*
X739460Y103360D01*
X742740Y107520D01*
X745460Y112080D01*
X747520Y116980D01*
X748920Y122080D01*
X749640Y127340D01*
X749640Y132660D01*
X748920Y137920D01*
X747520Y143020D01*
X745460Y147920D01*
X742740Y152480D01*
X739460Y156640D01*
X735639Y160340D01*
X731380Y163480D01*
X726720Y166020D01*
X721760Y167940D01*
X716600Y169160D01*
X711320Y169700D01*
X706020Y169520D01*
X700800Y168640D01*
X695720Y167060D01*
X690920Y164840D01*
X686440Y161980D01*
X682380Y158560D01*
X678820Y154620D01*
X675819Y150240D01*
X673439Y145500D01*
X671700Y140500D01*
X670639Y135300D01*
X670280Y130000D01*
X670639Y124700D01*
X671700Y119500D01*
X673439Y114500D01*
X675819Y109760D01*
X678820Y105380D01*
X682380Y101440D01*
X686440Y98020D01*
X690920Y95160D01*
X695720Y92940D01*
X700800Y91359D01*
X706020Y90480D01*
G37*
G36*
X1211320Y90300D02*
G01*
X1216600Y90840D01*
X1221760Y92060D01*
X1226720Y93980D01*
X1231380Y96519D01*
X1235640Y99660D01*
X1239460Y103360D01*
X1242740Y107520D01*
X1245460Y112080D01*
X1247520Y116980D01*
X1248920Y122080D01*
X1249640Y127340D01*
X1249640Y132660D01*
X1248920Y137920D01*
X1247520Y143020D01*
X1245460Y147920D01*
X1242740Y152480D01*
X1239460Y156640D01*
X1235640Y160340D01*
X1231380Y163480D01*
X1226720Y166020D01*
X1221760Y167940D01*
X1216600Y169160D01*
X1211320Y169700D01*
X1206020Y169520D01*
X1200800Y168640D01*
X1195720Y167060D01*
X1190920Y164840D01*
X1186440Y161980D01*
X1182380Y158560D01*
X1178820Y154620D01*
X1175820Y150240D01*
X1173440Y145500D01*
X1171700Y140500D01*
X1170640Y135300D01*
X1170280Y130000D01*
X1170640Y124700D01*
X1171700Y119500D01*
X1173440Y114500D01*
X1175820Y109760D01*
X1178820Y105380D01*
X1182380Y101440D01*
X1186440Y98020D01*
X1190920Y95160D01*
X1195720Y92940D01*
X1200800Y91359D01*
X1206020Y90480D01*
G37*
G36*
X627260Y147260D02*
G01*
X649720Y147260D01*
X649720Y159300D01*
X649440Y161800D01*
X648700Y163939D01*
X647480Y165880D01*
X645879Y167480D01*
X643940Y168700D01*
X641800Y169440D01*
X639300Y169720D01*
X627260Y169720D01*
G37*
G36*
X570280Y147260D02*
G01*
X592740Y147260D01*
X592740Y169720D01*
X580700Y169720D01*
X578200Y169440D01*
X576060Y168700D01*
X574120Y167480D01*
X572520Y165880D01*
X571300Y163939D01*
X570560Y161800D01*
X570280Y159300D01*
G37*
G36*
X180180Y257600D02*
G01*
X202060Y257600D01*
X204540Y257880D01*
X206700Y258619D01*
X208619Y259840D01*
X210240Y261460D01*
X211460Y263380D01*
X212200Y265540D01*
X212480Y268020D01*
X212480Y276120D01*
X180180Y276120D01*
G37*
G36*
X457819Y257620D02*
G01*
X463960Y257620D01*
X463960Y273200D01*
X447400Y273200D01*
X447400Y268060D01*
X447680Y265560D01*
X448420Y263420D01*
X449640Y261480D01*
X451260Y259880D01*
X453180Y258660D01*
X455340Y257900D01*
G37*
G36*
X486680Y257620D02*
G01*
X492800Y257620D01*
X495300Y257900D01*
X497440Y258660D01*
X499380Y259880D01*
X500980Y261480D01*
X502200Y263420D01*
X502939Y265560D01*
X503220Y268060D01*
X503220Y273200D01*
X486680Y273200D01*
G37*
G36*
X180180Y302780D02*
G01*
X212480Y302780D01*
X212480Y310880D01*
X212200Y313360D01*
X211460Y315520D01*
X210240Y317440D01*
X208619Y319060D01*
X206700Y320260D01*
X204540Y321019D01*
X202060Y321300D01*
X180180Y321300D01*
G37*
G36*
X1315300Y337080D02*
G01*
X1318959Y339020D01*
X1323000Y341960D01*
X1326600Y345420D01*
X1329660Y349360D01*
X1332160Y353680D01*
X1332320Y354080D01*
X1315300Y354080D01*
G37*
G36*
X1284700Y337080D02*
G01*
X1284700Y354080D01*
X1267680Y354080D01*
X1267840Y353680D01*
X1270340Y349360D01*
X1273400Y345420D01*
X1277000Y341960D01*
X1281040Y339020D01*
G37*
G36*
X1267740Y384660D02*
G01*
X1284700Y384660D01*
X1284700Y401640D01*
X1283200Y400959D01*
X1278960Y398320D01*
X1275140Y395100D01*
X1271800Y391400D01*
X1269020Y387260D01*
G37*
G36*
X1315300Y384660D02*
G01*
X1332260Y384660D01*
X1330980Y387260D01*
X1328200Y391400D01*
X1324860Y395100D01*
X1321040Y398320D01*
X1316800Y400959D01*
X1315300Y401640D01*
G37*
G36*
X925660Y458340D02*
G01*
X949920Y458340D01*
X949800Y458700D01*
X948020Y461980D01*
X945740Y464940D01*
X942980Y467460D01*
X939860Y469500D01*
X936440Y471000D01*
X932840Y471920D01*
X928940Y472239D01*
X925660Y472239D01*
G37*
G36*
X859680Y458340D02*
G01*
X883940Y458340D01*
X883940Y472239D01*
X880660Y472239D01*
X876780Y471920D01*
X873160Y471000D01*
X869740Y469500D01*
X866620Y467460D01*
X863880Y464940D01*
X861580Y461980D01*
X859800Y458700D01*
G37*
G36*
X486680Y482060D02*
G01*
X503220Y482060D01*
X503220Y487220D01*
X502939Y489700D01*
X501860Y493020D01*
X499380Y495400D01*
X497440Y496599D01*
X495300Y497360D01*
X492800Y497640D01*
X486680Y497640D01*
G37*
G36*
X447400Y482060D02*
G01*
X463960Y482060D01*
X463960Y497640D01*
X457819Y497640D01*
X455340Y497360D01*
X453180Y496599D01*
X451260Y495400D01*
X449640Y493780D01*
X448420Y491860D01*
X447680Y489700D01*
X447400Y487220D01*
G37*
G36*
X1186980Y589260D02*
G01*
X1203520Y589260D01*
X1203520Y594420D01*
X1203240Y596900D01*
X1202500Y599060D01*
X1201280Y600980D01*
X1199680Y602600D01*
X1197740Y603800D01*
X1195600Y604560D01*
X1193100Y604840D01*
X1186980Y604840D01*
G37*
G36*
X916780Y595160D02*
G01*
X933319Y595160D01*
X933319Y600320D01*
X933040Y602800D01*
X932300Y604960D01*
X931080Y606880D01*
X929479Y608500D01*
X927540Y609700D01*
X925400Y610460D01*
X922900Y610740D01*
X916780Y610740D01*
G37*

%LPD*%
D10*
X1080000Y240000D02*
G01*
X1070299Y240100D01*
X1019300Y190000D01*
X780000Y190000D01*
X714000Y255999D01*
X681100Y255999D01*
D11*
X1697597Y518200D02*
G01*
X1691198Y524600D01*
X1630000Y524600D01*
X1688400Y666900D02*
G01*
X1711999Y643299D01*
X1711999Y527899D01*
X1697637Y518220D01*
D12*
X1726899Y1056700D02*
G01*
X1691499Y1056700D01*
X1668999Y1034200D01*
X1668999Y791700D01*
X1611899Y734600D01*
X1611899Y656100D01*
X1479899Y524200D01*
X1479899Y436399D01*
X1518958Y563227D02*
G01*
X1522978Y559207D01*
X1548108Y559207D01*
D11*
X1770000Y70000D02*
G01*
X1786757Y86757D01*
X1786757Y629529D01*
X1726930Y1356729D02*
G01*
X1790625Y1293034D01*
X1790625Y887952D01*
X1786757Y884086D01*
X1786757Y704331D01*
D13*
X1399700Y474000D02*
G01*
X1441499Y515799D01*
X1441499Y645700D01*
X1563299Y767600D01*
X1563299Y811300D01*
X1616199Y864200D01*
X1183500Y1121399D02*
G01*
X1183500Y1038000D01*
X1293500Y928000D01*
X1511499Y928000D01*
X1594399Y1010900D01*
X1594399Y1203299D01*
X1571599Y1225999D01*
X1571599Y1325100D01*
X1503000Y1393699D01*
D14*
X1160999Y1187319D02*
G01*
X1160999Y1143593D01*
X1200369Y1187319D02*
G01*
X1200369Y1143593D01*
X1203013Y1140949D01*
D13*
X468108Y1241439D02*
G01*
X638108Y1241439D01*
X788509Y1391840D01*
X1092709Y1391840D01*
X1121809Y1362739D01*
X1120408Y1259940D01*
D15*
X247208Y970540D02*
G01*
X294409Y970540D01*
X294409Y1123640D01*
X370509Y1199740D01*
X681608Y1199740D01*
X813708Y1331840D01*
X1029408Y1331840D01*
X1076409Y1284839D01*
D13*
X1156508Y1256536D02*
G01*
X1156508Y1404834D01*
X1136810Y1424533D01*
X746010Y1424533D01*
X611030Y1289553D01*
X522442Y1289553D01*
X517168Y1284279D01*
X997004Y1123490D02*
G01*
X997004Y1140302D01*
X925109Y723339D02*
G01*
X925109Y816540D01*
X1014209Y905639D01*
X1014209Y1107539D01*
X998308Y1123440D01*
X1048708Y1251840D02*
G01*
X1018208Y1282240D01*
X843909Y1282240D01*
X645608Y1083939D01*
X510808Y1083939D01*
X510808Y1069040D01*
D14*
X1042908Y1187339D02*
G01*
X1042908Y1152739D01*
X1062008Y1133640D01*
X1069408Y1133640D01*
X944447Y1179119D02*
G01*
X944476Y1145740D01*
X933747Y1118319D01*
X964108Y1181939D02*
G01*
X964209Y1127339D01*
X924778Y1187319D02*
G01*
X924808Y1153939D01*
X896341Y1118355D01*
D13*
X966608Y1003139D02*
G01*
X965506Y1121828D01*
X1020311Y721095D02*
G01*
X1051212Y751997D01*
X1051208Y1108840D01*
D14*
X905099Y1187319D02*
G01*
X905109Y1225540D01*
X1062609Y1187339D02*
G01*
X1062609Y1231739D01*
D13*
X896611Y1129938D02*
G01*
X896313Y1042752D01*
X806460Y952899D01*
X484448Y952899D01*
X647609Y810790D02*
G01*
X715052Y810790D01*
X907611Y1003350D01*
X907611Y1004749D01*
X933711Y1030850D01*
X933708Y1118339D01*
X744011Y748634D02*
G01*
X744011Y756154D01*
X904709Y916851D01*
X904709Y939351D01*
X966508Y1001239D01*
D14*
X1003518Y1187319D02*
G01*
X1003518Y1242548D01*
X1006122Y1245151D01*
X986440Y1152121D02*
G01*
X983838Y1154722D01*
X983838Y1187319D01*
X1023208Y1187319D02*
G01*
X1023208Y1136453D01*
X1047812Y1111851D01*
D13*
X1124209Y924439D02*
G01*
X1124209Y871640D01*
X1211809Y784040D01*
X1460308Y784040D01*
X1467008Y790740D01*
D15*
X1398809Y735140D02*
G01*
X1198109Y735140D01*
X1084008Y849239D01*
X1084008Y1103139D01*
D16*
X905408Y529639D02*
G01*
X1003009Y529639D01*
X1056608Y583240D01*
X1087709Y583240D01*
X905408Y529639D02*
G01*
X907408Y527640D01*
X963308Y527640D01*
X990509Y500439D01*
X990509Y406640D01*
X983509Y399639D01*
X904808Y399639D01*
D13*
X1001508Y1245140D02*
G01*
X994808Y1251840D01*
X855009Y1251840D01*
X641208Y1038040D01*
X607809Y1038040D01*
D15*
X357408Y862539D02*
G01*
X365540Y901540D01*
X365608Y901540D01*
X1224711Y1245135D02*
G01*
X1228510Y1265835D01*
X1226611Y1464036D01*
X1197807Y1492840D01*
X640088Y1492840D01*
X392908Y1245659D01*
X925110Y663935D02*
G01*
X969011Y620034D01*
X1115011Y620034D01*
X1132511Y602534D01*
X1132511Y523834D01*
X185109Y970534D02*
G01*
X304612Y970534D01*
X331511Y943636D01*
X331511Y889418D01*
X379789Y841140D01*
D14*
X1224711Y1245135D02*
G01*
X1220059Y1240482D01*
X1220059Y1187319D01*
X1183290Y1239450D02*
G01*
X1195210Y1251370D01*
X1195210Y1262851D01*
D16*
X919750Y238335D02*
G01*
X917851Y236435D01*
X806912Y236435D01*
X732249Y311095D01*
X681111Y311095D01*
X761013Y452894D02*
G01*
X779075Y434832D01*
X803410Y434832D01*
X824909Y413332D01*
X824909Y362836D01*
X838110Y349634D01*
X904800Y349634D01*
X761013Y393575D02*
G01*
X761013Y354733D01*
X816111Y299634D01*
X904800Y299634D01*
X680812Y396336D02*
G01*
X561808Y515340D01*
X531929Y515340D01*
X761010Y393575D02*
G01*
X758249Y396336D01*
X680812Y396336D01*
X904803Y349636D02*
G01*
X939812Y349636D01*
X979071Y310376D01*
X979071Y238335D01*
D12*
X1087712Y523874D02*
G01*
X1175608Y523775D01*
X830910Y525871D02*
G01*
X901608Y525871D01*
X905407Y529677D01*
X185061Y970489D02*
G01*
X366095Y970489D01*
X375311Y979704D01*
X361808Y574938D02*
G01*
X396529Y609659D01*
X430000Y609659D01*
D16*
X379719Y722660D02*
G01*
X344544Y757835D01*
X292170Y757835D01*
X154810Y697074D02*
G01*
X156570Y698834D01*
X208710Y698834D01*
X229211Y719335D01*
X229211Y806835D01*
X219211Y816835D01*
X219211Y862134D01*
D13*
X1262012Y1240335D02*
G01*
X1262012Y1276435D01*
X1280712Y1295135D01*
X1412308Y1295135D01*
X1478603Y1228840D01*
X1505708Y1228840D01*
D14*
X1120410Y1259951D02*
G01*
X1101949Y1241491D01*
X1101949Y1187319D01*
X1143921Y1238751D02*
G01*
X1143921Y1243960D01*
X1156511Y1256550D01*
D13*
X1203010Y1140951D02*
G01*
X1183510Y1121451D01*
D14*
X986441Y1152121D02*
G01*
X998311Y1140250D01*
D13*
X1084011Y1103150D02*
G01*
X1084011Y1119050D01*
X1069411Y1133650D01*
D14*
X1141319Y1187319D02*
G01*
X1141319Y1236149D01*
X1143921Y1238750D01*
D13*
X1124210Y924450D02*
G01*
X1124210Y1137750D01*
X1242339Y1128249D02*
G01*
X1242812Y1054351D01*
X1326908Y963249D01*
X1478910Y963249D01*
X1538910Y1023249D01*
X1538910Y1028141D01*
X1556009Y1045239D01*
D14*
X1239738Y1187319D02*
G01*
X1239738Y1130850D01*
X1242339Y1128249D01*
D13*
X1520789Y1090380D02*
G01*
X1520789Y1073629D01*
X1449912Y1002752D01*
X1370312Y1002752D01*
X1283310Y1089751D01*
X1283310Y1138350D01*
D14*
X1262012Y1240351D02*
G01*
X1259429Y1237768D01*
X1259429Y1187319D01*
X1180689Y1187319D02*
G01*
X1180689Y1236849D01*
X1183290Y1239450D01*
D15*
X563209Y816680D02*
G01*
X641718Y816680D01*
X647609Y810788D01*
D14*
X1301410Y1233404D02*
G01*
X1298798Y1230792D01*
X1298798Y1187319D01*
X1279108Y1187319D02*
G01*
X1279108Y1140949D01*
X1281709Y1138350D01*
X1121629Y1187319D02*
G01*
X1121629Y1140356D01*
X1124233Y1137752D01*
D17*
X181810Y960534D02*
G01*
X185111Y970534D01*
D18*
X475309Y338686D02*
G01*
X386930Y338686D01*
X386930Y379989D01*
X475311Y338685D02*
G01*
X475309Y338685D01*
X475309Y416574D01*
D15*
X1346529Y693060D02*
G01*
X1346529Y589358D01*
X1275609Y518440D01*
D12*
X430000Y550338D02*
G01*
X386930Y507269D01*
X386930Y379989D01*
D13*
X1195209Y1262851D02*
G01*
X1195209Y1430850D01*
X1162412Y1463652D01*
X729128Y1463652D01*
X596604Y1331129D01*
X556768Y1331129D01*
D15*
X412710Y1076959D02*
G01*
X417651Y1081900D01*
X417651Y1141035D01*
X510810Y1068995D02*
G01*
X502845Y1076959D01*
X412710Y1076959D01*
D14*
X1082259Y1187319D02*
G01*
X1082259Y1284839D01*
X1076410Y1284839D01*
D13*
X1515938Y1167779D02*
G01*
X1487969Y1167779D01*
X1405298Y1250452D01*
X1318461Y1250452D01*
X1301410Y1233406D01*
D15*
X477029Y803730D02*
G01*
X489978Y816680D01*
X563207Y816680D01*
D19*
X144412Y862134D02*
G01*
X144412Y855158D01*
X144411Y862134D01*
D12*
X144409Y862130D02*
G01*
X154809Y851729D01*
X154809Y756390D01*
X550277Y648240D02*
G01*
X511698Y609659D01*
X430000Y609659D01*
D14*
X1062408Y1232440D02*
G01*
X1048708Y1251840D01*
D12*
X925109Y723339D02*
G01*
X837308Y723339D01*
X837109Y723339D01*
D15*
X925109Y663939D02*
G01*
X890009Y628840D01*
X778909Y628840D01*
X737809Y587739D01*
X640808Y587739D01*
X618108Y610439D01*
X618108Y692339D01*
X589708Y720740D01*
X462908Y720740D01*
X379809Y803840D01*
X379809Y841140D01*
X1501400Y868000D02*
G01*
X1526000Y843000D01*
X1526000Y776999D01*
X1393900Y645000D01*
X1393900Y554000D01*
X1345399Y505399D01*
X1345399Y445999D01*
X1417597Y373701D01*
X1649399Y373701D01*
X1677100Y346001D01*
X1677100Y174000D01*
X1606698Y103701D01*
X1340000Y100000D01*
X1310000Y130000D01*
D16*
X1175600Y524000D02*
G01*
X1190100Y509499D01*
X1190000Y340000D01*
X1230000Y300000D01*
X1116000Y299600D01*
X1230000Y300000D02*
G01*
X1440000Y300000D01*
X1440000Y309650D01*
X1440000Y250340D02*
G01*
X1439400Y249740D01*
D12*
X1010000Y130000D02*
G01*
X1090000Y210000D01*
X1351548Y210000D01*
X1394306Y167240D01*
X1563109Y167240D01*
X1600708Y204839D01*
X1600708Y288640D01*
X1579697Y309650D01*
X1440000Y309650D01*
X1530000Y264600D02*
G01*
X1474600Y264600D01*
X1460339Y250340D01*
X1440000Y250340D01*
D10*
X1440000Y250300D02*
G01*
X1429700Y240000D01*
X1074600Y240000D01*
D12*
X154800Y756300D02*
G01*
X122600Y756300D01*
X61900Y695599D01*
X61900Y238099D01*
X120000Y180000D01*
X323600Y180000D01*
X454200Y49400D01*
X1647799Y49400D01*
X1735799Y137500D01*
X1735799Y364000D01*
X1681199Y418600D01*
X1542200Y418600D01*
X1524300Y436399D01*
X1479899Y436399D01*
X361799Y574899D02*
G01*
X229299Y574899D01*
X167600Y636599D01*
X123400Y636599D01*
X86900Y673099D01*
X61900Y695599D01*
X110630Y530000D02*
G01*
X110630Y479369D01*
X119459Y470540D01*
X153069Y470540D01*
D19*
X120000Y380000D02*
G01*
X157743Y379989D01*
X386930Y379989D01*
D20*
G01*
X885412Y1187320D03*
G01*
X905097Y1187320D03*
G01*
X924782Y1187320D03*
G01*
X944467Y1187320D03*
G01*
X964152Y1187320D03*
G01*
X983837Y1187320D03*
G01*
X1003522Y1187320D03*
G01*
X1023207Y1187320D03*
G01*
X1042892Y1187320D03*
G01*
X1062577Y1187320D03*
G01*
X1082262Y1187320D03*
G01*
X1101947Y1187320D03*
G01*
X1121632Y1187320D03*
G01*
X1141317Y1187320D03*
G01*
X1161002Y1187320D03*
G01*
X1180687Y1187320D03*
G01*
X1200372Y1187320D03*
G01*
X1220057Y1187320D03*
G01*
X1239742Y1187320D03*
G01*
X1259427Y1187320D03*
G01*
X1279112Y1187320D03*
G01*
X1298797Y1187320D03*
G01*
X1318482Y1187320D03*
G01*
X1338167Y1187320D03*
D21*
G01*
X1405015Y1080960D03*
G01*
X818402Y1080960D03*
D22*
G01*
X1688355Y666928D03*
G01*
X1786756Y629528D03*
G01*
X1786756Y704328D03*
D23*
G01*
X153073Y289449D03*
G01*
X153073Y380000D03*
G01*
X153073Y470550D03*
D24*
G01*
X386930Y380000D03*
D25*
G01*
X475310Y338694D03*
G01*
X475310Y283576D03*
G01*
X1548107Y559211D03*
G01*
X1548107Y504093D03*
D26*
G01*
X475310Y416576D03*
G01*
X475310Y471693D03*
D27*
G01*
X430000Y550340D03*
D28*
G01*
X430000Y609655D03*
D26*
G01*
X681110Y255976D03*
G01*
X681110Y311094D03*
D25*
G01*
X905410Y584793D03*
G01*
X905410Y529675D03*
G01*
X1175610Y578894D03*
G01*
X1175610Y523776D03*
D27*
G01*
X761009Y452890D03*
D28*
G01*
X761011Y393579D03*
D29*
G01*
X919755Y238334D03*
G01*
X979066Y238334D03*
D27*
G01*
X1087709Y583189D03*
D28*
G01*
X1087710Y523879D03*
D27*
G01*
X830910Y585189D03*
D28*
G01*
X830911Y525879D03*
D27*
G01*
X1440000Y250340D03*
D28*
G01*
X1440000Y309655D03*
D30*
G01*
X904799Y299639D03*
G01*
X904799Y349639D03*
G01*
X904799Y399639D03*
G01*
X904799Y449639D03*
G01*
X1116019Y299639D03*
G01*
X1116019Y349639D03*
G01*
X1116019Y399639D03*
G01*
X1116019Y449639D03*
D31*
G01*
X684138Y648240D03*
G01*
X550280Y648240D03*
D32*
G01*
X181811Y960534D03*
G01*
X144411Y862135D03*
G01*
X219211Y862135D03*
D27*
G01*
X925110Y723290D03*
D28*
G01*
X925111Y663979D03*
D25*
G01*
X285411Y958194D03*
G01*
X285411Y903076D03*
D26*
G01*
X563208Y816681D03*
G01*
X563208Y871799D03*
G01*
X647608Y810780D03*
G01*
X647608Y865898D03*
D33*
G01*
X417652Y1141034D03*
G01*
X472770Y1141034D03*
D25*
G01*
X510811Y1068994D03*
G01*
X510811Y1013876D03*
G01*
X845111Y723794D03*
G01*
X845111Y668676D03*
G01*
X606297Y1202781D03*
G01*
X606297Y1147663D03*
D27*
G01*
X154810Y756390D03*
D28*
G01*
X154810Y697079D03*
D29*
G01*
X232855Y757835D03*
G01*
X292166Y757835D03*
D27*
G01*
X1020309Y721089D03*
D28*
G01*
X1020310Y661779D03*
D34*
G01*
X477030Y878540D03*
G01*
X477030Y803740D03*
G01*
X379787Y841139D03*
D35*
G01*
X337911Y1076956D03*
G01*
X412711Y1076956D03*
G01*
X375310Y979712D03*
D36*
G01*
X120790Y100000D03*
D37*
G01*
X219210Y100000D03*
D38*
G01*
X610000Y130000D03*
D39*
G01*
X710000Y130000D03*
G01*
X810000Y130000D03*
G01*
X910000Y130000D03*
G01*
X1010000Y130000D03*
G01*
X1110000Y130000D03*
G01*
X1210000Y130000D03*
G01*
X1310000Y130000D03*
D40*
G01*
X1300000Y290630D03*
G01*
X1300000Y369369D03*
D19*
G01*
X1530000Y264600D03*
G01*
X1530000Y215399D03*
G01*
X1630000Y524600D03*
G01*
X1630000Y475399D03*
D40*
G01*
X120000Y1350630D03*
G01*
X120000Y1429369D03*
G01*
X110630Y530000D03*
G01*
X189369Y530000D03*
D41*
G01*
X1726930Y1356729D03*
D42*
G01*
X1726930Y1256729D03*
G01*
X1726930Y1156729D03*
G01*
X1726930Y1056729D03*
G01*
X1726930Y956729D03*
D19*
G01*
X392910Y1245659D03*
G01*
X744009Y748640D03*
G01*
X1520789Y1090380D03*
G01*
X1515940Y1167779D03*
G01*
X1399679Y474039D03*
G01*
X1616210Y864549D03*
G01*
X1398810Y735140D03*
G01*
X1501409Y868040D03*
G01*
X1241509Y578440D03*
G01*
X133710Y1166140D03*
G01*
X607809Y1038040D03*
G01*
X556770Y1331129D03*
G01*
X468069Y1241399D03*
G01*
X517170Y1284279D03*
G01*
X1505709Y1228840D03*
G01*
X484450Y952899D03*
G01*
X1556009Y1045239D03*
G01*
X1467010Y790740D03*
G01*
X1275609Y518440D03*
G01*
X1346530Y693060D03*
G01*
X1479909Y436439D03*
G01*
X361810Y574940D03*
G01*
X531930Y515340D03*
G01*
X1503010Y1393739D03*
G01*
X379720Y722660D03*
G01*
X365610Y901540D03*
G01*
X447010Y665340D03*
G01*
X795709Y696140D03*
G01*
X1770000Y70000D03*
M02*
